<?xml version="1.0" encoding="UTF-8"?>
<svg width="2040px" height="1302px" viewBox="0 0 2040 1302" version="1.1" xmlns="http://www.w3.org/2000/svg" xmlns:xlink="http://www.w3.org/1999/xlink">
    <!-- Generator: Sketch 55.2 (78181) - https://sketchapp.com -->
    <title>33</title>
    <desc>Created with Sketch.</desc>
    <defs>
        <linearGradient x1="0%" y1="95.6095941%" x2="0%" y2="95.6095941%" id="linearGradient-1">
            <stop stop-color="#F5FEFF" offset="0%"></stop>
            <stop stop-color="#E8EFFC" offset="100%"></stop>
        </linearGradient>
    </defs>
    <g id="Page-1" stroke="none" stroke-width="1" fill="none" fill-rule="evenodd">
        <g id="33" fill="url(#linearGradient-1)">
            <path d="M0,1301.58 C20.644,1181.66 629.035,1347 733.469,1032.68 C837.903,718.36 1244.71,887.325 1515.51,1007.69 C1786.31,1128.055 1961.18,954.55 1961.18,954.55 C1961.18,954.55 2138.48,-105.607 1961.18,8.857 C1783.88,123.321 1699.15,139.219 1396.51,37.927 C1093.87,-63.365 943.553,66.089 903.479,104.7 C823.1,182.144 806.161,306.192 811.188,352.25 C822.244,453.542 725.576,651.129 482.098,622.967 C238.62,594.805 20.644,464.9 20.644,464.9" id="Path_22"></path>
        </g>
    </g>
</svg>