<?xml version="1.0" encoding="UTF-8"?>
<svg width="1500px" height="811px" viewBox="0 0 1500 811" version="1.1" xmlns="http://www.w3.org/2000/svg" xmlns:xlink="http://www.w3.org/1999/xlink">
    <!-- Generator: Sketch 55.2 (78181) - https://sketchapp.com -->
    <title>35</title>
    <desc>Created with Sketch.</desc>
    <g id="Page-1" stroke="none" stroke-width="1" fill="none" fill-rule="evenodd">
        <g id="35">
            <path d="M1500,215.72 C1349.65,215.72 1351.39,225.72 1120.63,71.38 C889.87,-82.96 837.22,58.39 825.72,88.37 C814.22,118.35 802.73,170.83 791.74,224.3 C780.75,277.77 768.24,401.71 667.28,435.69 C566.32,469.67 409.36,371.23 281.41,463.18 C153.46,555.13 272.91,789.51 151.45,798.51 C29.99,807.51 0,810.5 0,810.5" id="Path_26" stroke="#D4E0F6"></path>
            <path d="M991,89.75 C924.08,70.35 911,139.5 911,139.5" id="Path_27" stroke="#D9DDEE"></path>
            <path d="M681,302.5 C666.42,367.95 588,354.07 588,354.07" id="Path_34" stroke="#D9E5F0"></path>
        </g>
    </g>
</svg>