<?xml version="1.0" encoding="UTF-8"?>
<svg width="32px" height="32px" viewBox="0 0 32 32" version="1.1" xmlns="http://www.w3.org/2000/svg" xmlns:xlink="http://www.w3.org/1999/xlink">
    <!-- Generator: sketchtool 53 (72520) - https://sketchapp.com -->
    <title>B4DE7519-0007-484B-A9DF-D05133F90CD7</title>
    <desc>Created with sketchtool.</desc>
    <defs>
        <linearGradient x1="67.8131873%" y1="0%" x2="6.66193047%" y2="100%" id="linearGradient-1">
            <stop stop-color="#FFEADB" offset="0%"></stop>
            <stop stop-color="#FACED7" offset="100%"></stop>
        </linearGradient>
    </defs>
    <g id="Page-1" stroke="none" stroke-width="1" fill="none" fill-rule="evenodd">
        <g id="01_Index-v2" transform="translate(-228.000000, -407.000000)" fill-rule="nonzero">
            <g id="Group-14" transform="translate(228.000000, 391.000000)">
                <g id="Check-5" transform="translate(0.000000, 16.000000)">
                    <circle id="Oval" fill="url(#linearGradient-1)" cx="16" cy="16" r="16"></circle>
                    <path d="M18,10.5222927 C18,9.97000796 18.4477153,9.52229271 19,9.52229271 C19.5522847,9.52229271 20,9.97000796 20,10.5222927 L20,18.5222927 C20,19.0745775 19.5522847,19.5222927 19,19.5222927 L14,19.5222927 C13.4477153,19.5222927 13,19.0745775 13,18.5222927 C13,17.970008 13.4477153,17.5222927 14,17.5222927 L18,17.5222927 L18,10.5222927 Z" id="Path" fill="#F0647A" transform="translate(16.500000, 14.522293) rotate(-315.000000) translate(-16.500000, -14.522293) "></path>
                </g>
            </g>
        </g>
    </g>
</svg>