<?xml version="1.0" encoding="UTF-8"?>
<svg width="32px" height="32px" viewBox="0 0 32 32" version="1.1" xmlns="http://www.w3.org/2000/svg" xmlns:xlink="http://www.w3.org/1999/xlink">
    <!-- Generator: sketchtool 53 (72520) - https://sketchapp.com -->
    <title>7BFD4580-D862-4FA4-AB25-0F0B1A0F130C</title>
    <desc>Created with sketchtool.</desc>
    <defs>
        <linearGradient x1="21.5188281%" y1="92.5918865%" x2="70.4057443%" y2="-8.05897386%" id="linearGradient-1">
            <stop stop-color="#C6E7ED" offset="0%"></stop>
            <stop stop-color="#E7F9E6" offset="100%"></stop>
        </linearGradient>
    </defs>
    <g id="Page-1" stroke="none" stroke-width="1" fill="none" fill-rule="evenodd">
        <g id="01_Index-v2" transform="translate(-1338.000000, -391.000000)" fill-rule="nonzero">
            <g id="Group-14" transform="translate(228.000000, 391.000000)">
                <g id="Lock-4" transform="translate(1110.000000, 0.000000)">
                    <circle id="Oval" fill="url(#linearGradient-1)" cx="16" cy="16" r="16"></circle>
                    <g id="Group-11" transform="translate(9.500000, 8.000000)" fill="#49B4C0">
                        <path d="M1.60235995,6.98536025 L1.60235995,12.9853602 L11.6023599,12.9853602 L11.6023599,6.98536025 L1.60235995,6.98536025 Z M1.60235995,4.98536025 L11.6023599,4.98536025 C12.7069294,4.98536025 13.6023599,5.88079075 13.6023599,6.98536025 L13.6023599,12.9853602 C13.6023599,14.0899297 12.7069294,14.9853602 11.6023599,14.9853602 L1.60235995,14.9853602 C0.497790446,14.9853602 -0.397640054,14.0899297 -0.397640054,12.9853602 L-0.397640054,6.98536025 C-0.397640054,5.88079075 0.497790446,4.98536025 1.60235995,4.98536025 Z" id="Rectangle"></path>
                        <path d="M4.60235995,5.98536025 C4.60235995,6.537645 4.1546447,6.98536025 3.60235995,6.98536025 C3.0500752,6.98536025 2.60235995,6.537645 2.60235995,5.98536025 L2.60235995,3.26802193 C2.60235995,1.05888293 4.39322095,-0.731978073 6.60235995,-0.731978073 C8.81149895,-0.731978073 10.6023599,1.05888293 10.6023599,3.26802193 L10.6023599,5.98536025 C10.6023599,6.537645 10.1546447,6.98536025 9.60235995,6.98536025 C9.0500752,6.98536025 8.60235995,6.537645 8.60235995,5.98536025 L8.60235995,3.26802193 C8.60235995,2.16345243 7.70692945,1.26802193 6.60235995,1.26802193 C5.49779045,1.26802193 4.60235995,2.16345243 4.60235995,3.26802193 L4.60235995,5.98536025 Z" id="Path"></path>
                    </g>
                </g>
            </g>
        </g>
    </g>
</svg>