<svg xmlns="http://www.w3.org/2000/svg" width="51" height="51" viewBox="0 0 51 51">
  <defs>
    <style>
      .cls-1 {
        fill: #17db84;
      }

      .cls-1, .cls-2 {
        fill-rule: evenodd;
      }

      .cls-2 {
        fill: #07e1a3;
      }
    </style>
  </defs>
  <path id="Fill_1" data-name="Fill 1" class="cls-1" d="M497.215,3971.07a3.033,3.033,0,1,0,3.713,2.15,3.033,3.033,0,0,0-3.713-2.15m-0.767-2.86a5.994,5.994,0,1,0,7.346,4.24,5.988,5.988,0,0,0-7.346-4.24" transform="translate(-471 -3948)"/>
  <path id="Fill_3" data-name="Fill 3" class="cls-2" d="M487.214,3951.08a1.6,1.6,0,1,1-2.24-.31,1.6,1.6,0,0,1,2.24.31h0Zm-9.99,7.65a1.6,1.6,0,1,1-2.094.85,1.592,1.592,0,0,1,2.094-.85h0Zm-4.826,11.6a1.6,1.6,0,1,1-1.385,1.79,1.611,1.611,0,0,1,1.385-1.79h0Zm-0.807,7.11,0.011-.02,0-.01,0.013-.02,0.018-.03,0-.01h0l0.016-.03h0l0.016-.03h0l0.014-.02,0-.01,0.015-.02h0l0.013-.02,0-.01,0.014-.02h0l0.018-.03h0l0.021-.03h0l0.022-.02,0-.01,0.018-.02h0l0.017-.02h0l0.011-.01,0.012-.01,0.015-.02,0.008-.01,0.02-.02h0l0.025-.03h0l0.025-.02h0l0.022-.02h0.007l0-.01,0.024-.02h0.009l0.021-.02h0l0.01-.01,0.022-.02h0.005l0.028-.02h0l0.027-.02h0l0.026-.01,0.008-.01,0.01-.01,0.019-.01h0.011l0.027-.02h0l0.024-.01,0.05-.03,0.032-.01h0l0.03-.01,0.024-.01,0.01-.01h0.011l0.021-.01h0.018l0.006-.01,0.026-.01h0.017l0.028-.01h0.006l0.035-.01a1.6,1.6,0,0,1,1.955,1.13h0v0.01h0v0.01h0v0.01h0v0.01h0l0,0.02c-0.021-.11-0.041-0.22-0.061-0.33,0.11,0.62.247,1.23,0.407,1.82h0a22.478,22.478,0,0,0,1.59,4.2c0.051,0.1.1,0.2,0.156,0.3l0.061,0.12a22.438,22.438,0,0,0,5.681,6.92l0.094,0.07,0.257,0.21c0.069,0.05.14,0.11,0.211,0.16l0.161,0.12a22.458,22.458,0,0,0,8.606,3.92l0.133,0.03,0.281,0.06,0.3,0.06h0.056a21.764,21.764,0,0,0,3.979.36,22.066,22.066,0,0,0,2.713-.17,1.3,1.3,0,0,0,.2-0.02l0.215-.03a20.87,20.87,0,0,0,2.653-.54,22.48,22.48,0,0,0,3.687-1.34l0.07-.03c0.113-.06.226-0.11,0.34-0.17a2.024,2.024,0,0,0,.218-0.11l0.175-.09c0.124-.06.246-0.12,0.369-0.19h0.008a22.372,22.372,0,0,0,6.911-5.84q0.1-.12.189-0.24c0.038-.05.078-0.1,0.115-0.15a22.375,22.375,0,0,0,3.95-8.61l0.037-.17c0.018-.09.036-0.17,0.051-0.26,0.025-.11.048-0.23,0.07-0.35l0.016-.1a22.414,22.414,0,0,0,.175-6.59c-0.008-.07-0.016-0.14-0.023-0.21s-0.021-.14-0.031-0.21a22.049,22.049,0,0,0-.542-2.65,22.615,22.615,0,0,0-1.3-3.59l-0.032-.06c-0.055-.13-0.114-0.25-0.173-0.37-0.039-.08-0.076-0.15-0.113-0.23-0.035-.06-0.068-0.13-0.1-0.2-0.068-.13-0.137-0.26-0.206-0.39l-0.016-.03a22.343,22.343,0,0,0-14.695-11.11l-0.121-.03c-0.119-.02-0.239-0.05-0.357-0.07a22.51,22.51,0,0,0-4.451-.45h0a22.363,22.363,0,0,0-4.646.49l0.287-.06a1.536,1.536,0,0,1-.641-0.02h0a1.691,1.691,0,0,1-.648-0.32l0-.01h-0.009s0,0,0-.01l-0.011-.01h0l-0.028-.02c-0.037-.04-0.072-0.07-0.1-0.11h-0.008v-0.01h-0.006l0-.01h-0.009v-0.01h-0.007l0-.01h-0.006l-0.009-.01v-0.01h0l-0.011-.01H490.61v-0.01h0l0-.01H490.6v-0.01h-0.007l0-.01h0l0-.01h0a1.78,1.78,0,0,1-.179-0.31l-0.011-.02-0.019-.05-0.013-.03,0-.01h0l-0.012-.04-0.011-.03,0-.01-0.011-.04a1.592,1.592,0,0,1,1.13-1.95,18.078,18.078,0,0,1,6.154-.47,25.509,25.509,0,0,1,24.149,21.89c0.01,0.08.022,0.16,0.032,0.24s0.021,0.15.028,0.23a25.235,25.235,0,0,1-.2,7.53l-0.021.12c-0.025.13-.051,0.27-0.076,0.4-0.019.09-.039,0.19-0.059,0.29-0.016.07-.031,0.14-0.046,0.21-0.034.16-.07,0.31-0.107,0.47v0.01a25.4,25.4,0,0,1-4.4,9.34,1.961,1.961,0,0,1-.12.16l-0.227.3a25.429,25.429,0,0,1-7.9,6.66h-0.006c-0.144.08-.288,0.15-0.431,0.23l-0.184.09c-0.087.05-.178,0.09-0.265,0.14l-0.375.18-0.093.04a25.273,25.273,0,0,1-7.244,2.15l-0.232.03-0.235.03a25.639,25.639,0,0,1-7.535-.2l-0.118-.02c-0.118-.02-0.235-0.04-0.353-0.07l-0.308-.06-0.2-.04a25.354,25.354,0,0,1-9.337-4.12l-0.092-.07-0.293-.21c-0.074-.05-0.148-0.11-0.222-0.16l-0.022-.02a25.355,25.355,0,0,1-7.831-9.76c-0.036-.08-0.072-0.16-0.106-0.24-0.026-.06-0.052-0.11-0.077-0.17-0.063-.15-0.126-0.3-0.186-0.44l-0.027-.07a25.107,25.107,0,0,1-1.364-4.46c-0.017-.05-0.031-0.09-0.044-0.14a1.607,1.607,0,0,1-.045-0.58h0c0-.02,0-0.04.009-0.06v-0.01l0.005-.03h0l0-.03h0l0.005-.03v-0.01l0.009-.03h0l0.008-.03,0.007-.03h0l0-.02,0.008-.02,0-.01,0-.02h0l0.009-.03,0.008-.02,0-.01,0.012-.03h0l0.013-.03v-0.01l0.013-.02h0c0.008-.02.016-0.04,0.026-0.06h0Z" transform="translate(-471 -3948)"/>
  <path id="Fill_5" data-name="Fill 5" class="cls-2" d="M486.4,3976.69a11.689,11.689,0,0,1,8.13-14.29,11.482,11.482,0,0,1,14.081,8.25,11.684,11.684,0,0,1-7.967,14.24,1.363,1.363,0,0,1-.534.11,1.462,1.462,0,0,1-.242-2.9,8.777,8.777,0,0,0,5.981-10.7,8.634,8.634,0,0,0-10.579-6.2,8.789,8.789,0,0,0-6.167,10.51,1.471,1.471,0,0,1,.136.62,1.435,1.435,0,0,1-2.83.36H486.4Z" transform="translate(-471 -3948)"/>
  <path id="Fill_7" data-name="Fill 7" class="cls-2" d="M492.94,3958.6a14.765,14.765,0,0,1,18.115,10.75,1.486,1.486,0,1,0,2.839-.83c-2.609-9.75-12.3-15.51-21.717-12.89-9.48,2.64-15.108,12.77-12.567,22.62,2.524,9.79,12.172,15.63,21.6,13.11a1.548,1.548,0,0,0-.215-3.07,1.463,1.463,0,0,0-.517.09,14.768,14.768,0,0,1-18.015-10.92c-2.12-8.22,2.572-16.66,10.478-18.86" transform="translate(-471 -3948)"/>
</svg>
