<svg id="_-e-Dot_Feature" data-name="-e-Dot Feature" xmlns="http://www.w3.org/2000/svg" width="280" height="448" viewBox="0 0 280 448">
  <defs>
    <style>
      .cls-1, .cls-2 {
        fill: #bec8d1;
      }

      .cls-2 {
        fill-rule: evenodd;
      }
    </style>
  </defs>
  <circle id="Oval" class="cls-1" cx="274.672" cy="292.45" r="0.891"/>
  <circle id="Oval-2" data-name="Oval" class="cls-1" cx="255.11" cy="292.45" r="0.891"/>
  <circle id="Oval-3" data-name="Oval" class="cls-1" cx="235.547" cy="292.45" r="0.891"/>
  <path id="Oval-4" data-name="Oval" class="cls-2" d="M389,1789.56a0.885,0.885,0,1,0,.889.88A0.882,0.882,0,0,0,389,1789.56Z" transform="translate(-173 -1498)"/>
  <circle id="Oval-5" data-name="Oval" class="cls-1" cx="196.453" cy="292.45" r="0.891"/>
  <path id="Oval-6" data-name="Oval" class="cls-2" d="M349.889,1789.56a0.885,0.885,0,1,0,.889.88A0.882,0.882,0,0,0,349.889,1789.56Z" transform="translate(-173 -1498)"/>
  <circle id="Oval-7" data-name="Oval" class="cls-1" cx="157.328" cy="292.45" r="0.891"/>
  <circle id="Oval-8" data-name="Oval" class="cls-1" cx="137.765" cy="292.45" r="0.891"/>
  <circle id="Oval-9" data-name="Oval" class="cls-1" cx="118.235" cy="292.45" r="0.891"/>
  <circle id="Oval-10" data-name="Oval" class="cls-1" cx="98.672" cy="292.45" r="0.891"/>
  <circle id="Oval-11" data-name="Oval" class="cls-1" cx="79.109" cy="292.45" r="0.891"/>
  <circle id="Oval-12" data-name="Oval" class="cls-1" cx="59.547" cy="292.45" r="0.891"/>
  <path id="Oval-13" data-name="Oval" class="cls-2" d="M213,1789.56a0.885,0.885,0,1,0,.889.88A0.882,0.882,0,0,0,213,1789.56Z" transform="translate(-173 -1498)"/>
  <circle id="Oval-14" data-name="Oval" class="cls-1" cx="20.453" cy="292.45" r="0.891"/>
  <path id="Oval-15" data-name="Oval" class="cls-2" d="M173.889,1789.56a0.885,0.885,0,1,0,.889.88A0.882,0.882,0,0,0,173.889,1789.56Z" transform="translate(-173 -1498)"/>
  <path id="Oval-16" data-name="Oval" class="cls-2" d="M447.667,1770a0.89,0.89,0,1,0,.888.89A0.89,0.89,0,0,0,447.667,1770Z" transform="translate(-173 -1498)"/>
  <path id="Oval-17" data-name="Oval" class="cls-2" d="M428.111,1770a0.89,0.89,0,1,0,.889.89A0.89,0.89,0,0,0,428.111,1770Z" transform="translate(-173 -1498)"/>
  <path id="Oval-18" data-name="Oval" class="cls-2" d="M408.555,1770a0.89,0.89,0,1,0,.889.89A0.89,0.89,0,0,0,408.555,1770Z" transform="translate(-173 -1498)"/>
  <circle id="Oval-19" data-name="Oval" class="cls-1" cx="216" cy="272.89" r="0.875"/>
  <path id="Oval-20" data-name="Oval" class="cls-2" d="M369.444,1770a0.89,0.89,0,1,0,.889.89A0.89,0.89,0,0,0,369.444,1770Z" transform="translate(-173 -1498)"/>
  <circle id="Oval-21" data-name="Oval" class="cls-1" cx="176.89" cy="272.89" r="0.891"/>
  <path id="Oval-22" data-name="Oval" class="cls-2" d="M330.333,1770a0.89,0.89,0,1,0,.889.89A0.89,0.89,0,0,0,330.333,1770Z" transform="translate(-173 -1498)"/>
  <path id="Oval-23" data-name="Oval" class="cls-2" d="M310.778,1770a0.89,0.89,0,1,0,.889.89A0.89,0.89,0,0,0,310.778,1770Z" transform="translate(-173 -1498)"/>
  <path id="Oval-24" data-name="Oval" class="cls-2" d="M291.222,1770a0.89,0.89,0,1,0,.889.89A0.89,0.89,0,0,0,291.222,1770Z" transform="translate(-173 -1498)"/>
  <path id="Oval-25" data-name="Oval" class="cls-2" d="M271.667,1770a0.89,0.89,0,1,0,.888.89A0.89,0.89,0,0,0,271.667,1770Z" transform="translate(-173 -1498)"/>
  <path id="Oval-26" data-name="Oval" class="cls-2" d="M252.111,1770a0.89,0.89,0,1,0,.889.89A0.89,0.89,0,0,0,252.111,1770Z" transform="translate(-173 -1498)"/>
  <path id="Oval-27" data-name="Oval" class="cls-2" d="M232.555,1770a0.89,0.89,0,1,0,.889.89A0.89,0.89,0,0,0,232.555,1770Z" transform="translate(-173 -1498)"/>
  <circle id="Oval-28" data-name="Oval" class="cls-1" cx="40" cy="272.89" r="0.875"/>
  <path id="Oval-29" data-name="Oval" class="cls-2" d="M193.444,1770a0.89,0.89,0,1,0,.889.89A0.891,0.891,0,0,0,193.444,1770Z" transform="translate(-173 -1498)"/>
  <circle id="Oval-30" data-name="Oval" class="cls-1" cx="0.891" cy="272.89" r="0.891"/>
  <circle id="Oval-31" data-name="Oval" class="cls-1" cx="274.672" cy="253.33" r="0.891"/>
  <circle id="Oval-32" data-name="Oval" class="cls-1" cx="255.11" cy="253.33" r="0.891"/>
  <circle id="Oval-33" data-name="Oval" class="cls-1" cx="235.547" cy="253.33" r="0.891"/>
  <path id="Oval-34" data-name="Oval" class="cls-2" d="M389,1750.44a0.89,0.89,0,1,0,.889.89A0.89,0.89,0,0,0,389,1750.44Z" transform="translate(-173 -1498)"/>
  <circle id="Oval-35" data-name="Oval" class="cls-1" cx="196.453" cy="253.33" r="0.891"/>
  <path id="Oval-36" data-name="Oval" class="cls-2" d="M349.889,1750.44a0.89,0.89,0,1,0,.889.89A0.89,0.89,0,0,0,349.889,1750.44Z" transform="translate(-173 -1498)"/>
  <circle id="Oval-37" data-name="Oval" class="cls-1" cx="157.328" cy="253.33" r="0.891"/>
  <circle id="Oval-38" data-name="Oval" class="cls-1" cx="137.765" cy="253.33" r="0.891"/>
  <circle id="Oval-39" data-name="Oval" class="cls-1" cx="118.235" cy="253.33" r="0.891"/>
  <circle id="Oval-40" data-name="Oval" class="cls-1" cx="98.672" cy="253.33" r="0.891"/>
  <circle id="Oval-41" data-name="Oval" class="cls-1" cx="79.109" cy="253.33" r="0.891"/>
  <circle id="Oval-42" data-name="Oval" class="cls-1" cx="59.547" cy="253.33" r="0.891"/>
  <path id="Oval-43" data-name="Oval" class="cls-2" d="M213,1750.44a0.89,0.89,0,1,0,.889.89A0.89,0.89,0,0,0,213,1750.44Z" transform="translate(-173 -1498)"/>
  <circle id="Oval-44" data-name="Oval" class="cls-1" cx="20.453" cy="253.33" r="0.891"/>
  <path id="Oval-45" data-name="Oval" class="cls-2" d="M173.889,1750.44a0.89,0.89,0,1,0,.889.89A0.89,0.89,0,0,0,173.889,1750.44Z" transform="translate(-173 -1498)"/>
  <circle id="Oval-46" data-name="Oval" class="cls-1" cx="274.672" cy="233.77" r="0.891"/>
  <circle id="Oval-47" data-name="Oval" class="cls-1" cx="255.11" cy="233.77" r="0.891"/>
  <circle id="Oval-48" data-name="Oval" class="cls-1" cx="235.547" cy="233.77" r="0.891"/>
  <path id="Oval-49" data-name="Oval" class="cls-2" d="M389,1730.89a0.89,0.89,0,1,0,.889.89A0.89,0.89,0,0,0,389,1730.89Z" transform="translate(-173 -1498)"/>
  <circle id="Oval-50" data-name="Oval" class="cls-1" cx="196.453" cy="233.77" r="0.891"/>
  <path id="Oval-51" data-name="Oval" class="cls-2" d="M349.889,1730.89a0.89,0.89,0,1,0,.889.89A0.89,0.89,0,0,0,349.889,1730.89Z" transform="translate(-173 -1498)"/>
  <circle id="Oval-52" data-name="Oval" class="cls-1" cx="157.328" cy="233.77" r="0.891"/>
  <circle id="Oval-53" data-name="Oval" class="cls-1" cx="137.765" cy="233.77" r="0.891"/>
  <circle id="Oval-54" data-name="Oval" class="cls-1" cx="118.235" cy="233.77" r="0.891"/>
  <circle id="Oval-55" data-name="Oval" class="cls-1" cx="98.672" cy="233.77" r="0.891"/>
  <circle id="Oval-56" data-name="Oval" class="cls-1" cx="79.109" cy="233.77" r="0.891"/>
  <circle id="Oval-57" data-name="Oval" class="cls-1" cx="59.547" cy="233.77" r="0.891"/>
  <path id="Oval-58" data-name="Oval" class="cls-2" d="M213,1730.89a0.89,0.89,0,1,0,.889.89A0.89,0.89,0,0,0,213,1730.89Z" transform="translate(-173 -1498)"/>
  <circle id="Oval-59" data-name="Oval" class="cls-1" cx="20.453" cy="233.77" r="0.891"/>
  <path id="Oval-60" data-name="Oval" class="cls-2" d="M173.889,1730.89a0.89,0.89,0,1,0,.889.89A0.89,0.89,0,0,0,173.889,1730.89Z" transform="translate(-173 -1498)"/>
  <circle id="Oval-61" data-name="Oval" class="cls-1" cx="274.672" cy="214.235" r="0.891"/>
  <circle id="Oval-62" data-name="Oval" class="cls-1" cx="255.11" cy="214.235" r="0.891"/>
  <circle id="Oval-63" data-name="Oval" class="cls-1" cx="235.547" cy="214.235" r="0.891"/>
  <path id="Oval-64" data-name="Oval" class="cls-2" d="M389,1711.33a0.89,0.89,0,1,0,.889.89A0.89,0.89,0,0,0,389,1711.33Z" transform="translate(-173 -1498)"/>
  <circle id="Oval-65" data-name="Oval" class="cls-1" cx="196.453" cy="214.235" r="0.891"/>
  <path id="Oval-66" data-name="Oval" class="cls-2" d="M349.889,1711.33a0.89,0.89,0,1,0,.889.89A0.89,0.89,0,0,0,349.889,1711.33Z" transform="translate(-173 -1498)"/>
  <circle id="Oval-67" data-name="Oval" class="cls-1" cx="157.328" cy="214.235" r="0.891"/>
  <circle id="Oval-68" data-name="Oval" class="cls-1" cx="137.765" cy="214.235" r="0.891"/>
  <circle id="Oval-69" data-name="Oval" class="cls-1" cx="118.235" cy="214.235" r="0.891"/>
  <circle id="Oval-70" data-name="Oval" class="cls-1" cx="98.672" cy="214.235" r="0.891"/>
  <circle id="Oval-71" data-name="Oval" class="cls-1" cx="79.109" cy="214.235" r="0.891"/>
  <circle id="Oval-72" data-name="Oval" class="cls-1" cx="59.547" cy="214.235" r="0.891"/>
  <path id="Oval-73" data-name="Oval" class="cls-2" d="M213,1711.33a0.89,0.89,0,1,0,.889.89A0.89,0.89,0,0,0,213,1711.33Z" transform="translate(-173 -1498)"/>
  <circle id="Oval-74" data-name="Oval" class="cls-1" cx="20.453" cy="214.235" r="0.891"/>
  <path id="Oval-75" data-name="Oval" class="cls-2" d="M173.889,1711.33a0.89,0.89,0,1,0,.889.89A0.89,0.89,0,0,0,173.889,1711.33Z" transform="translate(-173 -1498)"/>
  <circle id="Oval-76" data-name="Oval" class="cls-1" cx="274.672" cy="194.67" r="0.891"/>
  <circle id="Oval-77" data-name="Oval" class="cls-1" cx="255.11" cy="194.67" r="0.891"/>
  <circle id="Oval-78" data-name="Oval" class="cls-1" cx="235.547" cy="194.67" r="0.891"/>
  <path id="Oval-79" data-name="Oval" class="cls-2" d="M389,1691.78a0.89,0.89,0,1,0,.889.89A0.89,0.89,0,0,0,389,1691.78Z" transform="translate(-173 -1498)"/>
  <circle id="Oval-80" data-name="Oval" class="cls-1" cx="196.453" cy="194.67" r="0.891"/>
  <path id="Oval-81" data-name="Oval" class="cls-2" d="M349.889,1691.78a0.89,0.89,0,1,0,.889.89A0.89,0.89,0,0,0,349.889,1691.78Z" transform="translate(-173 -1498)"/>
  <circle id="Oval-82" data-name="Oval" class="cls-1" cx="157.328" cy="194.67" r="0.891"/>
  <circle id="Oval-83" data-name="Oval" class="cls-1" cx="137.765" cy="194.67" r="0.891"/>
  <circle id="Oval-84" data-name="Oval" class="cls-1" cx="118.235" cy="194.67" r="0.891"/>
  <circle id="Oval-85" data-name="Oval" class="cls-1" cx="98.672" cy="194.67" r="0.891"/>
  <circle id="Oval-86" data-name="Oval" class="cls-1" cx="79.109" cy="194.67" r="0.891"/>
  <circle id="Oval-87" data-name="Oval" class="cls-1" cx="59.547" cy="194.67" r="0.891"/>
  <path id="Oval-88" data-name="Oval" class="cls-2" d="M213,1691.78a0.89,0.89,0,1,0,.889.89A0.89,0.89,0,0,0,213,1691.78Z" transform="translate(-173 -1498)"/>
  <circle id="Oval-89" data-name="Oval" class="cls-1" cx="20.453" cy="194.67" r="0.891"/>
  <path id="Oval-90" data-name="Oval" class="cls-2" d="M173.889,1691.78a0.89,0.89,0,1,0,.889.89A0.89,0.89,0,0,0,173.889,1691.78Z" transform="translate(-173 -1498)"/>
  <circle id="Oval-91" data-name="Oval" class="cls-1" cx="274.672" cy="175.11" r="0.891"/>
  <circle id="Oval-92" data-name="Oval" class="cls-1" cx="255.11" cy="175.11" r="0.891"/>
  <circle id="Oval-93" data-name="Oval" class="cls-1" cx="235.547" cy="175.11" r="0.891"/>
  <path id="Oval-94" data-name="Oval" class="cls-2" d="M389,1672.22a0.89,0.89,0,1,0,.889.89A0.89,0.89,0,0,0,389,1672.22Z" transform="translate(-173 -1498)"/>
  <circle id="Oval-95" data-name="Oval" class="cls-1" cx="196.453" cy="175.11" r="0.891"/>
  <path id="Oval-96" data-name="Oval" class="cls-2" d="M349.889,1672.22a0.89,0.89,0,1,0,.889.89A0.89,0.89,0,0,0,349.889,1672.22Z" transform="translate(-173 -1498)"/>
  <circle id="Oval-97" data-name="Oval" class="cls-1" cx="157.328" cy="175.11" r="0.891"/>
  <circle id="Oval-98" data-name="Oval" class="cls-1" cx="137.765" cy="175.11" r="0.891"/>
  <circle id="Oval-99" data-name="Oval" class="cls-1" cx="118.235" cy="175.11" r="0.891"/>
  <circle id="Oval-100" data-name="Oval" class="cls-1" cx="98.672" cy="175.11" r="0.891"/>
  <circle id="Oval-101" data-name="Oval" class="cls-1" cx="79.109" cy="175.11" r="0.891"/>
  <circle id="Oval-102" data-name="Oval" class="cls-1" cx="59.547" cy="175.11" r="0.891"/>
  <path id="Oval-103" data-name="Oval" class="cls-2" d="M213,1672.22a0.89,0.89,0,1,0,.889.89A0.89,0.89,0,0,0,213,1672.22Z" transform="translate(-173 -1498)"/>
  <circle id="Oval-104" data-name="Oval" class="cls-1" cx="20.453" cy="175.11" r="0.891"/>
  <path id="Oval-105" data-name="Oval" class="cls-2" d="M173.889,1672.22a0.89,0.89,0,1,0,.889.89A0.89,0.89,0,0,0,173.889,1672.22Z" transform="translate(-173 -1498)"/>
  <circle id="Oval-106" data-name="Oval" class="cls-1" cx="274.672" cy="155.55" r="0.891"/>
  <circle id="Oval-107" data-name="Oval" class="cls-1" cx="255.11" cy="155.55" r="0.891"/>
  <circle id="Oval-108" data-name="Oval" class="cls-1" cx="235.547" cy="155.55" r="0.891"/>
  <path id="Oval-109" data-name="Oval" class="cls-2" d="M389,1652.67a0.885,0.885,0,1,0,.889.89A0.884,0.884,0,0,0,389,1652.67Z" transform="translate(-173 -1498)"/>
  <circle id="Oval-110" data-name="Oval" class="cls-1" cx="196.453" cy="155.55" r="0.891"/>
  <path id="Oval-111" data-name="Oval" class="cls-2" d="M349.889,1652.67a0.885,0.885,0,1,0,.889.89A0.884,0.884,0,0,0,349.889,1652.67Z" transform="translate(-173 -1498)"/>
  <circle id="Oval-112" data-name="Oval" class="cls-1" cx="157.328" cy="155.55" r="0.891"/>
  <circle id="Oval-113" data-name="Oval" class="cls-1" cx="137.765" cy="155.55" r="0.891"/>
  <circle id="Oval-114" data-name="Oval" class="cls-1" cx="118.235" cy="155.55" r="0.891"/>
  <circle id="Oval-115" data-name="Oval" class="cls-1" cx="98.672" cy="155.55" r="0.891"/>
  <circle id="Oval-116" data-name="Oval" class="cls-1" cx="79.109" cy="155.55" r="0.891"/>
  <circle id="Oval-117" data-name="Oval" class="cls-1" cx="59.547" cy="155.55" r="0.891"/>
  <path id="Oval-118" data-name="Oval" class="cls-2" d="M213,1652.67a0.885,0.885,0,1,0,.889.89A0.884,0.884,0,0,0,213,1652.67Z" transform="translate(-173 -1498)"/>
  <circle id="Oval-119" data-name="Oval" class="cls-1" cx="20.453" cy="155.55" r="0.891"/>
  <path id="Oval-120" data-name="Oval" class="cls-2" d="M173.889,1652.67a0.885,0.885,0,1,0,.889.89A0.884,0.884,0,0,0,173.889,1652.67Z" transform="translate(-173 -1498)"/>
  <circle id="Oval-121" data-name="Oval" class="cls-1" cx="274.672" cy="137.77" r="0.891"/>
  <circle id="Oval-122" data-name="Oval" class="cls-1" cx="255.11" cy="137.77" r="0.891"/>
  <circle id="Oval-123" data-name="Oval" class="cls-1" cx="235.547" cy="137.77" r="0.891"/>
  <path id="Oval-124" data-name="Oval" class="cls-2" d="M389,1634.89a0.89,0.89,0,1,0,.889.89A0.89,0.89,0,0,0,389,1634.89Z" transform="translate(-173 -1498)"/>
  <circle id="Oval-125" data-name="Oval" class="cls-1" cx="196.453" cy="137.77" r="0.891"/>
  <path id="Oval-126" data-name="Oval" class="cls-2" d="M349.889,1634.89a0.89,0.89,0,1,0,.889.89A0.89,0.89,0,0,0,349.889,1634.89Z" transform="translate(-173 -1498)"/>
  <circle id="Oval-127" data-name="Oval" class="cls-1" cx="157.328" cy="137.77" r="0.891"/>
  <circle id="Oval-128" data-name="Oval" class="cls-1" cx="137.765" cy="137.77" r="0.891"/>
  <circle id="Oval-129" data-name="Oval" class="cls-1" cx="118.235" cy="137.77" r="0.891"/>
  <circle id="Oval-130" data-name="Oval" class="cls-1" cx="98.672" cy="137.77" r="0.891"/>
  <circle id="Oval-131" data-name="Oval" class="cls-1" cx="79.109" cy="137.77" r="0.891"/>
  <circle id="Oval-132" data-name="Oval" class="cls-1" cx="59.547" cy="137.77" r="0.891"/>
  <path id="Oval-133" data-name="Oval" class="cls-2" d="M213,1634.89a0.89,0.89,0,1,0,.889.89A0.89,0.89,0,0,0,213,1634.89Z" transform="translate(-173 -1498)"/>
  <circle id="Oval-134" data-name="Oval" class="cls-1" cx="20.453" cy="137.77" r="0.891"/>
  <path id="Oval-135" data-name="Oval" class="cls-2" d="M173.889,1634.89a0.89,0.89,0,1,0,.889.89A0.89,0.89,0,0,0,173.889,1634.89Z" transform="translate(-173 -1498)"/>
  <circle id="Oval-136" data-name="Oval" class="cls-1" cx="274.672" cy="118.235" r="0.891"/>
  <circle id="Oval-137" data-name="Oval" class="cls-1" cx="255.11" cy="118.235" r="0.891"/>
  <circle id="Oval-138" data-name="Oval" class="cls-1" cx="235.547" cy="118.235" r="0.891"/>
  <path id="Oval-139" data-name="Oval" class="cls-2" d="M389,1615.33a0.89,0.89,0,1,0,.889.89A0.89,0.89,0,0,0,389,1615.33Z" transform="translate(-173 -1498)"/>
  <circle id="Oval-140" data-name="Oval" class="cls-1" cx="196.453" cy="118.235" r="0.891"/>
  <path id="Oval-141" data-name="Oval" class="cls-2" d="M349.889,1615.33a0.89,0.89,0,1,0,.889.89A0.89,0.89,0,0,0,349.889,1615.33Z" transform="translate(-173 -1498)"/>
  <circle id="Oval-142" data-name="Oval" class="cls-1" cx="157.328" cy="118.235" r="0.891"/>
  <circle id="Oval-143" data-name="Oval" class="cls-1" cx="137.765" cy="118.235" r="0.891"/>
  <circle id="Oval-144" data-name="Oval" class="cls-1" cx="118.235" cy="118.235" r="0.891"/>
  <circle id="Oval-145" data-name="Oval" class="cls-1" cx="98.672" cy="118.235" r="0.891"/>
  <circle id="Oval-146" data-name="Oval" class="cls-1" cx="79.109" cy="118.235" r="0.891"/>
  <circle id="Oval-147" data-name="Oval" class="cls-1" cx="59.547" cy="118.235" r="0.891"/>
  <path id="Oval-148" data-name="Oval" class="cls-2" d="M213,1615.33a0.89,0.89,0,1,0,.889.89A0.89,0.89,0,0,0,213,1615.33Z" transform="translate(-173 -1498)"/>
  <circle id="Oval-149" data-name="Oval" class="cls-1" cx="20.453" cy="118.235" r="0.891"/>
  <path id="Oval-150" data-name="Oval" class="cls-2" d="M173.889,1615.33a0.89,0.89,0,1,0,.889.89A0.89,0.89,0,0,0,173.889,1615.33Z" transform="translate(-173 -1498)"/>
  <circle id="Oval-151" data-name="Oval" class="cls-1" cx="274.672" cy="98.67" r="0.891"/>
  <circle id="Oval-152" data-name="Oval" class="cls-1" cx="255.11" cy="98.67" r="0.891"/>
  <circle id="Oval-153" data-name="Oval" class="cls-1" cx="235.547" cy="98.67" r="0.891"/>
  <path id="Oval-154" data-name="Oval" class="cls-2" d="M389,1595.78a0.89,0.89,0,1,0,.889.89A0.89,0.89,0,0,0,389,1595.78Z" transform="translate(-173 -1498)"/>
  <circle id="Oval-155" data-name="Oval" class="cls-1" cx="196.453" cy="98.67" r="0.891"/>
  <path id="Oval-156" data-name="Oval" class="cls-2" d="M349.889,1595.78a0.89,0.89,0,1,0,.889.89A0.89,0.89,0,0,0,349.889,1595.78Z" transform="translate(-173 -1498)"/>
  <circle id="Oval-157" data-name="Oval" class="cls-1" cx="157.328" cy="98.67" r="0.891"/>
  <circle id="Oval-158" data-name="Oval" class="cls-1" cx="137.765" cy="98.67" r="0.891"/>
  <circle id="Oval-159" data-name="Oval" class="cls-1" cx="118.235" cy="98.67" r="0.891"/>
  <circle id="Oval-160" data-name="Oval" class="cls-1" cx="98.672" cy="98.67" r="0.891"/>
  <circle id="Oval-161" data-name="Oval" class="cls-1" cx="79.109" cy="98.67" r="0.891"/>
  <circle id="Oval-162" data-name="Oval" class="cls-1" cx="59.547" cy="98.67" r="0.891"/>
  <path id="Oval-163" data-name="Oval" class="cls-2" d="M213,1595.78a0.89,0.89,0,1,0,.889.89A0.89,0.89,0,0,0,213,1595.78Z" transform="translate(-173 -1498)"/>
  <circle id="Oval-164" data-name="Oval" class="cls-1" cx="20.453" cy="98.67" r="0.891"/>
  <path id="Oval-165" data-name="Oval" class="cls-2" d="M173.889,1595.78a0.89,0.89,0,1,0,.889.89A0.89,0.89,0,0,0,173.889,1595.78Z" transform="translate(-173 -1498)"/>
  <circle id="Oval-166" data-name="Oval" class="cls-1" cx="274.672" cy="79.11" r="0.891"/>
  <circle id="Oval-167" data-name="Oval" class="cls-1" cx="255.11" cy="79.11" r="0.891"/>
  <circle id="Oval-168" data-name="Oval" class="cls-1" cx="235.547" cy="79.11" r="0.891"/>
  <path id="Oval-169" data-name="Oval" class="cls-2" d="M389,1576.22a0.89,0.89,0,1,0,.889.89A0.89,0.89,0,0,0,389,1576.22Z" transform="translate(-173 -1498)"/>
  <circle id="Oval-170" data-name="Oval" class="cls-1" cx="196.453" cy="79.11" r="0.891"/>
  <path id="Oval-171" data-name="Oval" class="cls-2" d="M349.889,1576.22a0.89,0.89,0,1,0,.889.89A0.89,0.89,0,0,0,349.889,1576.22Z" transform="translate(-173 -1498)"/>
  <circle id="Oval-172" data-name="Oval" class="cls-1" cx="157.328" cy="79.11" r="0.891"/>
  <circle id="Oval-173" data-name="Oval" class="cls-1" cx="137.765" cy="79.11" r="0.891"/>
  <circle id="Oval-174" data-name="Oval" class="cls-1" cx="118.235" cy="79.11" r="0.891"/>
  <circle id="Oval-175" data-name="Oval" class="cls-1" cx="98.672" cy="79.11" r="0.891"/>
  <circle id="Oval-176" data-name="Oval" class="cls-1" cx="79.109" cy="79.11" r="0.891"/>
  <circle id="Oval-177" data-name="Oval" class="cls-1" cx="59.547" cy="79.11" r="0.891"/>
  <path id="Oval-178" data-name="Oval" class="cls-2" d="M213,1576.22a0.89,0.89,0,1,0,.889.89A0.89,0.89,0,0,0,213,1576.22Z" transform="translate(-173 -1498)"/>
  <circle id="Oval-179" data-name="Oval" class="cls-1" cx="20.453" cy="79.11" r="0.891"/>
  <path id="Oval-180" data-name="Oval" class="cls-2" d="M173.889,1576.22a0.89,0.89,0,1,0,.889.89A0.89,0.89,0,0,0,173.889,1576.22Z" transform="translate(-173 -1498)"/>
  <circle id="Oval-181" data-name="Oval" class="cls-1" cx="274.672" cy="59.55" r="0.891"/>
  <circle id="Oval-182" data-name="Oval" class="cls-1" cx="255.11" cy="59.55" r="0.891"/>
  <circle id="Oval-183" data-name="Oval" class="cls-1" cx="235.547" cy="59.55" r="0.891"/>
  <path id="Oval-184" data-name="Oval" class="cls-2" d="M389,1556.67a0.885,0.885,0,1,0,.889.89A0.884,0.884,0,0,0,389,1556.67Z" transform="translate(-173 -1498)"/>
  <circle id="Oval-185" data-name="Oval" class="cls-1" cx="196.453" cy="59.55" r="0.891"/>
  <path id="Oval-186" data-name="Oval" class="cls-2" d="M349.889,1556.67a0.885,0.885,0,1,0,.889.89A0.884,0.884,0,0,0,349.889,1556.67Z" transform="translate(-173 -1498)"/>
  <circle id="Oval-187" data-name="Oval" class="cls-1" cx="157.328" cy="59.55" r="0.891"/>
  <circle id="Oval-188" data-name="Oval" class="cls-1" cx="137.765" cy="59.55" r="0.891"/>
  <circle id="Oval-189" data-name="Oval" class="cls-1" cx="118.235" cy="59.55" r="0.891"/>
  <circle id="Oval-190" data-name="Oval" class="cls-1" cx="98.672" cy="59.55" r="0.891"/>
  <circle id="Oval-191" data-name="Oval" class="cls-1" cx="79.109" cy="59.55" r="0.891"/>
  <circle id="Oval-192" data-name="Oval" class="cls-1" cx="59.547" cy="59.55" r="0.891"/>
  <path id="Oval-193" data-name="Oval" class="cls-2" d="M213,1556.67a0.885,0.885,0,1,0,.889.89A0.884,0.884,0,0,0,213,1556.67Z" transform="translate(-173 -1498)"/>
  <circle id="Oval-194" data-name="Oval" class="cls-1" cx="20.453" cy="59.55" r="0.891"/>
  <path id="Oval-195" data-name="Oval" class="cls-2" d="M173.889,1556.67a0.885,0.885,0,1,0,.889.89A0.884,0.884,0,0,0,173.889,1556.67Z" transform="translate(-173 -1498)"/>
  <path id="Oval-196" data-name="Oval" class="cls-2" d="M447.667,1537.11a0.89,0.89,0,1,0,.888.89A0.89,0.89,0,0,0,447.667,1537.11Z" transform="translate(-173 -1498)"/>
  <path id="Oval-197" data-name="Oval" class="cls-2" d="M428.111,1537.11a0.89,0.89,0,1,0,.889.89A0.89,0.89,0,0,0,428.111,1537.11Z" transform="translate(-173 -1498)"/>
  <path id="Oval-198" data-name="Oval" class="cls-2" d="M408.555,1537.11a0.89,0.89,0,1,0,.889.89A0.89,0.89,0,0,0,408.555,1537.11Z" transform="translate(-173 -1498)"/>
  <circle id="Oval-199" data-name="Oval" class="cls-1" cx="216" cy="40.005" r="0.875"/>
  <path id="Oval-200" data-name="Oval" class="cls-2" d="M369.444,1537.11a0.89,0.89,0,1,0,.889.89A0.89,0.89,0,0,0,369.444,1537.11Z" transform="translate(-173 -1498)"/>
  <circle id="Oval-201" data-name="Oval" class="cls-1" cx="176.89" cy="40.005" r="0.891"/>
  <path id="Oval-202" data-name="Oval" class="cls-2" d="M330.333,1537.11a0.89,0.89,0,1,0,.889.89A0.89,0.89,0,0,0,330.333,1537.11Z" transform="translate(-173 -1498)"/>
  <path id="Oval-203" data-name="Oval" class="cls-2" d="M310.778,1537.11a0.89,0.89,0,1,0,.889.89A0.89,0.89,0,0,0,310.778,1537.11Z" transform="translate(-173 -1498)"/>
  <path id="Oval-204" data-name="Oval" class="cls-2" d="M291.222,1537.11a0.89,0.89,0,1,0,.889.89A0.89,0.89,0,0,0,291.222,1537.11Z" transform="translate(-173 -1498)"/>
  <path id="Oval-205" data-name="Oval" class="cls-2" d="M271.667,1537.11a0.89,0.89,0,1,0,.888.89A0.89,0.89,0,0,0,271.667,1537.11Z" transform="translate(-173 -1498)"/>
  <path id="Oval-206" data-name="Oval" class="cls-2" d="M252.111,1537.11a0.89,0.89,0,1,0,.889.89A0.89,0.89,0,0,0,252.111,1537.11Z" transform="translate(-173 -1498)"/>
  <path id="Oval-207" data-name="Oval" class="cls-2" d="M232.555,1537.11a0.89,0.89,0,1,0,.889.89A0.89,0.89,0,0,0,232.555,1537.11Z" transform="translate(-173 -1498)"/>
  <circle id="Oval-208" data-name="Oval" class="cls-1" cx="40" cy="40.005" r="0.875"/>
  <path id="Oval-209" data-name="Oval" class="cls-2" d="M193.444,1537.11a0.89,0.89,0,1,0,.889.89A0.891,0.891,0,0,0,193.444,1537.11Z" transform="translate(-173 -1498)"/>
  <circle id="Oval-210" data-name="Oval" class="cls-1" cx="0.891" cy="40.005" r="0.891"/>
  <circle id="Oval-211" data-name="Oval" class="cls-1" cx="274.672" cy="20.45" r="0.891"/>
  <circle id="Oval-212" data-name="Oval" class="cls-1" cx="255.11" cy="20.45" r="0.891"/>
  <circle id="Oval-213" data-name="Oval" class="cls-1" cx="235.547" cy="20.45" r="0.891"/>
  <path id="Oval-214" data-name="Oval" class="cls-2" d="M389,1517.56a0.885,0.885,0,1,0,.889.88A0.882,0.882,0,0,0,389,1517.56Z" transform="translate(-173 -1498)"/>
  <circle id="Oval-215" data-name="Oval" class="cls-1" cx="196.453" cy="20.45" r="0.891"/>
  <path id="Oval-216" data-name="Oval" class="cls-2" d="M349.889,1517.56a0.885,0.885,0,1,0,.889.88A0.882,0.882,0,0,0,349.889,1517.56Z" transform="translate(-173 -1498)"/>
  <circle id="Oval-217" data-name="Oval" class="cls-1" cx="157.328" cy="20.45" r="0.891"/>
  <circle id="Oval-218" data-name="Oval" class="cls-1" cx="137.765" cy="20.45" r="0.891"/>
  <circle id="Oval-219" data-name="Oval" class="cls-1" cx="118.235" cy="20.45" r="0.891"/>
  <circle id="Oval-220" data-name="Oval" class="cls-1" cx="98.672" cy="20.45" r="0.891"/>
  <circle id="Oval-221" data-name="Oval" class="cls-1" cx="79.109" cy="20.45" r="0.891"/>
  <circle id="Oval-222" data-name="Oval" class="cls-1" cx="59.547" cy="20.45" r="0.891"/>
  <path id="Oval-223" data-name="Oval" class="cls-2" d="M213,1517.56a0.885,0.885,0,1,0,.889.88A0.882,0.882,0,0,0,213,1517.56Z" transform="translate(-173 -1498)"/>
  <circle id="Oval-224" data-name="Oval" class="cls-1" cx="20.453" cy="20.45" r="0.891"/>
  <path id="Oval-225" data-name="Oval" class="cls-2" d="M173.889,1517.56a0.885,0.885,0,1,0,.889.88A0.882,0.882,0,0,0,173.889,1517.56Z" transform="translate(-173 -1498)"/>
  <path id="Oval-226" data-name="Oval" class="cls-2" d="M447.667,1498a0.89,0.89,0,1,0,.888.89A0.89,0.89,0,0,0,447.667,1498Z" transform="translate(-173 -1498)"/>
  <path id="Oval-227" data-name="Oval" class="cls-2" d="M428.111,1498a0.89,0.89,0,1,0,.889.89A0.89,0.89,0,0,0,428.111,1498Z" transform="translate(-173 -1498)"/>
  <path id="Oval-228" data-name="Oval" class="cls-2" d="M408.555,1498a0.89,0.89,0,1,0,.889.89A0.89,0.89,0,0,0,408.555,1498Z" transform="translate(-173 -1498)"/>
  <circle id="Oval-229" data-name="Oval" class="cls-1" cx="216" cy="0.89" r="0.875"/>
  <path id="Oval-230" data-name="Oval" class="cls-2" d="M369.444,1498a0.89,0.89,0,1,0,.889.89A0.89,0.89,0,0,0,369.444,1498Z" transform="translate(-173 -1498)"/>
  <circle id="Oval-231" data-name="Oval" class="cls-1" cx="176.89" cy="0.89" r="0.891"/>
  <path id="Oval-232" data-name="Oval" class="cls-2" d="M330.333,1498a0.89,0.89,0,1,0,.889.89A0.89,0.89,0,0,0,330.333,1498Z" transform="translate(-173 -1498)"/>
  <path id="Oval-233" data-name="Oval" class="cls-2" d="M310.778,1498a0.89,0.89,0,1,0,.889.89A0.89,0.89,0,0,0,310.778,1498Z" transform="translate(-173 -1498)"/>
  <path id="Oval-234" data-name="Oval" class="cls-2" d="M291.222,1498a0.89,0.89,0,1,0,.889.89A0.89,0.89,0,0,0,291.222,1498Z" transform="translate(-173 -1498)"/>
  <path id="Oval-235" data-name="Oval" class="cls-2" d="M271.667,1498a0.89,0.89,0,1,0,.888.89A0.89,0.89,0,0,0,271.667,1498Z" transform="translate(-173 -1498)"/>
  <path id="Oval-236" data-name="Oval" class="cls-2" d="M252.111,1498a0.89,0.89,0,1,0,.889.89A0.89,0.89,0,0,0,252.111,1498Z" transform="translate(-173 -1498)"/>
  <path id="Oval-237" data-name="Oval" class="cls-2" d="M232.555,1498a0.89,0.89,0,1,0,.889.89A0.89,0.89,0,0,0,232.555,1498Z" transform="translate(-173 -1498)"/>
  <circle id="Oval-238" data-name="Oval" class="cls-1" cx="40" cy="0.89" r="0.875"/>
  <path id="Oval-239" data-name="Oval" class="cls-2" d="M193.444,1498a0.89,0.89,0,1,0,.889.89A0.891,0.891,0,0,0,193.444,1498Z" transform="translate(-173 -1498)"/>
  <circle id="Oval-240" data-name="Oval" class="cls-1" cx="0.891" cy="0.89" r="0.891"/>
  <circle id="Oval-241" data-name="Oval" class="cls-1" cx="279.11" cy="447.11" r="0.891"/>
  <circle id="Oval-242" data-name="Oval" class="cls-1" cx="259.547" cy="447.11" r="0.891"/>
  <path id="Oval-243" data-name="Oval" class="cls-2" d="M413,1944.22a0.89,0.89,0,1,0,.889.89A0.89,0.89,0,0,0,413,1944.22Z" transform="translate(-173 -1498)"/>
  <circle id="Oval-244" data-name="Oval" class="cls-1" cx="220.453" cy="447.11" r="0.891"/>
  <path id="Oval-245" data-name="Oval" class="cls-2" d="M373.889,1944.22a0.89,0.89,0,1,0,.889.89A0.89,0.89,0,0,0,373.889,1944.22Z" transform="translate(-173 -1498)"/>
  <circle id="Oval-246" data-name="Oval" class="cls-1" cx="181.328" cy="447.11" r="0.891"/>
  <circle id="Oval-247" data-name="Oval" class="cls-1" cx="161.765" cy="447.11" r="0.891"/>
  <circle id="Oval-248" data-name="Oval" class="cls-1" cx="142.235" cy="447.11" r="0.891"/>
  <circle id="Oval-249" data-name="Oval" class="cls-1" cx="122.672" cy="447.11" r="0.891"/>
  <circle id="Oval-250" data-name="Oval" class="cls-1" cx="103.11" cy="447.11" r="0.891"/>
  <circle id="Oval-251" data-name="Oval" class="cls-1" cx="83.547" cy="447.11" r="0.891"/>
  <path id="Oval-252" data-name="Oval" class="cls-2" d="M237,1944.22a0.89,0.89,0,1,0,.889.89A0.89,0.89,0,0,0,237,1944.22Z" transform="translate(-173 -1498)"/>
  <circle id="Oval-253" data-name="Oval" class="cls-1" cx="44.453" cy="447.11" r="0.891"/>
  <path id="Oval-254" data-name="Oval" class="cls-2" d="M197.889,1944.22a0.89,0.89,0,1,0,.889.89A0.89,0.89,0,0,0,197.889,1944.22Z" transform="translate(-173 -1498)"/>
  <circle id="Oval-255" data-name="Oval" class="cls-1" cx="5.328" cy="447.11" r="0.891"/>
  <circle id="Oval-256" data-name="Oval" class="cls-1" cx="274.672" cy="427.55" r="0.891"/>
  <circle id="Oval-257" data-name="Oval" class="cls-1" cx="255.11" cy="427.55" r="0.891"/>
  <circle id="Oval-258" data-name="Oval" class="cls-1" cx="235.547" cy="427.55" r="0.891"/>
  <path id="Oval-259" data-name="Oval" class="cls-2" d="M389,1924.67a0.885,0.885,0,1,0,.889.89A0.884,0.884,0,0,0,389,1924.67Z" transform="translate(-173 -1498)"/>
  <circle id="Oval-260" data-name="Oval" class="cls-1" cx="196.453" cy="427.55" r="0.891"/>
  <path id="Oval-261" data-name="Oval" class="cls-2" d="M349.889,1924.67a0.885,0.885,0,1,0,.889.89A0.884,0.884,0,0,0,349.889,1924.67Z" transform="translate(-173 -1498)"/>
  <circle id="Oval-262" data-name="Oval" class="cls-1" cx="157.328" cy="427.55" r="0.891"/>
  <circle id="Oval-263" data-name="Oval" class="cls-1" cx="137.765" cy="427.55" r="0.891"/>
  <circle id="Oval-264" data-name="Oval" class="cls-1" cx="118.235" cy="427.55" r="0.891"/>
  <circle id="Oval-265" data-name="Oval" class="cls-1" cx="98.672" cy="427.55" r="0.891"/>
  <circle id="Oval-266" data-name="Oval" class="cls-1" cx="79.109" cy="427.55" r="0.891"/>
  <circle id="Oval-267" data-name="Oval" class="cls-1" cx="59.547" cy="427.55" r="0.891"/>
  <path id="Oval-268" data-name="Oval" class="cls-2" d="M213,1924.67a0.885,0.885,0,1,0,.889.89A0.884,0.884,0,0,0,213,1924.67Z" transform="translate(-173 -1498)"/>
  <circle id="Oval-269" data-name="Oval" class="cls-1" cx="20.453" cy="427.55" r="0.891"/>
  <path id="Oval-270" data-name="Oval" class="cls-2" d="M173.889,1924.67a0.885,0.885,0,1,0,.889.89A0.884,0.884,0,0,0,173.889,1924.67Z" transform="translate(-173 -1498)"/>
  <path id="Oval-271" data-name="Oval" class="cls-2" d="M447.667,1905.11a0.89,0.89,0,1,0,.888.89A0.89,0.89,0,0,0,447.667,1905.11Z" transform="translate(-173 -1498)"/>
  <path id="Oval-272" data-name="Oval" class="cls-2" d="M428.111,1905.11a0.89,0.89,0,1,0,.889.89A0.89,0.89,0,0,0,428.111,1905.11Z" transform="translate(-173 -1498)"/>
  <path id="Oval-273" data-name="Oval" class="cls-2" d="M408.555,1905.11a0.89,0.89,0,1,0,.889.89A0.89,0.89,0,0,0,408.555,1905.11Z" transform="translate(-173 -1498)"/>
  <circle id="Oval-274" data-name="Oval" class="cls-1" cx="216" cy="408.005" r="0.875"/>
  <path id="Oval-275" data-name="Oval" class="cls-2" d="M369.444,1905.11a0.89,0.89,0,1,0,.889.89A0.89,0.89,0,0,0,369.444,1905.11Z" transform="translate(-173 -1498)"/>
  <circle id="Oval-276" data-name="Oval" class="cls-1" cx="176.89" cy="408.005" r="0.891"/>
  <path id="Oval-277" data-name="Oval" class="cls-2" d="M330.333,1905.11a0.89,0.89,0,1,0,.889.89A0.89,0.89,0,0,0,330.333,1905.11Z" transform="translate(-173 -1498)"/>
  <path id="Oval-278" data-name="Oval" class="cls-2" d="M310.778,1905.11a0.89,0.89,0,1,0,.889.89A0.89,0.89,0,0,0,310.778,1905.11Z" transform="translate(-173 -1498)"/>
  <path id="Oval-279" data-name="Oval" class="cls-2" d="M291.222,1905.11a0.89,0.89,0,1,0,.889.89A0.89,0.89,0,0,0,291.222,1905.11Z" transform="translate(-173 -1498)"/>
  <path id="Oval-280" data-name="Oval" class="cls-2" d="M271.667,1905.11a0.89,0.89,0,1,0,.888.89A0.89,0.89,0,0,0,271.667,1905.11Z" transform="translate(-173 -1498)"/>
  <path id="Oval-281" data-name="Oval" class="cls-2" d="M252.111,1905.11a0.89,0.89,0,1,0,.889.89A0.89,0.89,0,0,0,252.111,1905.11Z" transform="translate(-173 -1498)"/>
  <path id="Oval-282" data-name="Oval" class="cls-2" d="M232.555,1905.11a0.89,0.89,0,1,0,.889.89A0.89,0.89,0,0,0,232.555,1905.11Z" transform="translate(-173 -1498)"/>
  <circle id="Oval-283" data-name="Oval" class="cls-1" cx="40" cy="408.005" r="0.875"/>
  <path id="Oval-284" data-name="Oval" class="cls-2" d="M193.444,1905.11a0.89,0.89,0,1,0,.889.89A0.891,0.891,0,0,0,193.444,1905.11Z" transform="translate(-173 -1498)"/>
  <circle id="Oval-285" data-name="Oval" class="cls-1" cx="0.891" cy="408.005" r="0.891"/>
  <circle id="Oval-286" data-name="Oval" class="cls-1" cx="274.672" cy="388.45" r="0.891"/>
  <circle id="Oval-287" data-name="Oval" class="cls-1" cx="255.11" cy="388.45" r="0.891"/>
  <circle id="Oval-288" data-name="Oval" class="cls-1" cx="235.547" cy="388.45" r="0.891"/>
  <path id="Oval-289" data-name="Oval" class="cls-2" d="M389,1885.56a0.885,0.885,0,1,0,.889.88A0.882,0.882,0,0,0,389,1885.56Z" transform="translate(-173 -1498)"/>
  <circle id="Oval-290" data-name="Oval" class="cls-1" cx="196.453" cy="388.45" r="0.891"/>
  <path id="Oval-291" data-name="Oval" class="cls-2" d="M349.889,1885.56a0.885,0.885,0,1,0,.889.88A0.882,0.882,0,0,0,349.889,1885.56Z" transform="translate(-173 -1498)"/>
  <circle id="Oval-292" data-name="Oval" class="cls-1" cx="157.328" cy="388.45" r="0.891"/>
  <circle id="Oval-293" data-name="Oval" class="cls-1" cx="137.765" cy="388.45" r="0.891"/>
  <circle id="Oval-294" data-name="Oval" class="cls-1" cx="118.235" cy="388.45" r="0.891"/>
  <circle id="Oval-295" data-name="Oval" class="cls-1" cx="98.672" cy="388.45" r="0.891"/>
  <circle id="Oval-296" data-name="Oval" class="cls-1" cx="79.109" cy="388.45" r="0.891"/>
  <circle id="Oval-297" data-name="Oval" class="cls-1" cx="59.547" cy="388.45" r="0.891"/>
  <path id="Oval-298" data-name="Oval" class="cls-2" d="M213,1885.56a0.885,0.885,0,1,0,.889.88A0.882,0.882,0,0,0,213,1885.56Z" transform="translate(-173 -1498)"/>
  <circle id="Oval-299" data-name="Oval" class="cls-1" cx="20.453" cy="388.45" r="0.891"/>
  <path id="Oval-300" data-name="Oval" class="cls-2" d="M173.889,1885.56a0.885,0.885,0,1,0,.889.88A0.882,0.882,0,0,0,173.889,1885.56Z" transform="translate(-173 -1498)"/>
  <path id="Oval-301" data-name="Oval" class="cls-2" d="M447.667,1866a0.89,0.89,0,1,0,.888.89A0.89,0.89,0,0,0,447.667,1866Z" transform="translate(-173 -1498)"/>
  <path id="Oval-302" data-name="Oval" class="cls-2" d="M428.111,1866a0.89,0.89,0,1,0,.889.89A0.89,0.89,0,0,0,428.111,1866Z" transform="translate(-173 -1498)"/>
  <path id="Oval-303" data-name="Oval" class="cls-2" d="M408.555,1866a0.89,0.89,0,1,0,.889.89A0.89,0.89,0,0,0,408.555,1866Z" transform="translate(-173 -1498)"/>
  <circle id="Oval-304" data-name="Oval" class="cls-1" cx="216" cy="368.89" r="0.875"/>
  <path id="Oval-305" data-name="Oval" class="cls-2" d="M369.444,1866a0.89,0.89,0,1,0,.889.89A0.89,0.89,0,0,0,369.444,1866Z" transform="translate(-173 -1498)"/>
  <circle id="Oval-306" data-name="Oval" class="cls-1" cx="176.89" cy="368.89" r="0.891"/>
  <path id="Oval-307" data-name="Oval" class="cls-2" d="M330.333,1866a0.89,0.89,0,1,0,.889.89A0.89,0.89,0,0,0,330.333,1866Z" transform="translate(-173 -1498)"/>
  <path id="Oval-308" data-name="Oval" class="cls-2" d="M310.778,1866a0.89,0.89,0,1,0,.889.89A0.89,0.89,0,0,0,310.778,1866Z" transform="translate(-173 -1498)"/>
  <path id="Oval-309" data-name="Oval" class="cls-2" d="M291.222,1866a0.89,0.89,0,1,0,.889.89A0.89,0.89,0,0,0,291.222,1866Z" transform="translate(-173 -1498)"/>
  <path id="Oval-310" data-name="Oval" class="cls-2" d="M271.667,1866a0.89,0.89,0,1,0,.888.89A0.89,0.89,0,0,0,271.667,1866Z" transform="translate(-173 -1498)"/>
  <path id="Oval-311" data-name="Oval" class="cls-2" d="M252.111,1866a0.89,0.89,0,1,0,.889.89A0.89,0.89,0,0,0,252.111,1866Z" transform="translate(-173 -1498)"/>
  <path id="Oval-312" data-name="Oval" class="cls-2" d="M232.555,1866a0.89,0.89,0,1,0,.889.89A0.89,0.89,0,0,0,232.555,1866Z" transform="translate(-173 -1498)"/>
  <circle id="Oval-313" data-name="Oval" class="cls-1" cx="40" cy="368.89" r="0.875"/>
  <path id="Oval-314" data-name="Oval" class="cls-2" d="M193.444,1866a0.89,0.89,0,1,0,.889.89A0.891,0.891,0,0,0,193.444,1866Z" transform="translate(-173 -1498)"/>
  <circle id="Oval-315" data-name="Oval" class="cls-1" cx="0.891" cy="368.89" r="0.891"/>
  <circle id="Oval-316" data-name="Oval" class="cls-1" cx="274.672" cy="349.33" r="0.891"/>
  <circle id="Oval-317" data-name="Oval" class="cls-1" cx="255.11" cy="349.33" r="0.891"/>
  <circle id="Oval-318" data-name="Oval" class="cls-1" cx="235.547" cy="349.33" r="0.891"/>
  <path id="Oval-319" data-name="Oval" class="cls-2" d="M389,1846.44a0.89,0.89,0,1,0,.889.89A0.89,0.89,0,0,0,389,1846.44Z" transform="translate(-173 -1498)"/>
  <circle id="Oval-320" data-name="Oval" class="cls-1" cx="196.453" cy="349.33" r="0.891"/>
  <path id="Oval-321" data-name="Oval" class="cls-2" d="M349.889,1846.44a0.89,0.89,0,1,0,.889.89A0.89,0.89,0,0,0,349.889,1846.44Z" transform="translate(-173 -1498)"/>
  <circle id="Oval-322" data-name="Oval" class="cls-1" cx="157.328" cy="349.33" r="0.891"/>
  <circle id="Oval-323" data-name="Oval" class="cls-1" cx="137.765" cy="349.33" r="0.891"/>
  <circle id="Oval-324" data-name="Oval" class="cls-1" cx="118.235" cy="349.33" r="0.891"/>
  <circle id="Oval-325" data-name="Oval" class="cls-1" cx="98.672" cy="349.33" r="0.891"/>
  <circle id="Oval-326" data-name="Oval" class="cls-1" cx="79.109" cy="349.33" r="0.891"/>
  <circle id="Oval-327" data-name="Oval" class="cls-1" cx="59.547" cy="349.33" r="0.891"/>
  <path id="Oval-328" data-name="Oval" class="cls-2" d="M213,1846.44a0.89,0.89,0,1,0,.889.89A0.89,0.89,0,0,0,213,1846.44Z" transform="translate(-173 -1498)"/>
  <circle id="Oval-329" data-name="Oval" class="cls-1" cx="20.453" cy="349.33" r="0.891"/>
  <path id="Oval-330" data-name="Oval" class="cls-2" d="M173.889,1846.44a0.89,0.89,0,1,0,.889.89A0.89,0.89,0,0,0,173.889,1846.44Z" transform="translate(-173 -1498)"/>
  <circle id="Oval-331" data-name="Oval" class="cls-1" cx="274.672" cy="329.77" r="0.891"/>
  <circle id="Oval-332" data-name="Oval" class="cls-1" cx="255.11" cy="329.77" r="0.891"/>
  <circle id="Oval-333" data-name="Oval" class="cls-1" cx="235.547" cy="329.77" r="0.891"/>
  <path id="Oval-334" data-name="Oval" class="cls-2" d="M389,1826.89a0.89,0.89,0,1,0,.889.89A0.89,0.89,0,0,0,389,1826.89Z" transform="translate(-173 -1498)"/>
  <circle id="Oval-335" data-name="Oval" class="cls-1" cx="196.453" cy="329.77" r="0.891"/>
  <path id="Oval-336" data-name="Oval" class="cls-2" d="M349.889,1826.89a0.89,0.89,0,1,0,.889.89A0.89,0.89,0,0,0,349.889,1826.89Z" transform="translate(-173 -1498)"/>
  <circle id="Oval-337" data-name="Oval" class="cls-1" cx="157.328" cy="329.77" r="0.891"/>
  <circle id="Oval-338" data-name="Oval" class="cls-1" cx="137.765" cy="329.77" r="0.891"/>
  <circle id="Oval-339" data-name="Oval" class="cls-1" cx="118.235" cy="329.77" r="0.891"/>
  <circle id="Oval-340" data-name="Oval" class="cls-1" cx="98.672" cy="329.77" r="0.891"/>
  <circle id="Oval-341" data-name="Oval" class="cls-1" cx="79.109" cy="329.77" r="0.891"/>
  <circle id="Oval-342" data-name="Oval" class="cls-1" cx="59.547" cy="329.77" r="0.891"/>
  <path id="Oval-343" data-name="Oval" class="cls-2" d="M213,1826.89a0.89,0.89,0,1,0,.889.89A0.89,0.89,0,0,0,213,1826.89Z" transform="translate(-173 -1498)"/>
  <circle id="Oval-344" data-name="Oval" class="cls-1" cx="20.453" cy="329.77" r="0.891"/>
  <path id="Oval-345" data-name="Oval" class="cls-2" d="M173.889,1826.89a0.89,0.89,0,1,0,.889.89A0.89,0.89,0,0,0,173.889,1826.89Z" transform="translate(-173 -1498)"/>
  <circle id="Oval-346" data-name="Oval" class="cls-1" cx="274.672" cy="310.235" r="0.891"/>
  <circle id="Oval-347" data-name="Oval" class="cls-1" cx="255.11" cy="310.235" r="0.891"/>
  <circle id="Oval-348" data-name="Oval" class="cls-1" cx="235.547" cy="310.235" r="0.891"/>
  <path id="Oval-349" data-name="Oval" class="cls-2" d="M389,1807.33a0.89,0.89,0,1,0,.889.89A0.89,0.89,0,0,0,389,1807.33Z" transform="translate(-173 -1498)"/>
  <circle id="Oval-350" data-name="Oval" class="cls-1" cx="196.453" cy="310.235" r="0.891"/>
  <path id="Oval-351" data-name="Oval" class="cls-2" d="M349.889,1807.33a0.89,0.89,0,1,0,.889.89A0.89,0.89,0,0,0,349.889,1807.33Z" transform="translate(-173 -1498)"/>
  <circle id="Oval-352" data-name="Oval" class="cls-1" cx="157.328" cy="310.235" r="0.891"/>
  <circle id="Oval-353" data-name="Oval" class="cls-1" cx="137.765" cy="310.235" r="0.891"/>
  <circle id="Oval-354" data-name="Oval" class="cls-1" cx="118.235" cy="310.235" r="0.891"/>
  <circle id="Oval-355" data-name="Oval" class="cls-1" cx="98.672" cy="310.235" r="0.891"/>
  <circle id="Oval-356" data-name="Oval" class="cls-1" cx="79.109" cy="310.235" r="0.891"/>
  <circle id="Oval-357" data-name="Oval" class="cls-1" cx="59.547" cy="310.235" r="0.891"/>
  <path id="Oval-358" data-name="Oval" class="cls-2" d="M213,1807.33a0.89,0.89,0,1,0,.889.89A0.89,0.89,0,0,0,213,1807.33Z" transform="translate(-173 -1498)"/>
  <circle id="Oval-359" data-name="Oval" class="cls-1" cx="20.453" cy="310.235" r="0.891"/>
  <path id="Oval-360" data-name="Oval" class="cls-2" d="M173.889,1807.33a0.89,0.89,0,1,0,.889.89A0.89,0.89,0,0,0,173.889,1807.33Z" transform="translate(-173 -1498)"/>
</svg>
