<svg id="Dot" xmlns="http://www.w3.org/2000/svg" width="426" height="375.563" viewBox="0 0 426 375.563">
  <defs>
    <style>
      .cls-1 {
        fill: #bec8d1;
        fill-rule: evenodd;
      }
    </style>
  </defs>
  <path id="Oval" class="cls-1" d="M280.555,100.332a0.889,0.889,0,1,0,.889-0.888A0.89,0.89,0,0,0,280.555,100.332Z"/>
  <path id="Oval-2" data-name="Oval" class="cls-1" d="M280.555,119.888a0.889,0.889,0,1,0,.889-0.889A0.889,0.889,0,0,0,280.555,119.888Z"/>
  <path id="Oval-3" data-name="Oval" class="cls-1" d="M280.555,139.444a0.889,0.889,0,1,0,.889-0.889A0.888,0.888,0,0,0,280.555,139.444Z"/>
  <path id="Oval-4" data-name="Oval" class="cls-1" d="M280.555,159a0.889,0.889,0,1,0,.889-0.889A0.889,0.889,0,0,0,280.555,159Z"/>
  <path id="Oval-5" data-name="Oval" class="cls-1" d="M280.555,178.555a0.889,0.889,0,1,0,.889-0.889A0.889,0.889,0,0,0,280.555,178.555Z"/>
  <path id="Oval-6" data-name="Oval" class="cls-1" d="M280.555,198.11a0.889,0.889,0,1,0,.889-0.888A0.888,0.888,0,0,0,280.555,198.11Z"/>
  <path id="Oval-7" data-name="Oval" class="cls-1" d="M280.555,217.666a0.889,0.889,0,1,0,.889-0.889A0.889,0.889,0,0,0,280.555,217.666Z"/>
  <path id="Oval-8" data-name="Oval" class="cls-1" d="M280.555,237.221a0.889,0.889,0,1,0,.889-0.889A0.89,0.89,0,0,0,280.555,237.221Z"/>
  <path id="Oval-9" data-name="Oval" class="cls-1" d="M280.555,256.777a0.889,0.889,0,1,0,.889-0.889A0.889,0.889,0,0,0,280.555,256.777Z"/>
  <path id="Oval-10" data-name="Oval" class="cls-1" d="M280.555,276.333a0.889,0.889,0,1,0,.889-0.889A0.888,0.888,0,0,0,280.555,276.333Z"/>
  <path id="Oval-11" data-name="Oval" class="cls-1" d="M280.555,295.888a0.889,0.889,0,1,0,.889-0.889A0.889,0.889,0,0,0,280.555,295.888Z"/>
  <path id="Oval-12" data-name="Oval" class="cls-1" d="M280.555,315.444a0.889,0.889,0,1,0,.889-0.889A0.889,0.889,0,0,0,280.555,315.444Z"/>
  <path id="Oval-13" data-name="Oval" class="cls-1" d="M280.555,335a0.889,0.889,0,1,0,.889-0.889A0.889,0.889,0,0,0,280.555,335Z"/>
  <path id="Oval-14" data-name="Oval" class="cls-1" d="M280.555,354.555a0.889,0.889,0,1,0,.889-0.889A0.889,0.889,0,0,0,280.555,354.555Z"/>
  <path id="Oval-15" data-name="Oval" class="cls-1" d="M280.555,374.11a0.889,0.889,0,1,0,.889-0.889A0.889,0.889,0,0,0,280.555,374.11Z"/>
  <path id="Oval-16" data-name="Oval" class="cls-1" d="M261,100.332a0.889,0.889,0,1,0,.889-0.888A0.89,0.89,0,0,0,261,100.332Z"/>
  <path id="Oval-17" data-name="Oval" class="cls-1" d="M261,119.888a0.889,0.889,0,1,0,.889-0.889A0.889,0.889,0,0,0,261,119.888Z"/>
  <path id="Oval-18" data-name="Oval" class="cls-1" d="M261,139.444a0.889,0.889,0,1,0,.889-0.889A0.888,0.888,0,0,0,261,139.444Z"/>
  <path id="Oval-19" data-name="Oval" class="cls-1" d="M261,159a0.889,0.889,0,1,0,.889-0.889A0.889,0.889,0,0,0,261,159Z"/>
  <path id="Oval-20" data-name="Oval" class="cls-1" d="M261,178.555a0.889,0.889,0,1,0,.889-0.889A0.889,0.889,0,0,0,261,178.555Z"/>
  <path id="Oval-21" data-name="Oval" class="cls-1" d="M261,198.11a0.889,0.889,0,1,0,.889-0.888A0.888,0.888,0,0,0,261,198.11Z"/>
  <path id="Oval-22" data-name="Oval" class="cls-1" d="M261,217.666a0.889,0.889,0,1,0,.889-0.889A0.889,0.889,0,0,0,261,217.666Z"/>
  <path id="Oval-23" data-name="Oval" class="cls-1" d="M261,237.221a0.889,0.889,0,1,0,.889-0.889A0.89,0.89,0,0,0,261,237.221Z"/>
  <path id="Oval-24" data-name="Oval" class="cls-1" d="M261,256.777a0.889,0.889,0,1,0,.889-0.889A0.889,0.889,0,0,0,261,256.777Z"/>
  <path id="Oval-25" data-name="Oval" class="cls-1" d="M261,276.333a0.889,0.889,0,1,0,.889-0.889A0.888,0.888,0,0,0,261,276.333Z"/>
  <path id="Oval-26" data-name="Oval" class="cls-1" d="M261,295.888a0.889,0.889,0,1,0,.889-0.889A0.889,0.889,0,0,0,261,295.888Z"/>
  <path id="Oval-27" data-name="Oval" class="cls-1" d="M261,315.444a0.889,0.889,0,1,0,.889-0.889A0.889,0.889,0,0,0,261,315.444Z"/>
  <path id="Oval-28" data-name="Oval" class="cls-1" d="M261,335a0.889,0.889,0,1,0,.889-0.889A0.889,0.889,0,0,0,261,335Z"/>
  <path id="Oval-29" data-name="Oval" class="cls-1" d="M261,354.555a0.889,0.889,0,1,0,.889-0.889A0.889,0.889,0,0,0,261,354.555Z"/>
  <path id="Oval-30" data-name="Oval" class="cls-1" d="M261,374.11a0.889,0.889,0,1,0,.889-0.889A0.889,0.889,0,0,0,261,374.11Z"/>
  <path id="Oval-31" data-name="Oval" class="cls-1" d="M241.444,100.332a0.889,0.889,0,1,0,.889-0.888A0.89,0.89,0,0,0,241.444,100.332Z"/>
  <path id="Oval-32" data-name="Oval" class="cls-1" d="M241.444,119.888a0.889,0.889,0,1,0,.889-0.889A0.889,0.889,0,0,0,241.444,119.888Z"/>
  <path id="Oval-33" data-name="Oval" class="cls-1" d="M241.444,139.444a0.889,0.889,0,1,0,.889-0.889A0.888,0.888,0,0,0,241.444,139.444Z"/>
  <path id="Oval-34" data-name="Oval" class="cls-1" d="M241.444,159a0.889,0.889,0,1,0,.889-0.889A0.889,0.889,0,0,0,241.444,159Z"/>
  <path id="Oval-35" data-name="Oval" class="cls-1" d="M241.444,178.555a0.889,0.889,0,1,0,.889-0.889A0.889,0.889,0,0,0,241.444,178.555Z"/>
  <path id="Oval-36" data-name="Oval" class="cls-1" d="M241.444,198.11a0.889,0.889,0,1,0,.889-0.888A0.888,0.888,0,0,0,241.444,198.11Z"/>
  <path id="Oval-37" data-name="Oval" class="cls-1" d="M241.444,217.666a0.889,0.889,0,1,0,.889-0.889A0.889,0.889,0,0,0,241.444,217.666Z"/>
  <path id="Oval-38" data-name="Oval" class="cls-1" d="M241.444,237.221a0.889,0.889,0,1,0,.889-0.889A0.89,0.89,0,0,0,241.444,237.221Z"/>
  <path id="Oval-39" data-name="Oval" class="cls-1" d="M241.444,256.777a0.889,0.889,0,1,0,.889-0.889A0.889,0.889,0,0,0,241.444,256.777Z"/>
  <path id="Oval-40" data-name="Oval" class="cls-1" d="M241.444,276.333a0.889,0.889,0,1,0,.889-0.889A0.888,0.888,0,0,0,241.444,276.333Z"/>
  <path id="Oval-41" data-name="Oval" class="cls-1" d="M241.444,295.888a0.889,0.889,0,1,0,.889-0.889A0.889,0.889,0,0,0,241.444,295.888Z"/>
  <path id="Oval-42" data-name="Oval" class="cls-1" d="M241.444,315.444a0.889,0.889,0,1,0,.889-0.889A0.889,0.889,0,0,0,241.444,315.444Z"/>
  <path id="Oval-43" data-name="Oval" class="cls-1" d="M241.444,335a0.889,0.889,0,1,0,.889-0.889A0.889,0.889,0,0,0,241.444,335Z"/>
  <path id="Oval-44" data-name="Oval" class="cls-1" d="M241.444,354.555a0.889,0.889,0,1,0,.889-0.889A0.889,0.889,0,0,0,241.444,354.555Z"/>
  <path id="Oval-45" data-name="Oval" class="cls-1" d="M241.444,374.11a0.889,0.889,0,1,0,.889-0.889A0.889,0.889,0,0,0,241.444,374.11Z"/>
  <path id="Oval-46" data-name="Oval" class="cls-1" d="M221.889,100.332a0.889,0.889,0,1,0,.889-0.888A0.89,0.89,0,0,0,221.889,100.332Z"/>
  <path id="Oval-47" data-name="Oval" class="cls-1" d="M221.889,119.888a0.889,0.889,0,1,0,.889-0.889A0.889,0.889,0,0,0,221.889,119.888Z"/>
  <path id="Oval-48" data-name="Oval" class="cls-1" d="M221.889,139.444a0.889,0.889,0,1,0,.889-0.889A0.888,0.888,0,0,0,221.889,139.444Z"/>
  <path id="Oval-49" data-name="Oval" class="cls-1" d="M221.889,159a0.889,0.889,0,1,0,.889-0.889A0.889,0.889,0,0,0,221.889,159Z"/>
  <path id="Oval-50" data-name="Oval" class="cls-1" d="M221.889,178.555a0.889,0.889,0,1,0,.889-0.889A0.889,0.889,0,0,0,221.889,178.555Z"/>
  <path id="Oval-51" data-name="Oval" class="cls-1" d="M221.889,198.11a0.889,0.889,0,1,0,.889-0.888A0.888,0.888,0,0,0,221.889,198.11Z"/>
  <path id="Oval-52" data-name="Oval" class="cls-1" d="M221.889,217.666a0.889,0.889,0,1,0,.889-0.889A0.889,0.889,0,0,0,221.889,217.666Z"/>
  <path id="Oval-53" data-name="Oval" class="cls-1" d="M221.889,237.221a0.889,0.889,0,1,0,.889-0.889A0.89,0.89,0,0,0,221.889,237.221Z"/>
  <path id="Oval-54" data-name="Oval" class="cls-1" d="M221.889,256.777a0.889,0.889,0,1,0,.889-0.889A0.889,0.889,0,0,0,221.889,256.777Z"/>
  <path id="Oval-55" data-name="Oval" class="cls-1" d="M221.889,276.333a0.889,0.889,0,1,0,.889-0.889A0.888,0.888,0,0,0,221.889,276.333Z"/>
  <path id="Oval-56" data-name="Oval" class="cls-1" d="M221.889,295.888a0.889,0.889,0,1,0,.889-0.889A0.889,0.889,0,0,0,221.889,295.888Z"/>
  <path id="Oval-57" data-name="Oval" class="cls-1" d="M221.889,315.444a0.889,0.889,0,1,0,.889-0.889A0.889,0.889,0,0,0,221.889,315.444Z"/>
  <path id="Oval-58" data-name="Oval" class="cls-1" d="M221.889,335a0.889,0.889,0,1,0,.889-0.889A0.889,0.889,0,0,0,221.889,335Z"/>
  <path id="Oval-59" data-name="Oval" class="cls-1" d="M221.889,354.555a0.889,0.889,0,1,0,.889-0.889A0.889,0.889,0,0,0,221.889,354.555Z"/>
  <path id="Oval-60" data-name="Oval" class="cls-1" d="M221.889,374.11a0.889,0.889,0,1,0,.889-0.889A0.889,0.889,0,0,0,221.889,374.11Z"/>
  <path id="Oval-61" data-name="Oval" class="cls-1" d="M202.333,100.332a0.889,0.889,0,1,0,.889-0.888A0.89,0.89,0,0,0,202.333,100.332Z"/>
  <path id="Oval-62" data-name="Oval" class="cls-1" d="M202.333,119.888a0.889,0.889,0,1,0,.889-0.889A0.889,0.889,0,0,0,202.333,119.888Z"/>
  <path id="Oval-63" data-name="Oval" class="cls-1" d="M202.333,139.444a0.889,0.889,0,1,0,.889-0.889A0.888,0.888,0,0,0,202.333,139.444Z"/>
  <path id="Oval-64" data-name="Oval" class="cls-1" d="M202.333,159a0.889,0.889,0,1,0,.889-0.889A0.889,0.889,0,0,0,202.333,159Z"/>
  <path id="Oval-65" data-name="Oval" class="cls-1" d="M202.333,178.555a0.889,0.889,0,1,0,.889-0.889A0.889,0.889,0,0,0,202.333,178.555Z"/>
  <path id="Oval-66" data-name="Oval" class="cls-1" d="M202.333,198.11a0.889,0.889,0,1,0,.889-0.888A0.888,0.888,0,0,0,202.333,198.11Z"/>
  <path id="Oval-67" data-name="Oval" class="cls-1" d="M202.333,217.666a0.889,0.889,0,1,0,.889-0.889A0.889,0.889,0,0,0,202.333,217.666Z"/>
  <path id="Oval-68" data-name="Oval" class="cls-1" d="M202.333,237.221a0.889,0.889,0,1,0,.889-0.889A0.89,0.89,0,0,0,202.333,237.221Z"/>
  <path id="Oval-69" data-name="Oval" class="cls-1" d="M202.333,256.777a0.889,0.889,0,1,0,.889-0.889A0.889,0.889,0,0,0,202.333,256.777Z"/>
  <path id="Oval-70" data-name="Oval" class="cls-1" d="M202.333,276.333a0.889,0.889,0,1,0,.889-0.889A0.888,0.888,0,0,0,202.333,276.333Z"/>
  <path id="Oval-71" data-name="Oval" class="cls-1" d="M202.333,295.888a0.889,0.889,0,1,0,.889-0.889A0.889,0.889,0,0,0,202.333,295.888Z"/>
  <path id="Oval-72" data-name="Oval" class="cls-1" d="M202.333,315.444a0.889,0.889,0,1,0,.889-0.889A0.889,0.889,0,0,0,202.333,315.444Z"/>
  <path id="Oval-73" data-name="Oval" class="cls-1" d="M202.333,335a0.889,0.889,0,1,0,.889-0.889A0.889,0.889,0,0,0,202.333,335Z"/>
  <path id="Oval-74" data-name="Oval" class="cls-1" d="M202.333,354.555a0.889,0.889,0,1,0,.889-0.889A0.889,0.889,0,0,0,202.333,354.555Z"/>
  <path id="Oval-75" data-name="Oval" class="cls-1" d="M202.333,374.11a0.889,0.889,0,1,0,.889-0.889A0.889,0.889,0,0,0,202.333,374.11Z"/>
  <path id="Oval-76" data-name="Oval" class="cls-1" d="M182.778,100.332a0.889,0.889,0,1,0,.889-0.888A0.89,0.89,0,0,0,182.778,100.332Z"/>
  <path id="Oval-77" data-name="Oval" class="cls-1" d="M182.778,119.888a0.889,0.889,0,1,0,.889-0.889A0.889,0.889,0,0,0,182.778,119.888Z"/>
  <path id="Oval-78" data-name="Oval" class="cls-1" d="M182.778,139.444a0.889,0.889,0,1,0,.889-0.889A0.888,0.888,0,0,0,182.778,139.444Z"/>
  <path id="Oval-79" data-name="Oval" class="cls-1" d="M182.778,159a0.889,0.889,0,1,0,.889-0.889A0.889,0.889,0,0,0,182.778,159Z"/>
  <path id="Oval-80" data-name="Oval" class="cls-1" d="M182.778,178.555a0.889,0.889,0,1,0,.889-0.889A0.889,0.889,0,0,0,182.778,178.555Z"/>
  <path id="Oval-81" data-name="Oval" class="cls-1" d="M182.778,198.11a0.889,0.889,0,1,0,.889-0.888A0.888,0.888,0,0,0,182.778,198.11Z"/>
  <path id="Oval-82" data-name="Oval" class="cls-1" d="M182.778,217.666a0.889,0.889,0,1,0,.889-0.889A0.889,0.889,0,0,0,182.778,217.666Z"/>
  <path id="Oval-83" data-name="Oval" class="cls-1" d="M182.778,237.221a0.889,0.889,0,1,0,.889-0.889A0.89,0.89,0,0,0,182.778,237.221Z"/>
  <path id="Oval-84" data-name="Oval" class="cls-1" d="M182.778,256.777a0.889,0.889,0,1,0,.889-0.889A0.889,0.889,0,0,0,182.778,256.777Z"/>
  <path id="Oval-85" data-name="Oval" class="cls-1" d="M182.778,276.333a0.889,0.889,0,1,0,.889-0.889A0.888,0.888,0,0,0,182.778,276.333Z"/>
  <path id="Oval-86" data-name="Oval" class="cls-1" d="M182.778,295.888a0.889,0.889,0,1,0,.889-0.889A0.889,0.889,0,0,0,182.778,295.888Z"/>
  <path id="Oval-87" data-name="Oval" class="cls-1" d="M182.778,315.444a0.889,0.889,0,1,0,.889-0.889A0.889,0.889,0,0,0,182.778,315.444Z"/>
  <path id="Oval-88" data-name="Oval" class="cls-1" d="M182.778,335a0.889,0.889,0,1,0,.889-0.889A0.889,0.889,0,0,0,182.778,335Z"/>
  <path id="Oval-89" data-name="Oval" class="cls-1" d="M182.778,354.555a0.889,0.889,0,1,0,.889-0.889A0.889,0.889,0,0,0,182.778,354.555Z"/>
  <path id="Oval-90" data-name="Oval" class="cls-1" d="M182.778,374.11a0.889,0.889,0,1,0,.889-0.889A0.889,0.889,0,0,0,182.778,374.11Z"/>
  <path id="Oval-91" data-name="Oval" class="cls-1" d="M163.222,100.332a0.889,0.889,0,1,0,.889-0.888A0.89,0.89,0,0,0,163.222,100.332Z"/>
  <path id="Oval-92" data-name="Oval" class="cls-1" d="M163.222,119.888a0.889,0.889,0,1,0,.889-0.889A0.889,0.889,0,0,0,163.222,119.888Z"/>
  <path id="Oval-93" data-name="Oval" class="cls-1" d="M163.222,139.444a0.889,0.889,0,1,0,.889-0.889A0.888,0.888,0,0,0,163.222,139.444Z"/>
  <path id="Oval-94" data-name="Oval" class="cls-1" d="M163.222,159a0.889,0.889,0,1,0,.889-0.889A0.889,0.889,0,0,0,163.222,159Z"/>
  <path id="Oval-95" data-name="Oval" class="cls-1" d="M163.222,178.555a0.889,0.889,0,1,0,.889-0.889A0.889,0.889,0,0,0,163.222,178.555Z"/>
  <path id="Oval-96" data-name="Oval" class="cls-1" d="M163.222,198.11a0.889,0.889,0,1,0,.889-0.888A0.888,0.888,0,0,0,163.222,198.11Z"/>
  <path id="Oval-97" data-name="Oval" class="cls-1" d="M163.222,217.666a0.889,0.889,0,1,0,.889-0.889A0.889,0.889,0,0,0,163.222,217.666Z"/>
  <path id="Oval-98" data-name="Oval" class="cls-1" d="M163.222,237.221a0.889,0.889,0,1,0,.889-0.889A0.89,0.89,0,0,0,163.222,237.221Z"/>
  <path id="Oval-99" data-name="Oval" class="cls-1" d="M163.222,256.777a0.889,0.889,0,1,0,.889-0.889A0.889,0.889,0,0,0,163.222,256.777Z"/>
  <path id="Oval-100" data-name="Oval" class="cls-1" d="M163.222,276.333a0.889,0.889,0,1,0,.889-0.889A0.888,0.888,0,0,0,163.222,276.333Z"/>
  <path id="Oval-101" data-name="Oval" class="cls-1" d="M163.222,295.888a0.889,0.889,0,1,0,.889-0.889A0.889,0.889,0,0,0,163.222,295.888Z"/>
  <path id="Oval-102" data-name="Oval" class="cls-1" d="M163.222,315.444a0.889,0.889,0,1,0,.889-0.889A0.889,0.889,0,0,0,163.222,315.444Z"/>
  <path id="Oval-103" data-name="Oval" class="cls-1" d="M163.222,335a0.889,0.889,0,1,0,.889-0.889A0.889,0.889,0,0,0,163.222,335Z"/>
  <path id="Oval-104" data-name="Oval" class="cls-1" d="M163.222,354.555a0.889,0.889,0,1,0,.889-0.889A0.889,0.889,0,0,0,163.222,354.555Z"/>
  <path id="Oval-105" data-name="Oval" class="cls-1" d="M163.222,374.11a0.889,0.889,0,1,0,.889-0.889A0.889,0.889,0,0,0,163.222,374.11Z"/>
  <path id="Oval-106" data-name="Oval" class="cls-1" d="M143.667,100.332a0.889,0.889,0,1,0,.888-0.888A0.889,0.889,0,0,0,143.667,100.332Z"/>
  <path id="Oval-107" data-name="Oval" class="cls-1" d="M143.667,119.888a0.889,0.889,0,1,0,.888-0.889A0.888,0.888,0,0,0,143.667,119.888Z"/>
  <path id="Oval-108" data-name="Oval" class="cls-1" d="M143.667,139.444a0.889,0.889,0,1,0,.888-0.889A0.887,0.887,0,0,0,143.667,139.444Z"/>
  <path id="Oval-109" data-name="Oval" class="cls-1" d="M143.667,159a0.889,0.889,0,1,0,.888-0.889A0.888,0.888,0,0,0,143.667,159Z"/>
  <path id="Oval-110" data-name="Oval" class="cls-1" d="M143.667,178.555a0.889,0.889,0,1,0,.888-0.889A0.888,0.888,0,0,0,143.667,178.555Z"/>
  <path id="Oval-111" data-name="Oval" class="cls-1" d="M143.667,198.11a0.889,0.889,0,1,0,.888-0.888A0.887,0.887,0,0,0,143.667,198.11Z"/>
  <path id="Oval-112" data-name="Oval" class="cls-1" d="M143.667,217.666a0.889,0.889,0,1,0,.888-0.889A0.888,0.888,0,0,0,143.667,217.666Z"/>
  <path id="Oval-113" data-name="Oval" class="cls-1" d="M143.667,237.221a0.889,0.889,0,1,0,.888-0.889A0.889,0.889,0,0,0,143.667,237.221Z"/>
  <path id="Oval-114" data-name="Oval" class="cls-1" d="M143.667,256.777a0.889,0.889,0,1,0,.888-0.889A0.888,0.888,0,0,0,143.667,256.777Z"/>
  <path id="Oval-115" data-name="Oval" class="cls-1" d="M143.667,276.333a0.889,0.889,0,1,0,.888-0.889A0.887,0.887,0,0,0,143.667,276.333Z"/>
  <path id="Oval-116" data-name="Oval" class="cls-1" d="M143.667,295.888a0.889,0.889,0,1,0,.888-0.889A0.888,0.888,0,0,0,143.667,295.888Z"/>
  <path id="Oval-117" data-name="Oval" class="cls-1" d="M143.667,315.444a0.889,0.889,0,1,0,.888-0.889A0.888,0.888,0,0,0,143.667,315.444Z"/>
  <path id="Oval-118" data-name="Oval" class="cls-1" d="M143.667,335a0.889,0.889,0,1,0,.888-0.889A0.888,0.888,0,0,0,143.667,335Z"/>
  <path id="Oval-119" data-name="Oval" class="cls-1" d="M143.667,354.555a0.889,0.889,0,1,0,.888-0.889A0.888,0.888,0,0,0,143.667,354.555Z"/>
  <path id="Oval-120" data-name="Oval" class="cls-1" d="M143.667,374.11a0.889,0.889,0,1,0,.888-0.889A0.888,0.888,0,0,0,143.667,374.11Z"/>
  <path id="Oval-121" data-name="Oval" class="cls-1" d="M125.889,100.332a0.889,0.889,0,1,0,.889-0.888A0.89,0.89,0,0,0,125.889,100.332Z"/>
  <path id="Oval-122" data-name="Oval" class="cls-1" d="M125.889,119.888a0.889,0.889,0,1,0,.889-0.889A0.889,0.889,0,0,0,125.889,119.888Z"/>
  <path id="Oval-123" data-name="Oval" class="cls-1" d="M125.889,139.444a0.889,0.889,0,1,0,.889-0.889A0.888,0.888,0,0,0,125.889,139.444Z"/>
  <path id="Oval-124" data-name="Oval" class="cls-1" d="M125.889,159a0.889,0.889,0,1,0,.889-0.889A0.889,0.889,0,0,0,125.889,159Z"/>
  <path id="Oval-125" data-name="Oval" class="cls-1" d="M125.889,178.555a0.889,0.889,0,1,0,.889-0.889A0.889,0.889,0,0,0,125.889,178.555Z"/>
  <path id="Oval-126" data-name="Oval" class="cls-1" d="M125.889,198.11a0.889,0.889,0,1,0,.889-0.888A0.888,0.888,0,0,0,125.889,198.11Z"/>
  <path id="Oval-127" data-name="Oval" class="cls-1" d="M125.889,217.666a0.889,0.889,0,1,0,.889-0.889A0.889,0.889,0,0,0,125.889,217.666Z"/>
  <path id="Oval-128" data-name="Oval" class="cls-1" d="M125.889,237.221a0.889,0.889,0,1,0,.889-0.889A0.89,0.89,0,0,0,125.889,237.221Z"/>
  <path id="Oval-129" data-name="Oval" class="cls-1" d="M125.889,256.777a0.889,0.889,0,1,0,.889-0.889A0.889,0.889,0,0,0,125.889,256.777Z"/>
  <path id="Oval-130" data-name="Oval" class="cls-1" d="M125.889,276.333a0.889,0.889,0,1,0,.889-0.889A0.888,0.888,0,0,0,125.889,276.333Z"/>
  <path id="Oval-131" data-name="Oval" class="cls-1" d="M125.889,295.888a0.889,0.889,0,1,0,.889-0.889A0.889,0.889,0,0,0,125.889,295.888Z"/>
  <path id="Oval-132" data-name="Oval" class="cls-1" d="M125.889,315.444a0.889,0.889,0,1,0,.889-0.889A0.889,0.889,0,0,0,125.889,315.444Z"/>
  <path id="Oval-133" data-name="Oval" class="cls-1" d="M125.889,335a0.889,0.889,0,1,0,.889-0.889A0.889,0.889,0,0,0,125.889,335Z"/>
  <path id="Oval-134" data-name="Oval" class="cls-1" d="M125.889,354.555a0.889,0.889,0,1,0,.889-0.889A0.889,0.889,0,0,0,125.889,354.555Z"/>
  <path id="Oval-135" data-name="Oval" class="cls-1" d="M125.889,374.11a0.889,0.889,0,1,0,.889-0.889A0.889,0.889,0,0,0,125.889,374.11Z"/>
  <path id="Oval-136" data-name="Oval" class="cls-1" d="M106.333,100.332a0.889,0.889,0,1,0,.889-0.888A0.89,0.89,0,0,0,106.333,100.332Z"/>
  <path id="Oval-137" data-name="Oval" class="cls-1" d="M106.333,119.888a0.889,0.889,0,1,0,.889-0.889A0.889,0.889,0,0,0,106.333,119.888Z"/>
  <path id="Oval-138" data-name="Oval" class="cls-1" d="M106.333,139.444a0.889,0.889,0,1,0,.889-0.889A0.888,0.888,0,0,0,106.333,139.444Z"/>
  <path id="Oval-139" data-name="Oval" class="cls-1" d="M106.333,159a0.889,0.889,0,1,0,.889-0.889A0.889,0.889,0,0,0,106.333,159Z"/>
  <path id="Oval-140" data-name="Oval" class="cls-1" d="M106.333,178.555a0.889,0.889,0,1,0,.889-0.889A0.889,0.889,0,0,0,106.333,178.555Z"/>
  <path id="Oval-141" data-name="Oval" class="cls-1" d="M106.333,198.11a0.889,0.889,0,1,0,.889-0.888A0.888,0.888,0,0,0,106.333,198.11Z"/>
  <path id="Oval-142" data-name="Oval" class="cls-1" d="M106.333,217.666a0.889,0.889,0,1,0,.889-0.889A0.889,0.889,0,0,0,106.333,217.666Z"/>
  <path id="Oval-143" data-name="Oval" class="cls-1" d="M106.333,237.221a0.889,0.889,0,1,0,.889-0.889A0.89,0.89,0,0,0,106.333,237.221Z"/>
  <path id="Oval-144" data-name="Oval" class="cls-1" d="M106.333,256.777a0.889,0.889,0,1,0,.889-0.889A0.889,0.889,0,0,0,106.333,256.777Z"/>
  <path id="Oval-145" data-name="Oval" class="cls-1" d="M106.333,276.333a0.889,0.889,0,1,0,.889-0.889A0.888,0.888,0,0,0,106.333,276.333Z"/>
  <path id="Oval-146" data-name="Oval" class="cls-1" d="M106.333,295.888a0.889,0.889,0,1,0,.889-0.889A0.889,0.889,0,0,0,106.333,295.888Z"/>
  <path id="Oval-147" data-name="Oval" class="cls-1" d="M106.333,315.444a0.889,0.889,0,1,0,.889-0.889A0.889,0.889,0,0,0,106.333,315.444Z"/>
  <path id="Oval-148" data-name="Oval" class="cls-1" d="M106.333,335a0.889,0.889,0,1,0,.889-0.889A0.889,0.889,0,0,0,106.333,335Z"/>
  <path id="Oval-149" data-name="Oval" class="cls-1" d="M106.333,354.555a0.889,0.889,0,1,0,.889-0.889A0.889,0.889,0,0,0,106.333,354.555Z"/>
  <path id="Oval-150" data-name="Oval" class="cls-1" d="M106.333,374.11a0.889,0.889,0,1,0,.889-0.889A0.889,0.889,0,0,0,106.333,374.11Z"/>
  <path id="Oval-151" data-name="Oval" class="cls-1" d="M86.778,100.332a0.889,0.889,0,1,0,.889-0.888A0.89,0.89,0,0,0,86.778,100.332Z"/>
  <path id="Oval-152" data-name="Oval" class="cls-1" d="M86.778,119.888A0.889,0.889,0,1,0,87.667,119,0.889,0.889,0,0,0,86.778,119.888Z"/>
  <path id="Oval-153" data-name="Oval" class="cls-1" d="M86.778,139.444a0.889,0.889,0,1,0,.889-0.889A0.888,0.888,0,0,0,86.778,139.444Z"/>
  <path id="Oval-154" data-name="Oval" class="cls-1" d="M86.778,159a0.889,0.889,0,1,0,.889-0.889A0.889,0.889,0,0,0,86.778,159Z"/>
  <path id="Oval-155" data-name="Oval" class="cls-1" d="M86.778,178.555a0.889,0.889,0,1,0,.889-0.889A0.889,0.889,0,0,0,86.778,178.555Z"/>
  <path id="Oval-156" data-name="Oval" class="cls-1" d="M86.778,198.11a0.889,0.889,0,1,0,.889-0.888A0.888,0.888,0,0,0,86.778,198.11Z"/>
  <path id="Oval-157" data-name="Oval" class="cls-1" d="M86.778,217.666a0.889,0.889,0,1,0,.889-0.889A0.889,0.889,0,0,0,86.778,217.666Z"/>
  <path id="Oval-158" data-name="Oval" class="cls-1" d="M86.778,237.221a0.889,0.889,0,1,0,.889-0.889A0.89,0.89,0,0,0,86.778,237.221Z"/>
  <path id="Oval-159" data-name="Oval" class="cls-1" d="M86.778,256.777a0.889,0.889,0,1,0,.889-0.889A0.889,0.889,0,0,0,86.778,256.777Z"/>
  <path id="Oval-160" data-name="Oval" class="cls-1" d="M86.778,276.333a0.889,0.889,0,1,0,.889-0.889A0.888,0.888,0,0,0,86.778,276.333Z"/>
  <path id="Oval-161" data-name="Oval" class="cls-1" d="M86.778,295.888A0.889,0.889,0,1,0,87.667,295,0.889,0.889,0,0,0,86.778,295.888Z"/>
  <path id="Oval-162" data-name="Oval" class="cls-1" d="M86.778,315.444a0.889,0.889,0,1,0,.889-0.889A0.889,0.889,0,0,0,86.778,315.444Z"/>
  <path id="Oval-163" data-name="Oval" class="cls-1" d="M86.778,335a0.889,0.889,0,1,0,.889-0.889A0.889,0.889,0,0,0,86.778,335Z"/>
  <path id="Oval-164" data-name="Oval" class="cls-1" d="M86.778,354.555a0.889,0.889,0,1,0,.889-0.889A0.889,0.889,0,0,0,86.778,354.555Z"/>
  <path id="Oval-165" data-name="Oval" class="cls-1" d="M86.778,374.11a0.889,0.889,0,1,0,.889-0.889A0.889,0.889,0,0,0,86.778,374.11Z"/>
  <path id="Oval-166" data-name="Oval" class="cls-1" d="M67.222,100.332a0.889,0.889,0,1,0,.889-0.888A0.89,0.89,0,0,0,67.222,100.332Z"/>
  <path id="Oval-167" data-name="Oval" class="cls-1" d="M67.222,119.888A0.889,0.889,0,1,0,68.111,119,0.889,0.889,0,0,0,67.222,119.888Z"/>
  <path id="Oval-168" data-name="Oval" class="cls-1" d="M67.222,139.444a0.889,0.889,0,1,0,.889-0.889A0.888,0.888,0,0,0,67.222,139.444Z"/>
  <path id="Oval-169" data-name="Oval" class="cls-1" d="M67.222,159a0.889,0.889,0,1,0,.889-0.889A0.889,0.889,0,0,0,67.222,159Z"/>
  <path id="Oval-170" data-name="Oval" class="cls-1" d="M67.222,178.555a0.889,0.889,0,1,0,.889-0.889A0.889,0.889,0,0,0,67.222,178.555Z"/>
  <path id="Oval-171" data-name="Oval" class="cls-1" d="M67.222,198.11a0.889,0.889,0,1,0,.889-0.888A0.888,0.888,0,0,0,67.222,198.11Z"/>
  <path id="Oval-172" data-name="Oval" class="cls-1" d="M67.222,217.666a0.889,0.889,0,1,0,.889-0.889A0.889,0.889,0,0,0,67.222,217.666Z"/>
  <path id="Oval-173" data-name="Oval" class="cls-1" d="M67.222,237.221a0.889,0.889,0,1,0,.889-0.889A0.89,0.89,0,0,0,67.222,237.221Z"/>
  <path id="Oval-174" data-name="Oval" class="cls-1" d="M67.222,256.777a0.889,0.889,0,1,0,.889-0.889A0.889,0.889,0,0,0,67.222,256.777Z"/>
  <path id="Oval-175" data-name="Oval" class="cls-1" d="M67.222,276.333a0.889,0.889,0,1,0,.889-0.889A0.888,0.888,0,0,0,67.222,276.333Z"/>
  <path id="Oval-176" data-name="Oval" class="cls-1" d="M67.222,295.888A0.889,0.889,0,1,0,68.111,295,0.889,0.889,0,0,0,67.222,295.888Z"/>
  <path id="Oval-177" data-name="Oval" class="cls-1" d="M67.222,315.444a0.889,0.889,0,1,0,.889-0.889A0.889,0.889,0,0,0,67.222,315.444Z"/>
  <path id="Oval-178" data-name="Oval" class="cls-1" d="M67.222,335a0.889,0.889,0,1,0,.889-0.889A0.889,0.889,0,0,0,67.222,335Z"/>
  <path id="Oval-179" data-name="Oval" class="cls-1" d="M67.222,354.555a0.889,0.889,0,1,0,.889-0.889A0.889,0.889,0,0,0,67.222,354.555Z"/>
  <path id="Oval-180" data-name="Oval" class="cls-1" d="M67.222,374.11a0.889,0.889,0,1,0,.889-0.889A0.889,0.889,0,0,0,67.222,374.11Z"/>
  <path id="Oval-181" data-name="Oval" class="cls-1" d="M47.667,100.332a0.889,0.889,0,1,0,.889-0.888A0.89,0.89,0,0,0,47.667,100.332Z"/>
  <path id="Oval-182" data-name="Oval" class="cls-1" d="M47.667,119.888A0.889,0.889,0,1,0,48.555,119,0.889,0.889,0,0,0,47.667,119.888Z"/>
  <path id="Oval-183" data-name="Oval" class="cls-1" d="M47.667,139.444a0.889,0.889,0,1,0,.889-0.889A0.888,0.888,0,0,0,47.667,139.444Z"/>
  <path id="Oval-184" data-name="Oval" class="cls-1" d="M47.667,159a0.889,0.889,0,1,0,.889-0.889A0.889,0.889,0,0,0,47.667,159Z"/>
  <path id="Oval-185" data-name="Oval" class="cls-1" d="M47.667,178.555a0.889,0.889,0,1,0,.889-0.889A0.889,0.889,0,0,0,47.667,178.555Z"/>
  <path id="Oval-186" data-name="Oval" class="cls-1" d="M47.667,198.11a0.889,0.889,0,1,0,.889-0.888A0.888,0.888,0,0,0,47.667,198.11Z"/>
  <path id="Oval-187" data-name="Oval" class="cls-1" d="M47.667,217.666a0.889,0.889,0,1,0,.889-0.889A0.889,0.889,0,0,0,47.667,217.666Z"/>
  <path id="Oval-188" data-name="Oval" class="cls-1" d="M47.667,237.221a0.889,0.889,0,1,0,.889-0.889A0.89,0.89,0,0,0,47.667,237.221Z"/>
  <path id="Oval-189" data-name="Oval" class="cls-1" d="M47.667,256.777a0.889,0.889,0,1,0,.889-0.889A0.889,0.889,0,0,0,47.667,256.777Z"/>
  <path id="Oval-190" data-name="Oval" class="cls-1" d="M47.667,276.333a0.889,0.889,0,1,0,.889-0.889A0.888,0.888,0,0,0,47.667,276.333Z"/>
  <path id="Oval-191" data-name="Oval" class="cls-1" d="M47.667,295.888A0.889,0.889,0,1,0,48.555,295,0.889,0.889,0,0,0,47.667,295.888Z"/>
  <path id="Oval-192" data-name="Oval" class="cls-1" d="M47.667,315.444a0.889,0.889,0,1,0,.889-0.889A0.889,0.889,0,0,0,47.667,315.444Z"/>
  <path id="Oval-193" data-name="Oval" class="cls-1" d="M47.667,335a0.889,0.889,0,1,0,.889-0.889A0.889,0.889,0,0,0,47.667,335Z"/>
  <path id="Oval-194" data-name="Oval" class="cls-1" d="M47.667,354.555a0.889,0.889,0,1,0,.889-0.889A0.889,0.889,0,0,0,47.667,354.555Z"/>
  <path id="Oval-195" data-name="Oval" class="cls-1" d="M47.667,374.11a0.889,0.889,0,1,0,.889-0.889A0.889,0.889,0,0,0,47.667,374.11Z"/>
  <path id="Oval-196" data-name="Oval" class="cls-1" d="M28.111,100.332A0.889,0.889,0,1,0,29,99.444,0.89,0.89,0,0,0,28.111,100.332Z"/>
  <path id="Oval-197" data-name="Oval" class="cls-1" d="M28.111,119.888A0.889,0.889,0,1,0,29,119,0.889,0.889,0,0,0,28.111,119.888Z"/>
  <path id="Oval-198" data-name="Oval" class="cls-1" d="M28.111,139.444A0.889,0.889,0,1,0,29,138.555,0.888,0.888,0,0,0,28.111,139.444Z"/>
  <path id="Oval-199" data-name="Oval" class="cls-1" d="M28.111,159A0.889,0.889,0,1,0,29,158.11,0.889,0.889,0,0,0,28.111,159Z"/>
  <path id="Oval-200" data-name="Oval" class="cls-1" d="M28.111,178.555A0.889,0.889,0,1,0,29,177.666,0.889,0.889,0,0,0,28.111,178.555Z"/>
  <path id="Oval-201" data-name="Oval" class="cls-1" d="M28.111,198.11A0.889,0.889,0,1,0,29,197.222,0.888,0.888,0,0,0,28.111,198.11Z"/>
  <path id="Oval-202" data-name="Oval" class="cls-1" d="M28.111,217.666A0.889,0.889,0,1,0,29,216.777,0.889,0.889,0,0,0,28.111,217.666Z"/>
  <path id="Oval-203" data-name="Oval" class="cls-1" d="M28.111,237.221A0.889,0.889,0,1,0,29,236.332,0.89,0.89,0,0,0,28.111,237.221Z"/>
  <path id="Oval-204" data-name="Oval" class="cls-1" d="M28.111,256.777A0.889,0.889,0,1,0,29,255.888,0.889,0.889,0,0,0,28.111,256.777Z"/>
  <path id="Oval-205" data-name="Oval" class="cls-1" d="M28.111,276.333A0.889,0.889,0,1,0,29,275.444,0.888,0.888,0,0,0,28.111,276.333Z"/>
  <path id="Oval-206" data-name="Oval" class="cls-1" d="M28.111,295.888A0.889,0.889,0,1,0,29,295,0.889,0.889,0,0,0,28.111,295.888Z"/>
  <path id="Oval-207" data-name="Oval" class="cls-1" d="M28.111,315.444A0.889,0.889,0,1,0,29,314.555,0.889,0.889,0,0,0,28.111,315.444Z"/>
  <path id="Oval-208" data-name="Oval" class="cls-1" d="M28.111,335A0.889,0.889,0,1,0,29,334.11,0.889,0.889,0,0,0,28.111,335Z"/>
  <path id="Oval-209" data-name="Oval" class="cls-1" d="M28.111,354.555A0.889,0.889,0,1,0,29,353.666,0.889,0.889,0,0,0,28.111,354.555Z"/>
  <path id="Oval-210" data-name="Oval" class="cls-1" d="M28.111,374.11A0.889,0.889,0,1,0,29,373.221,0.889,0.889,0,0,0,28.111,374.11Z"/>
  <path id="Oval-211" data-name="Oval" class="cls-1" d="M8.555,100.332a0.889,0.889,0,1,0,.889-0.888A0.89,0.89,0,0,0,8.555,100.332Z"/>
  <path id="Oval-212" data-name="Oval" class="cls-1" d="M8.555,119.888A0.889,0.889,0,1,0,9.444,119,0.889,0.889,0,0,0,8.555,119.888Z"/>
  <path id="Oval-213" data-name="Oval" class="cls-1" d="M8.555,139.444a0.889,0.889,0,1,0,.889-0.889A0.888,0.888,0,0,0,8.555,139.444Z"/>
  <path id="Oval-214" data-name="Oval" class="cls-1" d="M8.555,159a0.889,0.889,0,1,0,.889-0.889A0.889,0.889,0,0,0,8.555,159Z"/>
  <path id="Oval-215" data-name="Oval" class="cls-1" d="M8.555,178.555a0.889,0.889,0,1,0,.889-0.889A0.889,0.889,0,0,0,8.555,178.555Z"/>
  <path id="Oval-216" data-name="Oval" class="cls-1" d="M8.555,198.11a0.889,0.889,0,1,0,.889-0.888A0.888,0.888,0,0,0,8.555,198.11Z"/>
  <path id="Oval-217" data-name="Oval" class="cls-1" d="M8.555,217.666a0.889,0.889,0,1,0,.889-0.889A0.889,0.889,0,0,0,8.555,217.666Z"/>
  <path id="Oval-218" data-name="Oval" class="cls-1" d="M8.555,237.221a0.889,0.889,0,1,0,.889-0.889A0.89,0.89,0,0,0,8.555,237.221Z"/>
  <path id="Oval-219" data-name="Oval" class="cls-1" d="M8.555,256.777a0.889,0.889,0,1,0,.889-0.889A0.889,0.889,0,0,0,8.555,256.777Z"/>
  <path id="Oval-220" data-name="Oval" class="cls-1" d="M8.555,276.333a0.889,0.889,0,1,0,.889-0.889A0.888,0.888,0,0,0,8.555,276.333Z"/>
  <path id="Oval-221" data-name="Oval" class="cls-1" d="M8.555,295.888A0.889,0.889,0,1,0,9.444,295,0.889,0.889,0,0,0,8.555,295.888Z"/>
  <path id="Oval-222" data-name="Oval" class="cls-1" d="M8.555,315.444a0.889,0.889,0,1,0,.889-0.889A0.889,0.889,0,0,0,8.555,315.444Z"/>
  <path id="Oval-223" data-name="Oval" class="cls-1" d="M8.555,335a0.889,0.889,0,1,0,.889-0.889A0.889,0.889,0,0,0,8.555,335Z"/>
  <path id="Oval-224" data-name="Oval" class="cls-1" d="M8.555,354.555a0.889,0.889,0,1,0,.889-0.889A0.889,0.889,0,0,0,8.555,354.555Z"/>
  <path id="Oval-225" data-name="Oval" class="cls-1" d="M8.555,374.11a0.889,0.889,0,1,0,.889-0.889A0.889,0.889,0,0,0,8.555,374.11Z"/>
  <path id="Oval-226" data-name="Oval" class="cls-1" d="M-11,100.332a0.89,0.89,0,0,0,.889.89,0.89,0.89,0,0,0,.889-0.89,0.889,0.889,0,0,0-.889-0.888A0.889,0.889,0,0,0-11,100.332Z"/>
  <path id="Oval-227" data-name="Oval" class="cls-1" d="M-11,119.888a0.889,0.889,0,0,0,.889.889,0.889,0.889,0,0,0,.889-0.889A0.889,0.889,0,0,0-10.111,119,0.889,0.889,0,0,0-11,119.888Z"/>
  <path id="Oval-228" data-name="Oval" class="cls-1" d="M-11,139.444a0.888,0.888,0,0,0,.889.888,0.888,0.888,0,0,0,.889-0.888,0.889,0.889,0,0,0-.889-0.889A0.889,0.889,0,0,0-11,139.444Z"/>
  <path id="Oval-229" data-name="Oval" class="cls-1" d="M-11,159a0.889,0.889,0,0,0,.889.889A0.889,0.889,0,0,0-9.222,159a0.889,0.889,0,0,0-.889-0.889A0.889,0.889,0,0,0-11,159Z"/>
  <path id="Oval-230" data-name="Oval" class="cls-1" d="M-11,178.555a0.889,0.889,0,0,0,.889.889,0.889,0.889,0,0,0,.889-0.889,0.889,0.889,0,0,0-.889-0.889A0.889,0.889,0,0,0-11,178.555Z"/>
  <path id="Oval-231" data-name="Oval" class="cls-1" d="M-11,198.11a0.888,0.888,0,0,0,.889.889,0.888,0.888,0,0,0,.889-0.889,0.888,0.888,0,0,0-.889-0.888A0.888,0.888,0,0,0-11,198.11Z"/>
  <path id="Oval-232" data-name="Oval" class="cls-1" d="M-11,217.666a0.889,0.889,0,0,0,.889.889,0.889,0.889,0,0,0,.889-0.889,0.889,0.889,0,0,0-.889-0.889A0.889,0.889,0,0,0-11,217.666Z"/>
  <path id="Oval-233" data-name="Oval" class="cls-1" d="M-11,237.221a0.89,0.89,0,0,0,.889.89,0.89,0.89,0,0,0,.889-0.89,0.89,0.89,0,0,0-.889-0.889A0.89,0.89,0,0,0-11,237.221Z"/>
  <path id="Oval-234" data-name="Oval" class="cls-1" d="M-11,256.777a0.889,0.889,0,0,0,.889.889,0.889,0.889,0,0,0,.889-0.889,0.889,0.889,0,0,0-.889-0.889A0.889,0.889,0,0,0-11,256.777Z"/>
  <path id="Oval-235" data-name="Oval" class="cls-1" d="M-11,276.333a0.888,0.888,0,0,0,.889.888,0.888,0.888,0,0,0,.889-0.888,0.888,0.888,0,0,0-.889-0.889A0.888,0.888,0,0,0-11,276.333Z"/>
  <path id="Oval-236" data-name="Oval" class="cls-1" d="M-11,295.888a0.889,0.889,0,0,0,.889.889,0.889,0.889,0,0,0,.889-0.889A0.889,0.889,0,0,0-10.111,295,0.889,0.889,0,0,0-11,295.888Z"/>
  <path id="Oval-237" data-name="Oval" class="cls-1" d="M-11,315.444a0.889,0.889,0,0,0,.889.889,0.889,0.889,0,0,0,.889-0.889,0.889,0.889,0,0,0-.889-0.889A0.889,0.889,0,0,0-11,315.444Z"/>
  <path id="Oval-238" data-name="Oval" class="cls-1" d="M-11,335a0.889,0.889,0,0,0,.889.889A0.889,0.889,0,0,0-9.222,335a0.889,0.889,0,0,0-.889-0.889A0.889,0.889,0,0,0-11,335Z"/>
  <path id="Oval-239" data-name="Oval" class="cls-1" d="M-11,354.555a0.889,0.889,0,0,0,.889.889,0.889,0.889,0,0,0,.889-0.889,0.889,0.889,0,0,0-.889-0.889A0.889,0.889,0,0,0-11,354.555Z"/>
  <path id="Oval-240" data-name="Oval" class="cls-1" d="M-11,374.11a0.889,0.889,0,0,0,.889.889,0.889,0.889,0,0,0,.889-0.889,0.89,0.89,0,0,0-.889-0.889A0.89,0.89,0,0,0-11,374.11Z"/>
  <path id="Oval-241" data-name="Oval" class="cls-1" d="M435.222,105.888a0.889,0.889,0,1,0,.889-0.889A0.889,0.889,0,0,0,435.222,105.888Z"/>
  <path id="Oval-242" data-name="Oval" class="cls-1" d="M435.222,120.444a0.889,0.889,0,1,0,.889-0.889A0.888,0.888,0,0,0,435.222,120.444Z"/>
  <path id="Oval-243" data-name="Oval" class="cls-1" d="M435.222,140a0.889,0.889,0,1,0,.889-0.889A0.889,0.889,0,0,0,435.222,140Z"/>
  <path id="Oval-244" data-name="Oval" class="cls-1" d="M435.222,159.555a0.889,0.889,0,1,0,.889-0.889A0.89,0.89,0,0,0,435.222,159.555Z"/>
  <path id="Oval-245" data-name="Oval" class="cls-1" d="M435.222,179.111a0.889,0.889,0,1,0,.889-0.89A0.889,0.889,0,0,0,435.222,179.111Z"/>
  <path id="Oval-246" data-name="Oval" class="cls-1" d="M435.222,198.666a0.889,0.889,0,1,0,.889-0.889A0.889,0.889,0,0,0,435.222,198.666Z"/>
  <path id="Oval-247" data-name="Oval" class="cls-1" d="M435.222,218.221a0.889,0.889,0,1,0,.889-0.888A0.889,0.889,0,0,0,435.222,218.221Z"/>
  <path id="Oval-248" data-name="Oval" class="cls-1" d="M435.222,237.777a0.889,0.889,0,1,0,.889-0.889A0.889,0.889,0,0,0,435.222,237.777Z"/>
  <path id="Oval-249" data-name="Oval" class="cls-1" d="M435.222,257.333a0.889,0.889,0,1,0,.889-0.889A0.888,0.888,0,0,0,435.222,257.333Z"/>
  <path id="Oval-250" data-name="Oval" class="cls-1" d="M435.222,276.888a0.889,0.889,0,1,0,.889-0.889A0.889,0.889,0,0,0,435.222,276.888Z"/>
  <path id="Oval-251" data-name="Oval" class="cls-1" d="M435.222,296.444a0.889,0.889,0,1,0,.889-0.889A0.89,0.89,0,0,0,435.222,296.444Z"/>
  <path id="Oval-252" data-name="Oval" class="cls-1" d="M435.222,316a0.889,0.889,0,1,0,.889-0.889A0.889,0.889,0,0,0,435.222,316Z"/>
  <path id="Oval-253" data-name="Oval" class="cls-1" d="M435.222,335.555a0.889,0.889,0,1,0,.889-0.889A0.889,0.889,0,0,0,435.222,335.555Z"/>
  <path id="Oval-254" data-name="Oval" class="cls-1" d="M435.222,355.11a0.889,0.889,0,1,0,.889-0.889A0.889,0.889,0,0,0,435.222,355.11Z"/>
  <path id="Oval-255" data-name="Oval" class="cls-1" d="M435.222,374.666a0.889,0.889,0,1,0,.889-0.889A0.889,0.889,0,0,0,435.222,374.666Z"/>
  <path id="Oval-256" data-name="Oval" class="cls-1" d="M415.667,100.332a0.889,0.889,0,1,0,.888-0.888A0.889,0.889,0,0,0,415.667,100.332Z"/>
  <path id="Oval-257" data-name="Oval" class="cls-1" d="M415.667,119.888a0.889,0.889,0,1,0,.888-0.889A0.888,0.888,0,0,0,415.667,119.888Z"/>
  <path id="Oval-258" data-name="Oval" class="cls-1" d="M415.667,139.444a0.889,0.889,0,1,0,.888-0.889A0.887,0.887,0,0,0,415.667,139.444Z"/>
  <path id="Oval-259" data-name="Oval" class="cls-1" d="M415.667,159a0.889,0.889,0,1,0,.888-0.889A0.888,0.888,0,0,0,415.667,159Z"/>
  <path id="Oval-260" data-name="Oval" class="cls-1" d="M415.667,178.555a0.889,0.889,0,1,0,.888-0.889A0.888,0.888,0,0,0,415.667,178.555Z"/>
  <path id="Oval-261" data-name="Oval" class="cls-1" d="M415.667,198.11a0.889,0.889,0,1,0,.888-0.888A0.887,0.887,0,0,0,415.667,198.11Z"/>
  <path id="Oval-262" data-name="Oval" class="cls-1" d="M415.667,217.666a0.889,0.889,0,1,0,.888-0.889A0.888,0.888,0,0,0,415.667,217.666Z"/>
  <path id="Oval-263" data-name="Oval" class="cls-1" d="M415.667,237.221a0.889,0.889,0,1,0,.888-0.889A0.889,0.889,0,0,0,415.667,237.221Z"/>
  <path id="Oval-264" data-name="Oval" class="cls-1" d="M415.667,256.777a0.889,0.889,0,1,0,.888-0.889A0.888,0.888,0,0,0,415.667,256.777Z"/>
  <path id="Oval-265" data-name="Oval" class="cls-1" d="M415.667,276.333a0.889,0.889,0,1,0,.888-0.889A0.887,0.887,0,0,0,415.667,276.333Z"/>
  <path id="Oval-266" data-name="Oval" class="cls-1" d="M415.667,295.888a0.889,0.889,0,1,0,.888-0.889A0.888,0.888,0,0,0,415.667,295.888Z"/>
  <path id="Oval-267" data-name="Oval" class="cls-1" d="M415.667,315.444a0.889,0.889,0,1,0,.888-0.889A0.888,0.888,0,0,0,415.667,315.444Z"/>
  <path id="Oval-268" data-name="Oval" class="cls-1" d="M415.667,335a0.889,0.889,0,1,0,.888-0.889A0.888,0.888,0,0,0,415.667,335Z"/>
  <path id="Oval-269" data-name="Oval" class="cls-1" d="M415.667,354.555a0.889,0.889,0,1,0,.888-0.889A0.888,0.888,0,0,0,415.667,354.555Z"/>
  <path id="Oval-270" data-name="Oval" class="cls-1" d="M415.667,374.11a0.889,0.889,0,1,0,.888-0.889A0.888,0.888,0,0,0,415.667,374.11Z"/>
  <path id="Oval-271" data-name="Oval" class="cls-1" d="M396.111,100.332A0.889,0.889,0,1,0,397,99.444,0.89,0.89,0,0,0,396.111,100.332Z"/>
  <path id="Oval-272" data-name="Oval" class="cls-1" d="M396.111,119.888A0.889,0.889,0,1,0,397,119,0.889,0.889,0,0,0,396.111,119.888Z"/>
  <path id="Oval-273" data-name="Oval" class="cls-1" d="M396.111,139.444a0.889,0.889,0,1,0,.889-0.889A0.888,0.888,0,0,0,396.111,139.444Z"/>
  <path id="Oval-274" data-name="Oval" class="cls-1" d="M396.111,159A0.889,0.889,0,1,0,397,158.11,0.889,0.889,0,0,0,396.111,159Z"/>
  <path id="Oval-275" data-name="Oval" class="cls-1" d="M396.111,178.555a0.889,0.889,0,1,0,.889-0.889A0.889,0.889,0,0,0,396.111,178.555Z"/>
  <path id="Oval-276" data-name="Oval" class="cls-1" d="M396.111,198.11a0.889,0.889,0,1,0,.889-0.888A0.888,0.888,0,0,0,396.111,198.11Z"/>
  <path id="Oval-277" data-name="Oval" class="cls-1" d="M396.111,217.666a0.889,0.889,0,1,0,.889-0.889A0.889,0.889,0,0,0,396.111,217.666Z"/>
  <path id="Oval-278" data-name="Oval" class="cls-1" d="M396.111,237.221a0.889,0.889,0,1,0,.889-0.889A0.89,0.89,0,0,0,396.111,237.221Z"/>
  <path id="Oval-279" data-name="Oval" class="cls-1" d="M396.111,256.777a0.889,0.889,0,1,0,.889-0.889A0.889,0.889,0,0,0,396.111,256.777Z"/>
  <path id="Oval-280" data-name="Oval" class="cls-1" d="M396.111,276.333a0.889,0.889,0,1,0,.889-0.889A0.888,0.888,0,0,0,396.111,276.333Z"/>
  <path id="Oval-281" data-name="Oval" class="cls-1" d="M396.111,295.888A0.889,0.889,0,1,0,397,295,0.889,0.889,0,0,0,396.111,295.888Z"/>
  <path id="Oval-282" data-name="Oval" class="cls-1" d="M396.111,315.444a0.889,0.889,0,1,0,.889-0.889A0.889,0.889,0,0,0,396.111,315.444Z"/>
  <path id="Oval-283" data-name="Oval" class="cls-1" d="M396.111,335A0.889,0.889,0,1,0,397,334.11,0.889,0.889,0,0,0,396.111,335Z"/>
  <path id="Oval-284" data-name="Oval" class="cls-1" d="M396.111,354.555a0.889,0.889,0,1,0,.889-0.889A0.889,0.889,0,0,0,396.111,354.555Z"/>
  <path id="Oval-285" data-name="Oval" class="cls-1" d="M396.111,374.11a0.889,0.889,0,1,0,.889-0.889A0.889,0.889,0,0,0,396.111,374.11Z"/>
  <path id="Oval-286" data-name="Oval" class="cls-1" d="M376.555,100.332a0.889,0.889,0,1,0,.889-0.888A0.89,0.89,0,0,0,376.555,100.332Z"/>
  <path id="Oval-287" data-name="Oval" class="cls-1" d="M376.555,119.888a0.889,0.889,0,1,0,.889-0.889A0.889,0.889,0,0,0,376.555,119.888Z"/>
  <path id="Oval-288" data-name="Oval" class="cls-1" d="M376.555,139.444a0.889,0.889,0,1,0,.889-0.889A0.888,0.888,0,0,0,376.555,139.444Z"/>
  <path id="Oval-289" data-name="Oval" class="cls-1" d="M376.555,159a0.889,0.889,0,1,0,.889-0.889A0.889,0.889,0,0,0,376.555,159Z"/>
  <path id="Oval-290" data-name="Oval" class="cls-1" d="M376.555,178.555a0.889,0.889,0,1,0,.889-0.889A0.889,0.889,0,0,0,376.555,178.555Z"/>
  <path id="Oval-291" data-name="Oval" class="cls-1" d="M376.555,198.11a0.889,0.889,0,1,0,.889-0.888A0.888,0.888,0,0,0,376.555,198.11Z"/>
  <path id="Oval-292" data-name="Oval" class="cls-1" d="M376.555,217.666a0.889,0.889,0,1,0,.889-0.889A0.889,0.889,0,0,0,376.555,217.666Z"/>
  <path id="Oval-293" data-name="Oval" class="cls-1" d="M376.555,237.221a0.889,0.889,0,1,0,.889-0.889A0.89,0.89,0,0,0,376.555,237.221Z"/>
  <path id="Oval-294" data-name="Oval" class="cls-1" d="M376.555,256.777a0.889,0.889,0,1,0,.889-0.889A0.889,0.889,0,0,0,376.555,256.777Z"/>
  <path id="Oval-295" data-name="Oval" class="cls-1" d="M376.555,276.333a0.889,0.889,0,1,0,.889-0.889A0.888,0.888,0,0,0,376.555,276.333Z"/>
  <path id="Oval-296" data-name="Oval" class="cls-1" d="M376.555,295.888a0.889,0.889,0,1,0,.889-0.889A0.889,0.889,0,0,0,376.555,295.888Z"/>
  <path id="Oval-297" data-name="Oval" class="cls-1" d="M376.555,315.444a0.889,0.889,0,1,0,.889-0.889A0.889,0.889,0,0,0,376.555,315.444Z"/>
  <path id="Oval-298" data-name="Oval" class="cls-1" d="M376.555,335a0.889,0.889,0,1,0,.889-0.889A0.889,0.889,0,0,0,376.555,335Z"/>
  <path id="Oval-299" data-name="Oval" class="cls-1" d="M376.555,354.555a0.889,0.889,0,1,0,.889-0.889A0.889,0.889,0,0,0,376.555,354.555Z"/>
  <path id="Oval-300" data-name="Oval" class="cls-1" d="M376.555,374.11a0.889,0.889,0,1,0,.889-0.889A0.889,0.889,0,0,0,376.555,374.11Z"/>
  <path id="Oval-301" data-name="Oval" class="cls-1" d="M357,100.332a0.889,0.889,0,1,0,.889-0.888A0.89,0.89,0,0,0,357,100.332Z"/>
  <path id="Oval-302" data-name="Oval" class="cls-1" d="M357,119.888a0.889,0.889,0,1,0,.889-0.889A0.889,0.889,0,0,0,357,119.888Z"/>
  <path id="Oval-303" data-name="Oval" class="cls-1" d="M357,139.444a0.889,0.889,0,1,0,.889-0.889A0.888,0.888,0,0,0,357,139.444Z"/>
  <path id="Oval-304" data-name="Oval" class="cls-1" d="M357,159a0.889,0.889,0,1,0,.889-0.889A0.889,0.889,0,0,0,357,159Z"/>
  <path id="Oval-305" data-name="Oval" class="cls-1" d="M357,178.555a0.889,0.889,0,1,0,.889-0.889A0.889,0.889,0,0,0,357,178.555Z"/>
  <path id="Oval-306" data-name="Oval" class="cls-1" d="M357,198.11a0.889,0.889,0,1,0,.889-0.888A0.888,0.888,0,0,0,357,198.11Z"/>
  <path id="Oval-307" data-name="Oval" class="cls-1" d="M357,217.666a0.889,0.889,0,1,0,.889-0.889A0.889,0.889,0,0,0,357,217.666Z"/>
  <path id="Oval-308" data-name="Oval" class="cls-1" d="M357,237.221a0.889,0.889,0,1,0,.889-0.889A0.89,0.89,0,0,0,357,237.221Z"/>
  <path id="Oval-309" data-name="Oval" class="cls-1" d="M357,256.777a0.889,0.889,0,1,0,.889-0.889A0.889,0.889,0,0,0,357,256.777Z"/>
  <path id="Oval-310" data-name="Oval" class="cls-1" d="M357,276.333a0.889,0.889,0,1,0,.889-0.889A0.888,0.888,0,0,0,357,276.333Z"/>
  <path id="Oval-311" data-name="Oval" class="cls-1" d="M357,295.888a0.889,0.889,0,1,0,.889-0.889A0.889,0.889,0,0,0,357,295.888Z"/>
  <path id="Oval-312" data-name="Oval" class="cls-1" d="M357,315.444a0.889,0.889,0,1,0,.889-0.889A0.889,0.889,0,0,0,357,315.444Z"/>
  <path id="Oval-313" data-name="Oval" class="cls-1" d="M357,335a0.889,0.889,0,1,0,.889-0.889A0.889,0.889,0,0,0,357,335Z"/>
  <path id="Oval-314" data-name="Oval" class="cls-1" d="M357,354.555a0.889,0.889,0,1,0,.889-0.889A0.889,0.889,0,0,0,357,354.555Z"/>
  <path id="Oval-315" data-name="Oval" class="cls-1" d="M357,374.11a0.889,0.889,0,1,0,.889-0.889A0.889,0.889,0,0,0,357,374.11Z"/>
  <path id="Oval-316" data-name="Oval" class="cls-1" d="M337.444,100.332a0.889,0.889,0,1,0,.889-0.888A0.89,0.89,0,0,0,337.444,100.332Z"/>
  <path id="Oval-317" data-name="Oval" class="cls-1" d="M337.444,119.888a0.889,0.889,0,1,0,.889-0.889A0.889,0.889,0,0,0,337.444,119.888Z"/>
  <path id="Oval-318" data-name="Oval" class="cls-1" d="M337.444,139.444a0.889,0.889,0,1,0,.889-0.889A0.888,0.888,0,0,0,337.444,139.444Z"/>
  <path id="Oval-319" data-name="Oval" class="cls-1" d="M337.444,159a0.889,0.889,0,1,0,.889-0.889A0.889,0.889,0,0,0,337.444,159Z"/>
  <path id="Oval-320" data-name="Oval" class="cls-1" d="M337.444,178.555a0.889,0.889,0,1,0,.889-0.889A0.889,0.889,0,0,0,337.444,178.555Z"/>
  <path id="Oval-321" data-name="Oval" class="cls-1" d="M337.444,198.11a0.889,0.889,0,1,0,.889-0.888A0.888,0.888,0,0,0,337.444,198.11Z"/>
  <path id="Oval-322" data-name="Oval" class="cls-1" d="M337.444,217.666a0.889,0.889,0,1,0,.889-0.889A0.889,0.889,0,0,0,337.444,217.666Z"/>
  <path id="Oval-323" data-name="Oval" class="cls-1" d="M337.444,237.221a0.889,0.889,0,1,0,.889-0.889A0.89,0.89,0,0,0,337.444,237.221Z"/>
  <path id="Oval-324" data-name="Oval" class="cls-1" d="M337.444,256.777a0.889,0.889,0,1,0,.889-0.889A0.889,0.889,0,0,0,337.444,256.777Z"/>
  <path id="Oval-325" data-name="Oval" class="cls-1" d="M337.444,276.333a0.889,0.889,0,1,0,.889-0.889A0.888,0.888,0,0,0,337.444,276.333Z"/>
  <path id="Oval-326" data-name="Oval" class="cls-1" d="M337.444,295.888a0.889,0.889,0,1,0,.889-0.889A0.889,0.889,0,0,0,337.444,295.888Z"/>
  <path id="Oval-327" data-name="Oval" class="cls-1" d="M337.444,315.444a0.889,0.889,0,1,0,.889-0.889A0.889,0.889,0,0,0,337.444,315.444Z"/>
  <path id="Oval-328" data-name="Oval" class="cls-1" d="M337.444,335a0.889,0.889,0,1,0,.889-0.889A0.889,0.889,0,0,0,337.444,335Z"/>
  <path id="Oval-329" data-name="Oval" class="cls-1" d="M337.444,354.555a0.889,0.889,0,1,0,.889-0.889A0.889,0.889,0,0,0,337.444,354.555Z"/>
  <path id="Oval-330" data-name="Oval" class="cls-1" d="M337.444,374.11a0.889,0.889,0,1,0,.889-0.889A0.889,0.889,0,0,0,337.444,374.11Z"/>
  <path id="Oval-331" data-name="Oval" class="cls-1" d="M317.889,100.332a0.889,0.889,0,1,0,.889-0.888A0.89,0.89,0,0,0,317.889,100.332Z"/>
  <path id="Oval-332" data-name="Oval" class="cls-1" d="M317.889,119.888a0.889,0.889,0,1,0,.889-0.889A0.889,0.889,0,0,0,317.889,119.888Z"/>
  <path id="Oval-333" data-name="Oval" class="cls-1" d="M317.889,139.444a0.889,0.889,0,1,0,.889-0.889A0.888,0.888,0,0,0,317.889,139.444Z"/>
  <path id="Oval-334" data-name="Oval" class="cls-1" d="M317.889,159a0.889,0.889,0,1,0,.889-0.889A0.889,0.889,0,0,0,317.889,159Z"/>
  <path id="Oval-335" data-name="Oval" class="cls-1" d="M317.889,178.555a0.889,0.889,0,1,0,.889-0.889A0.889,0.889,0,0,0,317.889,178.555Z"/>
  <path id="Oval-336" data-name="Oval" class="cls-1" d="M317.889,198.11a0.889,0.889,0,1,0,.889-0.888A0.888,0.888,0,0,0,317.889,198.11Z"/>
  <path id="Oval-337" data-name="Oval" class="cls-1" d="M317.889,217.666a0.889,0.889,0,1,0,.889-0.889A0.889,0.889,0,0,0,317.889,217.666Z"/>
  <path id="Oval-338" data-name="Oval" class="cls-1" d="M317.889,237.221a0.889,0.889,0,1,0,.889-0.889A0.89,0.89,0,0,0,317.889,237.221Z"/>
  <path id="Oval-339" data-name="Oval" class="cls-1" d="M317.889,256.777a0.889,0.889,0,1,0,.889-0.889A0.889,0.889,0,0,0,317.889,256.777Z"/>
  <path id="Oval-340" data-name="Oval" class="cls-1" d="M317.889,276.333a0.889,0.889,0,1,0,.889-0.889A0.888,0.888,0,0,0,317.889,276.333Z"/>
  <path id="Oval-341" data-name="Oval" class="cls-1" d="M317.889,295.888a0.889,0.889,0,1,0,.889-0.889A0.889,0.889,0,0,0,317.889,295.888Z"/>
  <path id="Oval-342" data-name="Oval" class="cls-1" d="M317.889,315.444a0.889,0.889,0,1,0,.889-0.889A0.889,0.889,0,0,0,317.889,315.444Z"/>
  <path id="Oval-343" data-name="Oval" class="cls-1" d="M317.889,335a0.889,0.889,0,1,0,.889-0.889A0.889,0.889,0,0,0,317.889,335Z"/>
  <path id="Oval-344" data-name="Oval" class="cls-1" d="M317.889,354.555a0.889,0.889,0,1,0,.889-0.889A0.889,0.889,0,0,0,317.889,354.555Z"/>
  <path id="Oval-345" data-name="Oval" class="cls-1" d="M317.889,374.11a0.889,0.889,0,1,0,.889-0.889A0.889,0.889,0,0,0,317.889,374.11Z"/>
  <path id="Oval-346" data-name="Oval" class="cls-1" d="M298.333,100.332a0.889,0.889,0,1,0,.889-0.888A0.89,0.89,0,0,0,298.333,100.332Z"/>
  <path id="Oval-347" data-name="Oval" class="cls-1" d="M298.333,119.888a0.889,0.889,0,1,0,.889-0.889A0.889,0.889,0,0,0,298.333,119.888Z"/>
  <path id="Oval-348" data-name="Oval" class="cls-1" d="M298.333,139.444a0.889,0.889,0,1,0,.889-0.889A0.888,0.888,0,0,0,298.333,139.444Z"/>
  <path id="Oval-349" data-name="Oval" class="cls-1" d="M298.333,159a0.889,0.889,0,1,0,.889-0.889A0.889,0.889,0,0,0,298.333,159Z"/>
  <path id="Oval-350" data-name="Oval" class="cls-1" d="M298.333,178.555a0.889,0.889,0,1,0,.889-0.889A0.889,0.889,0,0,0,298.333,178.555Z"/>
  <path id="Oval-351" data-name="Oval" class="cls-1" d="M281,4.888A0.889,0.889,0,1,0,281.889,4,0.889,0.889,0,0,0,281,4.888Z"/>
  <path id="Oval-352" data-name="Oval" class="cls-1" d="M281,24.888A0.889,0.889,0,1,0,281.889,24,0.889,0.889,0,0,0,281,24.888Z"/>
  <path id="Oval-353" data-name="Oval" class="cls-1" d="M281,43.888A0.889,0.889,0,1,0,281.889,43,0.889,0.889,0,0,0,281,43.888Z"/>
  <path id="Oval-354" data-name="Oval" class="cls-1" d="M281,63.888A0.889,0.889,0,1,0,281.889,63,0.889,0.889,0,0,0,281,63.888Z"/>
  <path id="Oval-355" data-name="Oval" class="cls-1" d="M281,83.888A0.889,0.889,0,1,0,281.889,83,0.889,0.889,0,0,0,281,83.888Z"/>
  <path id="Oval-356" data-name="Oval" class="cls-1" d="M261,4.888A0.889,0.889,0,1,0,261.889,4,0.889,0.889,0,0,0,261,4.888Z"/>
  <path id="Oval-357" data-name="Oval" class="cls-1" d="M261,24.888A0.889,0.889,0,1,0,261.889,24,0.889,0.889,0,0,0,261,24.888Z"/>
  <path id="Oval-358" data-name="Oval" class="cls-1" d="M261,43.888A0.889,0.889,0,1,0,261.889,43,0.889,0.889,0,0,0,261,43.888Z"/>
  <path id="Oval-359" data-name="Oval" class="cls-1" d="M261,63.888A0.889,0.889,0,1,0,261.889,63,0.889,0.889,0,0,0,261,63.888Z"/>
  <path id="Oval-360" data-name="Oval" class="cls-1" d="M261,83.888A0.889,0.889,0,1,0,261.889,83,0.889,0.889,0,0,0,261,83.888Z"/>
  <path id="Oval-361" data-name="Oval" class="cls-1" d="M241,4.888A0.889,0.889,0,1,0,241.889,4,0.889,0.889,0,0,0,241,4.888Z"/>
  <path id="Oval-362" data-name="Oval" class="cls-1" d="M241,24.888A0.889,0.889,0,1,0,241.889,24,0.889,0.889,0,0,0,241,24.888Z"/>
  <path id="Oval-363" data-name="Oval" class="cls-1" d="M241,43.888A0.889,0.889,0,1,0,241.889,43,0.889,0.889,0,0,0,241,43.888Z"/>
  <path id="Oval-364" data-name="Oval" class="cls-1" d="M241,63.888A0.889,0.889,0,1,0,241.889,63,0.889,0.889,0,0,0,241,63.888Z"/>
  <path id="Oval-365" data-name="Oval" class="cls-1" d="M241,83.888A0.889,0.889,0,1,0,241.889,83,0.889,0.889,0,0,0,241,83.888Z"/>
  <path id="Oval-366" data-name="Oval" class="cls-1" d="M222,4.888A0.889,0.889,0,1,0,222.889,4,0.889,0.889,0,0,0,222,4.888Z"/>
  <path id="Oval-367" data-name="Oval" class="cls-1" d="M222,24.888A0.889,0.889,0,1,0,222.889,24,0.889,0.889,0,0,0,222,24.888Z"/>
  <path id="Oval-368" data-name="Oval" class="cls-1" d="M222,43.888A0.889,0.889,0,1,0,222.889,43,0.889,0.889,0,0,0,222,43.888Z"/>
  <path id="Oval-369" data-name="Oval" class="cls-1" d="M222,63.888A0.889,0.889,0,1,0,222.889,63,0.889,0.889,0,0,0,222,63.888Z"/>
  <path id="Oval-370" data-name="Oval" class="cls-1" d="M222,83.888A0.889,0.889,0,1,0,222.889,83,0.889,0.889,0,0,0,222,83.888Z"/>
  <path id="Oval-371" data-name="Oval" class="cls-1" d="M202,4.888A0.889,0.889,0,1,0,202.889,4,0.889,0.889,0,0,0,202,4.888Z"/>
  <path id="Oval-372" data-name="Oval" class="cls-1" d="M202,24.888A0.889,0.889,0,1,0,202.889,24,0.889,0.889,0,0,0,202,24.888Z"/>
  <path id="Oval-373" data-name="Oval" class="cls-1" d="M202,43.888A0.889,0.889,0,1,0,202.889,43,0.889,0.889,0,0,0,202,43.888Z"/>
  <path id="Oval-374" data-name="Oval" class="cls-1" d="M202,63.888A0.889,0.889,0,1,0,202.889,63,0.889,0.889,0,0,0,202,63.888Z"/>
  <path id="Oval-375" data-name="Oval" class="cls-1" d="M202,83.888A0.889,0.889,0,1,0,202.889,83,0.889,0.889,0,0,0,202,83.888Z"/>
  <path id="Oval-376" data-name="Oval" class="cls-1" d="M183,4.888A0.889,0.889,0,1,0,183.889,4,0.889,0.889,0,0,0,183,4.888Z"/>
  <path id="Oval-377" data-name="Oval" class="cls-1" d="M183,24.888A0.889,0.889,0,1,0,183.889,24,0.889,0.889,0,0,0,183,24.888Z"/>
  <path id="Oval-378" data-name="Oval" class="cls-1" d="M183,43.888A0.889,0.889,0,1,0,183.889,43,0.889,0.889,0,0,0,183,43.888Z"/>
  <path id="Oval-379" data-name="Oval" class="cls-1" d="M183,63.888A0.889,0.889,0,1,0,183.889,63,0.889,0.889,0,0,0,183,63.888Z"/>
  <path id="Oval-380" data-name="Oval" class="cls-1" d="M183,83.888A0.889,0.889,0,1,0,183.889,83,0.889,0.889,0,0,0,183,83.888Z"/>
  <path id="Oval-381" data-name="Oval" class="cls-1" d="M163,4.888A0.889,0.889,0,1,0,163.889,4,0.889,0.889,0,0,0,163,4.888Z"/>
  <path id="Oval-382" data-name="Oval" class="cls-1" d="M163,24.888A0.889,0.889,0,1,0,163.889,24,0.889,0.889,0,0,0,163,24.888Z"/>
  <path id="Oval-383" data-name="Oval" class="cls-1" d="M163,43.888A0.889,0.889,0,1,0,163.889,43,0.889,0.889,0,0,0,163,43.888Z"/>
  <path id="Oval-384" data-name="Oval" class="cls-1" d="M163,63.888A0.889,0.889,0,1,0,163.889,63,0.889,0.889,0,0,0,163,63.888Z"/>
  <path id="Oval-385" data-name="Oval" class="cls-1" d="M163,83.888A0.889,0.889,0,1,0,163.889,83,0.889,0.889,0,0,0,163,83.888Z"/>
  <path id="Oval-386" data-name="Oval" class="cls-1" d="M144,4.888A0.889,0.889,0,1,0,144.889,4,0.889,0.889,0,0,0,144,4.888Z"/>
  <path id="Oval-387" data-name="Oval" class="cls-1" d="M144,24.888A0.889,0.889,0,1,0,144.889,24,0.889,0.889,0,0,0,144,24.888Z"/>
  <path id="Oval-388" data-name="Oval" class="cls-1" d="M144,43.888A0.889,0.889,0,1,0,144.889,43,0.889,0.889,0,0,0,144,43.888Z"/>
  <path id="Oval-389" data-name="Oval" class="cls-1" d="M144,63.888A0.889,0.889,0,1,0,144.889,63,0.889,0.889,0,0,0,144,63.888Z"/>
  <path id="Oval-390" data-name="Oval" class="cls-1" d="M144,83.888A0.889,0.889,0,1,0,144.889,83,0.889,0.889,0,0,0,144,83.888Z"/>
  <path id="Oval-391" data-name="Oval" class="cls-1" d="M126,4.888A0.889,0.889,0,1,0,126.889,4,0.889,0.889,0,0,0,126,4.888Z"/>
  <path id="Oval-392" data-name="Oval" class="cls-1" d="M126,24.888A0.889,0.889,0,1,0,126.889,24,0.889,0.889,0,0,0,126,24.888Z"/>
  <path id="Oval-393" data-name="Oval" class="cls-1" d="M126,43.888A0.889,0.889,0,1,0,126.889,43,0.889,0.889,0,0,0,126,43.888Z"/>
  <path id="Oval-394" data-name="Oval" class="cls-1" d="M126,63.888A0.889,0.889,0,1,0,126.889,63,0.889,0.889,0,0,0,126,63.888Z"/>
  <path id="Oval-395" data-name="Oval" class="cls-1" d="M126,83.888A0.889,0.889,0,1,0,126.889,83,0.889,0.889,0,0,0,126,83.888Z"/>
  <path id="Oval-396" data-name="Oval" class="cls-1" d="M106,4.888A0.889,0.889,0,1,0,106.889,4,0.889,0.889,0,0,0,106,4.888Z"/>
  <path id="Oval-397" data-name="Oval" class="cls-1" d="M106,24.888A0.889,0.889,0,1,0,106.889,24,0.889,0.889,0,0,0,106,24.888Z"/>
  <path id="Oval-398" data-name="Oval" class="cls-1" d="M106,43.888A0.889,0.889,0,1,0,106.889,43,0.889,0.889,0,0,0,106,43.888Z"/>
  <path id="Oval-399" data-name="Oval" class="cls-1" d="M106,63.888A0.889,0.889,0,1,0,106.889,63,0.889,0.889,0,0,0,106,63.888Z"/>
  <path id="Oval-400" data-name="Oval" class="cls-1" d="M106,83.888A0.889,0.889,0,1,0,106.889,83,0.889,0.889,0,0,0,106,83.888Z"/>
  <path id="Oval-401" data-name="Oval" class="cls-1" d="M87,4.888A0.889,0.889,0,1,0,87.889,4,0.889,0.889,0,0,0,87,4.888Z"/>
  <path id="Oval-402" data-name="Oval" class="cls-1" d="M87,24.888A0.889,0.889,0,1,0,87.889,24,0.889,0.889,0,0,0,87,24.888Z"/>
  <path id="Oval-403" data-name="Oval" class="cls-1" d="M87,43.888A0.889,0.889,0,1,0,87.889,43,0.889,0.889,0,0,0,87,43.888Z"/>
  <path id="Oval-404" data-name="Oval" class="cls-1" d="M87,63.888A0.889,0.889,0,1,0,87.889,63,0.889,0.889,0,0,0,87,63.888Z"/>
  <path id="Oval-405" data-name="Oval" class="cls-1" d="M87,83.888A0.889,0.889,0,1,0,87.889,83,0.889,0.889,0,0,0,87,83.888Z"/>
  <path id="Oval-406" data-name="Oval" class="cls-1" d="M67,4.888A0.889,0.889,0,1,0,67.889,4,0.889,0.889,0,0,0,67,4.888Z"/>
  <path id="Oval-407" data-name="Oval" class="cls-1" d="M67,24.888A0.889,0.889,0,1,0,67.889,24,0.889,0.889,0,0,0,67,24.888Z"/>
  <path id="Oval-408" data-name="Oval" class="cls-1" d="M67,43.888A0.889,0.889,0,1,0,67.889,43,0.889,0.889,0,0,0,67,43.888Z"/>
  <path id="Oval-409" data-name="Oval" class="cls-1" d="M67,63.888A0.889,0.889,0,1,0,67.889,63,0.889,0.889,0,0,0,67,63.888Z"/>
  <path id="Oval-410" data-name="Oval" class="cls-1" d="M67,83.888A0.889,0.889,0,1,0,67.889,83,0.889,0.889,0,0,0,67,83.888Z"/>
  <path id="Oval-411" data-name="Oval" class="cls-1" d="M48,4.888A0.889,0.889,0,1,0,48.889,4,0.889,0.889,0,0,0,48,4.888Z"/>
  <path id="Oval-412" data-name="Oval" class="cls-1" d="M48,24.888A0.889,0.889,0,1,0,48.889,24,0.889,0.889,0,0,0,48,24.888Z"/>
  <path id="Oval-413" data-name="Oval" class="cls-1" d="M48,43.888A0.889,0.889,0,1,0,48.889,43,0.889,0.889,0,0,0,48,43.888Z"/>
  <path id="Oval-414" data-name="Oval" class="cls-1" d="M48,63.888A0.889,0.889,0,1,0,48.889,63,0.889,0.889,0,0,0,48,63.888Z"/>
  <path id="Oval-415" data-name="Oval" class="cls-1" d="M48,83.888A0.889,0.889,0,1,0,48.889,83,0.889,0.889,0,0,0,48,83.888Z"/>
  <path id="Oval-416" data-name="Oval" class="cls-1" d="M28,4.888A0.889,0.889,0,1,0,28.889,4,0.889,0.889,0,0,0,28,4.888Z"/>
  <path id="Oval-417" data-name="Oval" class="cls-1" d="M28,24.888A0.889,0.889,0,1,0,28.889,24,0.889,0.889,0,0,0,28,24.888Z"/>
  <path id="Oval-418" data-name="Oval" class="cls-1" d="M28,43.888A0.889,0.889,0,1,0,28.889,43,0.889,0.889,0,0,0,28,43.888Z"/>
  <path id="Oval-419" data-name="Oval" class="cls-1" d="M28,63.888A0.889,0.889,0,1,0,28.889,63,0.889,0.889,0,0,0,28,63.888Z"/>
  <path id="Oval-420" data-name="Oval" class="cls-1" d="M28,83.888A0.889,0.889,0,1,0,28.889,83,0.889,0.889,0,0,0,28,83.888Z"/>
  <path id="Oval-421" data-name="Oval" class="cls-1" d="M9,4.888A0.889,0.889,0,1,0,9.889,4,0.889,0.889,0,0,0,9,4.888Z"/>
  <path id="Oval-422" data-name="Oval" class="cls-1" d="M9,24.888A0.889,0.889,0,1,0,9.889,24,0.889,0.889,0,0,0,9,24.888Z"/>
  <path id="Oval-423" data-name="Oval" class="cls-1" d="M9,43.888A0.889,0.889,0,1,0,9.889,43,0.889,0.889,0,0,0,9,43.888Z"/>
  <path id="Oval-424" data-name="Oval" class="cls-1" d="M9,63.888A0.889,0.889,0,1,0,9.889,63,0.889,0.889,0,0,0,9,63.888Z"/>
  <path id="Oval-425" data-name="Oval" class="cls-1" d="M9,83.888A0.889,0.889,0,1,0,9.889,83,0.889,0.889,0,0,0,9,83.888Z"/>
  <path id="Oval-426" data-name="Oval" class="cls-1" d="M-11,4.888a0.889,0.889,0,0,0,.889.889,0.889,0.889,0,0,0,.889-0.889A0.889,0.889,0,0,0-10.111,4,0.889,0.889,0,0,0-11,4.888Z"/>
  <path id="Oval-427" data-name="Oval" class="cls-1" d="M-11,24.888a0.889,0.889,0,0,0,.889.889,0.889,0.889,0,0,0,.889-0.889A0.889,0.889,0,0,0-10.111,24,0.889,0.889,0,0,0-11,24.888Z"/>
  <path id="Oval-428" data-name="Oval" class="cls-1" d="M-11,43.888a0.889,0.889,0,0,0,.889.889,0.889,0.889,0,0,0,.889-0.889A0.889,0.889,0,0,0-10.111,43,0.889,0.889,0,0,0-11,43.888Z"/>
  <path id="Oval-429" data-name="Oval" class="cls-1" d="M-11,63.888a0.889,0.889,0,0,0,.889.889,0.889,0.889,0,0,0,.889-0.889A0.889,0.889,0,0,0-10.111,63,0.889,0.889,0,0,0-11,63.888Z"/>
  <path id="Oval-430" data-name="Oval" class="cls-1" d="M-11,83.888a0.889,0.889,0,0,0,.889.889,0.889,0.889,0,0,0,.889-0.889A0.889,0.889,0,0,0-10.111,83,0.889,0.889,0,0,0-11,83.888Z"/>
  <path id="Oval-431" data-name="Oval" class="cls-1" d="M435,10.888A0.889,0.889,0,1,0,435.889,10,0.889,0.889,0,0,0,435,10.888Z"/>
  <path id="Oval-432" data-name="Oval" class="cls-1" d="M435,24.888A0.889,0.889,0,1,0,435.889,24,0.889,0.889,0,0,0,435,24.888Z"/>
  <path id="Oval-433" data-name="Oval" class="cls-1" d="M435,44.888A0.889,0.889,0,1,0,435.889,44,0.889,0.889,0,0,0,435,44.888Z"/>
  <path id="Oval-434" data-name="Oval" class="cls-1" d="M435,64.888A0.889,0.889,0,1,0,435.889,64,0.889,0.889,0,0,0,435,64.888Z"/>
  <path id="Oval-435" data-name="Oval" class="cls-1" d="M435,83.888A0.889,0.889,0,1,0,435.889,83,0.889,0.889,0,0,0,435,83.888Z"/>
  <path id="Oval-436" data-name="Oval" class="cls-1" d="M416,4.888A0.889,0.889,0,1,0,416.889,4,0.889,0.889,0,0,0,416,4.888Z"/>
  <path id="Oval-437" data-name="Oval" class="cls-1" d="M416,24.888A0.889,0.889,0,1,0,416.889,24,0.889,0.889,0,0,0,416,24.888Z"/>
  <path id="Oval-438" data-name="Oval" class="cls-1" d="M416,43.888A0.889,0.889,0,1,0,416.889,43,0.889,0.889,0,0,0,416,43.888Z"/>
  <path id="Oval-439" data-name="Oval" class="cls-1" d="M416,63.888A0.889,0.889,0,1,0,416.889,63,0.889,0.889,0,0,0,416,63.888Z"/>
  <path id="Oval-440" data-name="Oval" class="cls-1" d="M416,83.888A0.889,0.889,0,1,0,416.889,83,0.889,0.889,0,0,0,416,83.888Z"/>
  <path id="Oval-441" data-name="Oval" class="cls-1" d="M396,4.888A0.889,0.889,0,1,0,396.889,4,0.889,0.889,0,0,0,396,4.888Z"/>
  <path id="Oval-442" data-name="Oval" class="cls-1" d="M396,24.888A0.889,0.889,0,1,0,396.889,24,0.889,0.889,0,0,0,396,24.888Z"/>
  <path id="Oval-443" data-name="Oval" class="cls-1" d="M396,43.888A0.889,0.889,0,1,0,396.889,43,0.889,0.889,0,0,0,396,43.888Z"/>
  <path id="Oval-444" data-name="Oval" class="cls-1" d="M396,63.888A0.889,0.889,0,1,0,396.889,63,0.889,0.889,0,0,0,396,63.888Z"/>
  <path id="Oval-445" data-name="Oval" class="cls-1" d="M396,83.888A0.889,0.889,0,1,0,396.889,83,0.889,0.889,0,0,0,396,83.888Z"/>
  <path id="Oval-446" data-name="Oval" class="cls-1" d="M377,4.888A0.889,0.889,0,1,0,377.889,4,0.889,0.889,0,0,0,377,4.888Z"/>
  <path id="Oval-447" data-name="Oval" class="cls-1" d="M377,24.888A0.889,0.889,0,1,0,377.889,24,0.889,0.889,0,0,0,377,24.888Z"/>
  <path id="Oval-448" data-name="Oval" class="cls-1" d="M377,43.888A0.889,0.889,0,1,0,377.889,43,0.889,0.889,0,0,0,377,43.888Z"/>
  <path id="Oval-449" data-name="Oval" class="cls-1" d="M377,63.888A0.889,0.889,0,1,0,377.889,63,0.889,0.889,0,0,0,377,63.888Z"/>
  <path id="Oval-450" data-name="Oval" class="cls-1" d="M377,83.888A0.889,0.889,0,1,0,377.889,83,0.889,0.889,0,0,0,377,83.888Z"/>
  <path id="Oval-451" data-name="Oval" class="cls-1" d="M357,4.888A0.889,0.889,0,1,0,357.889,4,0.889,0.889,0,0,0,357,4.888Z"/>
  <path id="Oval-452" data-name="Oval" class="cls-1" d="M357,24.888A0.889,0.889,0,1,0,357.889,24,0.889,0.889,0,0,0,357,24.888Z"/>
  <path id="Oval-453" data-name="Oval" class="cls-1" d="M357,43.888A0.889,0.889,0,1,0,357.889,43,0.889,0.889,0,0,0,357,43.888Z"/>
  <path id="Oval-454" data-name="Oval" class="cls-1" d="M357,63.888A0.889,0.889,0,1,0,357.889,63,0.889,0.889,0,0,0,357,63.888Z"/>
  <path id="Oval-455" data-name="Oval" class="cls-1" d="M357,83.888A0.889,0.889,0,1,0,357.889,83,0.889,0.889,0,0,0,357,83.888Z"/>
  <path id="Oval-456" data-name="Oval" class="cls-1" d="M337,4.888A0.889,0.889,0,1,0,337.889,4,0.889,0.889,0,0,0,337,4.888Z"/>
  <path id="Oval-457" data-name="Oval" class="cls-1" d="M337,24.888A0.889,0.889,0,1,0,337.889,24,0.889,0.889,0,0,0,337,24.888Z"/>
  <path id="Oval-458" data-name="Oval" class="cls-1" d="M337,43.888A0.889,0.889,0,1,0,337.889,43,0.889,0.889,0,0,0,337,43.888Z"/>
  <path id="Oval-459" data-name="Oval" class="cls-1" d="M337,63.888A0.889,0.889,0,1,0,337.889,63,0.889,0.889,0,0,0,337,63.888Z"/>
  <path id="Oval-460" data-name="Oval" class="cls-1" d="M337,83.888A0.889,0.889,0,1,0,337.889,83,0.889,0.889,0,0,0,337,83.888Z"/>
  <path id="Oval-461" data-name="Oval" class="cls-1" d="M318,4.888A0.889,0.889,0,1,0,318.889,4,0.889,0.889,0,0,0,318,4.888Z"/>
  <path id="Oval-462" data-name="Oval" class="cls-1" d="M318,24.888A0.889,0.889,0,1,0,318.889,24,0.889,0.889,0,0,0,318,24.888Z"/>
  <path id="Oval-463" data-name="Oval" class="cls-1" d="M318,43.888A0.889,0.889,0,1,0,318.889,43,0.889,0.889,0,0,0,318,43.888Z"/>
  <path id="Oval-464" data-name="Oval" class="cls-1" d="M318,63.888A0.889,0.889,0,1,0,318.889,63,0.889,0.889,0,0,0,318,63.888Z"/>
  <path id="Oval-465" data-name="Oval" class="cls-1" d="M318,83.888A0.889,0.889,0,1,0,318.889,83,0.889,0.889,0,0,0,318,83.888Z"/>
  <path id="Oval-466" data-name="Oval" class="cls-1" d="M298,4.888A0.889,0.889,0,1,0,298.889,4,0.889,0.889,0,0,0,298,4.888Z"/>
  <path id="Oval-467" data-name="Oval" class="cls-1" d="M298,24.888A0.889,0.889,0,1,0,298.889,24,0.889,0.889,0,0,0,298,24.888Z"/>
  <path id="Oval-468" data-name="Oval" class="cls-1" d="M281-31.112a0.889,0.889,0,0,0,.889.889,0.889,0.889,0,0,0,.889-0.889A0.889,0.889,0,0,0,281.889-32,0.889,0.889,0,0,0,281-31.112Z"/>
  <path id="Oval-469" data-name="Oval" class="cls-1" d="M281-11.112a0.889,0.889,0,0,0,.889.888,0.889,0.889,0,0,0,.889-0.888A0.889,0.889,0,0,0,281.889-12,0.889,0.889,0,0,0,281-11.112Z"/>
  <path id="Oval-470" data-name="Oval" class="cls-1" d="M261-31.112a0.889,0.889,0,0,0,.889.889,0.889,0.889,0,0,0,.889-0.889A0.889,0.889,0,0,0,261.889-32,0.889,0.889,0,0,0,261-31.112Z"/>
  <path id="Oval-471" data-name="Oval" class="cls-1" d="M261-11.112a0.889,0.889,0,0,0,.889.888,0.889,0.889,0,0,0,.889-0.888A0.889,0.889,0,0,0,261.889-12,0.889,0.889,0,0,0,261-11.112Z"/>
  <path id="Oval-472" data-name="Oval" class="cls-1" d="M241-31.112a0.889,0.889,0,0,0,.889.889,0.889,0.889,0,0,0,.889-0.889A0.889,0.889,0,0,0,241.889-32,0.889,0.889,0,0,0,241-31.112Z"/>
  <path id="Oval-473" data-name="Oval" class="cls-1" d="M241-11.112a0.889,0.889,0,0,0,.889.888,0.889,0.889,0,0,0,.889-0.888A0.889,0.889,0,0,0,241.889-12,0.889,0.889,0,0,0,241-11.112Z"/>
  <path id="Oval-474" data-name="Oval" class="cls-1" d="M222-31.112a0.889,0.889,0,0,0,.889.889,0.889,0.889,0,0,0,.889-0.889A0.889,0.889,0,0,0,222.889-32,0.889,0.889,0,0,0,222-31.112Z"/>
  <path id="Oval-475" data-name="Oval" class="cls-1" d="M222-11.112a0.889,0.889,0,0,0,.889.888,0.889,0.889,0,0,0,.889-0.888A0.889,0.889,0,0,0,222.889-12,0.889,0.889,0,0,0,222-11.112Z"/>
  <path id="Oval-476" data-name="Oval" class="cls-1" d="M202-31.112a0.889,0.889,0,0,0,.889.889,0.889,0.889,0,0,0,.889-0.889A0.889,0.889,0,0,0,202.889-32,0.889,0.889,0,0,0,202-31.112Z"/>
  <path id="Oval-477" data-name="Oval" class="cls-1" d="M202-11.112a0.889,0.889,0,0,0,.889.888,0.889,0.889,0,0,0,.889-0.888A0.889,0.889,0,0,0,202.889-12,0.889,0.889,0,0,0,202-11.112Z"/>
  <path id="Oval-478" data-name="Oval" class="cls-1" d="M183-31.112a0.889,0.889,0,0,0,.889.889,0.889,0.889,0,0,0,.889-0.889A0.889,0.889,0,0,0,183.889-32,0.889,0.889,0,0,0,183-31.112Z"/>
  <path id="Oval-479" data-name="Oval" class="cls-1" d="M183-11.112a0.889,0.889,0,0,0,.889.888,0.889,0.889,0,0,0,.889-0.888A0.889,0.889,0,0,0,183.889-12,0.889,0.889,0,0,0,183-11.112Z"/>
  <path id="Oval-480" data-name="Oval" class="cls-1" d="M163-31.112a0.889,0.889,0,0,0,.889.889,0.889,0.889,0,0,0,.889-0.889A0.889,0.889,0,0,0,163.889-32,0.889,0.889,0,0,0,163-31.112Z"/>
  <path id="Oval-481" data-name="Oval" class="cls-1" d="M163-11.112a0.889,0.889,0,0,0,.889.888,0.889,0.889,0,0,0,.889-0.888A0.889,0.889,0,0,0,163.889-12,0.889,0.889,0,0,0,163-11.112Z"/>
  <path id="Oval-482" data-name="Oval" class="cls-1" d="M144-31.112a0.889,0.889,0,0,0,.889.889,0.889,0.889,0,0,0,.889-0.889A0.889,0.889,0,0,0,144.889-32,0.889,0.889,0,0,0,144-31.112Z"/>
  <path id="Oval-483" data-name="Oval" class="cls-1" d="M144-11.112a0.889,0.889,0,0,0,.889.888,0.889,0.889,0,0,0,.889-0.888A0.889,0.889,0,0,0,144.889-12,0.889,0.889,0,0,0,144-11.112Z"/>
  <path id="Oval-484" data-name="Oval" class="cls-1" d="M126-31.112a0.889,0.889,0,0,0,.889.889,0.889,0.889,0,0,0,.889-0.889A0.889,0.889,0,0,0,126.889-32,0.889,0.889,0,0,0,126-31.112Z"/>
  <path id="Oval-485" data-name="Oval" class="cls-1" d="M126-11.112a0.889,0.889,0,0,0,.889.888,0.889,0.889,0,0,0,.889-0.888A0.889,0.889,0,0,0,126.889-12,0.889,0.889,0,0,0,126-11.112Z"/>
  <path id="Oval-486" data-name="Oval" class="cls-1" d="M106-31.112a0.889,0.889,0,0,0,.889.889,0.889,0.889,0,0,0,.889-0.889A0.889,0.889,0,0,0,106.889-32,0.889,0.889,0,0,0,106-31.112Z"/>
  <path id="Oval-487" data-name="Oval" class="cls-1" d="M106-11.112a0.889,0.889,0,0,0,.889.888,0.889,0.889,0,0,0,.889-0.888A0.889,0.889,0,0,0,106.889-12,0.889,0.889,0,0,0,106-11.112Z"/>
  <path id="Oval-488" data-name="Oval" class="cls-1" d="M87-31.112a0.889,0.889,0,0,0,.889.889,0.889,0.889,0,0,0,.889-0.889A0.889,0.889,0,0,0,87.889-32,0.889,0.889,0,0,0,87-31.112Z"/>
  <path id="Oval-489" data-name="Oval" class="cls-1" d="M87-11.112a0.889,0.889,0,0,0,.889.888,0.889,0.889,0,0,0,.889-0.888A0.889,0.889,0,0,0,87.889-12,0.889,0.889,0,0,0,87-11.112Z"/>
  <path id="Oval-490" data-name="Oval" class="cls-1" d="M67-31.112a0.889,0.889,0,0,0,.889.889,0.889,0.889,0,0,0,.889-0.889A0.889,0.889,0,0,0,67.889-32,0.889,0.889,0,0,0,67-31.112Z"/>
  <path id="Oval-491" data-name="Oval" class="cls-1" d="M67-11.112a0.889,0.889,0,0,0,.889.888,0.889,0.889,0,0,0,.889-0.888A0.889,0.889,0,0,0,67.889-12,0.889,0.889,0,0,0,67-11.112Z"/>
  <path id="Oval-492" data-name="Oval" class="cls-1" d="M48-31.112a0.889,0.889,0,0,0,.889.889,0.889,0.889,0,0,0,.889-0.889A0.889,0.889,0,0,0,48.889-32,0.889,0.889,0,0,0,48-31.112Z"/>
  <path id="Oval-493" data-name="Oval" class="cls-1" d="M48-11.112a0.889,0.889,0,0,0,.889.888,0.889,0.889,0,0,0,.889-0.888A0.889,0.889,0,0,0,48.889-12,0.889,0.889,0,0,0,48-11.112Z"/>
  <path id="Oval-494" data-name="Oval" class="cls-1" d="M28-31.112a0.889,0.889,0,0,0,.889.889,0.889,0.889,0,0,0,.889-0.889A0.889,0.889,0,0,0,28.889-32,0.889,0.889,0,0,0,28-31.112Z"/>
  <path id="Oval-495" data-name="Oval" class="cls-1" d="M28-11.112a0.889,0.889,0,0,0,.889.888,0.889,0.889,0,0,0,.889-0.888A0.889,0.889,0,0,0,28.889-12,0.889,0.889,0,0,0,28-11.112Z"/>
  <path id="Oval-496" data-name="Oval" class="cls-1" d="M9-31.112a0.889,0.889,0,0,0,.889.889,0.889,0.889,0,0,0,.889-0.889A0.889,0.889,0,0,0,9.889-32,0.889,0.889,0,0,0,9-31.112Z"/>
  <path id="Oval-497" data-name="Oval" class="cls-1" d="M9-11.112a0.889,0.889,0,0,0,.889.888,0.889,0.889,0,0,0,.889-0.888A0.889,0.889,0,0,0,9.889-12,0.889,0.889,0,0,0,9-11.112Z"/>
  <path id="Oval-498" data-name="Oval" class="cls-1" d="M-11-31.112a0.889,0.889,0,0,0,.889.889,0.889,0.889,0,0,0,.889-0.889A0.889,0.889,0,0,0-10.111-32,0.889,0.889,0,0,0-11-31.112Z"/>
  <path id="Oval-499" data-name="Oval" class="cls-1" d="M-11-11.112a0.889,0.889,0,0,0,.889.888,0.889,0.889,0,0,0,.889-0.888A0.889,0.889,0,0,0-10.111-12,0.889,0.889,0,0,0-11-11.112Z"/>
  <path id="Oval-500" data-name="Oval" class="cls-1" d="M435-30.112a0.889,0.889,0,0,0,.889.889,0.889,0.889,0,0,0,.889-0.889A0.889,0.889,0,0,0,435.889-31,0.889,0.889,0,0,0,435-30.112Z"/>
  <path id="Oval-501" data-name="Oval" class="cls-1" d="M435-11.112a0.889,0.889,0,0,0,.889.888,0.889,0.889,0,0,0,.889-0.888A0.889,0.889,0,0,0,435.889-12,0.889,0.889,0,0,0,435-11.112Z"/>
  <path id="Oval-502" data-name="Oval" class="cls-1" d="M416-31.112a0.889,0.889,0,0,0,.889.889,0.889,0.889,0,0,0,.889-0.889A0.889,0.889,0,0,0,416.889-32,0.889,0.889,0,0,0,416-31.112Z"/>
  <path id="Oval-503" data-name="Oval" class="cls-1" d="M416-11.112a0.889,0.889,0,0,0,.889.888,0.889,0.889,0,0,0,.889-0.888A0.889,0.889,0,0,0,416.889-12,0.889,0.889,0,0,0,416-11.112Z"/>
  <path id="Oval-504" data-name="Oval" class="cls-1" d="M396-31.112a0.889,0.889,0,0,0,.889.889,0.889,0.889,0,0,0,.889-0.889A0.889,0.889,0,0,0,396.889-32,0.889,0.889,0,0,0,396-31.112Z"/>
  <path id="Oval-505" data-name="Oval" class="cls-1" d="M396-11.112a0.889,0.889,0,0,0,.889.888,0.889,0.889,0,0,0,.889-0.888A0.889,0.889,0,0,0,396.889-12,0.889,0.889,0,0,0,396-11.112Z"/>
  <path id="Oval-506" data-name="Oval" class="cls-1" d="M377-31.112a0.889,0.889,0,0,0,.889.889,0.889,0.889,0,0,0,.889-0.889A0.889,0.889,0,0,0,377.889-32,0.889,0.889,0,0,0,377-31.112Z"/>
  <path id="Oval-507" data-name="Oval" class="cls-1" d="M377-11.112a0.889,0.889,0,0,0,.889.888,0.889,0.889,0,0,0,.889-0.888A0.889,0.889,0,0,0,377.889-12,0.889,0.889,0,0,0,377-11.112Z"/>
  <path id="Oval-508" data-name="Oval" class="cls-1" d="M357-31.112a0.889,0.889,0,0,0,.889.889,0.889,0.889,0,0,0,.889-0.889A0.889,0.889,0,0,0,357.889-32,0.889,0.889,0,0,0,357-31.112Z"/>
  <path id="Oval-509" data-name="Oval" class="cls-1" d="M357-11.112a0.889,0.889,0,0,0,.889.888,0.889,0.889,0,0,0,.889-0.888A0.889,0.889,0,0,0,357.889-12,0.889,0.889,0,0,0,357-11.112Z"/>
  <path id="Oval-510" data-name="Oval" class="cls-1" d="M337-31.112a0.889,0.889,0,0,0,.889.889,0.889,0.889,0,0,0,.889-0.889A0.889,0.889,0,0,0,337.889-32,0.889,0.889,0,0,0,337-31.112Z"/>
  <path id="Oval-511" data-name="Oval" class="cls-1" d="M337-11.112a0.889,0.889,0,0,0,.889.888,0.889,0.889,0,0,0,.889-0.888A0.889,0.889,0,0,0,337.889-12,0.889,0.889,0,0,0,337-11.112Z"/>
  <path id="Oval-512" data-name="Oval" class="cls-1" d="M318-31.112a0.889,0.889,0,0,0,.889.889,0.889,0.889,0,0,0,.889-0.889A0.889,0.889,0,0,0,318.889-32,0.889,0.889,0,0,0,318-31.112Z"/>
  <path id="Oval-513" data-name="Oval" class="cls-1" d="M318-11.112a0.889,0.889,0,0,0,.889.888,0.889,0.889,0,0,0,.889-0.888A0.889,0.889,0,0,0,318.889-12,0.889,0.889,0,0,0,318-11.112Z"/>
  <path id="Oval-514" data-name="Oval" class="cls-1" d="M298-31.112a0.889,0.889,0,0,0,.889.889,0.889,0.889,0,0,0,.889-0.889A0.889,0.889,0,0,0,298.889-32,0.889,0.889,0,0,0,298-31.112Z"/>
  <path id="Oval-515" data-name="Oval" class="cls-1" d="M298-11.112a0.889,0.889,0,0,0,.889.888,0.889,0.889,0,0,0,.889-0.888A0.889,0.889,0,0,0,298.889-12,0.889,0.889,0,0,0,298-11.112Z"/>
  <path id="Oval-516" data-name="Oval" class="cls-1" d="M298,43.888A0.889,0.889,0,1,0,298.889,43,0.889,0.889,0,0,0,298,43.888Z"/>
  <path id="Oval-517" data-name="Oval" class="cls-1" d="M298,63.888A0.889,0.889,0,1,0,298.889,63,0.889,0.889,0,0,0,298,63.888Z"/>
  <path id="Oval-518" data-name="Oval" class="cls-1" d="M298,83.888A0.889,0.889,0,1,0,298.889,83,0.889,0.889,0,0,0,298,83.888Z"/>
  <path id="Oval-519" data-name="Oval" class="cls-1" d="M298.333,198.11a0.889,0.889,0,1,0,.889-0.888A0.888,0.888,0,0,0,298.333,198.11Z"/>
  <path id="Oval-520" data-name="Oval" class="cls-1" d="M298.333,217.666a0.889,0.889,0,1,0,.889-0.889A0.889,0.889,0,0,0,298.333,217.666Z"/>
  <path id="Oval-521" data-name="Oval" class="cls-1" d="M298.333,237.221a0.889,0.889,0,1,0,.889-0.889A0.89,0.89,0,0,0,298.333,237.221Z"/>
  <path id="Oval-522" data-name="Oval" class="cls-1" d="M298.333,256.777a0.889,0.889,0,1,0,.889-0.889A0.889,0.889,0,0,0,298.333,256.777Z"/>
  <path id="Oval-523" data-name="Oval" class="cls-1" d="M298.333,276.333a0.889,0.889,0,1,0,.889-0.889A0.888,0.888,0,0,0,298.333,276.333Z"/>
  <path id="Oval-524" data-name="Oval" class="cls-1" d="M298.333,295.888a0.889,0.889,0,1,0,.889-0.889A0.889,0.889,0,0,0,298.333,295.888Z"/>
  <path id="Oval-525" data-name="Oval" class="cls-1" d="M298.333,315.444a0.889,0.889,0,1,0,.889-0.889A0.889,0.889,0,0,0,298.333,315.444Z"/>
  <path id="Oval-526" data-name="Oval" class="cls-1" d="M298.333,335a0.889,0.889,0,1,0,.889-0.889A0.889,0.889,0,0,0,298.333,335Z"/>
  <path id="Oval-527" data-name="Oval" class="cls-1" d="M298.333,354.555a0.889,0.889,0,1,0,.889-0.889A0.889,0.889,0,0,0,298.333,354.555Z"/>
  <path id="Oval-528" data-name="Oval" class="cls-1" d="M298.333,374.11a0.889,0.889,0,1,0,.889-0.889A0.889,0.889,0,0,0,298.333,374.11Z"/>
</svg>
