<?xml version="1.0" encoding="UTF-8"?>
<svg width="132px" height="24px" viewBox="0 0 132 24" version="1.1" xmlns="http://www.w3.org/2000/svg" xmlns:xlink="http://www.w3.org/1999/xlink">
    <!-- Generator: Sketch 61.1 (89650) - https://sketch.com -->
    <title>logo-w</title>
    <desc>Created with Sketch.</desc>
    <g id="Page-1" stroke="none" stroke-width="1" fill="none" fill-rule="evenodd">
        <g id="logo-w">
            <g id="T-EXPlogo">
                <path d="M24.6097385,20.2766308 C24.6620462,20.1166308 24.6866615,19.9489385 24.6866615,19.7689385 C24.6866615,19.5458615 24.6512769,19.3504769 24.5789692,19.1812462 C24.5065077,19.0120154 24.4051231,18.8704769 24.2712769,18.7581692 C24.1512769,18.6566308 24.0143538,18.5750923 23.8634308,18.5181692 C23.7111231,18.4581692 23.5311231,18.4181692 23.3188154,18.3935538 L21.8449692,18.2227846 L21.8449692,22.3074 L22.8080462,22.3427846 L22.8080462,21.0304769 L23.2988154,21.0614 C23.4312769,21.0704769 23.5482,21.0658615 23.6542,21.0490923 C23.7589692,21.0335538 23.8558923,21.0074 23.9451231,20.9735538 C24.0328154,20.9381692 24.1128154,20.8952462 24.1866615,20.8427846 C24.2589692,20.7889385 24.3249692,20.7304769 24.3849692,20.6674 C24.4835846,20.5658615 24.5589692,20.4350923 24.6097385,20.2766308 L24.6097385,20.2766308 Z M26.3020462,17.3612462 L26.3020462,23.8489385 L19.8588154,23.8489385 L19.8588154,16.3843231 L26.3020462,17.3612462 Z" id="Fill-1" fill="#CA233F"></path>
                <path d="M25.0126769,15.0012462 L23.8696,12.7674 L24.9759077,11.1583231 L23.9959077,10.8935538 L23.3236,11.9104769 L22.6511385,10.5320154 L21.5249846,10.2304769 L22.7296,12.5474 L21.4742154,14.3306308 L22.5543692,14.5350923 L23.2880615,13.4075538 L23.9882154,14.8074 L25.0126769,15.0012462 Z M26.3020615,10.2243231 L26.3020615,16.6997077 L19.8588308,15.7227846 L19.8588308,8.27201538 L26.3020615,10.2243231 Z" id="Fill-3" fill="#CA233F"></path>
                <path d="M24.6866615,7.65207692 L24.6866615,6.91515385 L22.8035846,6.249 L22.8035846,5.33653846 L24.5695846,5.99361538 L24.5695846,5.25515385 L22.8035846,4.57192308 L22.8035846,3.769 L24.6866615,4.52730769 L24.6866615,3.79207692 L21.8449692,2.60423077 L21.8449692,6.68884615 L24.6866615,7.65207692 Z M26.3020462,3.09515385 L26.3020462,9.54115385 L19.8588154,7.589 L19.8588154,0.167461538 L26.3020462,3.09515385 Z" id="Fill-5" fill="#CA233F"></path>
                <polygon id="Fill-7" fill="#FFFFFE" points="23.8696462 12.7674615 25.0127231 15.0013077 23.9882615 14.8074615 23.2881077 13.4074615 22.5542615 14.535 21.4742615 14.3305385 22.7296462 12.5473077 21.5250308 10.2305385 22.6511846 10.5320769 23.3234923 11.9105385 23.9958 10.8934615 24.9758 11.1582308"></polygon>
                <polygon id="Fill-9" fill="#FFFFFE" points="24.6866615 6.91515385 24.6866615 7.65207692 21.8449692 6.68884615 21.8449692 2.60423077 24.6866615 3.79207692 24.6866615 4.52730769 22.8035846 3.769 22.8035846 4.57207692 24.5695846 5.25515385 24.5695846 5.99361538 22.8035846 5.33653846 22.8035846 6.249"></polygon>
                <path d="M23.7372923,19.9920769 C23.7589846,19.9228462 23.7712923,19.8288462 23.7712923,19.7105385 C23.7712923,19.5997692 23.7451385,19.5013077 23.6972923,19.4166923 C23.6482154,19.3320769 23.5896,19.2705385 23.5205231,19.2334615 C23.4342154,19.1843846 23.3496,19.1520769 23.2696,19.1382308 C23.1896,19.1242308 23.0803692,19.109 22.9419077,19.0951538 L22.8080615,19.0828462 L22.8080615,20.2828462 L22.8743692,20.289 C22.9636,20.2951538 23.0466769,20.2997692 23.1251385,20.3042308 C23.2034462,20.309 23.2712923,20.309 23.3282154,20.3013077 C23.3772923,20.2965385 23.4296,20.2828462 23.4849846,20.2628462 C23.5405231,20.2396154 23.5819077,20.2151538 23.6112923,20.1859231 C23.6743692,20.1259231 23.7157538,20.0613077 23.7372923,19.9920769 M24.6866769,19.769 C24.6866769,19.949 24.6620615,20.1166923 24.6097538,20.2766923 C24.5589846,20.4351538 24.4836,20.5657692 24.3849846,20.6674615 C24.3249846,20.7305385 24.2589846,20.789 24.1866769,20.8426923 C24.1126769,20.8951538 24.0328308,20.9380769 23.9451385,20.9736154 C23.8559077,21.0074615 23.7589846,21.0336154 23.6542154,21.049 C23.5482154,21.0657692 23.4312923,21.0705385 23.2988308,21.0613077 L22.8080615,21.0305385 L22.8080615,22.3426923 L21.8449846,22.3074615 L21.8449846,18.2228462 L23.3188308,18.3934615 C23.5311385,18.4182308 23.7111385,18.4580769 23.8634462,18.5182308 C24.0143692,18.5751538 24.1511385,18.6565385 24.2712923,18.7580769 C24.4051385,18.8705385 24.5065231,19.0120769 24.5789846,19.1811538 C24.6511385,19.3505385 24.6866769,19.5459231 24.6866769,19.769" id="Fill-11" fill="#FFFFFE"></path>
                <path d="M23.7712462,19.7105231 C23.7712462,19.8289846 23.7589385,19.9228308 23.7372462,19.9920615 C23.7158615,20.0612923 23.6743231,20.1259077 23.6112462,20.1859077 C23.5820154,20.2151385 23.5404769,20.2396 23.4850923,20.2628308 C23.4295538,20.2828308 23.3772462,20.2966769 23.3281692,20.3012923 C23.2712462,20.3089846 23.2035538,20.3089846 23.1250923,20.3042154 C23.0466308,20.2997538 22.9635538,20.2951385 22.8743231,20.2889846 L22.8080154,20.2828308 L22.8080154,19.0828308 L22.9418615,19.0951385 C23.0804769,19.1089846 23.1897077,19.1242154 23.2695538,19.1382154 C23.3497077,19.1520615 23.4343231,19.1843692 23.5204769,19.2334462 C23.5895538,19.2705231 23.6481692,19.3320615 23.6974,19.4166769 C23.7450923,19.5012923 23.7712462,19.5997538 23.7712462,19.7105231" id="Fill-13" fill="#DB2B6F"></path>
                <polygon id="Fill-15" fill="#CA233F" points="19.2049846 16.3474 19.2049846 23.8489385 12.5912923 23.8489385 12.5912923 16.7074"></polygon>
                <polygon id="Fill-17" fill="#CA233F" points="19.2049846 8.19355385 19.2049846 15.6935538 12.5912923 16.0520154 12.5912923 8.91355385"></polygon>
                <polygon id="Fill-19" fill="#CA233F" points="5.42509231 17.0981385 5.42509231 23.8489077 0.0481692308 23.8489077 0.0481692308 17.3904462"></polygon>
                <polygon id="Fill-21" fill="#CA233F" points="5.42509231 9.69204615 5.42509231 16.4428154 0.0481692308 16.7351231 0.0481692308 10.2782"></polygon>
                <polygon id="Fill-23" fill="#273D63" points="19.2049846 0.0397076923 0.0480615385 3.16586154 0.0480615385 9.61986154 6.03283077 8.96893846 6.03283077 23.8489385 11.9849846 23.8489385 11.9849846 8.32170769 19.2049846 7.53663077"></polygon>
            </g>
            <path d="M39.7368164,19.8 L36.5200195,19.8 L36.5200195,9.71894531 L33.0219727,9.71894531 L33.0219727,7.11738281 L43.2348633,7.11738281 L43.2348633,9.71894531 L39.7368164,9.71894531 L39.7368164,19.8 Z M50.5649414,15.9767578 L44.7817383,15.9767578 L44.7817383,13.3048828 L50.5649414,13.3048828 L50.5649414,15.9767578 Z M61.3579102,17.1984375 L61.3579102,19.8 L52.6655273,19.8 L52.6655273,7.11738281 L61.3579102,7.11738281 L61.3579102,9.71894531 L55.8911133,9.71894531 L55.8911133,12.2414062 L61.0327148,12.2414062 L61.0327148,14.6144531 L55.8911133,14.6144531 L55.8911133,17.1984375 L61.3579102,17.1984375 Z M62.5883789,19.8 L66.4643555,13.4455078 L66.4643555,13.3751953 L62.597168,7.11738281 L66.3588867,7.11738281 L68.6879883,11.4064453 L68.7495117,11.4064453 L71.0961914,7.11738281 L74.6733398,7.11738281 L70.6391602,13.4103516 L70.6391602,13.471875 L74.6381836,19.8 L71.0170898,19.8 L68.5561523,15.6867187 L68.4858398,15.6867187 L66.0161133,19.8 L62.5883789,19.8 Z M75.9916992,7.11738281 L81.4848633,7.11738281 C84.2094727,7.11738281 86.0551758,8.88398437 86.0551758,11.6085937 C86.0551758,14.315625 84.112793,16.0822266 81.2915039,16.0822266 L79.2172852,16.0822266 L79.2172852,19.8 L75.9916992,19.8 L75.9916992,7.11738281 Z M79.2172852,9.58710937 L79.2172852,13.6564453 L80.6147461,13.6564453 C81.9858398,13.6564453 82.7944336,12.9445312 82.7944336,11.6173828 C82.7944336,10.2990234 81.9858398,9.58710937 80.6323242,9.58710937 L79.2172852,9.58710937 Z M90.7133789,15.3615234 L90.7133789,19.8 L87.487793,19.8 L87.487793,7.11738281 L92.9194336,7.11738281 C96.0834961,7.11738281 97.7885742,8.68183594 97.7885742,11.3009766 C97.7885742,12.8566406 97.0063477,14.2804687 95.6176758,14.8869141 L98.1577148,19.8 L94.5366211,19.8 L92.3569336,15.3615234 L90.7133789,15.3615234 Z M90.7133789,9.55195312 L90.7133789,13.1554687 L92.6030273,13.1554687 C93.7895508,13.1554687 94.4926758,12.4611328 94.4926758,11.3625 C94.4926758,10.2814453 93.7456055,9.55195312 92.5942383,9.55195312 L90.7133789,9.55195312 Z M108.089355,17.1984375 L108.089355,19.8 L99.3969727,19.8 L99.3969727,7.11738281 L108.089355,7.11738281 L108.089355,9.71894531 L102.622559,9.71894531 L102.622559,12.2414062 L107.76416,12.2414062 L107.76416,14.6144531 L102.622559,14.6144531 L102.622559,17.1984375 L108.089355,17.1984375 Z M109.495605,16.0646484 L112.492676,16.0646484 C112.64209,16.9699219 113.617676,17.4972656 114.856934,17.4972656 C116.11377,17.4972656 116.931152,16.9347656 116.931152,16.1613281 C116.931152,15.4582031 116.38623,15.0978516 114.883301,14.8078125 L113.58252,14.5617187 C111.05127,14.0871094 109.741699,12.8478516 109.741699,10.9142578 C109.741699,8.47089844 111.859863,6.89765625 114.777832,6.89765625 C117.968262,6.89765625 119.849121,8.46210937 119.884277,10.8791016 L116.887207,10.8791016 C116.834473,9.96503906 115.973145,9.42011719 114.804199,9.42011719 C113.635254,9.42011719 112.940918,9.94746094 112.940918,10.6945312 C112.940918,11.3625 113.520996,11.7316406 114.900879,11.9953125 L116.20166,12.2414062 C118.908691,12.7599609 120.13916,13.8585937 120.13916,15.8537109 C120.13916,18.4025391 118.144043,20.0197266 114.79541,20.0197266 C111.631348,20.0197266 109.539551,18.5607422 109.495605,16.0646484 Z M121.211426,16.0646484 L124.208496,16.0646484 C124.35791,16.9699219 125.333496,17.4972656 126.572754,17.4972656 C127.82959,17.4972656 128.646973,16.9347656 128.646973,16.1613281 C128.646973,15.4582031 128.102051,15.0978516 126.599121,14.8078125 L125.29834,14.5617187 C122.76709,14.0871094 121.45752,12.8478516 121.45752,10.9142578 C121.45752,8.47089844 123.575684,6.89765625 126.493652,6.89765625 C129.684082,6.89765625 131.564941,8.46210937 131.600098,10.8791016 L128.603027,10.8791016 C128.550293,9.96503906 127.688965,9.42011719 126.52002,9.42011719 C125.351074,9.42011719 124.656738,9.94746094 124.656738,10.6945312 C124.656738,11.3625 125.236816,11.7316406 126.616699,11.9953125 L127.91748,12.2414062 C130.624512,12.7599609 131.85498,13.8585937 131.85498,15.8537109 C131.85498,18.4025391 129.859863,20.0197266 126.51123,20.0197266 C123.347168,20.0197266 121.255371,18.5607422 121.211426,16.0646484 Z" id="T-EXPRESS" fill="#FFFFFF" fill-rule="nonzero"></path>
        </g>
    </g>
</svg>