<?xml version="1.0" encoding="UTF-8"?>
<svg width="54px" height="55px" viewBox="0 0 54 55" version="1.1" xmlns="http://www.w3.org/2000/svg" xmlns:xlink="http://www.w3.org/1999/xlink">
    <!-- Generator: Sketch 55.2 (78181) - https://sketchapp.com -->
    <title>amazon-2</title>
    <desc>Created with Sketch.</desc>
    <g id="Page-1" stroke="none" stroke-width="1" fill="none" fill-rule="evenodd">
        <g id="amazon-2">
            <rect id="Rectangle" fill="#FFFFFF" x="0" y="0" width="54" height="55"></rect>
            <g id="amazon-icon-1" transform="translate(5.000000, 4.000000)" fill-rule="nonzero">
                <path d="M39.4713153,38.6957012 C20.3307937,47.9218197 8.45197512,40.2025928 0.847967052,35.5140968 C0.377434154,35.2186134 -0.422308077,35.583178 0.271577893,36.390415 C2.80485281,39.5014645 11.1069302,47 21.9435556,47 C32.7876383,47 39.2388681,41.0070665 40.0458856,39.9616375 C40.8474467,38.9250508 40.281243,38.3532426 39.4711334,38.6957012 L39.4713153,38.6957012 Z M44.8468854,35.6889183 C44.3328823,35.0110014 41.7213974,34.8846288 40.0778971,35.0891092 C38.4318505,35.2876947 35.9611435,36.3065965 36.1759481,36.9183797 C36.2861695,37.1475452 36.5111596,37.0447523 37.64193,36.9417752 C38.7757924,36.8271925 41.9522077,36.4211792 42.6140822,37.2974974 C43.2790487,38.1798948 41.6009905,42.3833485 41.2945166,43.0612655 C40.9984101,43.7391825 41.4076482,43.914004 41.9638483,43.4624892 C42.5124093,43.0111586 43.5054938,41.8423045 44.1719153,40.1882239 C44.8337898,38.5251167 45.2373895,36.2050932 44.8467035,35.6889183 L44.8468854,35.6889183 Z" id="Shape" fill="#FF9900"></path>
                <path d="M31.9915501,34.4832273 C31.5905069,34.8449319 31.0103432,34.8708976 30.5582256,34.6295797 C28.5447374,32.9412619 28.1863163,32.1573871 27.0772433,30.5464219 C23.7498443,33.9749888 21.3950198,35 17.0779616,35 C11.9759019,35 8,31.8212852 8,25.4553213 C8,20.4849705 10.6706234,17.0994376 14.467045,15.4456198 C17.7604542,13.9810069 22.3591419,13.7226205 25.8742938,13.3178819 L25.8742938,12.5252913 C25.8742938,11.0693942 25.9850752,9.34657647 25.1405467,8.08896313 C24.3981674,6.96045218 22.9819277,6.49524783 21.7361763,6.49524783 C19.4241537,6.49524783 17.3594111,7.69257707 16.8560391,10.1734854 C16.7535303,10.7249396 16.352667,11.267678 15.8066729,11.2934621 L9.91961175,10.6561213 C9.42487201,10.5439057 8.87887789,10.139167 9.01537642,9.37236063 C10.3719093,2.17095365 16.8132372,0 22.5807047,0 C25.5327777,0 29.389086,0.792590556 31.7183732,3.04961246 C34.6704461,5.83194123 34.3888167,9.54467871 34.3888167,13.5848024 L34.3888167,23.1294811 C34.3888167,25.9980597 35.566229,27.255673 36.675302,28.8063542 C37.0677128,29.3576268 37.1531368,30.021115 36.6582172,30.4343879 C35.4210981,31.476649 33.219857,33.4150005 32.008455,34.5004773 L31.9913702,34.4832273 L31.9915501,34.4832273 Z M25.8742938,19.5545618 L25.8742938,18.2279486 C21.4887165,18.2279486 16.8560391,19.1754257 16.8560391,24.3958102 C16.8560391,27.0403208 18.2125719,28.8321384 20.5418591,28.8321384 C22.2481806,28.8321384 23.7753816,27.7726273 24.7395036,26.049628 C25.9340006,23.9306058 25.8742938,21.9406861 25.8742938,19.5545618 Z" id="Shape" fill="#000000"></path>
            </g>
        </g>
    </g>
</svg>