<?xml version="1.0" encoding="UTF-8"?>
<svg width="82px" height="82px" viewBox="0 0 82 82" version="1.1" xmlns="http://www.w3.org/2000/svg" xmlns:xlink="http://www.w3.org/1999/xlink">
    <!-- Generator: Sketch 55.2 (78181) - https://sketchapp.com -->
    <title>apple</title>
    <desc>Created with Sketch.</desc>
    <g id="Page-1" stroke="none" stroke-width="1" fill="none" fill-rule="evenodd">
        <g id="apple">
            <rect id="Rectangle" fill="#FFFFFF" x="0" y="0" width="82" height="82"></rect>
            <g id="apple-black" transform="translate(14.000000, 8.000000)" fill="#000000" fill-rule="nonzero">
                <path d="M45.9343217,35.5949935 C46.0292433,45.7343307 54.9017012,49.1084072 55,49.1513563 C54.9249794,49.3891914 53.5823269,53.9596217 50.3255624,58.6805532 C47.5101171,62.7621533 44.5882921,66.8285597 39.9853774,66.912783 C35.462549,66.995451 34.0082098,64.2525708 28.8373334,64.2525708 C23.6680248,64.2525708 22.0521862,66.8286793 17.770823,66.9955707 C13.3278398,67.162462 9.94443275,62.582102 7.10582997,58.5154564 C1.30523838,50.1972088 -3.12761345,35.0100961 2.8245874,24.7585408 C5.78151052,19.6675771 11.0657623,16.4437626 16.801344,16.3610946 C21.1642409,16.2785462 25.2821749,19.2725411 27.949388,19.2725411 C30.6149126,19.2725411 35.6191034,15.6719948 40.8799564,16.2007832 C43.082331,16.2917061 49.2645389,17.0832137 53.2341201,22.8467675 C52.9142572,23.0434481 45.8576125,27.118229 45.9343217,35.5949935 M37.4341929,10.697556 C39.7930013,7.86542772 41.3806167,3.92284394 40.9474991,0 C37.5474476,0.13554688 33.4360266,2.24735052 30.9972526,5.07792349 C28.811643,7.58452386 26.897531,11.5964962 27.4139915,15.4416967 C31.2037403,15.7325303 35.075264,13.5314787 37.4341929,10.697556" id="Shape"></path>
            </g>
        </g>
    </g>
</svg>