<?xml version="1.0" encoding="UTF-8"?>
<svg width="90px" height="87px" viewBox="0 0 90 87" version="1.1" xmlns="http://www.w3.org/2000/svg" xmlns:xlink="http://www.w3.org/1999/xlink">
    <!-- Generator: Sketch 55.2 (78181) - https://sketchapp.com -->
    <title>best-buy</title>
    <desc>Created with Sketch.</desc>
    <g id="Page-1" stroke="none" stroke-width="1" fill="none" fill-rule="evenodd">
        <g id="best-buy">
            <rect id="Rectangle" fill="#FFFFFF" x="0" y="0" width="90" height="87"></rect>
            <g transform="translate(10.000000, 20.000000)">
                <polygon id="Path" stroke="#272727" stroke-width="2.198614" fill="#F1E04A" points="22.763349 0.664896318 15.1319665 0 15.1319665 0.133059179 1.0527695 12.4987721 0 29.2518418 11.5792682 43.4799837 15.9211448 43.8787616 66.4477005 48 70 4.52041589"></polygon>
                <path d="M5.06452874,23 C3.90301134,23 3,22.0969368 3,21.064366 C3,19.9030632 3.90340242,19 5.06452874,19 C6.09698866,19 7,19.9030632 7,21.064366 C7,22.0969368 6.09659758,23 5.06452874,23 Z" id="Path" stroke="#272727" stroke-width="2.092822" fill="#FFFFFF"></path>
                <path d="M18.1566497,13.4430131 L18.2872622,11.5842578 L18.8112999,11.7171115 C19.5969596,11.7171115 20.7760445,11.7171115 20.6450351,12.7791434 C20.6450351,13.5758668 19.5969596,13.5758668 18.6802905,13.5758668 L18.1566497,13.4430131 Z M12,21.0104889 L20.1217913,21.6743585 C23.1346115,21.939667 26.2780441,21.2757973 26.5400629,18.6207177 C26.6710724,17.0276699 25.6229969,15.965638 23.7892617,15.3017683 L23.7892617,15.1689146 C25.361375,14.9036061 26.1470346,13.8415742 26.2780441,12.7791434 C26.5400629,9.72590153 23.2652239,8.92917815 19.9903849,8.66386966 L13.0476785,8 L12,21.0104889 L12,21.0104889 Z M18.0252433,16.2309465 L18.549281,16.2309465 C19.5973566,16.3638002 21.0380634,16.4966539 21.0380634,17.5586858 C20.907054,18.6207177 19.4663471,18.4878639 18.4182716,18.4878639 L17.7636214,18.3554092 L18.0252433,16.2309465 L18.0252433,16.2309465 Z M28.1117792,9.32773932 L39.2467877,10.2569175 L38.9843718,13.7087205 L33.8757976,13.3105583 L33.7447882,14.6378987 L38.4603341,15.0364598 L38.1983152,18.3554092 L33.4827693,17.956848 L33.3513629,19.2845873 L38.7223529,19.6827495 L38.4603341,23.2674063 L27.0641007,22.2053744 L28.1117792,9.32773932 Z M41.2115323,18.7535714 L41.4735512,19.0192788 C42.5212297,19.6831485 43.6995207,20.3470182 45.1410215,20.4798719 C45.6642653,20.4798719 46.7127378,20.4798719 46.7127378,19.8160022 C46.8437473,19.2849863 46.0576906,19.1521326 45.4030404,19.0192788 L44.2235585,18.7535714 C41.8657855,18.2225555 40.0316534,16.8948161 40.1626628,14.9036061 C40.4246817,11.8499653 44.2235585,10.3897712 47.7608134,10.7879334 C49.724764,10.9207871 51.4282837,11.4518031 53,12.2485264 L51.0352554,15.4346221 C50.1177923,14.9036061 48.9395013,14.3725902 47.6298039,14.2397365 C47.1057662,14.1068827 46.3193125,14.2397365 46.3193125,14.7707524 C46.1883031,15.3017683 46.9743597,15.4346221 47.4987945,15.5674758 L48.8084919,15.8327843 C51.2976713,16.4970529 53.1314064,17.8243932 52.8693876,19.948457 C52.6073687,23.0016989 48.9398983,24.3298371 45.272031,23.930877 C43.1762769,23.7984223 40.818107,23.1345526 38.9843718,22.3378292 L41.2115323,18.7535714 L41.2115323,18.7535714 Z" id="Shape" fill="#272727"></path>
                <path d="M54.1795062,12 L67,13.0614911 L66.6034403,17.307854 L63.2995775,16.9094958 L62.5060576,25.8001812 L56.4266777,25.2690369 L57.219797,16.379149 L53.7829465,16.246363 L54.1795062,12 L54.1795062,12 Z M20.3441536,29.3826138 L20.4763402,27.5252039 L20.8728999,27.5252039 C21.7982058,27.6575912 22.8552977,27.6575912 22.8552977,28.5866949 C22.7227105,29.5150011 21.7978052,29.5150011 20.8728999,29.3826138 L20.3441536,29.3826138 Z M14,36.9458373 L22.3265514,37.6093689 C25.2342551,37.874941 28.5385185,37.2114094 28.6707051,34.557283 C28.8028916,32.9654452 27.7453992,31.7715668 26.0273745,31.2404225 L26.0273745,31.1080352 C27.4810261,30.8424631 28.2737448,29.780972 28.406332,28.5870937 C28.6707051,25.6681926 25.3664417,24.7390889 22.1943649,24.4735168 L15.0570919,23.9427712 L14,36.9458373 L14,36.9458373 Z M20.0797805,32.1695263 L20.6085268,32.1695263 C21.6660192,32.3019136 23.2518573,32.3019136 23.1200713,33.4965895 C22.9874842,34.557283 21.5338327,34.4248957 20.6085268,34.2925084 L19.947594,34.2925084 L20.0797805,32.1695263 L20.0797805,32.1695263 Z M45.8529547,26.4637128 L45.1920219,34.1593236 C44.9276488,37.874941 41.623786,39.3347903 36.9976571,38.936432 C32.2393416,38.6708599 29.3316379,36.6802651 29.596011,32.8326591 L30.2569438,25.1362508 L36.3367243,25.6673951 L35.8079781,32.9650464 C35.6757915,33.8941502 35.6757915,34.8224564 37.2620302,34.9556412 C38.9800549,35.0880285 39.1122414,34.1589248 39.1122414,33.2306186 L39.7731742,25.9321698 L45.8529547,26.4637128 L45.8529547,26.4637128 Z" id="Shape" fill="#272727"></path>
                <path d="M52.0383064,26.5329136 L53.6622154,30.1326846 L53.9329353,30.1326846 C54.0682952,29.7327991 54.3390151,29.3329136 54.609735,28.933028 L55.9629241,26.9327991 L63,27.466514 L56.5035435,34.3995993 L55.9629241,40 L49.8717271,39.4670864 L50.4131668,33.8666857 L45,26 L52.0383064,26.5329136 L52.0383064,26.5329136 Z" id="Path" fill="#272727"></path>
            </g>
        </g>
    </g>
</svg>