<?xml version="1.0" encoding="UTF-8"?>
<svg width="130px" height="46px" viewBox="0 0 130 46" version="1.1" xmlns="http://www.w3.org/2000/svg" xmlns:xlink="http://www.w3.org/1999/xlink">
    <!-- Generator: Sketch 55.2 (78181) - https://sketchapp.com -->
    <title>ebay</title>
    <desc>Created with Sketch.</desc>
    <g id="Page-1" stroke="none" stroke-width="1" fill="none" fill-rule="evenodd">
        <g id="ebay">
            <rect id="Rectangle" fill="#FFFFFF" x="0" y="0" width="130" height="46"></rect>
            <g transform="translate(11.000000, 2.000000)" fill-rule="nonzero">
                <path d="M13.8914783,9 C6.31417802,9 0,12.1593407 0,21.6923077 C0,29.2444351 4.24588249,34 14.0867696,34 C25.6702279,34 26.4126929,26.5 26.4126929,26.5 L20.8001301,26.5 C20.8001301,26.5 19.5968493,30.5384615 13.744562,30.5384615 C8.97802227,30.5384615 5.54985468,27.3734855 5.54985468,22.9377289 L27,22.9377289 L27,20.1538462 C27,15.765286 24.1655895,9 13.8914783,9 L13.8914783,9 Z M13.6954704,12.5576923 C18.2326773,12.5576923 21.3258039,15.2897999 21.3258039,19.3846154 L5.67383774,19.3846154 C5.67383774,15.037264 9.71152902,12.5576923 13.6954704,12.5576923 Z" id="Shape" fill="#E53238"></path>
                <path d="M27.1253682,0 L27.1253682,30.0418404 C27.1253682,31.7470275 27,34.1414769 27,34.1414769 L32.5247077,34.1414769 C32.5247077,34.1414769 32.7232998,32.4219151 32.7232998,30.8500524 C32.7232998,30.8500524 35.4529247,35 42.8751674,35 C50.6908961,35 56,29.7266772 56,22.1724644 C56,15.1443621 51.1235829,9.49190915 42.8877412,9.49190915 C35.1755614,9.49190915 32.7791423,13.538719 32.7791423,13.538719 L32.7791423,0 L27.1253682,0 Z M41.4617239,13.2077438 C46.7693485,13.2077438 50.1446753,17.0357004 50.1446753,22.1724644 C50.1446753,27.680812 46.2464262,31.2841653 41.4998151,31.2841653 C35.8349465,31.2841653 32.7791423,26.9857999 32.7791423,22.2213381 C32.7791423,17.7817422 35.5209712,13.2077438 41.4617239,13.2077438 L41.4617239,13.2077438 Z" id="Shape" fill="#0064D2"></path>
                <path d="M68.9848485,9 C57.508658,9 56.7727273,15.1010466 56.7727273,16.0762053 L62.4848485,16.0762053 C62.4848485,16.0762053 62.7842713,12.5142841 68.5909091,12.5142841 C72.3639971,12.5142841 75.2878788,14.1913889 75.2878788,17.4149468 L75.2878788,18.5624396 L68.5909091,18.5624396 C59.7002165,18.5624396 55,21.0879044 55,26.2127415 C55,31.2559651 59.3427128,34 65.2117605,34 C73.2103175,34 75.7867965,29.7088115 75.7867965,29.7088115 C75.7867965,31.4156894 75.9220779,33.097698 75.9220779,33.097698 L81,33.097698 C81,33.097698 80.8033911,31.012876 80.8033911,29.6790383 L80.8033911,18.1501688 C80.8033911,10.5905875 74.5234488,9 68.9848485,9 L68.9848485,9 Z M75.2878788,22.0049178 L75.2878788,23.5349082 C75.2878788,25.5304107 74.0194805,30.4916705 66.5533911,30.4916705 C62.4650072,30.4916705 60.7121212,28.5105292 60.7121212,26.2123912 C60.7121212,22.0318888 66.6150794,22.0049178 75.2878788,22.0049178 Z" id="Shape" fill="#F5AF02"></path>
                <polygon id="Path" fill="#86B817" points="78 10 84.2853883 10 93.3061008 28.5360809 102.305995 10 108 10 91.606756 43 85.6339963 43 90.364357 33.8007216"></polygon>
            </g>
        </g>
    </g>
</svg>