<?xml version="1.0" encoding="UTF-8"?>
<svg width="83px" height="17px" viewBox="0 0 83 17" version="1.1" xmlns="http://www.w3.org/2000/svg" xmlns:xlink="http://www.w3.org/1999/xlink">
    <!-- Generator: Sketch 55.2 (78181) - https://sketchapp.com -->
    <title>Forever_21_logo</title>
    <desc>Created with Sketch.</desc>
    <defs>
        <polygon id="path-1" points="0 0 0 13 76 13 76 0"></polygon>
    </defs>
    <g id="Page-1" stroke="none" stroke-width="1" fill="none" fill-rule="evenodd">
        <g id="Forever_21_logo">
            <rect id="Rectangle" fill="#FFFFFF" x="0" y="0" width="83" height="17"></rect>
            <g id="Clipped" transform="translate(4.000000, 2.000000)">
                <mask id="mask-2" fill="white">
                    <use xlink:href="#path-1"></use>
                </mask>
                <g id="Path"></g>
                <path d="M74.2149484,0.107697283 L72.4302145,0.101552393 L72.4302145,2.05530401 L74.2149484,2.04560155 L74.2149484,12.8955369 L76,12.8955369 L76,0.107697283 L74.2149484,0.107697283 Z M70.2157341,3.2160414 C70.2157341,1.50970246 69.4277069,0 67.5711898,0 C66.0824822,0 64.8926595,1.25582147 64.8926595,2.78460543 L64.8926595,3.79010349 L66.6773935,3.79010349 L66.6773935,2.74644243 C66.6773935,2.15362225 67.0261455,1.82988357 67.5527675,1.82988357 C68.4278239,1.82988357 68.4278239,2.60058215 68.4278239,3.24773609 C68.4278239,3.94857697 68.4278239,4.30692109 68.1133753,4.93499353 L64.8926595,11.1668823 L64.8926595,12.8923027 L70.2157341,12.8923027 L70.2157341,11.059185 L66.9950183,11.059185 L69.6208228,5.86739974 C70.1814306,4.77619664 70.2157341,4.45278137 70.2157341,3.2160414 Z M53.4178271,5.8198577 L52.4023805,5.8198577 L52.4023805,1.83311772 L53.3307979,1.83311772 C54.6451295,1.83311772 54.853809,2.5339586 54.853809,3.82794308 C54.853809,5.09993532 54.6638693,5.8198577 53.4178271,5.8198577 Z M56.6417192,3.86287193 C56.6417192,1.38292367 55.6075327,0.107697283 53.4896103,0.107697283 L50.6176466,0.107697283 L50.6176466,12.8955369 L52.4023805,12.8955369 L52.4023805,7.43725744 L53.4708705,7.43725744 L55.1342717,12.898771 L57.0247747,12.898771 L55.0999682,7.05983182 C56.2367475,6.41267788 56.6417192,5.33441138 56.6417192,3.86287193 Z M42.5410823,12.8955369 L47.8644745,12.8955369 L47.8644745,11.0624191 L44.3289925,11.0624191 L44.3289925,7.31047865 L47.4096357,7.31047865 L47.4096357,5.58505821 L44.3289925,5.58505821 L44.3289925,1.83311772 L47.8644745,1.83311772 L47.8644745,0.107697283 L42.5410823,0.107697283 L42.5410823,12.8955369 Z M36.5452783,9.03557568 L36.5109748,9.03557568 L35.0937328,0.107697283 L33.2032297,0.107697283 L35.7416874,12.8955369 L37.3177419,12.8955369 L39.8749394,0.107697283 L37.9844364,0.107697283 L36.5452783,9.03557568 Z M25.5875391,12.8955369 L30.9106137,12.8955369 L30.9106137,11.0624191 L27.372273,11.0624191 L27.372273,7.31047865 L30.4529163,7.31047865 L30.4529163,5.58505821 L27.372273,5.58505821 L27.372273,1.83311772 L30.9077551,1.83311772 L30.9077551,0.107697283 L25.5875391,0.107697283 L25.5875391,12.8955369 Z M19.4827897,5.8198577 L18.4673432,5.8198577 L18.4673432,1.83311772 L19.3954429,1.83311772 C20.7100921,1.83311772 20.9187716,2.5339586 20.9187716,3.82794308 C20.9155954,5.09993532 20.7256557,5.8198577 19.4827897,5.8198577 Z M22.7035056,3.86287193 C22.7035056,1.38292367 21.6693191,0.107697283 19.5513967,0.107697283 L16.679433,0.107697283 L16.679433,12.8955369 L18.4641669,12.8955369 L18.4641669,7.43725744 L19.5326568,7.43725744 L21.1957405,12.898771 L23.0865611,12.898771 L21.161437,7.05983182 C22.3017102,6.41267788 22.7035056,5.33441138 22.7035056,3.86287193 Z M12.0230529,9.87936611 C12.0230529,10.7609961 11.4621274,11.1733506 10.8144904,11.1733506 C10.1665357,11.1733506 9.60592788,10.7609961 9.60592788,9.87936611 L9.60592788,3.12386805 C9.60592788,2.24223803 10.1665357,1.82988357 10.8144904,1.82988357 C11.4621274,1.82988357 12.0230529,2.24223803 12.0230529,3.12386805 L12.0230529,9.87936611 Z M10.8144904,0 C9.35976864,0 7.82119394,1.04010349 7.82119394,3.12386805 L7.82119394,9.87613195 C7.82119394,11.9598965 9.36294488,13 10.8144904,13 C12.2688945,13 13.8077868,11.9598965 13.8077868,9.87613195 L13.8077868,3.12386805 C13.8077868,1.04010349 12.2688945,0 10.8144904,0 Z M0,12.8955369 L1.78473395,12.8955369 L1.78473395,7.43725744 L4.86537722,7.43725744 L4.86537722,5.711837 L1.78473395,5.711837 L1.78473395,1.83311772 L5.31989836,1.83311772 L5.31989836,0.107697283 L0,0.107697283 L0,12.8955369 Z" id="Shape" fill="#000000" fill-rule="nonzero" mask="url(#mask-2)"></path>
            </g>
        </g>
    </g>
</svg>