<?xml version="1.0" encoding="UTF-8"?>
<svg width="55px" height="55px" viewBox="0 0 55 55" version="1.1" xmlns="http://www.w3.org/2000/svg" xmlns:xlink="http://www.w3.org/1999/xlink">
    <!-- Generator: Sketch 55.2 (78181) - https://sketchapp.com -->
    <title>new-gap-logo</title>
    <desc>Created with Sketch.</desc>
    <g id="Page-1" stroke="none" stroke-width="1" fill="none" fill-rule="evenodd">
        <g id="new-gap-logo">
            <rect id="Rectangle" fill="#FFFFFF" x="0" y="0" width="55" height="55"></rect>
            <g transform="translate(2.000000, 9.000000)" fill="#000000" fill-rule="nonzero" id="Shape">
                <path d="M3.94027078,0 C2.99888791,0 0.00529041608,0.298737027 0.00529041608,4.16335094 L0.00529041608,31.6187062 C0.00529041608,31.6518993 -0.15474467,34.3310488 1.28557111,35.8863781 C2.01379987,36.641202 3.02835854,37.045204 4.07206438,36.9959727 C5.09876728,36.9732388 6.08231642,36.5755504 6.83972999,35.8768943 C7.0369984,35.7786021 7.26848118,35.7786021 7.46574959,35.8768943 C7.70354659,36.0768218 7.82850965,36.3817966 7.79994051,36.6924938 L8.31770108,36.6924938 L8.31770108,19.474809 L9.59798177,19.474809 L9.59798177,19.0006233 L4.16149575,19.0006233 L4.16149575,19.474809 L5.7571397,19.474809 L5.7571397,34.2694046 C5.82760264,34.9125201 5.65999799,35.5592114 5.28644827,36.0855361 C4.9730608,36.4136784 4.53267188,36.5869824 4.0814782,36.5597218 C3.70106213,36.56935 3.33403512,36.4180097 3.06949163,36.1424384 C2.56114488,35.6160922 2.32109225,34.6250439 2.35874757,33.1977448 L2.35874757,3.06798185 C2.35874757,2.95891912 2.47642043,0.459960184 3.84613249,0.459960184 C5.21584455,0.459960184 6.85385073,3.94048364 7.41397353,10.5933098 L7.41397353,11.6412603 L7.88466496,11.6412603 L7.88466496,0.308220742 L7.41397353,0.308220742 L7.41397353,1.23288297 L7.3716113,1.26133411 C7.26410675,1.33826147 7.13629191,1.38118271 7.00447199,1.38462241 C6.82551189,1.33054711 6.66340285,1.23092649 6.53378056,1.0953691 C5.81588505,0.447235214 4.90233564,0.0613975342 3.94027078,0 Z M41.1248938,36.720945 L47.046192,36.720945 L47.046192,36.2467592 L44.9986843,36.2467592 L44.9986843,21.9026401 L47.540418,21.9026401 C48.4206039,21.9596133 49.2860174,21.654024 49.9382837,21.0559211 C50.5905499,20.4578182 50.9737339,19.618492 51,18.7303374 L51,4.15860909 C51,0.649634487 46.5425522,0.583248481 46.5001899,0.583248481 L40.9931002,0.583248481 L40.9931002,1.05743424 L42.4051745,1.05743424 L42.4051745,36.2609848 L41.1060661,36.2609848 L41.1060661,36.7351706 L41.1248938,36.720945 Z M26.2510446,36.6735264 L31.7063583,36.6735264 L31.7063583,36.1993407 L30.2566287,36.1993407 L26.335769,0.602215911 L24.2035369,0.602215911 C24.0105534,2.46576593 20.7204203,34.2694046 20.7204203,34.7056555 C20.6942156,35.5147478 20.0545941,36.167379 19.251863,36.2040825 L18.9741551,36.2040825 L18.9741551,36.6782683 L22.7867557,36.6782683 L22.7867557,36.2040825 L22.5843583,36.2040825 C22.1947131,36.1878865 21.8290644,36.0100741 21.5740982,35.7128002 C21.319132,35.4155263 21.1975517,35.0252616 21.2381808,34.6345277 L22.5561169,21.7888355 L26.1051302,21.7888355 L27.6395843,36.2040825 L26.22751,36.2040825 L26.22751,36.6782683 L26.2510446,36.6735264 Z M45.1257709,21.305166 L45.0363396,21.305166 L45.0363396,1.0953691 L46.5378452,1.0953691 C48.2841104,1.0953691 48.5571115,3.43310488 48.5571115,3.46629788 L48.5571115,19.1902976 C48.5571115,21.2482638 47.0179505,21.2956823 47.0038298,21.2956823 L45.121064,21.2956823 L45.1257709,21.305166 Z M26.0957164,21.2150707 L22.6455482,21.2150707 L22.6455482,21.1154917 L24.3494512,4.93627373 L26.0957164,21.2150707 Z"></path>
            </g>
        </g>
    </g>
</svg>