<?xml version="1.0" encoding="UTF-8"?>
<svg width="62px" height="54px" viewBox="0 0 62 54" version="1.1" xmlns="http://www.w3.org/2000/svg" xmlns:xlink="http://www.w3.org/1999/xlink">
    <!-- Generator: Sketch 55.2 (78181) - https://sketchapp.com -->
    <title>h-m</title>
    <desc>Created with Sketch.</desc>
    <g id="Page-1" stroke="none" stroke-width="1" fill="none" fill-rule="evenodd">
        <g id="h-m">
            <rect id="Rectangle" fill="#FFFFFF" x="0" y="0" width="62" height="54"></rect>
            <g transform="translate(3.000000, 9.000000)" fill="#C7232F" fill-rule="nonzero" id="Shape">
                <path d="M39.3468427,1.12820552 C41.3634689,0.118540252 42.398277,0.273693704 42.4242722,1.28335897 C42.4496008,2.6036648 42.2426392,4.36407258 42.1129966,5.63266059 C41.3378069,12.5194719 40.0963704,18.1373615 39.9930563,25.2310441 C43.3291044,16.583825 46.0959248,10.6292691 49.6905917,3.25097168 C50.8283807,0.894974841 51.5782417,1.33507679 52.5090691,0.894974841 C56.1553931,-0.736305223 56.2843692,0.273360041 55.7931269,2.29269057 C54.0351195,9.61960383 49.5352871,32.7905207 48.8374165,36.3380294 C48.6304549,37.3737204 47.4926658,36.9593105 47.2340471,36.5452343 C45.8892964,34.7588008 44.4408983,34.7324414 44.5958696,33.5159048 C45.4237161,27.6134004 48.3718362,12.674959 49.1216971,9.15380981 C45.2167544,17.1273626 41.1825024,27.146939 39.1145525,32.7905207 C38.674634,33.9816989 37.873116,33.904289 37.3818737,33.0237514 C36.6573414,31.7548297 35.3125907,31.1338823 35.1062956,29.6841151 C34.3817633,25.0495313 35.9074804,16.1954409 36.114442,10.5775513 C34.0198304,16.6872607 30.451492,28.5967062 28.8997797,33.9553395 C28.2535661,36.1822086 26.1072974,35.7938245 26.6761919,33.6707246 C29.0547509,24.6351214 34.149473,8.71304054 36.3470656,2.9913816 C36.864303,1.62002528 38.2343823,1.69776884 39.3468427,1.12820552 L39.3468427,1.12820552 Z M26.468897,0.0151046166 C25.7703599,-0.140048836 23.7534005,0.947026322 22.5122972,1.12853918 C22.1247024,1.23230848 21.7624363,1.62035894 21.6334602,1.93066585 C19.6674913,6.46114666 17.909484,10.7593978 16.409762,14.6422381 C14.1448867,15.0580786 11.8861773,15.5069033 9.63435152,15.9885696 C11.4703445,11.3286275 13.3066707,6.694711 15.0906732,2.26699849 C15.9698436,0.0407966937 13.6429416,-0.16640824 12.7371096,2.06012722 C11.5736586,4.93396956 9.37539953,10.3443206 6.94485016,16.6362102 C5.16051431,17.0763121 3.22087392,17.5681319 1.2559049,18.163721 C-0.192159956,18.5517714 -0.244150317,18.9398219 0.376401297,19.8206931 C0.738334194,20.2864871 1.41087617,20.2347693 1.74714716,20.5974613 C2.60065558,21.4773316 3.11789302,22.5390483 4.6429436,22.6942018 C3.24686911,26.3187866 1.90178515,30.021115 0.712672285,33.5679563 C-0.063183869,35.8201839 2.13474196,36.2863115 2.96225521,33.9046226 C4.30700589,30.0988586 5.72907556,26.2413767 7.20346887,22.3315097 C8.4189102,22.0729206 11.3410351,21.4516395 14.0561984,20.8300247 C11.9099296,26.7845806 10.5135218,31.2636773 9.94429405,33.464187 C9.84131315,33.8782632 10.0479415,34.0854682 10.1252605,34.2923394 C10.8237977,35.3280304 11.5476635,35.3797483 12.4784909,36.7003877 C12.7114477,37.0630798 13.5646228,37.2439253 13.8752319,36.3637214 C15.7288559,30.7298224 17.7031678,25.1364454 19.7968007,19.5874624 C20.598652,19.3802575 22.0470502,19.0435912 22.9258872,17.7493111 C24.4775995,15.4190063 24.917518,15.8854677 25.331108,15.1861093 C25.796355,14.2802133 25.4600841,13.4774194 23.8053908,13.6585985 C23.8053908,13.6585985 23.1845059,13.71065 21.9950598,13.8401114 C23.8567147,9.10209199 25.5124077,5.08945668 26.6498635,2.0084094 C27.0374583,0.947026322 27.0897819,0.170258069 26.468897,0.0151046166 L26.468897,0.0151046166 Z"></path>
                <path d="M24.7608148,29.9874408 C25.0522906,29.6612201 25.3166775,29.3244865 25.5550592,29.0135574 C26.6169412,27.6277566 25.5832316,26.8131606 24.4902877,27.6290309 C24.3342561,27.7555051 24.1720843,27.8934481 24.0109961,28.0368068 C23.8317752,27.5423454 23.6539516,27.0474909 23.4775268,26.5522478 C23.9784895,26.0106705 24.4660884,25.4547573 24.8821728,24.8851454 C26.6386123,22.4824536 23.2012208,21.1033429 21.7153083,22.6608555 C20.9311771,23.4767258 21.1273002,24.2922775 21.3512345,25.009071 C21.4162477,25.2244277 21.5173793,25.532171 21.6427102,25.9055408 C21.0977239,26.4076542 20.5706202,26.9246339 20.0621675,27.4557262 C18.3526819,29.1865435 18.8280005,31.4149749 20.6227256,31.9052616 C21.704834,32.2012177 22.7259021,31.7698673 23.6104426,31.0817456 C23.6530624,31.1798666 23.6938762,31.2732091 23.7336065,31.3617729 C24.2100087,32.4000085 25.6955599,32.0785664 25.1068294,30.8179656 C25.0121991,30.6061133 24.8937307,30.3209887 24.7608148,29.9874408 L24.7608148,29.9874408 Z M22.327877,27.8093443 C22.4730731,28.2129787 22.6294659,28.6370019 22.7854976,29.0428663 C22.5900968,29.1865435 22.3918066,29.3318137 22.1920717,29.4337577 C21.4971529,29.7883315 20.9867994,29.4089088 21.8836202,28.346143 C22.0302611,28.1626439 22.1805138,27.9848791 22.327877,27.8093443 Z M22.8887963,24.7825643 C22.8371469,24.6675587 22.8075298,24.5547832 22.780441,24.4652637 C22.2776723,22.8086743 24.4303311,23.2511748 23.3413603,24.3416566 C23.1867734,24.4961655 23.0462727,24.6490814 22.8887963,24.7825643 Z"></path>
            </g>
        </g>
    </g>
</svg>