<?xml version="1.0" encoding="UTF-8"?>
<svg width="100px" height="27px" viewBox="0 0 100 27" version="1.1" xmlns="http://www.w3.org/2000/svg" xmlns:xlink="http://www.w3.org/1999/xlink">
    <!-- Generator: Sketch 55.2 (78181) - https://sketchapp.com -->
    <title>ralphlauren</title>
    <desc>Created with Sketch.</desc>
    <g id="Page-1" stroke="none" stroke-width="1" fill="none" fill-rule="evenodd">
        <g id="ralphlauren">
            <rect id="Rectangle" fill="#FFFFFF" x="0" y="0" width="100" height="27"></rect>
            <g id="Group-4" transform="translate(8.000000, 1.000000)" fill="#000000" fill-rule="nonzero">
                <path d="M43.7259387,0.0714285714 C43.6016401,0.183673469 43.6534312,0.56122449 43.8191627,0.795918367 C44.0470436,1.1122449 43.9641778,1.24489796 43.3219681,1.66326531 C43.0215796,1.86734694 42.6797583,2.1122449 42.5554596,2.21428571 C42.4415192,2.31632653 42.2757877,2.43877551 42.1825637,2.5 C41.2813984,3.04081633 39.2719033,4.44897959 39.1476047,4.62244898 C38.9507984,4.89795918 38.9507984,5 39.1476047,5 C39.3133362,5 40.3698748,4.39795918 40.4216659,4.26530612 C40.4423824,4.2244898 40.5045317,4.18367347 40.5563228,4.18367347 C40.6702633,4.18367347 41.3021148,3.75510204 41.3539059,3.64285714 C41.3746224,3.60204082 41.4367717,3.57142857 41.4885628,3.57142857 C41.5817868,3.57142857 42.1825637,3.14285714 43.2805352,2.31632653 C43.4566249,2.19387755 43.7052223,1.98979592 43.8502374,1.85714286 C44.1506258,1.58163265 44.2956409,1.6122449 44.3785067,1.94897959 C44.4613725,2.28571429 45,2.36734694 45,2.05102041 C45,1.92857143 44.9585671,1.75510204 44.8964178,1.65306122 C44.7306862,1.35714286 44.3785067,0.530612245 44.3785067,0.428571429 C44.3785067,0.306122449 44.0263271,0 43.8916703,0 C43.8398792,0 43.7570134,0.0306122449 43.7259387,0.0714285714 Z" id="Path"></path>
                <path d="M36.7364526,5.24623109 C36.5613757,5.39396974 36.4686879,5.58110536 36.4686879,5.77809023 C36.4686879,5.98492434 36.3862987,6.132663 36.1906245,6.2705524 C35.6653937,6.64482366 35.4594209,6.89105474 35.4079276,7.23577826 C35.3358371,7.61004951 35.4697195,7.95477303 35.6756924,7.95477303 C35.7477829,7.95477303 35.8713666,7.99417001 35.9537557,8.05326547 C36.0773394,8.12221017 36.0773394,8.17145639 35.9125612,8.33889353 C35.7992761,8.45708445 35.6756924,8.54572764 35.6241992,8.54572764 C35.4388236,8.54572764 35.1401629,8.9889436 35.1916561,9.16622998 C35.2328507,9.2844209 35.1195656,9.4420088 34.8620996,9.65869215 C34.2029864,10.2004005 34.1,10.3087422 34.1,10.4958778 C34.1,10.6928627 34.6355294,11.2050234 34.8415023,11.2050234 C35.0886697,11.2050234 35.4388236,11.6383901 35.4388236,11.9535659 C35.4388236,12.1111538 35.5109141,12.3278371 35.5933032,12.4263296 C35.6756924,12.5346712 35.7477829,12.7809023 35.7477829,12.968038 C35.7477829,13.4900479 36.118534,14.1597964 36.4171947,14.1597964 C36.5407784,14.1597964 36.6849594,14.0908517 36.7158553,14.0022085 C36.8188417,13.7362789 37.2410861,13.8741683 37.271982,14.1794949 C37.3131766,14.4749722 37.1483983,14.5537661 37.0454119,14.3075351 C37.0145159,14.2287411 36.9321268,14.1597964 36.8600363,14.1597964 C36.6643621,14.1696457 36.2421177,14.8492434 36.2936109,15.0560776 C36.3245069,15.15457 36.2833123,15.2826102 36.2009232,15.3515549 C35.9022625,15.5879367 36.1082354,16.5334641 36.5819729,17.0751725 C36.6746607,17.1835141 36.6746607,17.2524589 36.551077,17.3903483 C36.4686879,17.4789914 36.3142082,17.823715 36.2112218,18.14874 C36.1082354,18.473765 35.8919639,19.0253227 35.7271856,19.3700462 C35.4491222,19.9413023 35.4285249,20.0693425 35.4697195,20.7981865 C35.5006154,21.2315532 35.5830046,21.9013018 35.6447964,22.275573 C35.7580815,22.8566784 35.830172,23.0142663 36.1391313,23.2900451 C36.3348055,23.4673315 36.5304797,23.6150701 36.5819729,23.6150701 C36.6334662,23.6150701 36.7570499,23.7037133 36.8703349,23.8219042 C37.1483983,24.1075323 37.5397467,24.0385876 37.5809413,23.6938641 C37.6221359,23.3885375 37.3028779,23.0241155 37.0042173,23.0241155 C36.6231675,23.0241155 36.2215204,22.3642162 36.118534,21.586126 C36.0670408,21.1921562 36.0876381,21.0542668 36.2112218,20.9557744 C36.3142082,20.8769804 36.3657014,20.6602971 36.3657014,20.2958751 C36.3657014,19.8132621 36.3965974,19.724619 36.6849594,19.4980864 C36.8703349,19.3503477 37.2307874,19.0450212 37.4882535,18.8086393 L37.9619911,18.3949711 L37.6221359,18.0994938 C37.4367603,17.9320566 37.3131766,17.7547703 37.3440725,17.705524 C37.416163,17.5971824 36.9218282,16.5236148 36.7982444,16.5236148 C36.7055567,16.5236148 36.4686879,16.0410019 36.4686879,15.8637155 C36.4686879,15.7849216 36.5407784,15.7061276 36.6231675,15.6765799 C36.7261539,15.6371829 36.7776472,15.479595 36.7776472,15.1644192 C36.7776472,14.6424093 36.9527241,14.7015048 37.0042173,15.2333639 C37.0454119,15.6962784 37.2307874,15.7159769 37.4367603,15.2924594 C37.5294481,15.1053238 37.6530318,14.9477359 37.704525,14.9477359 C37.7663169,14.9477359 37.8075114,14.8590927 37.8075114,14.750751 C37.8075114,14.6325601 37.9722897,14.4552737 38.2503531,14.2878366 C38.4872219,14.1400979 38.7034934,14.0022085 38.7343893,13.98251 C38.7652852,13.9628115 38.7034934,13.9037161 38.600507,13.8446206 C38.4460273,13.7658267 38.4151314,13.6476357 38.4357287,13.293063 C38.456326,13.0369827 38.4151314,12.7218069 38.3327422,12.6036159 C38.2606517,12.4755758 38.1782626,11.9437166 38.1576653,11.4217067 C38.1061721,10.6140688 38.0546789,10.3678377 37.7869142,9.85567702 C37.5912399,9.46170728 37.4985522,9.17607922 37.5500454,9.04803906 C37.6324345,8.80180797 37.7560182,8.78210948 37.848706,8.99879284 C37.8899006,9.09728527 38.0031857,9.13668225 38.1885612,9.11698376 C38.4357287,9.08743603 38.4769232,9.03818981 38.4769232,8.762411 C38.4872219,8.39798899 38.6520002,8.25025034 39.0536472,8.25025034 C39.4552943,8.25025034 39.4758916,8.34874277 39.146335,8.64422008 C38.9712581,8.80180797 38.8373757,9.00864208 38.8373757,9.10713452 C38.8373757,9.22532544 38.7240907,9.3533656 38.5593124,9.42231031 L38.2709504,9.55035047 L38.5593124,9.76703383 C38.8785703,10.0132649 38.9197649,10.2693452 38.6622988,10.3579884 C38.5284165,10.4072347 38.5181178,10.4466316 38.6211042,10.5451241 C38.7240907,10.6337673 38.7755839,10.623918 38.8785703,10.4860286 C38.9506608,10.3973854 39.0948418,10.3185915 39.1875296,10.3185915 C39.2802174,10.3185915 39.3832038,10.2496468 39.4243984,10.1610036 C39.465593,10.0428126 39.609774,10.0132649 40.0629142,10.0428126 L40.6396382,10.0723604 L40.6705342,9.58974745 C40.6911315,9.32381787 40.6808328,9.04803906 40.6396382,8.95939587 C40.588145,8.8313557 40.5572491,8.8313557 40.3924708,8.97909435 C40.2894844,9.06773754 40.1350047,9.11698376 40.0320183,9.07758679 C39.86724,9.01849133 39.86724,8.99879284 40.0217197,8.84120495 C40.1144075,8.74271251 40.3512762,8.63437083 40.5469505,8.6048231 C40.9588962,8.52602915 41.1442718,8.25025034 41.051584,7.84643136 C40.9897921,7.60020027 40.9382989,7.5608033 40.6602355,7.5608033 C40.3821722,7.55095405 40.3615749,7.54110481 40.5160545,7.45246162 C40.7838192,7.30472297 40.7426247,7.22592902 40.155602,6.86150701 C39.6921631,6.5857282 39.5067875,6.52663273 38.9403622,6.51678349 C38.3945341,6.497085 38.2400544,6.45768803 38.0958734,6.2705524 C37.9207965,6.07356754 37.9207965,6.04401981 38.0649775,5.88643191 C38.2091585,5.72884402 38.2091585,5.6795978 38.0546789,5.35457276 C37.8899006,5.02954773 37.8384074,5 37.4470589,5 C37.127801,5 36.9424254,5.0689447 36.7364526,5.24623109 L36.7364526,5.24623109 Z M37.2732314,6.60946991 C37.3978594,6.66866293 37.5432588,6.76168051 37.5848015,6.82932967 C37.6471155,6.91389111 37.7717435,6.9308034 37.9898426,6.88852268 C38.3014127,6.83778581 38.3117983,6.83778581 38.2494843,7.09992629 C38.1871703,7.34515448 38.197556,7.36206677 38.4779691,7.36206677 C38.6856824,7.36206677 38.8933958,7.26904918 39.1011092,7.09992629 C39.360751,6.89697882 39.4334507,6.87161039 39.485379,6.97308412 C39.5892357,7.20140002 39.485379,7.39589135 39.2153516,7.44662821 C39.0699522,7.47199665 38.9453242,7.56501424 38.9245528,7.65803182 C38.8622388,7.9201723 38.7376108,7.97936531 38.5091261,7.86097929 C38.322184,7.7679617 38.228713,7.77641785 37.9171429,7.89480387 C37.3355454,8.12311977 37.2109174,8.08929519 37.2836171,7.74259327 C37.3563167,7.42125978 37.221303,7.34515448 37.0447467,7.59038267 C36.9512756,7.72568098 36.909733,7.71722483 36.6812482,7.48890894 C36.3800638,7.19294388 36.3385211,6.88852268 36.5877772,6.66866293 C36.7851049,6.49108389 36.9616613,6.4741716 37.2732314,6.60946991 L37.2732314,6.60946991 Z M40.0574077,7.34538328 C40.3389369,7.4274714 40.3839815,7.75582388 40.147497,7.96690762 C39.8547068,8.22489886 39.3704767,7.74409701 39.5731776,7.39229078 C39.6520058,7.25156828 39.7083116,7.25156828 40.0574077,7.34538328 Z M39.5238516,8.7548201 C39.4751689,8.95180497 38.9883422,9.06014665 38.8260667,8.90255875 C38.7449289,8.8237648 38.7287013,8.72527237 38.777384,8.67602615 C38.8909769,8.56768447 39.5563067,8.63662918 39.5238516,8.7548201 Z M37.1861229,9.13646438 C37.2287536,9.37334325 37.1861229,9.41453957 36.8734978,9.41453957 C36.6887648,9.41453957 36.4898215,9.47633406 36.4471908,9.53812855 C36.3761396,9.6720166 36.4898215,9.15706254 36.5892931,8.92018368 C36.6887648,8.67300573 37.1434922,8.83779103 37.1861229,9.13646438 L37.1861229,9.13646438 Z M37.9259162,10.0082732 C38.098052,10.1178816 37.7783712,11.08 37.5693492,11.08 C37.2988501,11.08 37.2619638,10.8607831 37.4586905,10.4710643 C37.6185309,10.1544177 37.6308263,10.1057029 37.4709859,10.1057029 C37.1758959,10.1057029 37.1021234,9.83777116 37.3480317,9.65509045 C37.5447584,9.52112459 37.5816446,9.52112459 37.6923033,9.70380531 C37.7537804,9.82559245 37.8644391,9.9595583 37.9259162,10.0082732 L37.9259162,10.0082732 Z M40.3,9.57637106 C40.3,9.69456199 40.2210087,9.71426047 39.9313737,9.69456199 C39.4135415,9.65516501 39.3784343,9.41878317 39.8962664,9.41878317 C40.203455,9.41878317 40.3,9.45818014 40.3,9.57637106 L40.3,9.57637106 Z M36.083072,9.94052086 C36.1823944,10.1048011 36.2596452,10.2980719 36.2596452,10.3753803 C36.2596452,10.4430251 36.3368959,10.5010063 36.4251825,10.5010063 C36.5355407,10.5010063 36.5907198,10.4043709 36.5907198,10.2014365 C36.5907198,9.96951148 36.6348631,9.91153023 36.7893646,9.94052086 C37.0211169,9.97917503 36.9880094,10.5010063 36.7452213,10.6266324 C36.5134691,10.7425949 36.5576123,11.4383699 36.8776512,12.6753034 C36.9217945,12.8299201 37.0211169,13.0328545 37.1094034,13.1294899 C37.2087258,13.2261253 37.2307975,13.3034337 37.1535467,13.3420878 C37.0983676,13.380742 37.010081,13.3517514 36.9769736,13.3034337 C36.9328303,13.2357889 36.767293,13.2261253 36.579684,13.2551159 C36.2596452,13.3130972 36.2596452,13.3130972 36.2596452,12.8975649 C36.2596452,12.6656399 36.1823944,12.3564065 36.0941078,12.2017898 C36.0058213,12.0568367 35.9285705,11.7669304 35.9285705,11.563996 C35.9285705,11.3513981 35.8733914,11.0711553 35.8071765,10.9165387 C35.6857824,10.6459595 35.5974959,9.74725001 35.6857824,9.60229687 C35.7519974,9.48633436 35.9064989,9.61196041 36.083072,9.94052086 L36.083072,9.94052086 Z M0.0983088397,8.81986134 C0.0393235359,8.83926959 0,8.95571913 0,9.0818728 C0,9.32447601 0.255602983,9.47003794 0.511205966,9.37299665 C0.874948673,9.23713886 0.884779557,9.47003794 0.865117789,14.1862443 L0.835625138,18.7860012 L0.422728011,18.8151136 C0.0294926519,18.8442259 0,18.8636342 0,19.1353498 L0,19.4167695 L1.71057381,19.4167695 C3.3719932,19.4167695 3.43097851,19.4070654 3.48996381,19.2129828 C3.57844177,18.9315631 3.40148585,18.7860012 3.0082505,18.8151136 C2.8214637,18.8345218 2.65433867,18.8151136 2.62484602,18.7665929 C2.59535337,18.7180723 2.55602983,17.7282512 2.54619895,16.5540516 C2.52653718,14.7199714 2.54619895,14.4191434 2.66416956,14.390031 C2.80180193,14.3706228 3.0672358,14.7199714 4.62051547,17.0392581 C4.69916254,17.1654117 5.0923979,17.7379553 5.48563326,18.3104989 L6.21311867,19.3682489 L7.94335425,19.4167695 C8.90678088,19.4458819 9.74240602,19.4458819 9.8112222,19.4264736 C9.87020751,19.4070654 9.92919281,19.2906158 9.92919281,19.1644622 C9.92919281,18.9800837 9.88003839,18.9315631 9.68342071,18.9315631 C9.35900154,18.9315631 9.28035447,18.7180723 9.47697215,18.3784278 C9.55561922,18.2328659 9.72274425,17.7670677 9.84071485,17.3497902 L10.0668252,16.6025723 L10.8336341,16.583164 C12.3475903,16.5443475 12.2197888,16.5249393 12.2984358,16.8451755 C12.3770829,17.1751159 12.5442079,17.6700264 12.7408256,18.1358246 C12.8194727,18.3104989 12.878458,18.5628062 12.878458,18.6889599 C12.878458,18.8927466 12.8293036,18.9315631 12.5933624,18.9315631 C12.288605,18.9315631 12.1116491,19.2420952 12.3279285,19.3876571 C12.3869138,19.4361778 12.9374433,19.4458819 13.556789,19.4167695 C14.8053113,19.3585447 14.9822672,19.2615035 14.4219068,18.9315631 C14.2056273,18.8054094 14.0581641,18.6404392 14.0286714,18.4657649 C14.0090097,18.320203 13.9303626,18.0484874 13.8615464,17.864109 C13.7927302,17.6797305 13.6845905,17.3691984 13.6157743,17.18482 C13.5469581,17.0004415 13.4388184,16.6899094 13.3700022,16.505531 C13.3110169,16.3211526 13.2127081,16.0106205 13.1733845,15.826242 C13.134061,15.6418636 13.0357521,15.3313315 12.9767668,15.146953 C12.9079507,14.9625746 12.7998109,14.6520425 12.7309947,14.467664 C12.6621786,14.2832856 12.5540388,13.9727535 12.4852226,13.7883751 C12.4262373,13.6039966 12.3279285,13.2934645 12.288605,13.1090861 C12.2492814,12.9247076 12.1509726,12.5947673 12.0723255,12.3812764 C11.9346931,12.0222237 11.8953696,11.9931113 11.5316269,11.9639989 C11.1678842,11.9348865 11.1383915,11.9542948 10.9909283,12.3036434 C10.8041415,12.7694416 10.6271856,13.254648 10.4993841,13.6913338 C10.4502297,13.8757122 10.3617517,14.0697948 10.3224282,14.1280196 C10.2831046,14.1765402 10.2142884,14.3803269 10.1749649,14.5647053 C10.1356414,14.7490838 10.0668252,14.9625746 10.0176708,15.0499117 C9.97834723,15.1275448 9.87020751,15.4574851 9.78172955,15.7777214 C9.6932516,16.0979576 9.55561922,16.5152351 9.48680303,16.6996136 C9.40815596,16.883992 9.25086182,17.340086 9.14272209,17.718547 C8.78881027,18.8539301 8.79864115,18.8345218 8.36608226,18.8345218 C8.07115574,18.8345218 7.93352336,18.776297 7.81555276,18.6113269 C7.52062624,18.2037535 6.73415552,17.0974828 6.39007458,16.6025723 C6.20328779,16.3308567 5.99683922,16.049437 5.9476848,15.9912122 C5.8886995,15.9232833 5.74123624,15.7194966 5.62326563,15.525414 C5.50529502,15.3410356 5.29884646,15.0596159 5.16121408,14.9140539 C5.02358171,14.768492 4.89578022,14.5550012 4.88594933,14.4385517 C4.86628757,14.2541732 4.92527287,14.2153567 5.30867734,14.1668361 C5.9476848,14.0794989 6.39007458,13.856304 6.83246436,13.3808017 C7.46164093,12.7112168 7.56978066,12.4589095 7.56978066,11.5564255 C7.56978066,10.8092077 7.55011889,10.7315746 7.21586883,10.2366641 C6.70466287,9.47974206 5.9476848,8.98483152 5.12189055,8.87808611 C4.63034635,8.81986134 0.255602983,8.77134069 0.0983088397,8.81986134 L0.0983088397,8.81986134 Z M3.938784,9.68945873 C4.75039466,9.77690363 5.07126399,10.0975349 5.29775999,11.0205643 C5.44875733,11.6423947 5.45819466,11.8270006 5.36382133,12.3030894 C5.10901333,13.6147628 4.60883466,14.0131229 3.15548533,14.0811356 L2.325,14.12 L2.325,11.9435938 C2.325,10.3307213 2.353312,9.73803923 2.44768533,9.64087824 C2.523184,9.56314944 2.71193067,9.54371724 2.98561333,9.57286554 C3.22154666,9.60201384 3.64622666,9.65059434 3.938784,9.68945873 Z M11.0645751,14.3660222 C11.091434,14.6200314 11.3152579,15.3119875 11.5032701,15.7762112 C11.7449999,16.36306 11.6733763,16.4331315 10.8586571,16.3893368 C10.4647269,16.3718189 10.1155615,16.3455421 10.0797497,16.3280242 C10.0528908,16.3105064 10.1424204,15.9689078 10.2856677,15.5659967 C10.4289151,15.1718445 10.5453035,14.7776923 10.5453035,14.6988618 C10.5453035,14.6200314 10.5900683,14.4448526 10.6348331,14.3222275 C10.7512216,14.0331826 11.0287633,14.0594594 11.0645751,14.3660222 L11.0645751,14.3660222 Z M48.0909037,8.90790465 C47.9727374,9.20700284 48.1105981,9.37102443 48.5044857,9.37102443 L48.8983734,9.37102443 L48.9279149,14.0697605 L48.9476093,18.7781449 L48.5044857,18.7781449 C48.0810565,18.7781449 48.0613621,18.7877933 48.0613621,19.0675948 L48.0613621,19.3570447 L52.3941261,19.3570447 C54.7771463,19.3473963 56.7662789,19.3763413 56.825362,19.4052863 C56.9927642,19.5114179 57.3177215,19.3570447 57.3177215,19.1737264 C57.3177215,18.9614632 57.0715418,18.7395516 56.9336811,18.8167383 C56.776126,18.9132215 56.6973485,18.6816617 56.8056676,18.4597501 C56.9632227,18.1510036 57.3177215,17.0607424 57.3177215,16.9063692 C57.3177215,16.636216 57.6131373,16.549381 58.578162,16.520436 L59.5628811,16.491491 L59.7204361,16.8870725 C59.8090608,17.1089841 59.8779912,17.3791373 59.8779912,17.4852689 C59.8779912,17.5914005 59.9370743,17.7554221 60.0158518,17.8615537 C60.0847822,17.9676853 60.1734069,18.2185419 60.2127956,18.4211568 C60.2718788,18.720255 60.2521844,18.7877933 60.1044765,18.8360349 C59.7795192,18.9325182 59.6318114,19.0386498 59.6022698,19.2026714 C59.5727282,19.337748 59.7105889,19.3570447 60.7543911,19.3570447 C61.4043057,19.3570447 61.9557484,19.3184514 61.9951372,19.2605614 C62.0246788,19.2123197 61.9163597,19.0579465 61.7588046,18.9228699 C61.5618608,18.7492 61.4043057,18.4501018 61.2565979,17.9773337 C61.1384316,17.5914005 60.9808765,17.1379291 60.902099,16.9642591 C60.8233215,16.7905892 60.7642383,16.549381 60.7642383,16.4336011 C60.7543911,16.3178211 60.695308,16.1152062 60.6165305,15.9801296 C60.5377529,15.845053 60.4786698,15.6520864 60.4688226,15.5459548 C60.4688226,15.4398232 60.3998923,15.22756 60.3211147,15.0731867 C60.2423372,14.9284618 60.1734069,14.7161985 60.1734069,14.6197153 C60.1734069,14.523232 60.1143237,14.3013204 60.0355462,14.1276505 C59.8287552,13.6259374 59.6712002,13.1628176 59.5825754,12.7961811 C59.5431867,12.6128629 59.454562,12.3330614 59.3856316,12.1883364 C59.2674653,11.9471282 59.2083822,11.9181832 58.8637305,11.9471282 C58.4796901,11.9760732 58.4698429,11.9857215 58.2728991,12.5549729 C58.1744271,12.8733678 58.0267193,13.2593009 57.9479418,13.4233225 C57.8790114,13.5776958 57.7903867,13.8382006 57.7509979,14.0022222 C57.7116092,14.1565955 57.652526,14.3302654 57.6131373,14.3881554 C57.5737485,14.436397 57.5048182,14.6390119 57.4654294,14.8223302 C57.4260406,15.0056484 57.3571103,15.2179116 57.3177215,15.3047466 C57.2783328,15.3819332 57.081389,15.9704813 56.874598,16.607271 C56.6776541,17.2440607 56.4708631,17.8519054 56.4314744,17.958037 C56.3822384,18.0641686 56.3133081,18.2764318 56.2837665,18.4404534 C56.2246834,18.7299033 55.5944631,19.2412647 55.4566025,19.1061881 C55.4270609,19.0772431 55.4073665,18.1413552 55.4270609,17.0317974 L55.4566025,15.0152967 L54.5605081,15.0152967 L54.5605081,15.7196247 C54.5605081,16.5879743 54.2650924,17.6396422 53.8908991,18.0834653 C53.418234,18.662365 53.0834295,18.7781449 51.8328362,18.7781449 L50.7201037,18.7781449 L50.7397981,14.0697605 L50.7693396,9.37102443 L51.1632273,9.37102443 C51.5374205,9.37102443 51.5571149,9.35172777 51.5571149,9.0912229 L51.5571149,8.80177304 L49.8437037,8.80177304 C48.6128048,8.79212471 48.1204453,8.82106969 48.0909037,8.90790465 L48.0909037,8.90790465 Z M58.3145314,13.508375 C58.3145314,13.6967184 58.5577261,14.7049095 58.728863,15.2367026 C58.8009207,15.447204 58.8639712,15.8017328 58.8729784,16.0122342 L58.9,16.4 L58.1343873,16.3556839 C57.7110485,16.3446049 57.3597673,16.3113678 57.3507601,16.3002888 C57.3417529,16.2892098 57.4138106,15.9900762 57.5128899,15.6244684 C57.6119692,15.2588606 57.7560845,14.6938305 57.8281422,14.3725388 C57.9001999,14.0401681 57.9992791,13.6856394 58.0443152,13.5637701 C58.1524017,13.3200316 58.3145314,13.2867946 58.3145314,13.508375 L58.3145314,13.508375 Z" id="Shape"></path>
                <path d="M40.1864473,9.20324348 C39.5295114,9.41408728 39.446091,9.47734042 39.1958297,9.93065458 L38.9142857,10.4261375 L39.1541195,10.6475235 C39.2896777,10.7740298 39.3835257,10.9954158 39.3835257,11.174633 C39.3835257,11.5330674 39.539939,11.5963206 39.6442145,11.2800549 C39.7276349,11.0270423 39.9049034,11.1008377 39.9049034,11.3854768 C39.9049034,11.4908987 39.9883238,11.6595737 40.0821718,11.7649956 C40.3741433,12.0496347 40.5201291,12.4186114 40.5931219,12.9984318 C40.7182526,13.9683133 41.4273263,15.0330745 41.7922907,14.8011463 C41.948704,14.7062666 41.8965662,14.4637962 41.6984427,14.4005431 C41.5941671,14.3689165 41.4377538,14.1791571 41.3543334,13.9788555 C41.2187752,13.6836742 41.2187752,13.5887945 41.3334783,13.4306616 C41.4064712,13.3252397 41.4690365,13.1143959 41.4690365,12.9562631 C41.4690365,12.787588 41.5420294,12.618913 41.6463049,12.5556598 C41.9069938,12.4186114 42.1155449,11.4276455 41.9278489,11.2695127 C41.8444284,11.2062596 41.7818631,11.0375845 41.7818631,10.9110782 C41.7818631,10.563186 41.6775876,10.3312578 41.5211743,10.3312578 C41.3960436,10.3312578 41.3334783,10.1625828 41.177065,9.3930029 C41.1353548,9.19270129 41.0519343,9.01348406 40.9997966,9.00294187 C40.9372312,8.98185749 40.5722668,9.0767372 40.1864473,9.20324348 L40.1864473,9.20324348 Z M40.6375907,9.83530423 C40.6375907,9.91749519 40.5778058,9.98941227 40.4980928,9.98941227 C40.3287025,9.98941227 40.219097,9.8455781 40.3087742,9.7428394 C40.4283438,9.61955297 40.6375907,9.68119619 40.6375907,9.83530423 L40.6375907,9.83530423 Z M15.0693516,10.7894071 C14.9061478,11.0026515 15.0387509,11.2158959 15.3855589,11.2798692 L15.7017663,11.3438426 L15.7017663,18.1676641 L15.3957592,18.3915707 C15.2325554,18.5195173 15.0897521,18.6901129 15.0897521,18.7754107 C15.0897521,18.9033573 15.6303646,18.9246817 18.7618371,18.9140195 C20.7814838,18.9140195 22.474723,18.935344 22.5257242,18.9673306 C22.688928,19.0739528 22.9439339,18.9033573 22.9439339,18.6901129 C22.9439339,18.551504 22.8317313,18.4342196 22.6379268,18.359584 L22.3319197,18.2422996 L22.3115193,16.8775353 C22.301319,16.1311798 22.2911188,15.4274732 22.2911188,15.320851 C22.2809185,15.1609177 22.4135216,15.128931 23.3009422,15.0862822 C24.3617667,15.0223088 24.718775,14.9050244 25.2185865,14.4572111 C25.6367962,14.0627089 25.8,13.6362201 25.8,12.9005268 C25.8,12.1115225 25.6163958,11.6850336 25.1063839,11.269207 C24.5555712,10.8213937 24.0353592,10.7147715 22.515524,10.7041093 C21.7709067,10.7041093 20.9956888,10.6934471 20.8018843,10.6827849 C20.485677,10.6614604 20.444876,10.6934471 20.4142753,10.9493404 C20.3836746,11.1945715 20.4244756,11.2372204 20.6692812,11.269207 L20.9548879,11.3011937 L21.0364897,14.6064822 C21.0772907,16.4190598 21.0874909,18.018393 21.0568902,18.1570018 C21.0262895,18.2849485 20.8834862,18.455544 20.7406829,18.5195173 C20.3326734,18.7114373 20.271472,18.4981929 20.3224732,17.0374686 C20.3734744,15.7153532 20.3224732,15.512771 19.9756652,15.512771 C19.7716605,15.512771 19.6798583,15.7260154 19.6798583,16.237802 C19.6696581,16.7602509 19.4656534,17.5279308 19.2310479,17.8797841 C19.0066428,18.2316374 18.5272317,18.3915707 17.6704118,18.3915707 C17.2318017,18.3915707 17.027797,18.3489218 17.0175967,18.2529618 C16.986996,17.6558774 17.0379972,11.4184781 17.0889984,11.3438426 C17.1195991,11.2905315 17.2318017,11.2478826 17.3440043,11.2478826 C17.5786097,11.2478826 17.7112128,10.9600026 17.5582092,10.8000693 C17.3950055,10.6294738 15.2019547,10.6188115 15.0693516,10.7894071 L15.0693516,10.7894071 Z M23.760907,11.7469331 C24.3993483,12.1666171 24.4307471,13.9397823 23.802772,14.4434032 C23.6876433,14.5378321 23.3736558,14.6427531 23.1119995,14.6847215 C22.8503432,14.7161978 22.546822,14.7686583 22.4316932,14.8001346 C21.9711782,14.9260398 21.9188469,14.7581662 21.9502457,13.1528747 C21.9607119,12.3344907 22.0025769,11.6105357 22.0339757,11.5685673 C22.128172,11.4111858 23.467852,11.5475831 23.760907,11.7469331 Z" id="Shape"></path>
                <path d="M25.1408395,12.1148395 C25.0369249,12.3699403 25.1824053,12.5661717 25.4525832,12.5661717 C25.6500208,12.5661717 25.7331525,12.6348527 25.7851098,12.8016494 C25.8162841,12.9291998 25.8058927,14.3911236 25.7539354,16.0590905 C25.6708037,18.9927498 25.6604123,19.0908655 25.4629746,19.0908655 C25.3486686,19.100677 25.1927967,19.1301117 25.1200566,19.169358 C24.9745762,19.2674737 24.9537933,19.6305018 25.0992736,19.6403134 L27.6036146,19.6403134 C27.8218352,19.6206902 27.6555719,19.1889812 27.4165684,19.1595465 C27.0009101,19.100677 26.9593443,18.9436919 26.9905187,17.3640292 L27.021693,15.8628591 L29.9313008,15.8628591 L29.9624752,17.3934639 L29.9832581,18.9240688 L29.6195571,19.1301117 C29.2662476,19.3263431 29.1207672,19.6305018 29.3909451,19.6305018 C31.2614072,19.6599365 31.8329373,19.6501249 31.9264604,19.6010671 C32.1238981,19.4833283 31.9576348,19.1399233 31.6874569,19.1399233 C31.5627594,19.1399233 31.417279,19.0908655 31.3861047,19.0418076 C31.3341474,18.9633151 31.2925816,13.6552559 31.3341474,12.6642874 C31.3341474,12.605418 31.4796278,12.5661717 31.6562825,12.5661717 C31.9368519,12.5661717 31.9680262,12.536737 31.9368519,12.3012593 L31.9056775,12.0363469 L30.6794857,12.0265354 C29.5987742,12.0265354 29.4325109,12.0461585 29.3493793,12.2031436 C29.2142903,12.4288097 29.297422,12.5269254 29.6715144,12.5956064 L29.9832581,12.6544758 L29.9832581,15.4115269 L26.9593443,15.4115269 L26.9905187,14.0084724 L27.021693,12.6152295 L27.2814795,12.5857948 C27.634789,12.536737 27.7283121,12.4288097 27.6451804,12.1737089 C27.5828317,11.9872891 27.5308744,11.9676659 27.1463905,12.0363469 C26.6164263,12.1148395 25.9513731,12.1148395 25.5253233,12.0265354 C25.2863199,11.9774775 25.1824053,11.9971006 25.1408395,12.1148395 L25.1408395,12.1148395 Z M62.4985035,12.0480677 C62.4505504,12.0673091 62.4025974,12.1827569 62.4025974,12.3078255 C62.4025974,12.4809973 62.460141,12.5387213 62.6711344,12.5675832 L62.9300807,12.5964452 L62.9876244,15.1940227 C63.0163962,16.61788 63.0835304,17.9455308 63.1410741,18.1379439 C63.3520674,18.8979759 63.9370944,19.427112 64.7427053,19.5906632 C65.9319404,19.8408003 66.9677259,19.2443195 67.3321689,18.0898406 C67.4856186,17.5895665 67.5047999,17.2432228 67.476028,15.0689542 L67.4376656,12.6156865 L67.6582495,12.5387213 C67.8884241,12.4521354 67.9076053,12.3847908 67.7733368,12.1635156 C67.6678402,12 66.6416453,11.9326199 66.4594238,12.0865504 C66.2388398,12.2693429 66.3155647,12.5483419 66.5745111,12.5483419 C66.7087795,12.5483419 66.8142762,12.6060659 66.8142762,12.6637898 C66.8238668,12.7311344 66.8238668,13.9529579 66.8142762,15.3671946 C66.8046856,17.6280491 66.7855044,17.9840134 66.6416453,18.2437712 C66.3539271,18.753666 66.0086653,18.9460792 65.3660947,18.9460792 C64.8769738,18.9460792 64.7714771,18.9075965 64.5413026,18.6767007 L64.2727656,18.416943 L64.2727656,12.5964452 L64.5892556,12.5675832 C64.8673832,12.5387213 64.9057456,12.5098593 64.8769738,12.2789635 L64.848202,12.0192058 L63.726101,12.0192058 C63.1027116,12.0192058 62.5560471,12.0288264 62.4985035,12.0480677 L62.4985035,12.0480677 Z M67.9717536,12.1619637 C67.8421578,12.397358 67.9119402,12.5542876 68.1611628,12.5542876 C68.2608519,12.5542876 68.3804787,12.6131362 68.4303232,12.6719848 C68.4801678,12.7406414 68.5100745,14.1922397 68.4901367,15.9086567 L68.46023,19.0080152 L68.1711317,19.1159043 C67.8820335,19.2139853 67.7424688,19.5572686 67.9717536,19.6357334 C68.0215981,19.6455415 68.5898257,19.6553496 69.2178667,19.6357334 C70.3343841,19.6063091 70.3742597,19.596501 70.344353,19.390531 C70.3244152,19.2630257 70.2247261,19.1649448 70.0652237,19.1257124 C69.8259699,19.0668638 69.816001,19.0374395 69.7362498,17.9977813 C69.6465296,16.7227287 69.6764364,16.1636672 69.8259699,16.1146267 C69.8857834,16.0950105 70.135006,16.3990615 70.3742597,16.7815773 C70.8926428,17.6152655 70.9325184,17.6839222 71.7001241,18.7726209 L72.2783206,19.6161172 L78.7282021,19.6161172 L78.7581088,18.3312565 C78.7880155,16.8796582 78.7481399,16.6442639 78.419166,16.6933044 C78.2197879,16.7227287 78.1799123,16.7913854 78.1300678,17.360255 C78.0602854,18.076246 77.8609073,18.5960752 77.5518713,18.8707019 C77.3923688,19.0080152 77.1531151,19.0570557 76.4552917,19.08648 C75.9668154,19.1060962 75.5281836,19.1257124 75.4783391,19.1355205 C75.169303,19.1943691 75.1493652,19.1159043 75.1493652,17.5466088 L75.1493652,15.9576971 L75.6777172,16.0263538 C76.3356649,16.1146267 76.5649497,16.3304048 76.6447009,16.9385068 C76.6845766,17.360255 76.7244522,17.4092955 76.9437681,17.4092955 L77.1929907,17.4092955 L77.2228974,15.7615352 C77.2428352,14.3589774 77.2228974,14.113775 77.0933017,14.0647345 C76.844079,13.9666535 76.6447009,14.2118559 76.6447009,14.623796 C76.6447009,15.1730494 76.325696,15.4771004 75.697655,15.5163328 L75.1992097,15.5457571 L75.169303,14.0451183 L75.1393963,12.5542876 L76.0964112,12.5542876 C77.2827109,12.5542876 77.5718091,12.6817929 77.8509384,13.309511 C77.9605964,13.5645216 78.0802233,13.9568454 78.11013,14.1922397 C78.1699434,14.6728365 78.2496946,14.7513013 78.5387929,14.6630284 C78.7282021,14.6041798 78.738171,14.5355231 78.6883265,13.407592 C78.6584197,12.7406414 78.5886374,12.191388 78.528824,12.1521556 C78.3493837,12.0442666 75.9369087,11.9658018 75.2091786,12.0540747 C74.8303602,12.0933071 74.2721016,12.0933071 73.9730344,12.0442666 C73.5543404,11.9756099 73.4048068,11.985418 73.3350245,12.083499 C73.1954598,12.3090852 73.3051178,12.5052471 73.6041849,12.5542876 L73.9032521,12.6033281 L73.9331588,15.8007676 C73.9530966,19.2532176 73.9431277,19.390531 73.4745892,19.0668638 C73.2752111,18.9295504 73.1157086,18.7137723 72.1586937,17.3112145 C71.9792534,17.0365878 71.6901552,16.6736882 71.5206838,16.4971425 C71.2216166,16.1832834 71.2216166,16.1636672 71.4010569,16.0263538 C71.5107149,15.9576971 71.7399997,15.8596162 71.9294089,15.8301919 C72.1188181,15.7909595 72.4178852,15.6144138 72.6372011,15.3986356 C73.5842471,14.4570584 73.3150867,12.9760358 72.0889114,12.3483176 C71.6502795,12.1325394 71.4907771,12.1129232 70.0652237,12.1031151 C69.2078978,12.0933071 68.4103854,12.0638828 68.3007275,12.0246504 C68.141225,11.9756099 68.0515049,12.0050342 67.9717536,12.1619637 L67.9717536,12.1619637 Z M70.9458241,12.8589964 C71.096543,12.9061417 71.3441526,13.0664355 71.4841059,13.1984423 C71.7209498,13.4247395 71.7532468,13.5378881 71.7532468,14.235638 C71.7532468,14.961675 71.7317155,15.0465364 71.4625746,15.3105499 C71.2257306,15.5368471 70.9996523,15.6311377 70.4075423,15.7348572 C69.707776,15.8574349 69.6431822,15.8574349 69.5139945,15.7065701 C69.4278695,15.6122795 69.3955725,15.4331276 69.4278695,15.2728337 C69.4601664,15.1219689 69.4924633,14.4996514 69.4924633,13.8867631 L69.4924633,12.7647059 L70.0738076,12.7647059 C70.3967767,12.7647059 70.7843395,12.8024221 70.9458241,12.8589964 L70.9458241,12.8589964 Z M83.2314139,12.1783883 C83.0961055,12.4330666 83.1689639,12.5212245 83.564481,12.5995871 C83.8871397,12.658359 83.8975481,12.658359 83.835098,13.177511 C83.8142813,13.45178 83.8246896,14.4117214 83.8767314,15.2933002 C83.9287731,16.1846744 83.9495898,16.9193234 83.9287731,16.9389141 C83.8142813,17.0466626 83.533256,16.7919843 83.3354974,16.4001714 C83.2001889,16.1454931 82.9087552,15.6263411 82.6693633,15.2541189 C82.4403797,14.8721014 82.2113961,14.4998793 82.1697627,14.4215167 C82.1281293,14.3431541 82.0032292,14.1374524 81.8887374,13.9807273 C81.7742456,13.8142068 81.6389371,13.5987098 81.576487,13.4909613 C81.514037,13.3832127 81.3787285,13.1579204 81.2642367,13.0011952 C81.1497449,12.8346748 81.0144364,12.6093824 80.9623946,12.4918386 C80.8062695,12.1587977 80.5148358,12.0706398 79.6093097,12.0706398 C78.8495005,12.0706398 78.7662338,12.0902304 78.7662338,12.2567509 C78.7662338,12.3547041 78.8703172,12.5016339 79.0056257,12.5799964 C79.2346093,12.7269263 79.2346093,12.7563122 79.1617509,13.8925694 C79.1201175,14.5292652 79.1097092,15.9495867 79.1409342,17.0270719 C79.2033843,18.9763407 79.2033843,19.0057267 78.984809,19.1134752 C78.8703172,19.1820424 78.7662338,19.3093816 78.7662338,19.4073348 C78.7662338,19.5640599 78.8703172,19.5934459 79.4740013,19.6326272 C80.2858522,19.6913991 80.5252441,19.5738553 80.3274856,19.2212237 C80.2650355,19.1036799 80.1401354,19.0351126 80.0672769,19.0644986 C79.9840102,19.0938846 79.8903351,19.0742939 79.85911,19.0253173 C79.7654349,18.8881828 79.7550266,13.148125 79.8487017,13.1285344 C79.9215601,13.0991484 80.3066689,13.7162536 80.9519863,14.8623061 C81.0144364,14.9700546 81.1497449,15.1855517 81.2642367,15.3520721 C81.3787285,15.5087973 81.514037,15.7340896 81.576487,15.8418382 C81.6389371,15.9495867 81.7430206,16.1259025 81.815879,16.233651 C82.7734467,17.732335 83.3146807,18.6237092 83.5748893,19.1526565 C83.7830563,19.5640599 83.8455063,19.6130365 84.105715,19.5934459 L84.407557,19.5640599 L84.4491904,16.1356978 C84.4804154,14.2549962 84.5324571,12.6779497 84.5532738,12.6387684 C84.5844989,12.5995871 84.6989907,12.5604058 84.8134825,12.5604058 C84.980016,12.5604058 85.0216494,12.5016339 84.9904243,12.2861368 C84.9591993,12.0216632 84.9487909,12.0216632 84.1473483,12.0020725 C83.4499892,11.9922772 83.3354974,12.0118679 83.2314139,12.1783883 L83.2314139,12.1783883 Z M39.0579335,12.8632041 C39.0130978,12.9488594 39.0130978,13.1392044 39.0728787,13.2819632 L39.1625501,13.5294118 L39.491345,13.3295495 L39.8051948,13.1201699 L39.491345,12.9107904 C39.1924405,12.7299626 39.1476048,12.7204453 39.0579335,12.8632041 L39.0579335,12.8632041 Z M42.8141525,12.8472541 C42.7590298,12.8855498 42.6855329,13.0100107 42.6487844,13.1248977 C42.6120359,13.2397848 42.4926034,13.3450979 42.3823581,13.3642457 C42.2537385,13.3833936 42.1710544,13.4695588 42.1526802,13.6227416 C42.1251188,13.804646 42.1526802,13.8333678 42.2721127,13.7854982 C42.3731709,13.7472025 42.5017906,13.804646 42.6395973,13.9386809 C42.8876494,14.2067507 42.9427721,15.0779773 42.7222813,15.2598818 C42.5569133,15.4130645 42.5569133,15.7002821 42.7314684,15.7768735 C42.8049654,15.8055952 42.8692752,15.9300562 42.8692752,16.064091 C42.8692752,16.1981259 42.9060236,16.3225869 42.9519592,16.3608826 C43.1173273,16.4566217 43.1908242,16.1694042 43.1908242,15.4609341 C43.1908242,14.6088553 43.3286309,14.4843943 43.6134315,15.0971252 C43.8522965,15.6045429 43.7971738,16.303439 43.5031861,16.5906566 C43.4021278,16.6863958 43.2826953,16.8874481 43.2459469,17.0406308 C43.1816371,17.2895528 43.1357015,17.3182745 42.7957782,17.2991267 C42.3456096,17.2799788 42.2904869,17.3948659 42.3364225,18.2373708 C42.3639838,18.6777711 42.3915452,18.7543624 42.5569133,18.7830842 C42.8233396,18.8213799 43.1448886,18.2756665 43.1448886,17.8065444 C43.1448886,17.2704049 43.3745665,17.3661441 43.5583088,17.9884489 C43.7144898,18.4958666 43.7144898,18.5245884 43.5583088,18.7064928 C43.4296892,18.8501016 43.3929407,19.0798757 43.3745665,19.635163 C43.3653794,20.0468416 43.3102567,20.477668 43.255134,20.592555 C43.1908242,20.707442 43.1448886,20.94679 43.1448886,21.1286945 C43.1448886,21.310599 43.0805788,21.5116513 43.0070819,21.5786687 C42.9152107,21.664834 42.8692752,21.8850341 42.8692752,22.3062866 C42.8692752,22.6317999 42.8325267,22.9381653 42.777404,22.966887 C42.6579715,23.0434784 42.6579715,23.3689917 42.7865911,23.445583 C42.933585,23.5508961 43.4021278,23.3019742 43.4480634,23.1009219 C43.4756248,23.0051827 43.4756248,22.7562608 43.4480634,22.5552085 C43.4205021,22.3350084 43.4572505,22.0477908 43.5491217,21.8275906 C43.6318057,21.6265383 43.6961155,21.3776164 43.6961155,21.2818772 C43.6961155,21.1765641 43.7787996,20.8510508 43.8798578,20.5542593 C44.1003486,19.9032328 44.1095357,19.6064413 43.9257934,19.5298499 C43.732864,19.4532586 43.7512382,19.3383715 43.9901032,19.2330584 C44.1095357,19.1756149 44.210594,19.0511539 44.2289682,18.9458408 C44.3024651,18.3043882 44.5688915,17.2033875 44.6791368,17.0693526 C44.7434467,16.9927612 44.7985693,16.8587264 44.7985693,16.782135 C44.7985693,16.6959697 44.8628792,16.5523609 44.9363761,16.4470478 C45.0190601,16.3321608 45.0649957,16.0353693 45.0741828,15.594969 C45.0741828,14.9822381 45.0466215,14.876925 44.7526338,14.407803 C44.5688915,14.1205854 44.4402719,13.8333678 44.4678332,13.7567764 C44.5229559,13.6131676 45.0741828,13.5844459 45.0741828,13.7280547 C45.0741828,13.7759243 45.1384926,13.8237939 45.2119895,13.8237939 C45.2946736,13.8237939 45.3773576,13.8908113 45.4049189,13.9674027 C45.4416674,14.043994 45.570287,14.1110115 45.7172809,14.1110115 C45.9010232,14.1110115 45.9837072,14.0535679 46.0296428,13.8908113 C46.0663912,13.7280547 46.0020814,13.6035937 45.6989066,13.3163761 C45.248738,12.8951237 45.1017441,12.8855498 44.614827,13.2014891 C44.1738455,13.4887067 44.1279099,13.4982806 43.8339223,13.2302109 C43.6777413,13.0866021 42.9152107,12.7132192 42.9152107,12.7706627 C42.9152107,12.7706627 42.8692752,12.8089584 42.8141525,12.8472541 L42.8141525,12.8472541 Z M43.0430612,13.9283172 C43.0430612,14.4303661 42.8523771,14.4085379 42.812233,13.906489 C42.782125,13.600894 42.812233,13.502667 42.9125931,13.5354093 C42.9828452,13.5681517 43.0430612,13.7427774 43.0430612,13.9283172 Z M42.2733252,17.7267974 C42.2532532,17.9477124 42.2030732,18.1176471 42.1428571,18.1176471 C42.0926771,18.1176471 42.0324611,17.9477124 42.0123891,17.7267974 C41.992317,17.4718954 42.0324611,17.3529412 42.1428571,17.3529412 C42.2532532,17.3529412 42.2933972,17.4718954 42.2733252,17.7267974 Z M39.2125509,13.8156237 C39.0893732,14.0178911 38.9354009,14.179705 38.8738121,14.179705 C38.8019584,14.1898184 38.5863973,14.3920858 38.3913658,14.6348067 C38.1963343,14.8876409 37.9807732,15.0899083 37.9089195,15.0899083 C37.8473306,15.0899083 37.7549473,15.1809287 37.7241528,15.2921757 C37.6933584,15.4034228 37.6112399,15.4944432 37.5599158,15.4944432 C37.5085917,15.4944432 37.4675325,15.5854635 37.4675325,15.6967106 C37.4675325,15.8079576 37.5188565,15.898978 37.5804454,15.898978 C37.6522991,15.898978 37.6728288,16.0001117 37.6317695,16.1416989 C37.6009751,16.283286 37.6112399,16.4248732 37.6728288,16.4552133 C37.7241528,16.4855535 37.7754769,16.6271406 37.7754769,16.7687278 C37.7754769,16.910315 37.8473306,17.0417888 37.9294491,17.0721289 C38.0115676,17.1125824 38.0834213,17.2339429 38.0834213,17.3553033 C38.0834213,17.5980242 38.4940139,18.0227858 38.7301047,18.0227858 C38.8122232,18.0227858 38.9046065,18.0935793 38.9456658,18.1744863 C38.9764602,18.2655066 39.1304324,18.3261869 39.3151991,18.3261869 L39.6231435,18.3261869 L39.6231435,19.0341228 C39.6231435,19.5499047 39.5615546,19.8431924 39.4075824,20.1465935 C39.2844046,20.3690877 39.2125509,20.6320353 39.2433454,20.733169 C39.4178472,21.279291 39.6026139,21.6534857 39.8079102,21.90632 C40.095325,22.2704013 40.095325,22.3310815 39.7771157,22.8266367 C39.6436732,23.0491308 39.5204954,23.3221918 39.5204954,23.4435523 C39.5204954,23.6761598 39.2536102,24.2526219 39.099638,24.3436423 C39.0483139,24.3840957 39.0072547,24.5357963 39.0072547,24.7077236 C39.0072547,25.0515782 39.1817565,25.0920317 39.6026139,24.829084 C39.9926768,24.5863632 40.0440009,24.4852294 39.982412,24.1616016 C39.9516176,23.9694476 39.982412,23.8582005 40.0850602,23.8278604 C40.1671787,23.7874069 40.2390324,23.6660464 40.2390324,23.544686 C40.2390324,23.1199244 40.3622102,22.8974303 40.7009491,22.7153896 C41.1731305,22.4625554 41.4297509,21.8658665 41.1731305,21.6029189 C41.1115416,21.552352 41.1115416,21.3197445 41.1731305,21.0264568 C41.2244546,20.733169 41.2244546,20.2780674 41.1731305,19.913986 C41.0807472,19.2768437 40.7728028,18.4273206 40.6290954,18.4273206 C40.5777713,18.4273206 40.5469768,18.2553933 40.5469768,18.0430125 C40.5469768,17.5575707 40.4443287,17.2036028 40.3314157,17.2743963 C40.2800917,17.3047365 40.0747954,17.2743963 39.8900287,17.2036028 C39.5615546,17.0822423 39.5307602,17.0417888 39.541025,16.6675941 C39.5512898,16.2428326 39.7565861,15.898978 39.9926768,15.898978 C40.208238,15.898978 40.2492972,16.0607919 40.0850602,16.364193 C39.9208231,16.6777075 39.9618824,16.8192947 40.1569139,16.6271406 C40.3211509,16.4653267 40.5469768,16.4754401 40.5469768,16.6473674 C40.5469768,16.7282743 40.6188305,16.8091813 40.7009491,16.8496348 C40.813862,16.8900883 40.8549213,17.0721289 40.8549213,17.5777975 C40.8549213,18.0632392 40.8857157,18.2351665 40.9883639,18.2048264 C41.0499527,18.1744863 41.1218064,17.9924456 41.1423361,17.7901782 C41.1628657,17.5879108 41.2141898,17.4159835 41.2757787,17.4159835 C41.4194861,17.4159835 41.3784268,17.0923557 41.2141898,16.8698615 C41.1320713,16.7586145 41.0602176,16.5866872 41.0602176,16.4855535 C41.0602176,16.3743064 40.926775,16.1214721 40.7625379,15.9192047 C40.5983009,15.7169373 40.4340639,15.4438763 40.4032694,15.3225159 C40.3622102,15.2011554 40.2492972,15.0696816 40.1363843,15.0393415 C39.9926768,14.998888 39.931088,14.8370741 39.8797639,14.3819724 C39.8387046,14.0077777 39.7463213,13.7246033 39.6231435,13.6234696 C39.4486417,13.4717691 39.428112,13.4818824 39.2125509,13.8156237 L39.2125509,13.8156237 Z M39.6919529,15.2207678 C39.7415107,15.3208109 39.7910685,15.4936125 39.7910685,15.6027504 C39.7910685,15.8301209 39.4342522,16.2302931 39.2261093,16.2302931 C39.1567283,16.2302931 39.0972589,16.3303362 39.0972589,16.4576637 C39.0972589,16.5849912 39.0576126,16.6850343 38.9981432,16.6850343 C38.9485854,16.6850343 38.8990276,16.7396032 38.8990276,16.8123618 C38.8990276,16.8851204 38.8098235,16.9760686 38.7007962,17.0033531 C38.5025649,17.057922 38.4133608,17.4126201 38.6016806,17.4126201 C38.66115,17.4126201 38.7503541,17.521758 38.8098235,17.6581803 L38.9188507,17.9128354 L39.0675242,17.7036544 C39.255844,17.4489994 39.3252249,17.4489994 39.6324835,17.7309389 C39.8307148,17.9128354 39.8505379,17.9674043 39.7315991,18.0492577 C39.4441637,18.2675334 38.5025649,17.9219302 38.5025649,17.5945166 C38.5025649,17.4944735 38.4629187,17.4126201 38.4133608,17.4126201 C38.2745989,17.4126201 38.1953064,17.1306806 38.2845105,17.0124479 C38.3340683,16.957879 38.4034493,16.803267 38.4430955,16.6759395 C38.4728302,16.5395171 38.6115921,16.3667155 38.7503541,16.2848621 C38.889116,16.2030087 38.9981432,16.0756812 38.9981432,15.9938278 C38.9981432,15.9210692 39.0675242,15.8392158 39.1468167,15.8119313 C39.2261093,15.775552 39.2954902,15.6573193 39.2954902,15.5481814 C39.2954902,15.0752507 39.5036331,14.902449 39.6919529,15.2207678 L39.6919529,15.2207678 Z M41.1600222,19.8756436 C41.3244812,20.0047409 41.4067107,20.1807828 41.3409271,20.2864079 C41.2258058,20.5093942 40.9133336,20.4155052 40.9133336,20.1573105 C40.9133336,20.0634215 40.84755,19.9930048 40.7488746,19.9930048 C40.6666451,19.9930048 40.5844156,19.9108519 40.5844156,19.816963 C40.5844156,19.5705044 40.7982123,19.5939766 41.1600222,19.8756436 Z M40.1868199,20.5867642 C40.2987712,20.7282634 40.3418293,20.9113799 40.3504409,21.2443192 C40.3504409,21.6105524 40.3848875,21.7270811 40.4968387,21.7686985 C40.6001783,21.8103159 40.6087899,21.8519333 40.5398969,21.9185212 C40.3934991,22.0600204 39.9026361,21.5023471 39.9629175,21.2526427 C39.9887524,21.1527609 39.9543059,20.9613208 39.8940244,20.8364686 C39.6787336,20.428618 39.8854128,20.2538249 40.1868199,20.5867642 L40.1868199,20.5867642 Z" id="Shape"></path>
                <path d="M42,15.2462963 C42,15.4224294 42.1196581,15.5985624 42.2564103,15.6488862 C42.5811966,15.7369527 42.5811966,15.485334 42.2564103,15.1708107 C42.017094,14.9317729 42,14.9317729 42,15.2462963 L42,15.2462963 Z M42.0952005,15.7339905 C42.0408002,15.7655349 42,15.9232567 42,16.0704637 L42,16.3333333 L42.2856016,16.1125228 C42.4488025,15.9968602 42.5304029,15.8391384 42.4896027,15.7760497 C42.3808021,15.6498723 42.2312013,15.6288427 42.0952005,15.7339905 L42.0952005,15.7339905 Z M42.5109649,16.6037937 C42.4844064,16.8032987 42.5021121,16.8902625 42.6083462,16.9363021 C42.9359015,17.094883 43.1483698,16.9311866 42.8739316,16.7316815 C42.7854031,16.6600643 42.7057275,16.5424075 42.7057275,16.4707903 C42.7057275,16.2252456 42.5463763,16.3326714 42.5109649,16.6037937 L42.5109649,16.6037937 Z" id="Shape"></path>
            </g>
        </g>
    </g>
</svg>