<?xml version="1.0" encoding="UTF-8"?>
<svg width="60px" height="52px" viewBox="0 0 60 52" version="1.1" xmlns="http://www.w3.org/2000/svg" xmlns:xlink="http://www.w3.org/1999/xlink">
    <!-- Generator: Sketch 55.2 (78181) - https://sketchapp.com -->
    <title>uniqlo-1</title>
    <desc>Created with Sketch.</desc>
    <g id="Page-1" stroke="none" stroke-width="1" fill="none" fill-rule="evenodd">
        <g id="uniqlo-1">
            <rect id="Rectangle" fill="#FFFFFF" x="0" y="0" width="60" height="52"></rect>
            <g transform="translate(6.000000, 2.000000)" fill-rule="nonzero">
                <polygon id="Path" fill="#ED1D24" points="0 49 49 49 49 0 0 0"></polygon>
                <path d="M36.4311503,8.00094545 L39.524048,8.00094545 L39.524048,23.1697456 L36.4311503,23.1697456 L36.4311503,8.00094545 Z M17.1000659,18.1297879 C17.1000659,20.9755925 14.9222295,23.1704547 12.0741073,23.1704547 C9.23191461,23.1704547 7.00094874,20.9755925 7.00094874,18.1297879 L7.00094874,8.00165454 L10.017947,8.00165454 L10.017947,18.1297879 C10.017947,19.2801642 10.9349058,20.2074143 12.0743444,20.2074143 C13.2190012,20.2074143 14.12837,19.2801642 14.12837,18.1297879 L14.12837,8.00165454 L17.1000659,8.00165454 L17.1000659,18.1297879 Z M31.3919093,42.9284692 L21.2261431,42.9284692 L21.2261431,27.7653418 L24.307893,27.7653418 L24.307893,39.8444113 L31.3919093,39.8444113 L31.3919093,42.9284692 Z M31.3919093,23.1688001 L28.3028067,23.1688001 L24.307893,14.4784599 L24.307893,23.1688001 L21.2263803,23.1688001 L21.2263803,8 L24.307893,8 L28.3028067,16.6768676 L28.3028067,8.00023636 L31.3919093,8.00023636 L31.3919093,23.1690365 L31.3919093,23.1688001 Z M12.071261,27.7658145 C9.23286335,27.7658145 7,30.0325309 7,32.7762269 L7,37.9187659 C7,40.6262984 9.23286335,42.928942 12.071261,42.928942 C12.4151799,42.928942 12.7491369,42.8930149 13.0681513,42.834397 L14.1276585,46 L17.0991171,46 L15.6921334,41.44364 C16.5161154,40.5052808 17.0991171,39.2282142 17.0991171,37.9187659 L17.0991171,32.7762269 C17.0991171,30.0325309 14.9212808,27.7658145 12.071261,27.7658145 L12.071261,27.7658145 Z M14.1276585,37.9187659 C14.1276585,38.9159793 13.2180524,39.8451204 12.071261,39.8451204 C10.933957,39.8451204 10.0169959,38.9159793 10.0169959,37.9187659 L10.0169959,32.7762269 C10.0161751,32.2333671 10.2324555,31.7125571 10.6179858,31.3290297 C11.0035162,30.9455023 11.5265135,30.7308754 12.071261,30.7326259 C13.2180524,30.7326259 14.1276585,31.6426323 14.1276585,32.7762269 L14.1276585,37.9187659 L14.1276585,37.9187659 Z M37.9721439,27.7658145 C35.1261563,27.7658145 32.9426275,30.0325309 32.9426275,32.7762269 L32.9426275,37.9187659 C32.9426275,40.6262984 35.1261563,42.928942 37.9721439,42.928942 C40.8126762,42.928942 43,40.6262984 43,37.9187659 L43,32.7762269 C43,30.0325309 40.8126762,27.7658145 37.9721439,27.7658145 L37.9721439,27.7658145 Z M40.0342338,37.9187659 C40.0342338,38.9159793 39.1037554,39.8451204 37.9721439,39.8451204 C36.8348399,39.8451204 35.9102912,38.9159793 35.9102912,37.9187659 L35.9102912,32.7762269 C35.9102912,31.6428687 36.8348399,30.7326367 37.9721439,30.7326367 C39.1037554,30.7326367 40.0342338,31.6426323 40.0342338,32.7762269 L40.0342338,37.9187659 Z" id="Shape" fill="#FFFFFF"></path>
            </g>
        </g>
    </g>
</svg>