<?xml version="1.0" encoding="UTF-8"?>
<svg width="1600px" height="1200px" viewBox="0 0 1600 1200" version="1.1" xmlns="http://www.w3.org/2000/svg" xmlns:xlink="http://www.w3.org/1999/xlink">
    <!-- Generator: Sketch 55.2 (78181) - https://sketchapp.com -->
    <title>delivey</title>
    <desc>Created with Sketch.</desc>
    <defs>
        <linearGradient x1="50%" y1="10.4464321%" x2="50%" y2="103.755015%" id="linearGradient-1">
            <stop stop-color="#8C9CFF" offset="0%"></stop>
            <stop stop-color="#91B1FF" offset="15%"></stop>
            <stop stop-color="#94CDFF" offset="41%"></stop>
            <stop stop-color="#6BD1FF" offset="73%"></stop>
            <stop stop-color="#44EDFF" offset="100%"></stop>
        </linearGradient>
        <linearGradient x1="-26.0716145%" y1="49.9865988%" x2="73.6240705%" y2="49.9865988%" id="linearGradient-2">
            <stop stop-color="#FFFFFF" offset="0%"></stop>
            <stop stop-color="#DADADA" offset="12%"></stop>
            <stop stop-color="#7E7E7E" offset="45%"></stop>
            <stop stop-color="#3A3A3A" offset="71%"></stop>
            <stop stop-color="#101010" offset="90%"></stop>
            <stop stop-color="#000000" offset="100%"></stop>
        </linearGradient>
        <linearGradient x1="49.6105919%" y1="44.214224%" x2="49.6105919%" y2="114.392615%" id="linearGradient-3">
            <stop stop-color="#FFFFFF" offset="0%"></stop>
            <stop stop-color="#F4F4F4" offset="14%"></stop>
            <stop stop-color="#CACACA" offset="71%"></stop>
            <stop stop-color="#BABABA" offset="100%"></stop>
        </linearGradient>
        <linearGradient x1="49.6105919%" y1="43.6384089%" x2="49.6105919%" y2="-7.42658937%" id="linearGradient-4">
            <stop stop-color="#FFFFFF" offset="0%"></stop>
            <stop stop-color="#F4F4F4" offset="14%"></stop>
            <stop stop-color="#CACACA" offset="71%"></stop>
            <stop stop-color="#BABABA" offset="100%"></stop>
        </linearGradient>
        <linearGradient x1="41.8023798%" y1="0.704281197%" x2="58.2210645%" y2="99.2903759%" id="linearGradient-5">
            <stop stop-color="#8C9FFF" offset="0%"></stop>
            <stop stop-color="#91B7FF" offset="15%"></stop>
            <stop stop-color="#94C2FF" offset="41%"></stop>
            <stop stop-color="#6BDEFF" offset="73%"></stop>
            <stop stop-color="#44E9FF" offset="100%"></stop>
        </linearGradient>
        <linearGradient x1="-10.0957354%" y1="49.999998%" x2="132.288947%" y2="49.999998%" id="linearGradient-6">
            <stop stop-color="#FFFFFF" offset="0%"></stop>
            <stop stop-color="#DADADA" offset="12%"></stop>
            <stop stop-color="#7E7E7E" offset="45%"></stop>
            <stop stop-color="#3A3A3A" offset="71%"></stop>
            <stop stop-color="#101010" offset="90%"></stop>
            <stop stop-color="#000000" offset="100%"></stop>
        </linearGradient>
        <linearGradient x1="49.9829082%" y1="20.4745034%" x2="49.9829082%" y2="133.892552%" id="linearGradient-7">
            <stop stop-color="#FFFFFF" offset="0%"></stop>
            <stop stop-color="#DADADA" offset="12%"></stop>
            <stop stop-color="#7E7E7E" offset="45%"></stop>
            <stop stop-color="#3A3A3A" offset="71%"></stop>
            <stop stop-color="#101010" offset="90%"></stop>
            <stop stop-color="#000000" offset="100%"></stop>
        </linearGradient>
        <linearGradient x1="29.794826%" y1="50%" x2="187.867975%" y2="50%" id="linearGradient-8">
            <stop stop-color="#FFFFFF" offset="0%"></stop>
            <stop stop-color="#D0D0D0" offset="10%"></stop>
            <stop stop-color="#999999" offset="23%"></stop>
            <stop stop-color="#6A6A6A" offset="37%"></stop>
            <stop stop-color="#444444" offset="50%"></stop>
            <stop stop-color="#262626" offset="63%"></stop>
            <stop stop-color="#111111" offset="76%"></stop>
            <stop stop-color="#040404" offset="88%"></stop>
            <stop stop-color="#000000" offset="100%"></stop>
        </linearGradient>
        <linearGradient x1="50%" y1="138.26087%" x2="50%" y2="-152.173913%" id="linearGradient-9">
            <stop stop-color="#FFFFFF" offset="0%"></stop>
            <stop stop-color="#D0D0D0" offset="10%"></stop>
            <stop stop-color="#999999" offset="23%"></stop>
            <stop stop-color="#6A6A6A" offset="37%"></stop>
            <stop stop-color="#444444" offset="50%"></stop>
            <stop stop-color="#262626" offset="63%"></stop>
            <stop stop-color="#111111" offset="76%"></stop>
            <stop stop-color="#040404" offset="88%"></stop>
            <stop stop-color="#000000" offset="100%"></stop>
        </linearGradient>
        <linearGradient x1="18.1980375%" y1="50%" x2="118.198037%" y2="50%" id="linearGradient-10">
            <stop stop-color="#FFFFFF" offset="0%"></stop>
            <stop stop-color="#D0D0D0" offset="10%"></stop>
            <stop stop-color="#999999" offset="23%"></stop>
            <stop stop-color="#6A6A6A" offset="37%"></stop>
            <stop stop-color="#444444" offset="50%"></stop>
            <stop stop-color="#262626" offset="63%"></stop>
            <stop stop-color="#111111" offset="76%"></stop>
            <stop stop-color="#040404" offset="88%"></stop>
            <stop stop-color="#000000" offset="100%"></stop>
        </linearGradient>
        <linearGradient x1="50%" y1="156.266667%" x2="50%" y2="14.4%" id="linearGradient-11">
            <stop stop-color="#FFFFFF" offset="0%"></stop>
            <stop stop-color="#D0D0D0" offset="10%"></stop>
            <stop stop-color="#999999" offset="23%"></stop>
            <stop stop-color="#6A6A6A" offset="37%"></stop>
            <stop stop-color="#444444" offset="50%"></stop>
            <stop stop-color="#262626" offset="63%"></stop>
            <stop stop-color="#111111" offset="76%"></stop>
            <stop stop-color="#040404" offset="88%"></stop>
            <stop stop-color="#000000" offset="100%"></stop>
        </linearGradient>
        <linearGradient x1="29.794826%" y1="50%" x2="187.778769%" y2="50%" id="linearGradient-12">
            <stop stop-color="#FFFFFF" offset="0%"></stop>
            <stop stop-color="#D0D0D0" offset="10%"></stop>
            <stop stop-color="#999999" offset="23%"></stop>
            <stop stop-color="#6A6A6A" offset="37%"></stop>
            <stop stop-color="#444444" offset="50%"></stop>
            <stop stop-color="#262626" offset="63%"></stop>
            <stop stop-color="#111111" offset="76%"></stop>
            <stop stop-color="#040404" offset="88%"></stop>
            <stop stop-color="#000000" offset="100%"></stop>
        </linearGradient>
        <linearGradient x1="-55.1401869%" y1="49.8759305%" x2="269.158879%" y2="49.8759305%" id="linearGradient-13">
            <stop stop-color="#FFFFFF" offset="0%"></stop>
            <stop stop-color="#D0D0D0" offset="10%"></stop>
            <stop stop-color="#999999" offset="23%"></stop>
            <stop stop-color="#6A6A6A" offset="37%"></stop>
            <stop stop-color="#444444" offset="50%"></stop>
            <stop stop-color="#262626" offset="63%"></stop>
            <stop stop-color="#111111" offset="76%"></stop>
            <stop stop-color="#040404" offset="88%"></stop>
            <stop stop-color="#000000" offset="100%"></stop>
        </linearGradient>
        <linearGradient x1="49.8402556%" y1="-14.0422078%" x2="49.8402556%" y2="104.464286%" id="linearGradient-14">
            <stop stop-color="#FFFFFF" offset="0%"></stop>
            <stop stop-color="#D0D0D0" offset="10%"></stop>
            <stop stop-color="#999999" offset="23%"></stop>
            <stop stop-color="#6A6A6A" offset="37%"></stop>
            <stop stop-color="#444444" offset="50%"></stop>
            <stop stop-color="#262626" offset="63%"></stop>
            <stop stop-color="#111111" offset="76%"></stop>
            <stop stop-color="#040404" offset="88%"></stop>
            <stop stop-color="#000000" offset="100%"></stop>
        </linearGradient>
        <linearGradient x1="42.8427419%" y1="101.254562%" x2="58.8438382%" y2="21.7609489%" id="linearGradient-15">
            <stop stop-color="#FFFFFF" offset="0%"></stop>
            <stop stop-color="#DADADA" offset="12%"></stop>
            <stop stop-color="#7E7E7E" offset="45%"></stop>
            <stop stop-color="#3A3A3A" offset="71%"></stop>
            <stop stop-color="#101010" offset="90%"></stop>
            <stop stop-color="#000000" offset="100%"></stop>
        </linearGradient>
        <linearGradient x1="49.9723909%" y1="196.644126%" x2="49.9723909%" y2="3.56040896%" id="linearGradient-16">
            <stop stop-color="#FFFFFF" offset="0%"></stop>
            <stop stop-color="#DADADA" offset="12%"></stop>
            <stop stop-color="#7E7E7E" offset="45%"></stop>
            <stop stop-color="#3A3A3A" offset="71%"></stop>
            <stop stop-color="#101010" offset="90%"></stop>
            <stop stop-color="#000000" offset="100%"></stop>
        </linearGradient>
        <linearGradient x1="49.6212121%" y1="128.368794%" x2="49.6212121%" y2="22.8723404%" id="linearGradient-17">
            <stop stop-color="#FFFFFF" offset="0%"></stop>
            <stop stop-color="#DADADA" offset="12%"></stop>
            <stop stop-color="#7E7E7E" offset="45%"></stop>
            <stop stop-color="#3A3A3A" offset="71%"></stop>
            <stop stop-color="#101010" offset="90%"></stop>
            <stop stop-color="#000000" offset="100%"></stop>
        </linearGradient>
        <linearGradient x1="102.556976%" y1="116.743746%" x2="-30.5169539%" y2="18.7448878%" id="linearGradient-18">
            <stop stop-color="#FFFFFF" offset="0%"></stop>
            <stop stop-color="#D0D0D0" offset="10%"></stop>
            <stop stop-color="#999999" offset="23%"></stop>
            <stop stop-color="#6A6A6A" offset="37%"></stop>
            <stop stop-color="#444444" offset="50%"></stop>
            <stop stop-color="#262626" offset="63%"></stop>
            <stop stop-color="#111111" offset="76%"></stop>
            <stop stop-color="#040404" offset="88%"></stop>
            <stop stop-color="#000000" offset="100%"></stop>
        </linearGradient>
        <linearGradient x1="0%" y1="50.0278242%" x2="100%" y2="50.0278242%" id="linearGradient-19">
            <stop stop-color="#FFFFFF" offset="0%"></stop>
            <stop stop-color="#DADADA" offset="12%"></stop>
            <stop stop-color="#7E7E7E" offset="45%"></stop>
            <stop stop-color="#3A3A3A" offset="71%"></stop>
            <stop stop-color="#101010" offset="90%"></stop>
            <stop stop-color="#000000" offset="100%"></stop>
        </linearGradient>
        <linearGradient x1="56.8767123%" y1="46.4373196%" x2="51.1780822%" y2="67.3793698%" id="linearGradient-20">
            <stop stop-color="#FFFFFF" offset="0%"></stop>
            <stop stop-color="#DADADA" offset="12%"></stop>
            <stop stop-color="#7E7E7E" offset="45%"></stop>
            <stop stop-color="#3A3A3A" offset="71%"></stop>
            <stop stop-color="#101010" offset="90%"></stop>
            <stop stop-color="#000000" offset="100%"></stop>
        </linearGradient>
        <linearGradient x1="54.2867664%" y1="90.6785244%" x2="37.7803063%" y2="-39.7397892%" id="linearGradient-21">
            <stop stop-color="#FFFFFF" offset="0%"></stop>
            <stop stop-color="#DADADA" offset="12%"></stop>
            <stop stop-color="#7E7E7E" offset="45%"></stop>
            <stop stop-color="#3A3A3A" offset="71%"></stop>
            <stop stop-color="#101010" offset="90%"></stop>
            <stop stop-color="#000000" offset="100%"></stop>
        </linearGradient>
        <linearGradient x1="49.97595%" y1="146.755725%" x2="49.97595%" y2="-122.328244%" id="linearGradient-22">
            <stop stop-color="#FFFFFF" offset="0%"></stop>
            <stop stop-color="#D0D0D0" offset="10%"></stop>
            <stop stop-color="#999999" offset="23%"></stop>
            <stop stop-color="#6A6A6A" offset="37%"></stop>
            <stop stop-color="#444444" offset="50%"></stop>
            <stop stop-color="#262626" offset="63%"></stop>
            <stop stop-color="#111111" offset="76%"></stop>
            <stop stop-color="#040404" offset="88%"></stop>
            <stop stop-color="#000000" offset="100%"></stop>
        </linearGradient>
        <linearGradient x1="24.2575931%" y1="97.0031546%" x2="112.873879%" y2="-103.785489%" id="linearGradient-23">
            <stop stop-color="#FFFFFF" offset="0%"></stop>
            <stop stop-color="#D0D0D0" offset="10%"></stop>
            <stop stop-color="#999999" offset="23%"></stop>
            <stop stop-color="#6A6A6A" offset="37%"></stop>
            <stop stop-color="#444444" offset="50%"></stop>
            <stop stop-color="#262626" offset="63%"></stop>
            <stop stop-color="#111111" offset="76%"></stop>
            <stop stop-color="#040404" offset="88%"></stop>
            <stop stop-color="#000000" offset="100%"></stop>
        </linearGradient>
        <linearGradient x1="33.8547486%" y1="88.4354016%" x2="60.1117318%" y2="11.8192934%" id="linearGradient-24">
            <stop stop-color="#FFFFFF" offset="0%"></stop>
            <stop stop-color="#D0D0D0" offset="10%"></stop>
            <stop stop-color="#999999" offset="23%"></stop>
            <stop stop-color="#6A6A6A" offset="37%"></stop>
            <stop stop-color="#444444" offset="50%"></stop>
            <stop stop-color="#262626" offset="63%"></stop>
            <stop stop-color="#111111" offset="76%"></stop>
            <stop stop-color="#040404" offset="88%"></stop>
            <stop stop-color="#000000" offset="100%"></stop>
        </linearGradient>
        <linearGradient x1="73.3105218%" y1="57.4901026%" x2="18.9905902%" y2="41.2264271%" id="linearGradient-25">
            <stop stop-color="#FFFFFF" offset="0%"></stop>
            <stop stop-color="#D0D0D0" offset="10%"></stop>
            <stop stop-color="#999999" offset="23%"></stop>
            <stop stop-color="#6A6A6A" offset="37%"></stop>
            <stop stop-color="#444444" offset="50%"></stop>
            <stop stop-color="#262626" offset="63%"></stop>
            <stop stop-color="#111111" offset="76%"></stop>
            <stop stop-color="#040404" offset="88%"></stop>
            <stop stop-color="#000000" offset="100%"></stop>
        </linearGradient>
    </defs>
    <g id="delivey" stroke="none" stroke-width="1" fill="none" fill-rule="evenodd">
        <g id="del" transform="translate(105.000000, 117.000000)">
            <path d="M1304,857.844221 C1292.40805,714.367167 1172.74738,603.844221 1029,603.844221 C885.25262,603.844221 765.59195,714.367167 754,857.844221 L1304,857.844221 Z" id="Path" fill="url(#linearGradient-1)" fill-rule="nonzero"></path>
            <path d="M396.348173,296.171729 C388.883077,288.949326 414.336357,272.261539 425.713883,262.616715 C437.091409,252.971892 461.69025,252.433576 485.659505,255.214874 C509.62876,257.996172 532.024049,258.758786 544.390925,253.734506 C556.757801,248.710226 560.625261,250.908348 560.265497,255.214874 C559.905733,259.5214 530.090319,267.237258 531.259551,276.523205 C532.428783,285.809151 542.457195,278.452169 547.089152,283.835327 C551.72111,289.218484 552.890342,296.575465 562.199227,292.807255 C571.508112,289.039045 570.698644,282.758695 572.632373,279.66338 C574.566103,276.568064 582.301022,274.683959 584.99925,285.450274 C587.697477,296.216588 606.225306,294.018466 608.5188,299.625921 C610.812293,305.233377 604.696311,306.982903 594.667898,305.233377 C584.639486,303.483851 573.756635,311.962323 565.257218,329.906181 C556.757801,347.850038 543.266663,375.977035 526.627593,380.238701 C509.988524,384.500367 490.651226,379.16207 480.982577,383.334016 C472.663042,386.877928 469.784933,399.528348 483.725775,404.911505 C497.666618,410.294662 507.515148,406.84047 511.922253,409.397469 C519.47729,413.883434 511.517519,419.221731 515.969595,424.829187 C520.42167,430.436642 525.27848,430.212344 524.693864,433.30766 C524.109248,436.402975 521.770784,438.915115 522.175518,442.279588 C522.580252,445.644062 518.128177,448.245921 515.384979,442.279588 C512.641781,436.313256 510.393258,433.621677 506.885562,432.859063 C503.377866,432.096449 499.375495,433.801116 496.452415,425.322643 C493.529335,416.84417 483.500923,414.735767 474.237008,417.606784 C464.973094,420.477801 455.664209,418.593696 451.751779,408.634856 C447.839349,398.676015 439.834607,370.593878 432.27957,358.661212 C424.724533,346.728547 413.751741,337.62204 416.270086,331.25197 C418.788432,324.881901 435.787266,314.698762 439.249991,299.446483 C442.712716,284.194204 432.099688,281.906362 423.195537,287.289519 C414.291386,292.672676 402.91386,302.541798 396.348173,296.171729 Z" id="Path" fill="#A1C8FF" fill-rule="nonzero"></path>
            <path d="M523.49612,485.03843 C535.037952,494.441678 529.132829,505.149684 532.711691,518.557187 C536.290553,531.96469 552.708585,536.553835 555.079581,554.145558 C557.450577,571.737282 559.150537,611.3749 560.17946,626.132151 C561.208383,640.889403 575.568568,661.225615 583.263122,658.616101 C590.957676,656.006587 579.68426,646.783305 588.899831,634.905517 C598.115401,623.027729 604.781032,618.933492 604.781032,608.630411 C604.781032,598.32733 612.475586,601.926659 619.141218,594.683008 C625.806849,587.439358 624.777926,581.185522 631.980386,568.90281 C639.182847,556.620098 649.382605,559.634536 653.498297,536.913768 C657.613988,514.193 665.800636,491.562215 653.498297,484.858463 C641.195957,478.154712 634.530326,484.273572 627.372601,470.101212 C620.214876,455.928851 611.446664,455.973843 599.681153,456.603726 C587.915643,457.233608 585.813062,452.509488 578.118508,443.106239 C570.423953,433.702991 550.42706,425.109591 542.732506,428.663929 C535.037952,432.218267 535.932667,447.110494 529.938073,457.54855 C523.943478,467.986605 512.714798,476.265064 523.49612,485.03843 Z" id="Path" fill="#A1C8FF" fill-rule="nonzero"></path>
            <path d="M693.687456,308.184984 C704.399756,313.970984 692.880672,322.044473 697.900662,327.426799 C702.920652,332.809125 708.299213,335.948816 716.770446,331.284133 C725.241679,326.61945 732.592379,321.147419 740.301649,333.571622 C748.01092,345.995824 763.384639,362.546477 774.186582,374.880974 C784.988525,387.215472 792.697795,396.455131 801.079386,396.455131 C809.460976,396.455131 812.643291,387.484588 819.590599,390.310309 C826.537906,393.13603 825.731122,406.860962 823.041842,412.288141 C820.352562,417.715319 797.628142,451.982796 797.22475,463.554797 C796.821358,475.126798 799.914031,485.532628 794.894041,494.413466 C789.874051,503.294304 768.808021,513.29646 760.650537,520.203779 C752.493054,527.111097 745.635389,544.513952 742.722002,551.600681 C739.808614,558.68741 721.700793,573.578513 710.89885,572.816016 C700.096908,572.05352 700.5003,558.19403 700.903692,545.052184 C701.307084,531.910338 703.592972,521.145686 698.976374,514.238367 C694.359776,507.331049 692.029067,506.882522 693.597813,498.809033 C695.16656,490.735543 698.079947,487.595853 695.525131,482.213527 C692.970315,476.831201 685.485151,469.116534 685.485151,456.378362 C685.485151,443.64019 682.795871,442.518872 678.537843,440.410795 C673.365451,437.81215 669.398268,433.31179 667.466972,427.852034 C666.70501,422.783677 647.162906,429.690995 639.453635,424.308669 C631.744365,418.926343 618.163499,390.758836 621.525099,377.258168 C624.8867,363.7575 683.647476,302.757805 693.687456,308.184984 Z" id="Path" fill="#A1C8FF" fill-rule="nonzero"></path>
            <path d="M1090.78001,189.647094 C1090.78001,183.216755 1081.79618,174.448112 1067.60174,177.820667 C1053.4073,181.193222 1036.69739,187.083952 1026.14139,181.687864 C1015.5854,176.291776 1017.42708,171.120524 1010.46462,170.85072 C1003.50215,170.580916 1004.04118,178.80995 997.348234,177.281058 C990.655285,175.752167 987.286351,172.784318 974.888673,171.88497 C962.490996,170.985622 927.543919,174.178308 913.12488,175.977004 C898.705842,177.7757 876.2912,207.948826 864.702067,211.051577 C853.112933,214.154328 848.755778,211.816023 841.029689,211.546219 C833.3036,211.276414 825.083401,216.042959 816.818283,215.68322 C808.553164,215.32348 800.602479,210.511968 791.079626,212.085827 C781.556772,213.659686 753.751835,253.096098 745.80115,250.487989 C737.850466,247.879879 755.818115,227.779451 755.05449,226.250559 C754.290865,224.721667 746.564776,232.411093 737.086841,231.42181 C727.608906,230.432527 719.837898,227.509646 711.842294,233.445343 C703.84669,239.38104 692.032961,254.44512 688.439431,255.029696 C684.845902,255.614272 680.174313,253.545772 676.086673,257.412968 C671.999033,261.280165 669.887834,267.485666 671.594761,267.485666 C673.301687,267.485666 680.129394,258.717023 684.756063,261.819774 C689.382733,264.922525 677.029974,271.352863 681.387129,273.421363 C685.744284,275.489864 694.862866,262.854024 699.354778,257.188131 C703.84669,251.522239 716.064692,242.978432 723.8357,252.286685 C731.606708,261.594937 713.773816,279.267126 710.719316,281.920202 C707.664816,284.573279 692.437233,292.487542 697.827528,297.613826 C703.217823,302.740109 703.487337,295.050684 714.043331,293.746629 C724.599325,292.442574 724.86884,293.746629 730.798164,291.453292 C736.727488,289.159954 740.321018,285.022953 744.947687,286.551845 C749.574357,288.080736 745.441797,295.050684 751.371122,296.084934 C757.300446,297.119184 759.097211,291.947933 764.846858,286.821649 C770.596506,281.695365 770.731263,279.087256 783.128941,286.28204 C795.526619,293.476825 796.604678,298.153434 794.94267,300.986381 C793.280663,303.819327 782.095801,306.02273 774.369712,305.168349 C766.643623,304.313969 763.634042,305.168349 761.388086,308.495937 C759.14213,311.823525 764.846858,313.622221 765.879998,321.086809 C766.913138,328.551398 765.25113,333.947486 770.37191,341.457042 C775.49269,348.966599 797.682737,366.41395 802.848436,374.148344 C808.014135,381.882737 814.168054,379.04979 820.816084,375.182594 C827.464114,371.315397 830.833049,372.12481 833.168843,369.02206 C835.504637,365.919309 838.289623,353.283469 835.459718,351.035099 C832.629814,348.786729 828.542173,353.598241 820.816084,345.099402 C813.089995,336.600563 807.340348,328.101724 811.293231,325.763419 C815.246113,323.425114 826.206379,338.669064 841.119528,345.369206 C856.032676,352.069349 868.071001,357.960079 870.990744,372.934224 C873.910487,387.908368 870.721229,403.601992 875.123303,405.400688 C879.525377,407.199384 888.239687,389.167456 899.559306,383.501563 C910.878924,377.83567 921.210322,374.508083 922.468058,392.495043 C923.725793,410.482004 922.468058,414.978744 932.529941,420.329865 C942.591825,425.680986 951.845164,428.064258 961.098503,436.293293 C970.351842,444.522327 972.687636,449.783513 975.787056,448.704296 C978.886475,447.625078 973.720776,440.430294 975.787056,433.460347 C978.337735,425.74448 979.3004,417.591268 978.61696,409.492721 C977.583821,400.769045 962.625753,387.863401 964.422518,378.869921 C966.219283,369.87644 980.68324,364.930026 993.799624,356.38622 C1006.91601,347.842413 1011.27316,341.951684 1011.04857,331.11454 C1010.82397,320.277396 991.733344,299.187685 1001.75031,292.487542 C1011.76727,285.787399 1014.14799,323.649951 1023.89544,323.649951 C1033.64289,323.649951 1020.03239,307.686524 1029.55525,299.187685 C1039.0781,290.688846 1051.43086,285.022953 1053.49714,270.813254 C1055.56342,256.603555 1044.73791,249.453738 1046.04056,240.685095 C1047.34322,231.916452 1050.53248,228.813701 1057.89921,232.411093 C1065.26595,236.008485 1067.15255,232.680897 1072.54284,222.113558 C1077.93314,211.546219 1087.99502,212.310664 1091.58855,205.880326 C1095.18208,199.449988 1090.78001,196.077432 1090.78001,189.647094 Z M824.903725,303.234751 C819.51343,307.731491 811.967017,296.66951 807.924296,290.10427 C804.283076,284.26314 799.73395,279.041202 794.44856,274.635483 C790.36092,271.352863 790.810111,269.689069 792.87639,267.845406 C797.368303,264.023177 815.066437,264.203046 816.638606,267.845406 C818.210775,271.487765 813.539187,282.190007 817.98618,288.170671 C822.433173,294.151336 827.68871,300.986381 824.903725,303.234751 Z" id="Shape" fill="#A1C8FF" fill-rule="nonzero"></path>
            <path d="M986.435625,461.696917 C989.369596,466.188313 1011.62264,456.307242 1013.51844,452.444641 C1015.41423,448.582041 1011.03585,444.315214 1011.98374,440.85684 C1012.93164,437.398465 1013.92468,431.874047 1009.27546,429.269038 C1002.32421,425.226781 979.03299,451.097223 986.435625,461.696917 Z" id="Path" fill="#A1C8FF" fill-rule="nonzero"></path>
            <path d="M1025.31014,445.859626 C1028.40236,446.172122 1025.87632,449.832795 1030.05735,454.341672 C1034.23837,458.850549 1036.02402,461.707659 1034.41258,463.805849 C1032.80114,465.90404 1025.17948,464.787981 1022.74055,460.77017 C1020.30162,456.752359 1019.82254,445.36856 1025.31014,445.859626 Z" id="Path" fill="#A1C8FF" fill-rule="nonzero"></path>
            <path d="M1032.52027,437.347234 C1035.49111,432.878983 1042.19799,434.934379 1053.04603,439.268582 C1063.89408,443.602786 1078.5682,457.141587 1077.98303,460.001268 C1077.39787,462.860948 1070.06081,462.771583 1066.95494,464.469519 C1063.84907,466.167454 1052.911,467.552612 1048.36472,460.537458 C1043.81844,453.522304 1045.21384,449.00937 1040.84761,445.970959 C1036.48138,442.932548 1030.1346,441.100565 1032.52027,437.347234 Z" id="Path" fill="#A1C8FF" fill-rule="nonzero"></path>
            <path d="M959.145613,466.934886 C965.873219,462.028151 983.813504,475.231727 996.77536,475.856221 C1009.73722,476.480714 1040.72906,476.123861 1040.99816,479.826215 C1041.26727,483.528569 1011.9349,490.442604 994.353421,486.829463 C976.771942,483.216323 952.418006,471.752407 959.145613,466.934886 Z" id="Path" fill="#A1C8FF" fill-rule="nonzero"></path>
            <path d="M978.485403,523.242705 C992.87126,503.361395 1011.4698,513.976755 1028.09644,506.599979 C1044.72309,499.223204 1052.83474,522.478039 1066.68281,523.242705 C1080.53088,524.00737 1080.12753,512.402443 1078.06601,503.136493 C1076.00448,493.870543 1081.92016,491.936389 1092.81039,506.240137 C1103.70062,520.543884 1114.85974,537.186609 1122.56805,542.224407 C1130.27636,547.262205 1133.36865,545.328051 1132.96531,558.46231 C1132.56197,571.596568 1132.56197,599.844221 1120.23763,599.844221 C1107.9133,599.844221 1099.84647,581.852086 1082.09943,573.980526 C1064.35239,566.108967 1031.27836,591.972662 1016.22027,588.239294 C1001.16217,584.505926 983.863293,553.064669 978.485403,544.563385 C973.838199,538.221784 973.838199,529.584305 978.485403,523.242705 Z" id="Path" fill="#A1C8FF" fill-rule="nonzero"></path>
            <path d="M1390,857.844221 L0,857.844221" id="Path" stroke="#343947" stroke-width="0.5"></path>
            <g id="plane" transform="translate(485.000000, 338.500000) scale(-1, 1) translate(-485.000000, -338.500000) translate(398.000000, 252.000000)" fill-rule="nonzero">
                <path d="M174,86.5909944 L159.005684,85.2401501 L167.017572,69.435272 L159.990385,69.435272 L147.010231,81.6378987 C147.010231,81.6378987 120.557571,79.6116323 92.5831005,77.6754221 L109.00971,5 L103.593852,5 C99.1958505,5.05763136 95.1652965,7.4801885 93.0306921,11.3489681 L82.6913277,29.3602251 L66.71231,29.3602251 L66.71231,39.8067542 L76.5145646,39.8067542 L70.1140057,50.9737336 L58.0290343,50.9737336 L58.0290343,61.4202627 L64.07152,61.4202627 L55.9253542,75.6041276 C42.9899589,74.8386492 32.8743903,74.3883677 29.4279355,74.5234522 C21.0132147,74.9287054 12.6432531,81.0525328 7.80926458,85.2851782 C6.66077282,86.2774748 6,87.7246356 6,89.2476548 C6,90.770674 6.66077282,92.2178348 7.80926458,93.2101313 C12.6432531,97.4427767 21.0132147,103.611632 29.4279355,103.971857 C32.8743903,103.971857 42.8556814,103.65666 55.9253542,102.93621 L64.07152,117.075047 L58.1633118,117.075047 L58.1633118,127.566604 L70.2482831,127.566604 L76.5145646,138.418386 L66.5780326,138.418386 L66.5780326,148.864916 L82.5570502,148.864916 L92.8964146,166.876173 C95.0881203,170.658223 99.1079128,172.988635 103.459575,173 L108.875432,173 L92.4488231,100.27955 C120.423294,98.3433396 146.875953,96.3621013 146.875953,96.3621013 L159.856108,108.564728 L166.883295,108.564728 L158.871406,92.7598499 L173.865723,91.4090056 L174,86.5909944 Z" id="Path" fill="url(#linearGradient-2)" opacity="0.3" style="mix-blend-mode: multiply;"></path>
                <rect id="Rectangle" fill="#636363" transform="translate(73.500000, 29.000000) rotate(180.000000) translate(-73.500000, -29.000000) " x="61" y="24" width="25" height="10"></rect>
                <rect id="Rectangle" fill="#636363" transform="translate(64.500000, 51.000000) rotate(180.000000) translate(-64.500000, -51.000000) " x="52" y="46" width="25" height="10"></rect>
                <path d="M85.9314642,78 L104,0 L98.5794393,0 C94.1802405,-0.0163426355 90.1104703,2.31511824 87.9190031,6.10716068 L46,77.955095 L85.9314642,78 Z" id="Path" fill="url(#linearGradient-3)"></path>
                <rect id="Rectangle" fill="#636363" transform="translate(73.500000, 138.000000) rotate(180.000000) translate(-73.500000, -138.000000) " x="61" y="133" width="25" height="10"></rect>
                <rect id="Rectangle" fill="#636363" transform="translate(64.500000, 117.000000) rotate(180.000000) translate(-64.500000, -117.000000) " x="52" y="112" width="25" height="10"></rect>
                <path d="M85.9314642,89 L104,167 L98.5794393,167 C94.1802405,167.016343 90.1104703,164.684882 87.9190031,160.892839 L46,89.044905 L85.9314642,89 Z" id="Path" fill="url(#linearGradient-4)"></path>
                <path d="M1.78739808,79.5730725 C6.62593204,75.3544304 15.2277702,69.2508631 23.4263972,68.8469505 C36.3291544,68.2635213 141.029653,76.1622555 141.029653,76.1622555 L154.022013,64 L161.055808,64 L153.036386,79.7525892 L168,81.0989643 L168,85.9010357 L153.036386,87.2474108 L161.055808,103 L154.022013,103 L141.029653,90.8377445 C141.029653,90.8377445 36.3291544,98.7813579 23.4263972,98.1979287 C15.0485652,97.7940161 6.62593204,91.6904488 1.78739808,87.4718067 C0.651444623,86.4747758 0,85.0353685 0,83.5224396 C0,82.0095107 0.651444623,80.5701033 1.78739808,79.5730725 L1.78739808,79.5730725 Z" id="Path" fill="#FFFFFF"></path>
            </g>
            <ellipse id="Oval" fill="url(#linearGradient-5)" fill-rule="nonzero" transform="translate(595.170233, 113.418208) rotate(-80.550000) translate(-595.170233, -113.418208) " cx="595.170233" cy="113.418208" rx="98.1083443" ry="98.0800788"></ellipse>
            <path d="M1026.152,266.844221 C1072.12413,266.844221 1206,291.66058 1206,411.613795 C1206,531.567009 1090.30647,550.729008 1007.38604,522.905965 C924.465604,495.082923 740.98114,380.649441 613.031366,352.781522 C485.081593,324.913604 398.479799,358.525634 406.515943,443.385914 C410.331989,484.357588 462.903633,547.00431 552.378684,548.844221" id="Path" stroke="#FFFFFF" stroke-width="0.69"></path>
            <ellipse id="Oval" fill="#FFFFFF" fill-rule="nonzero" cx="904.5" cy="293.5" rx="37.5" ry="14.5"></ellipse>
            <path d="M904.47754,133 C878.581963,133 853,152.289902 853,181.493917 C853,209.711006 861.960407,248.111369 900.266149,288.216421 C901.37141,289.356578 902.890661,290 904.47754,290 C906.06442,290 907.583671,289.356578 908.688932,288.216421 C947.084277,248.111369 955.999941,209.711006 955.999941,181.493917 C956.044685,152.289902 930.41792,133 904.47754,133 Z M904.47754,205.449332 C893.021308,205.449332 883.734197,196.150108 883.734197,184.678994 C883.734197,173.207879 893.021308,163.908704 904.47754,163.908704 C915.933772,163.908704 925.220932,173.207879 925.220932,184.678994 C925.232812,190.19127 923.05119,195.481217 919.15847,199.378994 C915.265749,203.276771 909.982665,205.461228 904.47754,205.449332 Z" id="Shape" fill="#FF005D" fill-rule="nonzero"></path>
            <path d="M884.136641,184.540855 C884.136614,173.112801 893.470168,163.841592 905,163.816856 L905,133 C878.841601,133 853,152.288571 853,181.490569 C853,209.705711 862.051349,248.103424 900.745866,288.205708 C901.857475,289.354127 903.394342,290.002339 905,290 L905,205.444283 C899.431031,205.432542 894.096888,203.219248 890.18032,199.295158 C886.263752,195.371069 884.088412,190.060457 884.136641,184.540855 Z" id="Path" fill="url(#linearGradient-6)" fill-rule="nonzero" opacity="0.65" style="mix-blend-mode: multiply;"></path>
            <path d="M800.394398,458.098449 C825.872845,441.358018 834.397206,408.005349 820.067636,381.124353 C805.738065,354.243357 773.266099,342.672456 745.1261,354.420054 C716.986101,366.167652 702.43045,397.371161 711.533342,426.434137 C712.3054,428.797178 711.975666,431.381303 710.634848,433.475634 L698.370405,452.26791 C697.880926,452.990138 697.876199,453.93582 698.358435,454.662889 C698.840671,455.389958 699.714608,455.754786 700.571715,455.586832 L722.719592,451.729706 C725.176541,451.339883 727.679706,452.063283 729.548147,453.703119 C749.539269,470.777281 778.439652,472.570273 800.394398,458.098449 Z" id="Path" fill="url(#linearGradient-7)" fill-rule="nonzero" opacity="0.3" style="mix-blend-mode: multiply;"></path>
            <path d="M798.276968,450.336337 C822.927927,434.000343 831.157959,401.505127 817.276044,375.32094 C803.39413,349.136754 771.959025,337.862362 744.70792,349.29394 C717.456815,360.725517 703.338846,391.108989 712.116505,419.434361 C712.880194,421.73647 712.567997,424.261918 711.266973,426.306458 L699.37352,444.632048 C698.89007,445.333717 698.874691,446.258762 699.334547,446.976256 C699.794403,447.693751 700.639043,448.062566 701.474995,447.910892 L722.936864,444.09306 C725.32708,443.706473 727.762506,444.433813 729.554274,446.069349 C748.959195,462.708253 776.979998,464.448063 798.276968,450.336337 Z" id="Path" fill="#FFFFFF" fill-rule="nonzero"></path>
            <path d="M775.78713,424.844221 L731.546423,424.844221 C730.256604,424.851996 729.024909,424.30631 728.161572,423.344524 C727.298236,422.382738 726.885548,421.096527 727.027454,419.809856 L732.902114,383.844221 L786,383.844221 L779.899392,421.215826 C779.49784,423.215919 777.815005,424.70071 775.78713,424.844221 Z" id="Path" fill="#FFA600" fill-rule="nonzero"></path>
            <polygon id="Path" fill="#FFA600" fill-rule="nonzero" points="784.1893 394.844221 731 394.844221 732.8107 383.844221 786 383.844221"></polygon>
            <path d="M808.902041,393.844221 L793.097959,393.844221 C791.387004,393.844221 790,392.501075 790,390.844221 C790,389.187367 791.387004,387.844221 793.097959,387.844221 L808.902041,387.844221 C810.612996,387.844221 812,389.187367 812,390.844221 C812,392.501075 810.612996,393.844221 808.902041,393.844221 L808.902041,393.844221 Z" id="Path" fill="#FFA600" fill-rule="nonzero"></path>
            <path d="M806.902041,407.844221 L791.097959,407.844221 C789.387004,407.844221 788,406.501075 788,404.844221 C788,403.187367 789.387004,401.844221 791.097959,401.844221 L806.902041,401.844221 C808.612997,401.844221 810,403.187367 810,404.844221 C810,406.501075 808.612997,407.844221 806.902041,407.844221 L806.902041,407.844221 Z" id="Path" fill="#FFA600" fill-rule="nonzero"></path>
            <path d="M804.902041,420.844221 L789.097959,420.844221 C787.387003,420.844221 786,419.501075 786,417.844221 C786,416.187367 787.387003,414.844221 789.097959,414.844221 L804.902041,414.844221 C806.612997,414.844221 808,416.187367 808,417.844221 C808,419.501075 806.612997,420.844221 804.902041,420.844221 L804.902041,420.844221 Z" id="Path" fill="#FFA600" fill-rule="nonzero"></path>
            <polygon id="Path" fill="#FF005D" fill-rule="nonzero" points="759.240385 424.844221 747 424.844221 753.759615 383.844221 766 383.844221"></polygon>
            <polygon id="Path" fill="#000000" fill-rule="nonzero" opacity="0.4" points="783.508432 398.144221 731 398.144221 731.491568 395.544221 784 395.544221"></polygon>
            <polygon id="Path" fill="#343947" fill-rule="nonzero" points="110 819.844221 132.217822 833.844221 841.482508 833.844221 858 819.844221"></polygon>
            <ellipse id="Oval" fill="#343947" fill-rule="nonzero" cx="671" cy="814.344221" rx="42" ry="52.5"></ellipse>
            <ellipse id="Oval" fill="#343947" fill-rule="nonzero" cx="429" cy="814.344221" rx="42" ry="52.5"></ellipse>
            <rect id="Rectangle" fill="#00C0FF" fill-rule="nonzero" transform="translate(562.500000, 697.344221) rotate(180.000000) translate(-562.500000, -697.344221) " x="258" y="567.844221" width="609" height="259"></rect>
            <rect id="Rectangle" fill="#000000" fill-rule="nonzero" opacity="0.4" x="258" y="567.844221" width="150" height="259"></rect>
            <rect id="Rectangle" fill="#000000" fill-rule="nonzero" opacity="0.4" x="365" y="797.844221" width="43" height="29"></rect>
            <ellipse id="Oval" fill="#343947" fill-rule="nonzero" cx="200" cy="814.344221" rx="42" ry="52.5"></ellipse>
            <polygon id="Path" fill="#FFA600" fill-rule="nonzero" points="386 610.844221 386 826.844221 204 826.844221 222.693103 735.395687 307.910345 707.817396 328.844828 610.844221"></polygon>
            <path d="M308,714.844221 L308,772.844221" id="Path" stroke="#804E00" stroke-width="0.52"></path>
            <polygon id="Path" fill="#FFE4A1" fill-rule="nonzero" points="204.085106 826.844221 96 826.844221 114.914894 735.844221 223 735.844221"></polygon>
            <polygon id="Path" fill="#FFA600" fill-rule="nonzero" points="217.704527 761.844221 110 761.844221 115.295473 735.844221 223 735.844221"></polygon>
            <polygon id="Path" fill="#FFFFFF" fill-rule="nonzero" points="139.650259 761.844221 110 761.844221 115.349741 735.844221 145 735.844221"></polygon>
            <polygon id="Path" fill="#FFFFFF" fill-rule="nonzero" points="217.65718 761.844221 188 761.844221 193.34282 735.844221 223 735.844221"></polygon>
            <path d="M144,740.844221 L193,740.844221" id="Path" stroke="#343947" stroke-width="0.76"></path>
            <path d="M143,745.844221 L192,745.844221" id="Path" stroke="#343947" stroke-width="0.76"></path>
            <path d="M142,750.844221 L191,750.844221" id="Path" stroke="#343947" stroke-width="0.76"></path>
            <path d="M141,755.844221 L190,755.844221" id="Path" stroke="#343947" stroke-width="0.76"></path>
            <polygon id="Path" fill="#804E00" fill-rule="nonzero" points="95.0959855 797.844221 386 797.844221 386 826.844221 89 826.844221"></polygon>
            <ellipse id="Oval" fill="#343947" fill-rule="nonzero" cx="306" cy="814.344221" rx="42" ry="52.5"></ellipse>
            <polygon id="Path" fill="#FFFFFF" fill-rule="nonzero" opacity="0.2" points="95.1159763 797.844221 203 797.844221 196.928994 826.844221 89 826.844221"></polygon>
            <polygon id="Path" fill="#FFCA44" fill-rule="nonzero" points="200.273848 707.844221 308 707.844221 222.771056 735.844221 115 735.844221"></polygon>
            <polygon id="Path" fill="#276F85" fill-rule="nonzero" points="321 697.844221 337.647436 620.844221 377 620.844221 377 697.844221"></polygon>
            <path d="M306.522111,839.844221 C299.18117,839.844221 291,828.723605 291,813.82198 C291,798.920355 299.18117,787.844221 306.522111,787.844221 C313.863053,787.844221 322,798.964837 322,813.82198 C322,828.679123 313.81883,839.844221 306.522111,839.844221 Z" id="Path" stroke="#636363" stroke-width="0.76"></path>
            <polygon id="Path" fill="#FFE4A1" fill-rule="nonzero" points="308.545231 707.844221 201 707.844221 221.454769 610.844221 329 610.844221"></polygon>
            <polygon id="Path" fill="#38A2C2" fill-rule="nonzero" points="203 697.844221 309.847581 697.844221 326 620.844221 219.197163 620.844221"></polygon>
            <rect id="Rectangle" fill="#FFFFFF" fill-rule="nonzero" x="182" y="658.844221" width="17" height="44"></rect>
            <path d="M191,663.844221 L191,656.044221 C191.02477,653.165345 193.461449,650.844221 196.458647,650.844221 L215,650.844221" id="Path" stroke="#343947" stroke-width="0.76"></path>
            <rect id="Rectangle" fill="#FFFFFF" fill-rule="nonzero" x="336" y="658.844221" width="17" height="44"></rect>
            <path d="M345,663.844221 L345,656.044221 C344.974714,653.165345 342.48727,650.844221 339.427632,650.844221 L331,650.844221" id="Path" stroke="#343947" stroke-width="0.76"></path>
            <rect id="Rectangle" fill="#000000" fill-rule="nonzero" opacity="0.4" transform="translate(637.500000, 812.344221) rotate(180.000000) translate(-637.500000, -812.344221) " x="408" y="797.844221" width="459" height="29"></rect>
            <g id="Group" opacity="0.4" transform="translate(480.000000, 760.844221)" fill="#000000" fill-rule="nonzero">
                <path d="M284.570811,0.714666667 C261.285946,0.714666667 242.442703,24.1646667 242.442703,53.1086667 C242.450029,57.4606587 242.900989,61.8006746 243.788649,66.062 L325.352973,66.062 C326.240633,61.8006746 326.691592,57.4606587 326.698919,53.1086667 C326.698919,24.1646667 307.855676,0.714666667 284.570811,0.714666667 Z" id="Path"></path>
                <path d="M84.7427027,53.1086667 C84.7427027,24.1646667 65.8545946,0.714666667 42.6145946,0.714666667 C19.3745946,0.714666667 0.441621622,24.1646667 0.441621622,53.1086667 C0.448948372,57.4606587 0.899907725,61.8006746 1.78756757,66.062 L83.3967568,66.062 C84.2844166,61.8006746 84.735376,57.4606587 84.7427027,53.1086667 Z" id="Path"></path>
            </g>
            <path d="M258,596.844221 L867,596.844221" id="Path" stroke="#73002A" stroke-width="0.76"></path>
            <path d="M459.00008,785.844221 L459.00008,785.844221 C455.686416,785.844221 453.00016,783.077744 453.00016,779.665122 L453.00016,615.023485 C452.988476,613.381026 453.616856,611.802347 454.744602,610.640923 C455.872348,609.479498 457.405249,608.832353 459.00008,608.844221 L459.00008,608.844221 C462.313744,608.844221 465,611.610863 465,615.023485 L465,779.665122 C465,783.077744 462.313744,785.844221 459.00008,785.844221 Z" id="Path" stroke="#73002A" stroke-width="0.52"></path>
            <path d="M518.978339,785.844221 L518.978339,785.844221 C515.676594,785.844221 513,783.077584 513,779.664966 L513,615.023477 C513,611.610858 515.676594,608.844221 518.978339,608.844221 L518.978339,608.844221 C520.571386,608.832452 522.103153,609.47819 523.233696,610.638291 C524.36424,611.798391 525,613.376892 525,615.023477 L525,779.664966 C525,781.31155 524.36424,782.890051 523.233696,784.050151 C522.103153,785.210252 520.571386,785.85599 518.978339,785.844221 L518.978339,785.844221 Z" id="Path" stroke="#73002A" stroke-width="0.52"></path>
            <path d="M577.99992,785.844221 L577.99992,785.844221 C574.686256,785.844221 572,783.077744 572,779.665122 L572,615.023485 C572,611.610863 574.686256,608.844221 577.99992,608.844221 L577.99992,608.844221 C579.594751,608.832353 581.127652,609.479498 582.255398,610.640923 C583.383144,611.802347 584.011524,613.381026 583.99984,615.023485 L583.99984,779.665122 C583.99984,783.077744 581.313584,785.844221 577.99992,785.844221 Z" id="Path" stroke="#73002A" stroke-width="0.52"></path>
            <path d="M637.99992,785.844221 L637.99992,785.844221 C634.686256,785.844221 632,783.077744 632,779.665122 L632,615.023485 C632,611.610863 634.686256,608.844221 637.99992,608.844221 L637.99992,608.844221 C639.594751,608.832353 641.127652,609.479498 642.255398,610.640923 C643.383144,611.802347 644.011524,613.381026 643.99984,615.023485 L643.99984,779.665122 C643.99984,783.077744 641.313584,785.844221 637.99992,785.844221 L637.99992,785.844221 Z" id="Path" stroke="#73002A" stroke-width="0.52"></path>
            <path d="M697,785.844221 L697,785.844221 C693.686292,785.844221 691,783.077742 691,779.665117 L691,615.023326 C691,611.6107 693.686292,608.844221 697,608.844221 L697,608.844221 C700.313708,608.844221 703,611.6107 703,615.023326 L703,779.665117 C703,781.303917 702.367859,782.875596 701.242641,784.034403 C700.117422,785.19321 698.591299,785.844221 697,785.844221 Z" id="Path" stroke="#73002A" stroke-width="0.52"></path>
            <path d="M757,785.844221 L757,785.844221 C753.686292,785.844221 751,783.077742 751,779.665117 L751,615.023326 C751,611.6107 753.686292,608.844221 757,608.844221 L757,608.844221 C760.313708,608.844221 763,611.6107 763,615.023326 L763,779.665117 C763,781.303917 762.367859,782.875596 761.242641,784.034403 C760.117422,785.19321 758.591299,785.844221 757,785.844221 L757,785.844221 Z" id="Path" stroke="#73002A" stroke-width="0.52"></path>
            <path d="M816,785.844221 L816,785.844221 C812.686292,785.844221 810,783.077742 810,779.665117 L810,615.023326 C810,611.6107 812.686292,608.844221 816,608.844221 L816,608.844221 C819.313708,608.844221 822,611.6107 822,615.023326 L822,779.665117 C822,783.077742 819.313708,785.844221 816,785.844221 Z" id="Path" stroke="#73002A" stroke-width="0.52"></path>
            <ellipse id="Oval" fill="#343947" fill-rule="nonzero" cx="536" cy="814.344221" rx="42" ry="52.5"></ellipse>
            <path d="M535.477889,839.844221 C528.18117,839.844221 520,828.723605 520,813.82198 C520,798.920355 528.18117,787.844221 535.477889,787.844221 C542.774608,787.844221 551,798.964837 551,813.82198 C551,828.679123 542.81883,839.844221 535.477889,839.844221 Z" id="Path" stroke="#636363" stroke-width="0.76"></path>
            <ellipse id="Oval" fill="#343947" fill-rule="nonzero" cx="778" cy="814.344221" rx="42" ry="52.5"></ellipse>
            <path d="M777.522111,839.844221 C770.18117,839.844221 762,828.723605 762,813.82198 C762,798.920355 770.18117,787.844221 777.522111,787.844221 C784.863053,787.844221 793,798.964837 793,813.82198 C793,828.679123 784.81883,839.844221 777.522111,839.844221 Z" id="Path" stroke="#636363" stroke-width="0.76"></path>
            <path d="M235,737.844221 L308,737.844221" id="Path" stroke="#804E00" stroke-width="0.52"></path>
            <path d="M317,737.844221 L377,737.844221" id="Path" stroke="#804E00" stroke-width="0.52"></path>
            <rect id="Rectangle" fill="#FFA600" fill-rule="nonzero" x="1101" y="763.844221" width="143" height="99"></rect>
            <rect id="Rectangle" fill="#FF005D" fill-rule="nonzero" x="1186" y="763.844221" width="23" height="99"></rect>
            <rect id="Rectangle" fill="url(#linearGradient-8)" fill-rule="nonzero" opacity="0.6" style="mix-blend-mode: multiply;" x="1101" y="763.844221" width="50" height="99"></rect>
            <rect id="Rectangle" fill="url(#linearGradient-9)" fill-rule="nonzero" opacity="0.6" style="mix-blend-mode: multiply;" x="1101" y="797.844221" width="143" height="10"></rect>
            <rect id="Rectangle" fill="#FFFFFF" fill-rule="nonzero" x="1029" y="664.844221" width="143" height="99"></rect>
            <rect id="Rectangle" fill="#FFA600" fill-rule="nonzero" x="1115" y="664.844221" width="23" height="99"></rect>
            <rect id="Rectangle" fill="url(#linearGradient-10)" fill-rule="nonzero" opacity="0.6" style="mix-blend-mode: multiply;" x="1029" y="664.844221" width="50" height="99"></rect>
            <rect id="Rectangle" fill="url(#linearGradient-11)" fill-rule="nonzero" opacity="0.6" style="mix-blend-mode: multiply;" x="1029" y="663.844221" width="143" height="34"></rect>
            <path d="M1181.29031,688.839763 L1096.66461,688.839763 C1094.09086,688.838943 1091.73329,687.372539 1090.55575,685.040074 L1080,663.844221 L1173.11521,663.844221 L1183.71588,685.040074 C1184.13685,685.873167 1184.08718,686.872343 1183.58577,687.657814 C1183.08435,688.443285 1182.20819,688.894428 1181.29031,688.839763 L1181.29031,688.839763 Z" id="Path" fill="#FFFFFF" fill-rule="nonzero"></path>
            <path d="M1020.29816,688.844221 L1063.86698,688.844221 C1065.53811,688.847682 1067.07124,687.893569 1067.83996,686.371599 L1079,663.844221 L1028.95836,663.844221 L1018.24472,685.455852 C1017.88633,686.183261 1017.92363,687.049695 1018.34313,687.741874 C1018.76262,688.434053 1019.50361,688.851818 1020.29816,688.844221 L1020.29816,688.844221 Z" id="Path" fill="#FFFFFF" fill-rule="nonzero"></path>
            <rect id="Rectangle" fill="#FFA600" fill-rule="nonzero" x="994" y="763.844221" width="143" height="99"></rect>
            <rect id="Rectangle" fill="#FF005D" fill-rule="nonzero" x="1080" y="763.844221" width="23" height="99"></rect>
            <rect id="Rectangle" fill="url(#linearGradient-12)" fill-rule="nonzero" opacity="0.6" style="mix-blend-mode: multiply;" x="994" y="763.844221" width="50" height="99"></rect>
            <rect id="Rectangle" fill="url(#linearGradient-9)" fill-rule="nonzero" opacity="0.6" style="mix-blend-mode: multiply;" x="994" y="797.844221" width="143" height="10"></rect>
            <polygon id="Path" fill="#5A9E70" fill-rule="nonzero" points="971 645.844221 911 633.861228 911 619.844221 971 631.827214"></polygon>
            <polygon id="Path" fill="url(#linearGradient-13)" fill-rule="nonzero" opacity="0.6" style="mix-blend-mode: multiply;" points="952 641.958365 971 645.844221 971 631.685412 952 627.844221"></polygon>
            <circle id="Oval" fill="#343947" fill-rule="nonzero" cx="978.5" cy="883.344221" r="12.5"></circle>
            <path d="M997,882.844221 L985.435,882.844221 C985.435,879.240563 982.513658,876.319221 978.91,876.319221 C975.306342,876.319221 972.385,879.240563 972.385,882.844221 L961,882.844221 C961,872.903096 969.058875,864.844221 979,864.844221 C988.941125,864.844221 997,872.903096 997,882.844221 Z" id="Path" fill="#343947" fill-rule="nonzero"></path>
            <circle id="Oval" fill="#343947" fill-rule="nonzero" cx="1177.5" cy="883.344221" r="12.5"></circle>
            <path d="M1196,882.844221 L1184.49254,882.844221 C1184.49254,879.240563 1181.58573,876.319221 1178,876.319221 C1174.41427,876.319221 1171.50746,879.240563 1171.50746,882.844221 L1160,882.844221 C1160,872.903096 1168.01878,864.844221 1177.91045,864.844221 C1187.80211,864.844221 1195.8209,872.903096 1195.8209,882.844221 L1196,882.844221 Z" id="Path" fill="#343947" fill-rule="nonzero"></path>
            <path d="M1245.00118,876.844221 L951.998822,876.844221 C950.134858,876.844221 948.347884,876.105342 947.03408,874.791289 C945.720276,873.477237 944.988196,871.696625 945,869.844221 L945,869.844221 C945,865.995573 948.126313,862.868735 951.998822,862.844221 L1245.00118,862.844221 C1248.87369,862.868735 1252,865.995573 1252,869.844221 L1252,869.844221 C1252.0118,871.696625 1251.27972,873.477237 1249.96592,874.791289 C1248.65212,876.105342 1246.86514,876.844221 1245.00118,876.844221 Z" id="Path" fill="#5A9E70" fill-rule="nonzero"></path>
            <circle id="Oval" fill="#FFFFFF" fill-rule="nonzero" cx="1019.5" cy="883.344221" r="12.5"></circle>
            <path d="M1038,882.844221 L1026.49254,882.844221 C1026.49254,879.240563 1023.58573,876.319221 1020,876.319221 C1016.41427,876.319221 1013.50746,879.240563 1013.50746,882.844221 L1002,882.844221 C1002,872.903096 1010.01878,864.844221 1019.91045,864.844221 C1029.80211,864.844221 1037.8209,872.903096 1037.8209,882.844221 L1038,882.844221 Z" id="Path" fill="#343947" fill-rule="nonzero"></path>
            <path d="M1231,883.298421 C1231.01838,888.358237 1227.98464,892.930107 1223.31527,894.879224 C1218.6459,896.828341 1213.26204,895.770199 1209.67765,892.198892 C1206.09327,888.627585 1205.01545,883.247629 1206.94748,878.571163 C1208.87951,873.894698 1213.44025,870.844221 1218.5001,870.844221 C1225.38578,870.844221 1230.97479,876.412784 1231,883.298421 L1231,883.298421 Z" id="Path" fill="#FFFFFF" fill-rule="nonzero"></path>
            <path d="M1237,882.844221 L1225.46211,882.844221 C1225.18227,879.483172 1222.37268,876.897791 1219,876.897791 C1215.62732,876.897791 1212.81773,879.483172 1212.53789,882.844221 L1201,882.844221 C1201,872.903096 1209.05887,864.844221 1219,864.844221 C1228.94113,864.844221 1237,872.903096 1237,882.844221 L1237,882.844221 Z" id="Path" fill="#343947" fill-rule="nonzero"></path>
            <path d="M977,862.844221 L977,613.339438 C976.708038,609.67136 973.661185,606.844221 970,606.844221 C966.338815,606.844221 963.291962,609.67136 963,613.339438 L963,862.844221 L977,862.844221 Z" id="Path" fill="#5A9E70" fill-rule="nonzero"></path>
            <path d="M845.519353,604.106196 C839.990792,602.541587 836.176331,597.468651 836.189222,591.697848 L836.189222,591.697848 C836.192652,589.467045 834.719528,587.505938 832.583375,586.897539 C831.635829,586.716737 830.659325,587.001546 829.955422,587.664012 C829.251519,588.326478 828.904897,589.286905 829.022601,590.248698 L829.022601,610.808515 C829.00215,615.166188 831.879086,619.001688 836.054003,620.182705 L923,637.844221 L923,619.729845 L845.519353,604.106196 Z" id="Path" fill="#636363" fill-rule="nonzero"></path>
            <polygon id="Path" fill="url(#linearGradient-14)" fill-rule="nonzero" opacity="0.6" style="mix-blend-mode: multiply;" points="963 825.879935 963 862.844221 977 862.844221 977 807.844221"></polygon>
            <path d="M994,763.844221 L1244,763.844221" id="Path" stroke="#343947" stroke-width="0.24"></path>
            <path d="M1138,763.844221 L1138,851.844221" id="Path" stroke="#343947" stroke-width="0.24"></path>
            <path d="M840.238468,869.888989 L843.551866,918.372128 C843.742188,920.821553 842.840907,923.229992 841.089205,924.952942 L833.925101,932.115733 C831.599069,934.422531 828.636466,935.98151 825.417728,936.592477 C818.970034,937.801198 808.134327,940.755849 808,946.844221 L865.178504,946.844221 C866.779655,946.839488 868.274653,946.042662 869.171073,944.716204 C870.067493,943.389746 870.249097,941.705654 869.656069,940.21864 L862.044209,920.834337 L863.297927,869.844221 L840.238468,869.888989 Z" id="Path" fill="#FF9C87" fill-rule="nonzero"></path>
            <path d="M916.828548,869.888989 L927.667849,917.208175 C928.388018,920.341805 927.439784,923.625069 925.159581,925.893058 L918.933701,932.115733 C916.606898,934.422531 913.643312,935.98151 910.423506,936.592477 C903.928883,937.801198 893.134372,940.755849 893,946.844221 L950.197472,946.844221 C951.790714,946.818235 953.271012,946.016767 954.163119,944.697128 C955.055226,943.37749 955.24687,941.705758 954.676523,940.21864 L947.062137,920.834337 L939.850866,869.844221 L916.828548,869.888989 Z" id="Path" fill="#FF9C87" fill-rule="nonzero"></path>
            <path d="M856.630568,630.844221 C856.630568,630.844221 827.533044,756.419889 833.914863,874.844221 L870.777678,874.844221 C870.777678,874.844221 871.134703,834.724774 867.832223,800.587263 C867.832223,800.587263 887.825614,710.633346 892.466937,694.171779 C897.10826,677.710212 908.666939,656.840903 903.847104,630.844221 L856.630568,630.844221 Z" id="Path" fill="#636363" fill-rule="nonzero"></path>
            <path d="M898,676.844221 L898,676.844221 L834.323946,793.228801 C832.722778,820.072548 832.573817,846.984167 833.877723,873.844221 L870.735761,873.844221 C870.735761,873.844221 871.09274,833.761192 867.790688,799.654668 C867.790688,799.654668 887.781488,709.782405 892.42221,693.335781 C893.850124,688.213062 895.947373,682.77579 898,676.844221 Z" id="Path" fill="url(#linearGradient-15)" fill-rule="nonzero" opacity="0.3" style="mix-blend-mode: multiply;"></path>
            <path d="M879.006459,630.844221 C879.006459,630.844221 877.740522,758.957796 910.654872,879.844221 L948,879.844221 C948,879.844221 939.364504,838.860446 928.377984,804.026482 C928.377984,804.026482 928.377984,712.36288 929.463072,695.484567 C930.548161,678.606255 937.556024,657.373696 926.840775,630.844221 L879.006459,630.844221 Z" id="Path" fill="#636363" fill-rule="nonzero"></path>
            <path d="M919.155925,630.844221 C919.155925,630.844221 924.278586,668.837916 921.900208,686.197491 C919.52183,703.557066 916,802.825125 916,802.825125 C916,802.825125 933.288981,857.326116 938,879.844221" id="Path" stroke="#BABABA" stroke-width="0.27"></path>
            <path d="M899.219011,630.844221 C899.219011,630.844221 895.159032,659.484628 922,665.844221" id="Path" stroke="#BABABA" stroke-width="0.27"></path>
            <path d="M954.691852,940.177554 L950.205172,928.295468 C941.895144,932.826675 931.773444,932.26607 924.00296,926.844221 L918.977878,931.923586 C916.647111,934.260478 913.678477,935.839796 910.453186,936.458734 C903.9475,937.683223 893.1346,940.676421 893,946.844221 L950.294906,946.844221 C951.863374,946.784071 953.307967,945.966611 954.178622,944.64652 C955.049278,943.326429 955.24018,941.664146 954.691852,940.177554 L954.691852,940.177554 Z" id="Path" fill="#343947" fill-rule="nonzero"></path>
            <path d="M869.704025,940.42231 L865.479569,929.837228 C856.587104,932.788986 846.861171,932.070124 838.514955,927.844221 L834.020853,932.273126 C831.68623,934.555272 828.712685,936.097592 825.482058,936.70203 C819.010551,937.897834 808.134823,940.820911 808,946.844221 L865.389687,946.844221 C866.930043,946.768019 868.341965,945.974896 869.193379,944.707562 C870.044793,943.440229 870.234344,941.849552 869.704025,940.42231 Z" id="Path" fill="#343947" fill-rule="nonzero"></path>
            <path d="M926.3037,630.844221 L856.0381,630.844221 C856.0381,630.844221 853.443954,642.096483 850,660.895442 C878.535616,669.933403 914.048592,656.060133 931,647.925968 C930.061927,642.074694 928.486941,636.346033 926.3037,630.844221 Z" id="Path" fill="url(#linearGradient-16)" fill-rule="nonzero" opacity="0.3" style="mix-blend-mode: multiply;"></path>
            <path d="M880,646.844221 C880,646.844221 881.44,695.167574 884,721.844221" id="Path" stroke="#BABABA" stroke-width="0.27"></path>
            <polygon id="Path" fill="#FF9C87" fill-rule="nonzero" points="878.398804 518.844221 843 554.283162 858.433699 571.844221 888 535.862154"></polygon>
            <path d="M862.553879,437.844221 C859.007782,441.246317 857,445.969302 857,450.908833 C857,455.848364 859.007782,460.571348 862.553879,463.973445 C872.501756,475.596444 864.070596,490.508122 860.992554,495.508714 C857.914511,500.509307 852.918268,513.844221 865.230438,513.844221 L902.211557,513.844221 C902.211557,513.844221 914.122243,477.803913 903.772883,459.783759 C893.423523,441.763605 862.553879,437.844221 862.553879,437.844221 Z" id="Path" fill="#343947" fill-rule="nonzero"></path>
            <path d="M866.436959,450.844221 C866.436959,450.844221 865.272134,465.371355 859,467.588893 C860.030422,470.168477 863.748901,470.57578 863.748901,470.57578 C863.748901,470.57578 864.644921,483.518959 867.736187,487.048917 C870.827453,490.578875 880.683663,488.316081 883.909332,491.302969 C887.135001,494.289856 886.866196,507.414058 886.866196,507.414058 C893.103158,509.320942 899.759242,509.320942 905.996204,507.414058 C905.996204,482.568586 907.20583,450.844221 866.436959,450.844221 Z" id="Path" fill="#FF9C87" fill-rule="nonzero"></path>
            <path d="M902.409091,471.844221 C902.189098,472.029033 901.990906,472.237173 901.818182,472.464788 C893.772727,483.369044 876.409091,488.865498 870,488.023299 C874.227273,489.397413 881.318182,488.466562 883.954545,490.815852 C885.314877,492.56116 886.120824,494.657002 886.272727,496.844221 L906,489.619044 C905.675113,483.557822 904.465984,477.572695 902.409091,471.844221 L902.409091,471.844221 Z" id="Path" fill="url(#linearGradient-17)" fill-rule="nonzero" opacity="0.3" style="mix-blend-mode: multiply;"></path>
            <path d="M886.950518,506.844221 C886.950518,506.844221 866.64283,533.798622 865.032529,550.195882 C863.243305,568.47995 869.952894,577.509674 853,634.113915 C853,634.113915 882.701112,647.007103 933.515063,634.113915 C928.133379,617.098287 927.575786,598.913724 931.904762,581.597758 C936.377821,560.753022 937.630277,525.981845 924.300561,506.844221 L886.950518,506.844221 Z" id="Path" fill="#FF005D" fill-rule="nonzero"></path>
            <path d="M933,634.14319 C923.544747,602.857045 863.931629,574.788903 863.796554,560.844221 L863.796554,560.844221 C864.066704,574.252569 865.687604,589.001752 852,634.14319 C852,634.14319 881.896609,646.97051 933,634.14319 Z" id="Path" fill="url(#linearGradient-18)" fill-rule="nonzero" opacity="0.6" style="mix-blend-mode: multiply;"></path>
            <rect id="Rectangle" fill="#FFFFFF" fill-rule="nonzero" x="747" y="546.844221" width="115" height="81"></rect>
            <rect id="Rectangle" fill="url(#linearGradient-19)" fill-rule="nonzero" opacity="0.3" style="mix-blend-mode: multiply;" x="747" y="546.844221" width="35" height="81"></rect>
            <rect id="Rectangle" fill="#FFA600" fill-rule="nonzero" x="814" y="546.844221" width="16" height="81"></rect>
            <polygon id="Path" fill="url(#linearGradient-20)" fill-rule="nonzero" opacity="0.3" style="mix-blend-mode: multiply;" points="780 627.844221 862 573.844221 862 627.799184"></polygon>
            <path d="M863,437.758924 C863.343355,442.311166 864.462472,446.769412 866.30806,450.937308 C869.526712,458.519391 886.424639,464.205954 892.012577,471.336723 C898.136958,479.144464 897.555812,490.021144 897.958144,498.686382 C898.360475,507.351621 897.198184,512.225817 906.898846,513.399235 C914.63631,513.99255 922.407205,513.99255 930.14467,513.399235 C936.492568,513.399235 937.833674,506.40386 933.408026,496.520073 C928.426705,485.816984 925.614899,474.216579 925.137877,462.400696 C924.735546,442.994172 915.928954,425.844221 896.304114,425.844221 C869.392602,425.844221 863,437.758924 863,437.758924 Z" id="Path" fill="#343947" fill-rule="nonzero"></path>
            <path d="M814.816119,637.436301 C838.458598,634.84153 861.85133,630.322591 884.762827,623.924202 C895.752011,620.743149 904.534721,612.44087 908.34794,601.629239 L931.124421,537.086447 C932.500821,533.188251 932.246263,528.897659 930.418643,525.19054 C928.591023,521.483422 925.34571,518.674924 921.420831,517.403823 L921.420831,517.403823 C915.324552,515.460746 908.793071,518.734941 906.685751,524.790437 L879.731336,603.02549 L810.772957,626.851824 C810.772957,626.851824 794.420612,619.690411 792.354107,620.230895 C790.287602,620.771379 798.284078,627.977832 798.284078,627.977832 L780,627.977832 C780,627.977832 786.019819,646.264206 814.816119,637.436301 Z" id="Path" fill="#FF9C87" fill-rule="nonzero"></path>
            <path d="M862,562.844221 L747,562.844221" id="Path" stroke="#343947" stroke-width="0.26"></path>
            <path d="M782,551.844221 L782,618.844221" id="Path" stroke="#343947" stroke-width="0.26"></path>
            <path d="M667.637593,916.844221 L689.076607,916.844221 C690.271746,921.159849 693.297623,924.701316 697.322381,926.495022 C702.89385,928.634587 725.714588,931.365946 732.444922,941.016747 C733.16164,942.206692 733.185923,943.701128 732.508261,944.914708 C731.830598,946.128287 730.558867,946.867821 729.191184,946.843646 L668.217026,946.843646 C666.928517,946.852203 665.707818,946.254739 664.907128,945.223636 C664.106438,944.192532 663.814825,942.842488 664.116425,941.563019 C666.109,933.466927 667.288814,925.184568 667.637593,916.844221 Z" id="Path" fill="#343947" fill-rule="nonzero"></path>
            <path d="M553.921845,914.844221 L576.149204,914.844221 C576.149204,914.844221 572.459643,923.922073 579.028862,926.55465 C584.608199,928.687945 607.645463,931.4113 614.439656,941.033823 C615.163173,942.220281 615.187687,943.710338 614.503595,944.920362 C613.819503,946.130385 612.535705,946.867752 611.155046,946.843648 L552.347032,946.843648 C550.564717,946.841178 548.90046,945.944232 547.907647,944.451058 C546.914834,942.957883 546.723633,941.064247 547.39762,939.399809 C550.891584,931.630572 553.095713,923.334768 553.921845,914.844221 L553.921845,914.844221 Z" id="Path" fill="#343947" fill-rule="nonzero"></path>
            <path d="M676.941324,619.844221 L703.145226,783.061462 C704.033411,788.423942 704.230438,793.87706 703.731544,799.289049 L691.914982,918.844221 L663.004998,918.844221 C659.911602,909.631604 658.002211,900.067295 657.322224,890.378704 C658.640626,878.218601 657.583948,865.919861 654.210229,854.158014 C649.33928,838.109738 653.488607,821.075256 654.931851,811.213187 C656.375095,801.351118 657.232021,783.554566 657.232021,783.554566 C657.232021,783.554566 632.381161,689.416635 629.675078,677.582152 C626.968996,665.747669 618.399733,627.330428 626.202272,619.844221 L676.941324,619.844221 Z" id="Path" fill="#276F85" fill-rule="nonzero"></path>
            <path d="M629.457679,676.866948 C632.141783,688.781474 656.790807,783.15351 656.790807,783.15351 C656.790807,783.15351 655.985575,801.137699 654.509318,810.894122 C653.033061,820.650545 648.962169,837.870407 653.793557,853.966257 C657.139875,865.76297 658.187971,878.098169 656.880277,890.29432 C657.554741,900.011632 659.448624,909.604294 662.516896,918.844221 L691.102606,918.844221 L702.733724,799.114478 C703.228566,793.686446 703.03314,788.217162 702.152168,782.838786 L698.841773,761.797284 L624,645.844221 C625.252582,658.02851 628.070891,670.842245 629.457679,676.866948 Z" id="Path" fill="url(#linearGradient-21)" fill-rule="nonzero" opacity="0.3" style="mix-blend-mode: multiply;"></path>
            <path d="M634,676.844221 L670.876467,771.561342 C674.457783,780.837865 676.192086,790.716761 675.983134,800.649823 L673.226437,918.844221" id="Path" stroke="#1A4B59" stroke-width="0.27"></path>
            <path d="M645,619.844221 L626.99155,782.129504 C626.374372,787.643136 625.089434,793.062146 623.164755,798.268372 L579.089073,916.844221 L550.185511,916.844221 C549.629181,907.36532 550.325459,897.854714 552.256483,888.556372 C555.362941,878.290259 559.504884,868.517278 558.964631,852.692221 C558.424377,836.867165 567.248518,819.786863 571.34544,810.058712 C575.442362,800.330561 581.160045,782.532976 581.160045,782.532976 C581.160045,782.532976 581.835362,689.106863 582.375616,677.271693 C582.915869,665.436523 584.761735,627.375693 594.57634,619.933881 L645,619.844221 Z" id="Path" fill="#276F85" fill-rule="nonzero"></path>
            <path d="M600,621.844221 C600,621.844221 588.36689,678.032558 593.378076,773.386548 C593.678721,778.50443 592.853849,783.62603 590.961969,788.38807 C583.266219,807.387004 562.818792,862.632132 560,916.844221" id="Path" stroke="#1A4B59" stroke-width="0.27"></path>
            <path d="M609,623.844221 C609,623.844221 609,649.998067 595,653.844221" id="Path" stroke="#1A4B59" stroke-width="0.27"></path>
            <path d="M655.873709,623.844221 C655.873709,623.844221 658.481205,657.483565 640,659.844221" id="Path" stroke="#1A4B59" stroke-width="0.27"></path>
            <path d="M643,628.844221 L636,694.844221" id="Path" stroke="#1A4B59" stroke-width="0.27"></path>
            <path d="M676.197691,618.844221 L593.844156,618.844221 C590.290147,622.633726 587.909064,627.414033 587,632.584679 L680,642.844221 L676.197691,618.844221 Z" id="Path" fill="url(#linearGradient-22)" fill-rule="nonzero" opacity="0.6" style="mix-blend-mode: multiply;"></path>
            <path d="M578,562.369884 C578,562.369884 567.642602,587.228365 555.75411,600.799752 C543.865618,614.371139 490.907791,629.196647 490.907791,629.196647 C490.907791,629.196647 456.818442,637.930708 454.566833,633.675652 C453.333177,631.726605 452.463607,629.571955 452,627.315465 L464.428878,626.912354 L475.101501,620.193846 L465.779843,617.730393 L467.130808,614.460719 C467.130808,614.460719 482.441744,610.967094 489.646891,617.954343 L539.857756,588.482486 L556.204432,551.844221 L578,562.369884 Z" id="Path" fill="#FF9C87" fill-rule="nonzero"></path>
            <path d="M578,562.046114 L556.209732,551.844221 L551,563.282707 L569.120805,579.844221 C574.647651,570.304789 578,562.046114 578,562.046114 Z" id="Path" fill="url(#linearGradient-23)" fill-rule="nonzero" opacity="0.6" style="mix-blend-mode: multiply;"></path>
            <path d="M692.854497,500.844221 C692.854497,500.844221 699.73545,507.057192 709,526.768849 L689.661376,551.844221 L675,533.965168 L692.854497,500.844221 Z" id="Path" fill="#38A2C2" fill-rule="nonzero"></path>
            <path d="M661.401786,435.933857 C660.658215,442.749426 664.608225,449.204892 671,451.620131 L664.348214,454.354025 L664.973214,468.785398 C665.058796,470.550728 664.419475,472.27405 663.204484,473.5531 C661.989492,474.832149 660.305157,475.554994 658.544643,475.552905 L654.080357,475.552905 C653.153467,475.545602 652.268558,475.940362 651.652747,476.635866 C651.036936,477.331371 650.750178,478.259905 650.866071,479.183157 L653.098214,499.844221 L621,499.844221 L621,474.387638 L621.535714,435.844221 L661.401786,435.933857 Z" id="Path" fill="#FF9C87" fill-rule="nonzero"></path>
            <path d="M650.72067,479.643666 C650.604648,478.713033 650.891726,477.777075 651.508225,477.07601 C652.124724,476.374945 653.010622,475.977029 653.938547,475.98439 L658.407821,475.98439 C659.303988,475.982737 660.188871,475.782255 661,475.397098 C650.973481,472.949434 641.594302,468.324726 633.513966,461.844221 C629.589606,463.631091 625.297385,464.436841 621,464.193386 L621,474.990512 C640.843575,495.997471 651.569832,486.871867 651.569832,486.871867 L650.72067,479.643666 Z" id="Path" fill="url(#linearGradient-24)" fill-rule="nonzero" opacity="0.2" style="mix-blend-mode: multiply;"></path>
            <path d="M660.122771,491.2727 L657.199352,485.844221 L640.693274,490.330567 L637.5,500.335118 L634.26175,490.330567 L617.800648,485.844221 L614.877229,491.2727 C603.636617,493.121635 592.618585,496.128623 582,500.245391 C586.002836,530.752543 588.746353,604.238889 589.286062,620.569188 C589.358548,622.39951 590.867882,623.845648 592.704214,623.844221 L672.581037,623.844221 C676.727818,623.839808 680.192884,620.694079 680.58671,616.57634 C682.745543,594.638108 689.267018,528.688824 693,500.245391 C682.378595,496.137148 671.361459,493.130405 660.122771,491.2727 L660.122771,491.2727 Z" id="Path" fill="#38A2C2" fill-rule="nonzero"></path>
            <polyline id="Path" stroke="#343947" stroke-width="0.69" points="631 493.844221 626.655172 504.844221 617 494.823035"></polyline>
            <polyline id="Path" stroke="#343947" stroke-width="0.69" points="644 493.844221 648.358491 504.844221 658 494.823035"></polyline>
            <path d="M581.838676,500.844221 C572.945191,504.12457 550,555.576615 550,555.576615 L578.859359,567.844221 L593,540.88245 L581.838676,500.844221 Z" id="Path" fill="#38A2C2" fill-rule="nonzero"></path>
            <path d="M657.229834,485.844221 L640.717065,490.364345 L637.522497,500.444221 L634.282935,490.364345 L617.81516,485.844221 L614.890555,491.313571 C603.645388,493.176428 592.622889,496.206055 582,500.353819 C583.799757,514.140196 585.32955,536.514809 586.499392,558.844221 L686.475882,558.844221 C688.770572,536.695614 691.200243,514.140196 693,500.353819 C682.37429,496.214644 671.352688,493.185264 660.109445,491.313571 L657.229834,485.844221 Z" id="Path" fill="#276F85" fill-rule="nonzero"></path>
            <polygon id="Path" fill="#000000" fill-rule="nonzero" opacity="0.4" points="718.920442 603.844221 656 603.844221 674.079558 511.844221 737 511.844221"></polygon>
            <polygon id="Path" fill="#FFFFFF" fill-rule="nonzero" points="723.885699 598.844221 661 598.844221 679.114301 506.844221 742 506.844221"></polygon>
            <path d="M727.019851,531.661488 C730.363794,534.264399 732.903979,537.768447 734.344913,541.766018 C731.753925,539.429426 728.941483,537.353695 725.947891,535.568573 L723,545.313831 L726.483871,550.164005 C726.483871,550.164005 727.868486,557.933266 733.049628,557.843448 C738.230769,557.75363 740.64268,549.984369 741,545.313831 C740.566969,540.492298 739.265392,535.790153 737.158809,531.436943 L736.354839,536.15239 C734.203923,532.836324 731.38986,530.006888 728.091811,527.844221 L727.019851,531.661488 Z" id="Path" fill="#FF9C87" fill-rule="nonzero"></path>
            <path d="M637,500.844221 L637,624.844221" id="Path" stroke="#343947" stroke-width="0.26"></path>
            <polyline id="Path" stroke="#343947" stroke-width="0.26" points="634 490.844221 629.50348 503.844221 615 491.93513"></polyline>
            <polyline id="Path" stroke="#343947" stroke-width="0.26" points="641 490.844221 645.486111 503.844221 660 491.93513"></polyline>
            <path d="M627.545437,458.821999 C625.67256,455.266443 628.883207,448.021999 632.584368,448.021999 C636.28553,448.021999 637.0436,453.577554 637.0436,453.755332 C640.290124,447.477284 642.63199,440.774226 644,433.844221 L612.116498,433.844221 C612.116498,433.844221 608.549113,452.73311 614.167744,464.955332 C615.751153,468.171631 617.760918,471.161334 620.143114,473.844221 C625.13424,470.354964 629.429007,465.968933 632.80733,460.910888 C631.832774,461.339467 630.726269,461.359593 629.736672,460.966739 C628.747076,460.573885 627.957469,459.801032 627.545437,458.821999 L627.545437,458.821999 Z" id="Path" fill="#343947" fill-rule="nonzero"></path>
            <path d="M661.197605,436.484509 L644.472198,436.484509 C644.739093,435.448538 644.828058,434.844221 644.828058,434.844221 L613.023097,434.844221 C612.511799,437.830929 612.17025,440.842676 612,443.865804 L664,446.844221 C661.913291,443.785728 660.927962,440.143231 661.197605,436.484509 L661.197605,436.484509 Z" id="Path" fill="url(#linearGradient-25)" fill-rule="nonzero" opacity="0.6" style="mix-blend-mode: multiply;"></path>
            <path d="M610,438.844221 L682,438.844221 C682,438.844221 682,431.695384 662.47,431.695384 C662.47,431.695384 654.73,409.844221 638.485,409.844221 C617.56,409.844221 610,423.602361 610,438.844221 Z" id="Path" fill="#FF005D" fill-rule="nonzero"></path>
            <path d="M502,946.844221 L758,946.844221" id="Path" stroke="#343947" stroke-width="0.5"></path>
            <path d="M786,946.844221 L997,946.844221" id="Path" stroke="#343947" stroke-width="0.5"></path>
            <path d="M961,895.844221 L1250,895.844221" id="Path" stroke="#343947" stroke-width="0.5"></path>
        </g>
    </g>
</svg>