<svg xmlns="http://www.w3.org/2000/svg" width="278.487" height="249.995" viewBox="0 0 303 272">
  <defs>
    <style>
      .cls-1 {
        opacity: 0.3;
      }

      .cls-2 {
        fill: #31ff9f;
      }

      .cls-2, .cls-3 {
        fill-rule: evenodd;
      }

      .cls-3 {
        fill: #3effc5;
      }
    </style>
  </defs>
  <g id="_-e-Icon" data-name="-e-Icon" class="cls-1">
    <g id="_Group_">
      <path id="Path" class="cls-2" d="M1182.37,1481H904.625A12.635,12.635,0,0,1,892,1468.35v-246.7A12.635,12.635,0,0,1,904.625,1209H1182.37a12.635,12.635,0,0,1,12.63,12.65v50.61a3.155,3.155,0,1,1-6.31,0v-50.61a6.321,6.321,0,0,0-6.32-6.32H904.625a6.317,6.317,0,0,0-6.313,6.32v246.7a6.317,6.317,0,0,0,6.313,6.32H1182.37a6.321,6.321,0,0,0,6.32-6.32V1291.23a3.155,3.155,0,1,1,6.31,0v177.12A12.635,12.635,0,0,1,1182.37,1481Z" transform="translate(-892 -1209)"/>
      <path id="Path-2" data-name="Path" class="cls-2" d="M1179.22,1246.95H907.781a3.16,3.16,0,0,1,0-6.32H1179.22A3.16,3.16,0,0,1,1179.22,1246.95Z" transform="translate(-892 -1209)"/>
    </g>
    <path id="Path-3" data-name="Path" class="cls-3" d="M917.75,1231h-6.5a3.01,3.01,0,1,1,0-6h6.5A3.01,3.01,0,1,1,917.75,1231Z" transform="translate(-892 -1209)"/>
    <path id="Path-4" data-name="Path" class="cls-3" d="M939.75,1231h-6.5a3.01,3.01,0,1,1,0-6h6.5A3.01,3.01,0,1,1,939.75,1231Z" transform="translate(-892 -1209)"/>
    <path id="Path-5" data-name="Path" class="cls-3" d="M1172.84,1231H964.162a3,3,0,1,1,0-6H1172.84A3,3,0,1,1,1172.84,1231Z" transform="translate(-892 -1209)"/>
    <path id="Path-6" data-name="Path" class="cls-3" d="M980.591,1380H930.409a9.474,9.474,0,0,1-9.409-9.54,3.137,3.137,0,1,1,6.273,0,3.156,3.156,0,0,0,3.136,3.18h50.182a3.156,3.156,0,0,0,3.136-3.18v-69.92a3.156,3.156,0,0,0-3.136-3.18H930.409a3.156,3.156,0,0,0-3.136,3.18v54.03a3.137,3.137,0,1,1-6.273,0v-54.03a9.474,9.474,0,0,1,9.409-9.54h50.182a9.475,9.475,0,0,1,9.409,9.54v69.92a9.475,9.475,0,0,1-9.409,9.54h0Z" transform="translate(-892 -1209)"/>
    <path id="Shape" class="cls-3" d="M1156.59,1380h-50.18a9.473,9.473,0,0,1-9.41-9.54v-69.92a9.473,9.473,0,0,1,9.41-9.54h50.18a9.473,9.473,0,0,1,9.41,9.54v69.92a9.473,9.473,0,0,1-9.41,9.54h0Zm-50.18-82.64a3.16,3.16,0,0,0-3.14,3.18v69.92a3.16,3.16,0,0,0,3.14,3.18h50.18a3.16,3.16,0,0,0,3.14-3.18v-69.92a3.16,3.16,0,0,0-3.14-3.18h-50.18Z" transform="translate(-892 -1209)"/>
    <path id="Shape-2" data-name="Shape" class="cls-3" d="M1068.59,1380h-50.18a9.473,9.473,0,0,1-9.41-9.54v-69.92a9.473,9.473,0,0,1,9.41-9.54h50.18a9.473,9.473,0,0,1,9.41,9.54v69.92a9.473,9.473,0,0,1-9.41,9.54h0Zm-50.18-82.64a3.16,3.16,0,0,0-3.14,3.18v69.92a3.16,3.16,0,0,0,3.14,3.18h50.18a3.16,3.16,0,0,0,3.14-3.18v-69.92a3.16,3.16,0,0,0-3.14-3.18h-50.18Z" transform="translate(-892 -1209)"/>
    <g id="_Group_2">
      <path id="Shape-3" data-name="Shape" class="cls-3" d="M955.692,1424a12.5,12.5,0,1,1,12.616-12.5A12.56,12.56,0,0,1,955.692,1424Zm0-18.75A6.25,6.25,0,1,0,962,1411.5,6.281,6.281,0,0,0,955.692,1405.25Z" transform="translate(-892 -1209)"/>
      <path id="Shape-4" data-name="Shape" class="cls-3" d="M1044,1424a12.5,12.5,0,1,1,12.62-12.5A12.563,12.563,0,0,1,1044,1424Zm0-18.75a6.25,6.25,0,1,0,6.31,6.25A6.285,6.285,0,0,0,1044,1405.25Z" transform="translate(-892 -1209)"/>
      <path id="Shape-5" data-name="Shape" class="cls-3" d="M1132.31,1424a12.5,12.5,0,1,1,12.61-12.5A12.563,12.563,0,0,1,1132.31,1424Zm0-18.75a6.25,6.25,0,1,0,6.31,6.25A6.278,6.278,0,0,0,1132.31,1405.25Z" transform="translate(-892 -1209)"/>
      <path id="Path-7" data-name="Path" class="cls-3" d="M1034.54,1414.62H965.154a3.125,3.125,0,1,1,0-6.25h69.386A3.125,3.125,0,1,1,1034.54,1414.62Z" transform="translate(-892 -1209)"/>
      <path id="Path-8" data-name="Path" class="cls-3" d="M1122.85,1414.62h-69.39a3.125,3.125,0,1,1,0-6.25h69.39A3.125,3.125,0,1,1,1122.85,1414.62Z" transform="translate(-892 -1209)"/>
      <path id="Path-9" data-name="Path" class="cls-3" d="M946.231,1414.62H924.154a3.125,3.125,0,1,1,0-6.25h22.077A3.125,3.125,0,1,1,946.231,1414.62Z" transform="translate(-892 -1209)"/>
      <path id="Path-10" data-name="Path" class="cls-3" d="M1163.85,1414.62h-22.08a3.125,3.125,0,1,1,0-6.25h22.08A3.125,3.125,0,1,1,1163.85,1414.62Z" transform="translate(-892 -1209)"/>
    </g>
    <path id="Path-11" data-name="Path" class="cls-3" d="M1046.75,1329h-6.5a3.01,3.01,0,1,1,0-6h6.5A3.01,3.01,0,1,1,1046.75,1329Z" transform="translate(-892 -1209)"/>
    <path id="Path-12" data-name="Path" class="cls-3" d="M1052.87,1345h-18.75a3,3,0,1,1,0-6h18.75A3,3,0,1,1,1052.87,1345Z" transform="translate(-892 -1209)"/>
    <path id="Path-13" data-name="Path" class="cls-3" d="M1056.8,1361h-25.6a3.006,3.006,0,1,1,0-6h25.6A3.006,3.006,0,1,1,1056.8,1361Z" transform="translate(-892 -1209)"/>
  </g>
</svg>
