<svg xmlns="http://www.w3.org/2000/svg" width="23" height="18" viewBox="0 0 23 18">
  <defs>
    <style>
      .cls-1 {
        fill: #fff;
        fill-rule: evenodd;
      }
    </style>
  </defs>
  <path id="_-e-Infographic-2" data-name="-e-Infographic-2" class="cls-1" d="M1009.5,3384h0a2.5,2.5,0,0,1-2.5-2.5v-4a2.5,2.5,0,0,1,2.5-2.5h0a2.5,2.5,0,0,1,2.5,2.5v4a2.5,2.5,0,0,1-2.5,2.5h0Zm11.5-2.5v-7a2.5,2.5,0,0,0-2.5-2.5h0a2.5,2.5,0,0,0-2.5,2.5v7a2.5,2.5,0,0,0,2.5,2.5h0A2.5,2.5,0,0,0,1021,3381.5Zm9,0v-13a2.5,2.5,0,0,0-2.5-2.5h0a2.5,2.5,0,0,0-2.5,2.5v13a2.5,2.5,0,0,0,2.5,2.5h0A2.5,2.5,0,0,0,1030,3381.5Z" transform="translate(-1007 -3366)"/>
</svg>
