<svg id="_-e-Icon" data-name="-e-Icon" xmlns="http://www.w3.org/2000/svg" width="70" height="49" viewBox="0 0 70 49">
  <defs>
    <style>
      .cls-1 {
        fill: #0bd4ff;
        fill-rule: evenodd;
      }
    </style>
  </defs>
  <g id="Group">
    <path id="Path" class="cls-1" d="M807.006,632a1.1,1.1,0,0,1-.766-0.311l-12.878-12.338a1.159,1.159,0,0,1-.049-1.614,1.1,1.1,0,0,1,1.582-.05l12.878,12.338a1.159,1.159,0,0,1,.05,1.614A1.106,1.106,0,0,1,807.006,632Z" transform="translate(-750 -593.125)"/>
    <path id="Path-2" data-name="Path" class="cls-1" d="M764.019,632a1.108,1.108,0,0,1-.817-0.361,1.159,1.159,0,0,1,.049-1.614l12.882-12.338a1.1,1.1,0,0,1,1.583.05,1.16,1.16,0,0,1-.049,1.614L764.784,631.69A1.1,1.1,0,0,1,764.019,632Z" transform="translate(-750 -593.125)"/>
  </g>
  <path id="Shape" class="cls-1" d="M814.357,642.121H755.643A5.606,5.606,0,0,1,750,636.565V598.677a5.606,5.606,0,0,1,5.643-5.556h58.714A5.606,5.606,0,0,1,820,598.677v37.888A5.606,5.606,0,0,1,814.357,642.121Zm-58.714-46.778a3.364,3.364,0,0,0-3.386,3.334v37.888a3.364,3.364,0,0,0,3.386,3.333h58.714a3.364,3.364,0,0,0,3.386-3.333V598.677a3.364,3.364,0,0,0-3.386-3.334H755.643Z" transform="translate(-750 -593.125)"/>
  <path id="Path-3" data-name="Path" class="cls-1" d="M785.019,622.121a6.577,6.577,0,0,1-4.207-1.455l-29.419-24.619a1.07,1.07,0,0,1-.112-1.552,1.186,1.186,0,0,1,1.617-.105l29.42,24.616a4.427,4.427,0,0,0,5.4,0L817.1,594.429a1.181,1.181,0,0,1,1.618.106,1.069,1.069,0,0,1-.11,1.551l-29.382,24.578A6.572,6.572,0,0,1,785.019,622.121Z" transform="translate(-750 -593.125)"/>
</svg>
