<svg xmlns="http://www.w3.org/2000/svg" width="258" height="227" viewBox="0 0 258 227">
  <defs>
    <style>
      .cls-1 {
        opacity: 0.27;
      }

      .cls-2 {
        fill: #e8eff6;
        fill-rule: evenodd;
      }
    </style>
  </defs>
  <g id="Icon" class="cls-1">
    <path id="Path" class="cls-2" d="M1587.42,5918.12a69.713,69.713,0,0,0,19.58,2.91,60.761,60.761,0,0,0,24.55-5.11c-6.17,22.96-21,62.58-50.52,67.05a7.054,7.054,0,0,0-5.73,5.13l-6.45,23.46a7.248,7.248,0,0,0,.89,5.83,7.04,7.04,0,0,0,4.91,3.15,47.027,47.027,0,0,0,6.6.46c35.45,0,70.55-37.61,85.36-91.46,8.69-31.59,11.24-79.09-10.17-108.98-11.99-16.73-29.47-25.66-51.97-26.55a2.62,2.62,0,0,0-.28-0.01c-27.76,0-52.38,19.01-59.86,46.22a63.7,63.7,0,0,0,5.69,48.04A62.532,62.532,0,0,0,1587.42,5918.12Z" transform="translate(-1542 -5794)"/>
    <path id="Path-2" data-name="Path" class="cls-2" d="M1681.03,5888.26a62.484,62.484,0,0,0,37.39,29.86,69.766,69.766,0,0,0,19.58,2.91,60.761,60.761,0,0,0,24.55-5.11c-6.17,22.96-20.99,62.58-50.53,67.05a7.054,7.054,0,0,0-5.72,5.13l-6.45,23.46a7.209,7.209,0,0,0,.89,5.83,7,7,0,0,0,4.91,3.15,47.027,47.027,0,0,0,6.6.46c35.44,0,70.55-37.61,85.36-91.46,8.69-31.59,11.24-79.08-10.18-108.98-11.98-16.73-29.47-25.67-51.96-26.55a2.715,2.715,0,0,0-.28-0.01c-27.76,0-52.38,19.01-59.87,46.21A63.767,63.767,0,0,0,1681.03,5888.26Z" transform="translate(-1542 -5794)"/>
  </g>
</svg>
