<svg id="Icon" xmlns="http://www.w3.org/2000/svg" width="85" height="85" viewBox="0 0 85 85">
  <defs>
    <style>
      .cls-1 {
        fill: #fbe288;
        opacity: 0.25;
      }

      .cls-2 {
        fill: #ffe084;
        fill-rule: evenodd;
      }
    </style>
  </defs>
  <circle id="Oval" class="cls-1" cx="42.5" cy="42.5" r="42.5"/>
  <path id="_-e-Infographic-3" data-name="-e-Infographic-3" class="cls-2" d="M390.1,1492a12.108,12.108,0,0,1-2.422-23.97,1.393,1.393,0,1,1,.557,2.73,9.325,9.325,0,1,0,11,11.01,1.394,1.394,0,0,1,2.733.55A12.147,12.147,0,0,1,390.1,1492Zm1.9-23.85v8.74a1.11,1.11,0,0,0,1.106,1.11h8.78a1.107,1.107,0,0,0,1.106-1.24,11.058,11.058,0,0,0-9.743-9.75,1.105,1.105,0,0,0-.872.26,1.118,1.118,0,0,0-.377.83v0.05Z" transform="translate(-348 -1435)"/>
</svg>
