<svg id="Icon" xmlns="http://www.w3.org/2000/svg" width="82.718" height="74.997" viewBox="0 0 75 68">
  <defs>
    <style>
      .cls-1 {
        fill: #7cc0ff;
        fill-rule: evenodd;
      }
    </style>
  </defs>
  <path id="Shape" class="cls-1" d="M2169,3735.62v36.72c0,5.13-2.76,10.62-10.48,10.62h-20v6.77h3.93a1.635,1.635,0,0,1,0,3.27h-21.29a1.635,1.635,0,0,1,0-3.27h3.32v-6.77h-20c-5.06,0-10.48-2.79-10.48-10.62v-36.72c0-7.83,5.42-10.62,10.48-10.62h54.04C2163.58,3725,2169,3727.79,2169,3735.62Zm-33.71,54.11h-7.58v-6.77h7.58v6.77Zm30.48-19.73h-68.54v2.34c0,6.63,5.08,7.35,7.25,7.35h54.04c6.54,0,7.25-5.15,7.25-7.35V3770Zm0-34.31c0-6.64-5.08-7.36-7.25-7.36h-54.04c-2.17,0-7.25.72-7.25,7.36v31.06h68.54v-31.06Z" transform="translate(-2094 -3725)"/>
  <path id="Path" class="cls-1" d="M2157.68,3735.59l-13.26,17.91a1.63,1.63,0,0,1-1.27.65,1.879,1.879,0,0,1-1.29-.63l-5.74-7.51-9.35,10.53a1.337,1.337,0,0,1-.39.32,1.6,1.6,0,0,1-2.2-.58l-6.43-11.14-9.64,15.82a1.918,1.918,0,0,1-.27.46,1.6,1.6,0,0,1-2.27.2,1.625,1.625,0,0,1-.19-2.28l11.09-18.04a1.583,1.583,0,0,1,2.74.02l6.72,11.55,9.17-10.49a1.581,1.581,0,0,1,2.47.09l5.63,7.36,11.99-16.18h-0.08a1.6,1.6,0,0,1,2.25-.33A1.633,1.633,0,0,1,2157.68,3735.59Z" transform="translate(-2094 -3725)"/>
</svg>
