<svg id="Icon" xmlns="http://www.w3.org/2000/svg" width="85" height="85" viewBox="0 0 85 85">
  <defs>
    <style>
      .cls-1 {
        fill: #d39df0;
        opacity: 0.25;
      }

      .cls-2 {
        fill: #c763fd;
        fill-rule: evenodd;
        opacity: 0.35;
      }
    </style>
  </defs>
  <circle id="Oval" class="cls-1" cx="42.5" cy="42.5" r="42.5"/>
  <path id="_-e-Channel" data-name="-e-Channel" class="cls-2" d="M739.157,1685.27l2.909,2.65a2.977,2.977,0,0,1-.59,4.83h0a3.065,3.065,0,0,1-3.527-.41l-4.371-3.98a2.856,2.856,0,0,0-3.2-.37h0a2.843,2.843,0,0,1-2.138.24,2.8,2.8,0,0,1-1.684-1.32l-2.024-3.61a4.147,4.147,0,0,1,1.644-5.67l9.26-5.06a4.183,4.183,0,0,0,1.658-1.66l4.9-8.71a2.119,2.119,0,0,1,3.682,0l10.061,17.98a2.07,2.07,0,0,1-.109,2.19,2.113,2.113,0,0,1-2.027.88l-10.286-1.39a4.282,4.282,0,0,0-2.627.49l-1.265.7a1.363,1.363,0,0,0-.7,1.04,1.381,1.381,0,0,0,.435,1.18h0Z" transform="translate(-695 -1635.13)"/>
</svg>
