<svg id="Icon" xmlns="http://www.w3.org/2000/svg" width="85" height="85" viewBox="0 0 85 85">
  <defs>
    <style>
      .cls-1 {
        fill: #7bf4bb;
        opacity: 0.25;
      }

      .cls-2 {
        fill: #98f5d2;
        fill-rule: evenodd;
      }
    </style>
  </defs>
  <circle id="Oval" class="cls-1" cx="42.5" cy="42.5" r="42.5"/>
  <path id="_-e-Infographic-2" data-name="-e-Infographic-2" class="cls-2" d="M717.889,1295.27h0a4.047,4.047,0,0,1-4.132-3.96v-6.35a4.047,4.047,0,0,1,4.132-3.96h0a4.047,4.047,0,0,1,4.132,3.96v6.35a4.047,4.047,0,0,1-4.132,3.96h0Zm18.406-3.76V1281a3.957,3.957,0,0,0-4.132-3.76h0a3.957,3.957,0,0,0-4.132,3.76v10.51a3.957,3.957,0,0,0,4.132,3.76h0A3.957,3.957,0,0,0,736.3,1291.51Zm13.523-.1v-20.08a4,4,0,0,0-4.132-3.86h0a4,4,0,0,0-4.132,3.86v20.08a4,4,0,0,0,4.132,3.86h0A4,4,0,0,0,749.818,1291.41Z" transform="translate(-688 -1240)"/>
</svg>
