<svg id="Icon" xmlns="http://www.w3.org/2000/svg" width="74.998" height="74.998" viewBox="0 0 77 77">
  <defs>
    <style>
      .cls-1 {
        fill: #ff5b5b;
        stroke: #ff5b5b;
        stroke-width: 2px;
        fill-rule: evenodd;
      }
    </style>
  </defs>
  <path id="Shape" class="cls-1" d="M1760,3370.02a9.106,9.106,0,1,1-9.11-8.99,9.461,9.461,0,0,1,1.86.19,30.023,30.023,0,0,0,.75-6.6,30.529,30.529,0,0,0-14.88-26.24,1.29,1.29,0,0,1-.43-1.77,1.317,1.317,0,0,1,1.79-.42,33.091,33.091,0,0,1,16.12,28.43,32.7,32.7,0,0,1-.89,7.49A8.97,8.97,0,0,1,1760,3370.02Zm-2.6,0a6.506,6.506,0,1,0-6.51,6.41A6.473,6.473,0,0,0,1757.4,3370.02Z" transform="translate(-1684 -3312)"/>
  <path id="Shape-2" data-name="Shape" class="cls-1" d="M1735.9,3383.78a1.3,1.3,0,0,1-.7,1.69,33.575,33.575,0,0,1-36.82-7.6,8.889,8.889,0,0,1-4.35,1.13,9.03,9.03,0,1,1,6.42-2.69,30.99,30.99,0,0,0,33.77,6.78A1.291,1.291,0,0,1,1735.9,3383.78Zm-41.87-7.35a6.43,6.43,0,1,0-6.45-6.43A6.447,6.447,0,0,0,1694.03,3376.43Z" transform="translate(-1684 -3312)"/>
  <path id="Shape-3" data-name="Shape" class="cls-1" d="M1689,3351.63a33.3,33.3,0,0,1,24.72-29.69,8.994,8.994,0,1,1,.37,2.56,30.722,30.722,0,0,0-22.48,27.31,1.3,1.3,0,0,1-1.3,1.19h-0.1A1.294,1.294,0,0,1,1689,3351.63Zm27.33-29.66a6.531,6.531,0,1,0,6.53-6.41A6.481,6.481,0,0,0,1716.33,3321.97Z" transform="translate(-1684 -3312)"/>
</svg>
