<svg xmlns="http://www.w3.org/2000/svg" width="23.031" height="23.03" viewBox="0 0 23.031 23.03">
  <defs>
    <style>
      .cls-1 {
        fill: #fff;
        fill-rule: evenodd;
      }
    </style>
  </defs>
  <path id="_-e-Infographic-3" data-name="-e-Infographic-3" class="cls-1" d="M412.292,3386.04a11.3,11.3,0,0,1-2.26-22.37,1.3,1.3,0,1,1,.52,2.55,8.7,8.7,0,1,0,10.27,10.27,1.3,1.3,0,1,1,2.55.52A11.337,11.337,0,0,1,412.292,3386.04Zm1.8-22v7.9a1,1,0,0,0,1,1h7.94a1.008,1.008,0,0,0,1-1.12,10,10,0,0,0-8.81-8.81,1,1,0,0,0-1.13.99v0.04Z" transform="translate(-401 -3363)"/>
</svg>
