<svg id="Icon" xmlns="http://www.w3.org/2000/svg" width="79.689" height="75.002" viewBox="0 0 68 64">
  <defs>
    <style>
      .cls-1 {
        fill: #51e5cb;
        fill-rule: evenodd;
      }
    </style>
  </defs>
  <path id="Shape" class="cls-1" d="M2159,3261.14v47.72a8.061,8.061,0,0,1-7.97,8.14h-52.06a8.061,8.061,0,0,1-7.97-8.14v-47.72a8.061,8.061,0,0,1,7.97-8.14h52.06A8.061,8.061,0,0,1,2159,3261.14Zm-62.69,0v8.13h57.38v-8.13a2.691,2.691,0,0,0-2.66-2.72h-52.06A2.691,2.691,0,0,0,2096.31,3261.14Zm57.38,47.72v-34.17h-57.38v34.17a2.691,2.691,0,0,0,2.66,2.72h52.06A2.691,2.691,0,0,0,2153.69,3308.86Zm-50.74-42.3a2.711,2.711,0,1,0-2.65-2.71A2.683,2.683,0,0,0,2102.95,3266.56Zm9.3,0a2.71,2.71,0,1,0-2.66-2.71A2.683,2.683,0,0,0,2112.25,3266.56Zm13.55,18.58h-23.91v-5.43h23.91v5.43Zm-13.29,5.28h23.9v5.43h-23.9v-5.43Zm-10.63,10.85h23.91v5.42h-23.91v-5.42Z" transform="translate(-2091 -3253)"/>
</svg>
