<svg id="_-e-Icon" data-name="-e-Icon" xmlns="http://www.w3.org/2000/svg" width="279.194" height="250.01" viewBox="0 0 287 257">
  <defs>
    <style>
      .cls-1 {
        fill: #ffe4b5;
        fill-rule: evenodd;
      }
    </style>
  </defs>
  <g id="_Group_">
    <path id="Path" class="cls-1" d="M644.042,1015H380.958A11.954,11.954,0,0,1,369,1003.05v-233.1A11.956,11.956,0,0,1,380.958,758H644.042A11.956,11.956,0,0,1,656,769.953v50.8a2.99,2.99,0,0,1-5.979,0v-50.8a5.977,5.977,0,0,0-5.979-5.976H380.958a5.977,5.977,0,0,0-5.979,5.976v233.1a5.973,5.973,0,0,0,5.979,5.97H644.042a5.973,5.973,0,0,0,5.979-5.97V835.7a2.99,2.99,0,0,1,5.979,0V1003.05A11.954,11.954,0,0,1,644.042,1015Z" transform="translate(-369 -758)"/>
    <path id="Path-2" data-name="Path" class="cls-1" d="M641.052,793.86h-257.1a2.988,2.988,0,1,1,0-5.976h257.1A2.988,2.988,0,1,1,641.052,793.86Z" transform="translate(-369 -758)"/>
  </g>
  <path id="Path-3" data-name="Path" class="cls-1" d="M393,778h-6a3,3,0,0,1,0-6h6A3,3,0,0,1,393,778Z" transform="translate(-369 -758)"/>
  <path id="Path-4" data-name="Path" class="cls-1" d="M414,778h-6a3,3,0,0,1,0-6h6A3,3,0,0,1,414,778Z" transform="translate(-369 -758)"/>
  <path id="Path-5" data-name="Path" class="cls-1" d="M636,778H438a3,3,0,0,1,0-6H636A3,3,0,0,1,636,778Z" transform="translate(-369 -758)"/>
  <g id="_Group_2">
    <path id="Path-6" data-name="Path" class="cls-1" d="M624.037,946H426.862a2.979,2.979,0,1,1,0-5.957H624.037a2.983,2.983,0,0,0,2.988-2.978V817.935a2.984,2.984,0,0,0-2.988-2.979H402.962a2.983,2.983,0,0,0-2.987,2.979v119.13a2.982,2.982,0,0,0,2.987,2.978h8.963a2.979,2.979,0,1,1,0,5.957h-8.963A8.949,8.949,0,0,1,394,937.065V817.935A8.949,8.949,0,0,1,402.962,809H624.037A8.949,8.949,0,0,1,633,817.935v119.13A8.95,8.95,0,0,1,624.037,946Z" transform="translate(-369 -758)"/>
  </g>
  <path id="Path-7" data-name="Path" class="cls-1" d="M516,977h-6a3,3,0,0,1,0-6h6A3,3,0,0,1,516,977Z" transform="translate(-369 -758)"/>
  <path id="Path-8" data-name="Path" class="cls-1" d="M536,977h-6a3,3,0,0,1,0-6h6A3,3,0,0,1,536,977Z" transform="translate(-369 -758)"/>
  <path id="Path-9" data-name="Path" class="cls-1" d="M495,977h-6a3,3,0,0,1,0-6h6A3,3,0,0,1,495,977Z" transform="translate(-369 -758)"/>
</svg>
