<svg xmlns="http://www.w3.org/2000/svg" width="92" height="68" viewBox="0 0 92 68">
  <defs>
    <style>
      .cls-1 {
        opacity: 0.04;
      }

      .cls-2 {
        fill-rule: evenodd;
      }
    </style>
  </defs>
  <g id="Icon" class="cls-1">
    <path id="Path" class="cls-2" d="M814.635,6154.76a16.811,16.811,0,0,1,1.976,14.39c-2.6,8.16-11.131,13.85-20.756,13.85h-0.1c-7.8-.27-13.862-2.95-18.017-7.96-7.426-8.95-6.542-23.18-3.527-32.64,5.135-16.13,17.3-27.4,29.593-27.4a19.439,19.439,0,0,1,2.289.14,2.454,2.454,0,0,1,1.7.94,1.926,1.926,0,0,1,.31,1.75l-2.238,7.03a2.341,2.341,0,0,1-1.984,1.53c-10.237,1.34-15.376,13.21-17.515,20.09a23.721,23.721,0,0,1,8.51-1.53,27.606,27.606,0,0,1,6.787.87A21.356,21.356,0,0,1,814.635,6154.76Z" transform="translate(-772 -6115)"/>
    <path id="Path-2" data-name="Path" class="cls-2" d="M863.2,6169.15c-2.6,8.16-11.132,13.85-20.756,13.85h-0.1c-7.8-.27-13.863-2.95-18.017-7.96-7.426-8.95-6.542-23.18-3.529-32.64,5.136-16.13,17.306-27.4,29.594-27.4a19.387,19.387,0,0,1,2.289.14,2.45,2.45,0,0,1,1.7.94,1.923,1.923,0,0,1,.309,1.75l-2.237,7.03a2.344,2.344,0,0,1-1.984,1.53c-10.238,1.34-15.377,13.21-17.517,20.09a23.732,23.732,0,0,1,8.512-1.53,27.6,27.6,0,0,1,6.786.87,21.356,21.356,0,0,1,12.966,8.94A16.822,16.822,0,0,1,863.2,6169.15Z" transform="translate(-772 -6115)"/>
  </g>
</svg>
