<svg xmlns="http://www.w3.org/2000/svg" width="27" height="27.88" viewBox="0 0 27 27.88">
  <defs>
    <style>
      .cls-1 {
        fill: #fff;
        fill-rule: evenodd;
      }
    </style>
  </defs>
  <path id="Path" class="cls-1" d="M320.752,1880h-8.168a1.28,1.28,0,0,0,0,2.56h6.921v18.71a4,4,0,0,1-3.947,4.04H301.441a4,4,0,0,1-3.946-4.04v-18.71h6.921a1.28,1.28,0,0,0,0-2.56h-8.168a1.263,1.263,0,0,0-1.248,1.28v19.99a6.529,6.529,0,0,0,6.441,6.6h14.117a6.529,6.529,0,0,0,6.442-6.6v-19.99A1.263,1.263,0,0,0,320.752,1880Z" transform="translate(-295 -1880)"/>
</svg>
