<svg xmlns="http://www.w3.org/2000/svg" width="16.72" height="20.031" viewBox="0 0 16.72 20.031">
  <defs>
    <style>
      .cls-1 {
        fill: #fff;
        stroke: #fff;
        stroke-width: 0.5px;
        fill-rule: evenodd;
      }
    </style>
  </defs>
  <path id="Shape" class="cls-1" d="M1294.22,96.875l-1.16-12.587a0.546,0.546,0,0,0-.55-0.491h-2.39a4.011,4.011,0,0,0-8.01,0h-2.39a0.556,0.556,0,0,0-.56.491L1278,96.875v0.048a2.846,2.846,0,0,0,3.04,2.6h10.14a2.856,2.856,0,0,0,3.05-2.6A0.083,0.083,0,0,0,1294.22,96.875Zm-8.11-15.8A2.842,2.842,0,0,1,1289,83.8h-5.77A2.833,2.833,0,0,1,1286.11,81.078Zm5.07,17.366h-10.14a1.769,1.769,0,0,1-1.92-1.5l1.11-12.068h1.87v1.637a0.548,0.548,0,0,0,.56.539,0.542,0.542,0,0,0,.56-0.539V84.878H1289v1.637a0.56,0.56,0,0,0,1.12,0V84.878h1.87l1.12,12.068A1.779,1.779,0,0,1,1291.18,98.444Z" transform="translate(-1277.75 -79.75)"/>
</svg>
