<svg xmlns="http://www.w3.org/2000/svg" width="64.012" height="64.504" viewBox="0 0 65 65.5">
  <defs>
    <style>
      .cls-1 {
        fill: #c763fd;
        fill-rule: evenodd;
        opacity: 0.35;
      }
    </style>
  </defs>
  <path id="Channel" class="cls-1" d="M1205.79,1917.4l5.91,5.43a6.129,6.129,0,0,1-1.2,9.89h0a6.185,6.185,0,0,1-7.17-.86l-8.87-8.12a5.727,5.727,0,0,0-6.51-.77h0a5.716,5.716,0,0,1-4.34.49,5.659,5.659,0,0,1-3.42-2.71l-4.11-7.38a8.5,8.5,0,0,1,3.33-11.6l18.81-10.34a8.569,8.569,0,0,0,3.37-3.41l9.96-17.82a4.289,4.289,0,0,1,7.48,0l20.44,36.8a4.266,4.266,0,0,1-4.34,6.28l-20.89-2.84a8.549,8.549,0,0,0-5.34.99l-2.57,1.42a2.831,2.831,0,0,0-.54,4.55h0Z" transform="translate(-1175 -1868)"/>
</svg>
