<svg id="_-e-Icon" data-name="-e-Icon" xmlns="http://www.w3.org/2000/svg" width="38.569" height="59.997" viewBox="0 0 45 70">
  <defs>
    <style>
      .cls-1 {
        fill: #ff4c93;
        fill-rule: evenodd;
      }
    </style>
  </defs>
  <path id="Path" class="cls-1" d="M371.5,591.121A22.6,22.6,0,0,0,349,613.777c0,11.172,7.7,25.816,14.151,36.134a1.41,1.41,0,0,0,1.951.446,1.431,1.431,0,0,0,.443-1.965c-11.336-18.117-13.716-28.824-13.716-34.615a19.671,19.671,0,1,1,39.341,0c0,17.737-20.582,44.778-20.79,45.049a1.432,1.432,0,0,0,.255,2,1.409,1.409,0,0,0,1.985-.257c0.873-1.137,21.38-28.08,21.38-46.79A22.605,22.605,0,0,0,371.5,591.121Z" transform="translate(-349 -591.125)"/>
  <path id="Path-2" data-name="Path" class="cls-1" d="M372,605.949a1.414,1.414,0,0,0,0-2.828,10,10,0,1,0,7.969,3.958,1.414,1.414,0,0,0-2.253,1.71,7.1,7.1,0,0,1,1.456,4.332A7.172,7.172,0,1,1,372,605.949Z" transform="translate(-349 -591.125)"/>
</svg>
