<svg xmlns="http://www.w3.org/2000/svg" width="84.308" height="65.001" viewBox="0 0 70 53.97">
  <defs>
    <style>
      .cls-1 {
        fill: #98f5d2;
        fill-rule: evenodd;
      }
    </style>
  </defs>
  <path id="Infographic-2" class="cls-1" d="M773.021,1927.97h0a7.859,7.859,0,0,1-8.021-7.69v-12.32a7.867,7.867,0,0,1,8.021-7.7h0a7.867,7.867,0,0,1,8.021,7.7v12.32a7.859,7.859,0,0,1-8.021,7.69h0Zm35.729-7.29v-20.42c0-4.02-3.591-7.29-8.021-7.29h0c-4.43,0-8.021,3.27-8.021,7.29v20.42c0,4.03,3.591,7.29,8.021,7.29h0C805.159,1927.97,808.75,1924.71,808.75,1920.68Zm26.25-.2v-38.97a7.775,7.775,0,0,0-8.021-7.5h0a7.775,7.775,0,0,0-8.021,7.5v38.97a7.767,7.767,0,0,0,8.021,7.49h0A7.767,7.767,0,0,0,835,1920.48Z" transform="translate(-765 -1874)"/>
</svg>
