<svg xmlns="http://www.w3.org/2000/svg" width="278.562" height="250.014" viewBox="0 0 322 289">
  <defs>
    <style>
      .cls-1 {
        opacity: 0.15;
      }

      .cls-2 {
        fill: #477aff;
        fill-rule: evenodd;
      }
    </style>
  </defs>
  <g id="_-e-Icon" data-name="-e-Icon" class="cls-1">
    <g id="_Group_">
      <path id="Path" class="cls-2" d="M1200.58,2419.33H905.417A13.43,13.43,0,0,1,892,2405.89V2143.77a13.43,13.43,0,0,1,13.417-13.44H1200.58a13.433,13.433,0,0,1,13.42,13.44v53.77a3.355,3.355,0,1,1-6.71,0v-53.77a6.713,6.713,0,0,0-6.71-6.72H905.417a6.716,6.716,0,0,0-6.709,6.72v262.12a6.716,6.716,0,0,0,6.709,6.72H1200.58a6.713,6.713,0,0,0,6.71-6.72V2217.71a3.355,3.355,0,1,1,6.71,0v188.18A13.433,13.433,0,0,1,1200.58,2419.33Z" transform="translate(-892 -2130.34)"/>
      <path id="Path-2" data-name="Path" class="cls-2" d="M1197.23,2170.66H908.771a3.36,3.36,0,0,1,0-6.72H1197.23A3.36,3.36,0,0,1,1197.23,2170.66Z" transform="translate(-892 -2130.34)"/>
    </g>
    <path id="Path-3" data-name="Path" class="cls-2" d="M918.75,2153.33h-6.5a3.51,3.51,0,0,1,0-7h6.5A3.51,3.51,0,0,1,918.75,2153.33Z" transform="translate(-892 -2130.34)"/>
    <path id="Path-4" data-name="Path" class="cls-2" d="M941.75,2153.33h-6.5a3.51,3.51,0,0,1,0-7h6.5A3.51,3.51,0,0,1,941.75,2153.33Z" transform="translate(-892 -2130.34)"/>
    <path id="Path-5" data-name="Path" class="cls-2" d="M1190.65,2153.33h-221.3a3.5,3.5,0,0,1,0-7h221.3A3.5,3.5,0,0,1,1190.65,2153.33Z" transform="translate(-892 -2130.34)"/>
    <g id="_Group_2">
      <path id="Path-6" data-name="Path" class="cls-2" d="M1153.95,2368.33H999.924a3.37,3.37,0,0,1,0-6.74H1153.95a3.355,3.355,0,0,0,3.35-3.37V2223.44a3.361,3.361,0,0,0-3.35-3.37H953.045a3.36,3.36,0,0,0-3.348,3.37v134.78a3.353,3.353,0,0,0,3.348,3.37h30.137a3.37,3.37,0,0,1,0,6.74H953.045A10.073,10.073,0,0,1,943,2358.22V2223.44a10.08,10.08,0,0,1,10.045-10.11H1153.95a10.083,10.083,0,0,1,10.05,10.11v134.78A10.076,10.076,0,0,1,1153.95,2368.33Z" transform="translate(-892 -2130.34)"/>
    </g>
    <path id="Path-7" data-name="Path" class="cls-2" d="M968.75,2237.33h-6.5a3.51,3.51,0,0,1,0-7h6.5A3.51,3.51,0,0,1,968.75,2237.33Z" transform="translate(-892 -2130.34)"/>
    <path id="Path-8" data-name="Path" class="cls-2" d="M992.75,2237.33h-6.5a3.51,3.51,0,0,1,0-7h6.5A3.51,3.51,0,0,1,992.75,2237.33Z" transform="translate(-892 -2130.34)"/>
    <path id="Path-9" data-name="Path" class="cls-2" d="M1143.75,2237.33h-6.5a3.51,3.51,0,0,1,0-7h6.5A3.51,3.51,0,0,1,1143.75,2237.33Z" transform="translate(-892 -2130.34)"/>
    <g id="_Group_3">
      <path id="Shape" class="cls-2" d="M1110.32,2278.09H996.684A6.683,6.683,0,0,1,990,2271.4v-13.38a6.69,6.69,0,0,1,6.684-6.69H1110.32a6.688,6.688,0,0,1,6.68,6.69v13.38A6.681,6.681,0,0,1,1110.32,2278.09Zm-113.636-6.69H1110.32v-13.38H996.684v13.38Z" transform="translate(-892 -2130.34)"/>
      <path id="Shape-2" data-name="Shape" class="cls-2" d="M1110.32,2314.88H996.684A6.681,6.681,0,0,1,990,2308.2v-13.38a6.683,6.683,0,0,1,6.684-6.69H1110.32a6.681,6.681,0,0,1,6.68,6.69v13.38A6.679,6.679,0,0,1,1110.32,2314.88Zm-113.636-6.68H1110.32v-13.38H996.684v13.38Z" transform="translate(-892 -2130.34)"/>
      <path id="Shape-3" data-name="Shape" class="cls-2" d="M1093.61,2348.33h-26.74a6.69,6.69,0,0,1-6.69-6.69v-10.03a6.69,6.69,0,0,1,6.69-6.69h26.74a6.681,6.681,0,0,1,6.68,6.69v10.03A6.681,6.681,0,0,1,1093.61,2348.33Zm-26.74-6.69h26.74v-10.03h-26.74v10.03Z" transform="translate(-892 -2130.34)"/>
      <path id="Shape-4" data-name="Shape" class="cls-2" d="M1040.13,2348.33h-26.74a6.681,6.681,0,0,1-6.68-6.69v-10.03a6.681,6.681,0,0,1,6.68-6.69h26.74a6.69,6.69,0,0,1,6.69,6.69v10.03A6.69,6.69,0,0,1,1040.13,2348.33Zm-26.74-6.69h26.74v-10.03h-26.74v10.03Z" transform="translate(-892 -2130.34)"/>
    </g>
  </g>
</svg>
