<svg xmlns="http://www.w3.org/2000/svg" width="22.75" height="23.03" viewBox="0 0 22.75 23.03">
  <defs>
    <style>
      .cls-1 {
        fill: #fff;
        fill-rule: evenodd;
      }
    </style>
  </defs>
  <path id="_-e-Channel" data-name="-e-Channel" class="cls-1" d="M410.787,3708.38l2.07,1.91a2.16,2.16,0,0,1-.42,3.48h0a2.162,2.162,0,0,1-2.51-.3l-3.11-2.86a2,2,0,0,0-2.28-.27h0a2.008,2.008,0,0,1-2.72-.78l-1.44-2.6a3,3,0,0,1,1.17-4.08l6.59-3.64a3.039,3.039,0,0,0,1.18-1.2l3.49-6.27a1.5,1.5,0,0,1,2.62,0l7.16,12.95a1.5,1.5,0,0,1-1.52,2.21l-7.32-1a2.972,2.972,0,0,0-1.87.35l-0.9.5a1,1,0,0,0-.19,1.6h0Z" transform="translate(-400.031 -3691)"/>
</svg>
