<svg xmlns="http://www.w3.org/2000/svg" width="65.055" height="64.997" viewBox="0 0 69.031 68.97">
  <defs>
    <style>
      .cls-1 {
        fill: #ffe084;
        fill-rule: evenodd;
      }
    </style>
  </defs>
  <path id="_-e-Infographic-3" data-name="-e-Infographic-3" class="cls-1" d="M396,1942.02a33.032,33.032,0,0,1-6.605-65.39,3.8,3.8,0,1,1,1.52,7.45,25.432,25.432,0,1,0,30.015,30.02,3.8,3.8,0,1,1,7.452,1.52A33.116,33.116,0,0,1,396,1942.02Zm5.921-65.86v23.9a3.023,3.023,0,0,0,3.024,3.03h24.007a3.024,3.024,0,0,0,3.024-3.39,30.253,30.253,0,0,0-26.638-26.66,3.018,3.018,0,0,0-3.417,3v0.12Z" transform="translate(-362.969 -1873.03)"/>
</svg>
