<svg id="Icon" xmlns="http://www.w3.org/2000/svg" width="30" height="26.06" viewBox="0 0 30 26.06">
  <defs>
    <style>
      .cls-1 {
        fill: #fff;
        fill-rule: evenodd;
      }
    </style>
  </defs>
  <path id="Path" class="cls-1" d="M1838,4733.39v7.11a3.534,3.534,0,0,1-3.55,3.55h-7.11a3.534,3.534,0,0,1-3.55-3.55v-13.03a9.233,9.233,0,0,1,.75-3.67,9.458,9.458,0,0,1,5.05-5.05,9.233,9.233,0,0,1,3.67-.75h1.19a1.142,1.142,0,0,1,.83.35,1.158,1.158,0,0,1,.35.83v2.37a1.181,1.181,0,0,1-.35.84,1.142,1.142,0,0,1-.83.35h-1.19a4.712,4.712,0,0,0-4.73,4.73v0.6a1.775,1.775,0,0,0,1.77,1.77h4.15a3.428,3.428,0,0,1,2.51,1.04A3.39,3.39,0,0,1,1838,4733.39Z" transform="translate(-1808 -4718)"/>
  <path id="Path-2" data-name="Path" class="cls-1" d="M1821.17,4730.88a3.39,3.39,0,0,1,1.04,2.51v7.11a3.534,3.534,0,0,1-3.55,3.55h-7.11a3.534,3.534,0,0,1-3.55-3.55v-13.03a9.233,9.233,0,0,1,.75-3.67,9.458,9.458,0,0,1,5.05-5.05,9.233,9.233,0,0,1,3.67-.75h1.19a1.142,1.142,0,0,1,.83.35,1.158,1.158,0,0,1,.35.83v2.37a1.181,1.181,0,0,1-.35.84,1.142,1.142,0,0,1-.83.35h-1.19a4.712,4.712,0,0,0-4.73,4.73v0.6a1.758,1.758,0,0,0,1.77,1.77h4.15A3.428,3.428,0,0,1,1821.17,4730.88Z" transform="translate(-1808 -4718)"/>
</svg>
