<svg id="Icon" xmlns="http://www.w3.org/2000/svg" width="74.998" height="74.998" viewBox="0 0 70 70">
  <defs>
    <style>
      .cls-1 {
        fill: #ac74ee;
        fill-rule: evenodd;
      }
    </style>
  </defs>
  <path id="Shape" class="cls-1" d="M1689,3841.5v-27a2.476,2.476,0,0,1,2.5-2.5h27a2.476,2.476,0,0,1,2.5,2.5v27a2.476,2.476,0,0,1-2.5,2.5h-27A2.554,2.554,0,0,1,1689,3841.5Zm5-24.5h22v22h-22v-22Z" transform="translate(-1689 -3812)"/>
  <path id="Shape-2" data-name="Shape" class="cls-1" d="M1759,3841.5a2.476,2.476,0,0,1-2.5,2.5h-27a2.476,2.476,0,0,1-2.5-2.5v-27a2.476,2.476,0,0,1,2.5-2.5h27a2.476,2.476,0,0,1,2.5,2.5v27Zm-5-2.5h-22v-22h22v22h0Z" transform="translate(-1689 -3812)"/>
  <path id="Shape-3" data-name="Shape" class="cls-1" d="M1689,3879.5v-27a2.476,2.476,0,0,1,2.5-2.5h27a2.476,2.476,0,0,1,2.5,2.5v27a2.476,2.476,0,0,1-2.5,2.5h-27A2.554,2.554,0,0,1,1689,3879.5Zm5-24.5h22v22h-22v-22h0Z" transform="translate(-1689 -3812)"/>
  <path id="Shape-4" data-name="Shape" class="cls-1" d="M1759,3852.5v27a2.476,2.476,0,0,1-2.5,2.5h-27a2.476,2.476,0,0,1-2.5-2.5v-27a2.476,2.476,0,0,1,2.5-2.5h27A2.554,2.554,0,0,1,1759,3852.5Zm-5,24.5h-22v-22h22v22h0Z" transform="translate(-1689 -3812)"/>
</svg>
