<svg xmlns="http://www.w3.org/2000/svg" width="279.51" height="249.994" viewBox="0 0 300 268.32">
  <defs>
    <style>
      .cls-1 {
        opacity: 0.15;
      }

      .cls-2 {
        fill: #ff5f51;
        fill-rule: evenodd;
      }
    </style>
  </defs>
  <g id="_-e-Icon" data-name="-e-Icon" class="cls-1">
    <g id="_Group_">
      <path id="Path" class="cls-2" d="M650.5,1960.65h-275a12.491,12.491,0,0,1-12.5-12.48V1704.81a12.491,12.491,0,0,1,12.5-12.48h275a12.492,12.492,0,0,1,12.5,12.48v49.92a3.125,3.125,0,0,1-6.25,0v-49.92a6.242,6.242,0,0,0-6.25-6.24h-275a6.242,6.242,0,0,0-6.25,6.24v243.36a6.249,6.249,0,0,0,6.25,6.24h275a6.249,6.249,0,0,0,6.25-6.24V1773.45a3.125,3.125,0,0,1,6.25,0v174.72A12.492,12.492,0,0,1,650.5,1960.65Z" transform="translate(-363 -1692.34)"/>
      <path id="Path-2" data-name="Path" class="cls-2" d="M647.375,1729.77H378.625a3.12,3.12,0,1,1,0-6.24h268.75A3.12,3.12,0,1,1,647.375,1729.77Z" transform="translate(-363 -1692.34)"/>
    </g>
    <path id="Path-3" data-name="Path" class="cls-2" d="M388.5,1714.11h-6.436a2.98,2.98,0,1,1,0-5.94H388.5A2.98,2.98,0,1,1,388.5,1714.11Z" transform="translate(-363 -1692.34)"/>
    <path id="Path-4" data-name="Path" class="cls-2" d="M410.277,1714.11h-6.436a2.979,2.979,0,1,1,0-5.94h6.436A2.98,2.98,0,1,1,410.277,1714.11Z" transform="translate(-363 -1692.34)"/>
    <path id="Path-5" data-name="Path" class="cls-2" d="M641.058,1714.11H434.447a2.974,2.974,0,1,1,0-5.94H641.058A2.974,2.974,0,1,1,641.058,1714.11Z" transform="translate(-363 -1692.34)"/>
    <g id="pie-graphic">
      <path id="Shape" class="cls-2" d="M519.411,1785a2.475,2.475,0,0,0-2.471,2.48v50.08a2.474,2.474,0,0,0,2.471,2.48h52.117a2.477,2.477,0,0,0,2.472-2.48C574,1804.65,553.594,1785,519.411,1785Zm2.472,50.08V1790c29.167,0.86,46.188,17.14,47.132,45.08H521.883Zm35.132,10H519.928a2.553,2.553,0,0,0-1.854.95,2.736,2.736,0,0,0-.565,2.08,7.049,7.049,0,0,1,.105,1.03,11.188,11.188,0,1,1-11.1-11.22c0.082,0.02.521,0.06,0.6,0.06a2.255,2.255,0,0,0,1.828-.68,2.483,2.483,0,0,0,.768-1.8v-37.91a2.465,2.465,0,0,0-2.471-2.47C473,1795.12,450,1817.53,450,1850.88c0,30.35,24.047,54.12,54.747,54.12,32.739,0,54.738-23.08,54.738-57.44A2.472,2.472,0,0,0,557.015,1845.08Zm-52.268,54.96c-28.393,0-49.806-21.13-49.806-49.16,0-29.58,19.913-49.72,49.824-50.76v32.91a16.195,16.195,0,1,0,17.767,17.01H554.5C553.512,1880.51,534.206,1900.04,504.747,1900.04Z" transform="translate(-363 -1692.34)"/>
    </g>
    <path id="Path-6" data-name="Path" class="cls-2" d="M435.03,1791.34h-6.436a2.98,2.98,0,1,1,0-5.94h6.436A2.979,2.979,0,1,1,435.03,1791.34Z" transform="translate(-363 -1692.34)"/>
    <path id="Path-7" data-name="Path" class="cls-2" d="M456.812,1791.34h-6.436a2.98,2.98,0,1,1,0-5.94h6.436A2.98,2.98,0,1,1,456.812,1791.34Z" transform="translate(-363 -1692.34)"/>
    <path id="Path-8" data-name="Path" class="cls-2" d="M597.406,1791.34H590.97a2.98,2.98,0,1,1,0-5.94h6.436A2.98,2.98,0,1,1,597.406,1791.34Z" transform="translate(-363 -1692.34)"/>
  </g>
</svg>
