<svg id="Icon" xmlns="http://www.w3.org/2000/svg" width="89.599" height="75.002" viewBox="0 0 74.03 61.97">
  <defs>
    <style>
      .cls-1 {
        fill: #ffba5f;
        fill-rule: evenodd;
        opacity: 0.7;
      }
    </style>
  </defs>
  <path id="Subscribe" class="cls-1" d="M1330.43,3652.34l27.75-48.78a5.934,5.934,0,0,0-1.12-7.39,8.3,8.3,0,0,0-8.3-1.73L1290,3613.9a6.409,6.409,0,0,0,.54,12.6l12.5,2.54a3.684,3.684,0,0,0,3.23-.86,2.7,2.7,0,0,0,.76-2.88,3.233,3.233,0,0,0-2.47-2.02l-12.29-2.48a0.6,0.6,0,0,1-.54-0.59,0.794,0.794,0,0,1,.64-0.79l58.76-19.46a0.835,0.835,0,0,1,.86.17,0.626,0.626,0,0,1,.12.78l-27.86,48.74a0.913,0.913,0,0,1-.98.47,0.624,0.624,0,0,1-.61-0.44l-2.9-18.16,9.21-9.5a2.706,2.706,0,0,0-.4-4.17,3.72,3.72,0,0,0-4.76.36l-9.22,9.5a5.624,5.624,0,0,0-1.59,4.82l2.97,18.09a7.021,7.021,0,0,0,6.32,5.38h1.18A7.831,7.831,0,0,0,1330.43,3652.34Z" transform="translate(-1285 -3594.03)"/>
</svg>
